<?xml version="1.0" encoding="utf-8"?>
<!-- Generator: Adobe Illustrator 21.1.0, SVG Export Plug-In . SVG Version: 6.00 Build 0)  -->
<svg version="1.1" id="圖層_1" xmlns="http://www.w3.org/2000/svg" xmlns:xlink="http://www.w3.org/1999/xlink" x="0px" y="0px"
	 viewBox="0 0 168 167" style="enable-background:new 0 0 168 167;" xml:space="preserve">
<style type="text/css">
	.st0{fill:#836456;}
	.st1{fill:#6B4F42;}
	.st2{fill:#A87571;}
	.st3{fill:#9A6F6B;}
</style>
<path class="st0" d="M95.2,22.8c3.9-9.1-21.7-23-21.5-1.3c7.9-3.8-22.8-23.4-16,6.4c13.8-6-40.1-14.1-14,13.7
	c11.5-6.2-38.4-12.1-9.8,15.9c6.4-11-36.1-2.9-6.4,18.6C27.5,76.2,39,16.7,95.2,22.8z"/>
<path class="st1" d="M137.1,79.4c-0.3-27.7-18.1-55.9-54.4-59.8c-26.5-5-56.6,34.3-56.7,68.6c-8.7,13.3-18.8,31.4-18.8,31.4l6.6-2.1
	l2.7,6.1c-1.2-4.8,4.6-15.1,10.6-23.6c3,13.3,11.6,24.8,28.1,31.2l1.8,17.6c-28.1,3.5-10,25.9,8.2,8.4v-23.1
	c4.7,1.1,9.9,1.8,15.5,2.2c4.9,0.1,9.5-0.3,13.7-1.2l1.4,21c42.3,21.9,26.3-18.4,10.3-7.2l-4-16c19.2-6.9,30.6-23.6,33.8-42.2
	c5.2,11.7,11.6,29.8,11.6,29.8l2.2-6.9l4.4,2.6C156.5,108.5,142,86.4,137.1,79.4z"/>
<path class="st2" d="M138.9,80.3c0.5-27.9-17-56.8-53.6-60.8c-23.9-4.5-50.8,27.6-55.2,59C21.9,91,8.4,117.8,8.4,117.8l6-2.1
	l2.4,6.1c-1.3-3.2,6.9-16.6,13.2-26.1c2.2,14.1,10.4,26.6,27.3,33.5l2,19.7c-28.1,3.5-10,25.9,8.2,8.4v-24.9
	c4.8,1.1,10.1,1.9,16,2.3c4.3,0.1,8.4-0.2,12.2-0.9l1.4,21.8c42.3,21.9,25.2-18.2,9.3-7v-17.8c17-6.8,27.5-21.7,31-38.4
	c4.9,11.5,10.3,26.8,10.3,26.8l2.2-6.9l4.4,2.6C156.3,107.7,144.8,89.2,138.9,80.3z"/>
<g>
	<ellipse class="st3" cx="56.1" cy="49.7" rx="5.4" ry="5.7"/>
	<ellipse class="st3" cx="44.2" cy="55.2" rx="1.9" ry="2"/>
	<ellipse class="st3" cx="56.9" cy="63.3" rx="2.8" ry="3"/>
	<ellipse class="st3" cx="130.3" cy="55.6" rx="2.3" ry="2.4"/>
	<ellipse class="st3" cx="46" cy="115.2" rx="2.1" ry="2.2"/>
	<ellipse class="st3" cx="53.4" cy="121.8" rx="2.7" ry="2.8"/>
	<ellipse class="st3" cx="147.6" cy="105.7" rx="3.1" ry="3.3"/>
	<ellipse class="st3" cx="142.9" cy="91.2" rx="1.6" ry="1.7"/>
	<ellipse class="st3" cx="53.4" cy="158.8" rx="2.7" ry="2.8"/>
	<ellipse class="st3" cx="62.8" cy="152.5" rx="1.3" ry="1.3"/>
	<ellipse class="st3" cx="102.3" cy="152.5" rx="1.3" ry="1.3"/>
	<ellipse class="st3" cx="116.3" cy="156.3" rx="3.7" ry="3.8"/>
</g>
</svg>
