<?xml version="1.0" encoding="utf-8"?>
<!-- Generator: Adobe Illustrator 21.1.0, SVG Export Plug-In . SVG Version: 6.00 Build 0)  -->
<svg version="1.1" id="圖層_1" xmlns="http://www.w3.org/2000/svg" xmlns:xlink="http://www.w3.org/1999/xlink" x="0px" y="0px"
	 viewBox="0 0 168 167" style="enable-background:new 0 0 168 167;" xml:space="preserve">
<style type="text/css">
	.st0{display:none;}
	.st1{display:inline;}
	.st2{fill:#B88A83;}
	.st3{opacity:0.59;fill:#8F685C;enable-background:new    ;}
	.st4{opacity:0.35;fill:#B88A83;enable-background:new    ;}
	.st5{display:inline;fill:#8C6B65;}
	.st6{fill:#524F4F;}
	.st7{fill:#A2A2A2;}
	.st8{opacity:0.59;fill:#7D7D7D;enable-background:new    ;}
	.st9{opacity:0.35;fill:#524F4F;enable-background:new    ;}
	.st10{fill:#727171;}
</style>
<g class="st0">
	<g class="st1">
		<path class="st2" d="M80.9,10.7c0,0.5-2.4,1.3-2.2,1.4"/>
		<path class="st2" d="M107.8,6.2c0.1,0,0.3,0,0.4,0c0.3,0.1,0.5,0.3,0.8,0.5c2.6,2.5,4.6,5.6,5.9,9c0.9,2.1,3.1,3.3,4.6,4.8
			c7.4,7.1,11.5,17,13,27c1.2,8.1,1,16.1,1.3,24.2c0.1,2.3,1.1,3.7,2.3,5.6c2,3.1,3.8,6.3,5.7,9.5c2.6,4.3,4.8,9,6,14
			c0.7,2.7,1,5.6,0.3,8.3c-0.4,1.6-1.4,3.2-2.9,3.7c-2.3,0.9-5.8-0.5-6.9-2.8c-0.7-1.5,0.4-2.4,1.3-3.3c0.8-0.8,1.5-1.8,1.9-2.8
			c0.8-2.1,0.8-4.4,0.2-6.5c-0.6-2-1.8-3.8-3.1-5.4c-1-1.2-2.8-3.5-4.6-3.7c-1.5-0.2,0.2,1.8-2,11.9c-0.7,3.4-1.6,6.7-2.6,10
			c-3.2,10.1-8,19.9-15.6,27.4c-7.4,7.3-16.7,12.6-26.8,15.1c-10.3,2.5-21.6,2.5-31.2-2.4c-8.5-4.4-15.4-13.6-14.2-23.5
			c0.1-0.6,0.1-1.2,0.3-1.8c1.4,1.5,2.5,3.4,3.8,5c2.2,2.6,4.9,5.1,8.4,5.8c2.5,0.5,6.1-0.2,7.5-2.6c1.6-2.6,0.6-6.2,0.4-9
			c-0.2-4-0.7-8-1.2-12c-1.1-8.4-1.6-17-4.2-25.1c-2.7,1.1-5.2,2.6-7.5,4.3c-1.6,1.2-3.3,2.6-4.4,4.3c-1.6,2.5-0.7,4.1,0.2,6.6
			c0.7,1.9,0.9,4.8-0.6,6.4c-2.4,2.6-6.4,0.3-7.1-2.6c-0.7-2.7,0.3-5.7,1.1-8.3c1-3.4,2.7-6.5,4.7-9.4c1.6-2.3,3.2-4.5,5-6.6
			c1.6-1.9,3.5-3.4,5-5.3c1.4-1.8,0.5-4.3,0.3-6.4c-0.2-2.2-0.5-4.4-0.6-6.6c-0.2-3.9-0.4-7.9-0.5-11.8c-0.1-5.3,0-10.7,0.9-15.9
			c0.6-3.7,1.9-7.3,4-10.4c1.6-2.4,3.4-4.9,5.6-6.5c2.8-2,6.1-3.3,8.7-5.6c0,0,1.7-6.5,3.3-7.1c1.7-0.6,4.1-0.3,5.6,3.8
			c6.1-0.1,12.2-0.1,18.3,0.3c1.7,0.1,3.5,0.2,5.2,0.8c1.5,0.5,1.5-1.7,1.9-2.6C105.9,7.2,106.7,6.2,107.8,6.2z"/>
		<path class="st3" d="M42.8,88.3c1.6-2.3,3.2-4.5,5-6.6c1.6-1.9,3.5-3.4,5-5.3c1.4-1.8,0.5-4.3,0.3-6.4c-0.2-2.2-0.5-4.4-0.6-6.6
			c-0.2-3.9-0.4-7.9-0.5-11.8c-0.1-5.3,0-10.7,0.9-15.9c0.6-3.7,1.9-7.3,4-10.4c1.6-2.4,3.4-4.9,5.6-6.5c0.1-0.1,0.2-0.2,0.3-0.2
			c2,22.3,6.8,50.7,18.6,81.9c7.8,20.8,15.9,35.4,20.6,46.3c-4.7,2.7-9.7,4.7-14.9,6c-10.3,2.5-21.6,2.5-31.2-2.4
			c-8.5-4.4-15.4-13.6-14.2-23.5c0.1-0.6,0.1-1.2,0.3-1.8c1.4,1.5,2.5,3.4,3.8,5c2.2,2.6,4.9,5.1,8.4,5.8c2.5,0.5,6.1-0.2,7.5-2.6
			c1.6-2.6,0.6-6.2,0.4-9c-0.2-4-0.7-8-1.2-12c-1.1-8.4-1.6-17-4.2-25.1c-2.7,1.1-5.2,2.6-7.5,4.3c-1.6,1.2-3.3,2.6-4.4,4.3
			c-1.6,2.5-0.7,4.1,0.2,6.6c0.7,1.9,0.9,4.8-0.6,6.4c-2.4,2.6-6.4,0.3-7.1-2.6c-0.7-2.7,0.3-5.7,1.1-8.3
			C39.1,94.3,40.8,91.1,42.8,88.3z"/>
		<path class="st4" d="M74.9,5.8v6.3L71.1,13C71.1,13,73.5,5.3,74.9,5.8z"/>
		<path class="st2" d="M107,6.6c0,0,0.6,5,0,5c-0.6,0.1-3.3-0.7-3.3-0.7S106.5,6,107,6.6z"/>
	</g>
	<path class="st5" d="M42.8,88.2c1.6-2.3,3.2-4.5,5-6.6c1.6-1.9,3.5-3.4,5-5.3c1.4-1.8,0.5-4.3,0.3-6.4c-0.2-2.2-0.5-4.4-0.6-6.6
		c0-1-0.1-2-0.2-2.9c3,6.6,7,14,12.4,21.6c2.1,3,9.9,13.6,23,24.4c8.6,7.1,13,10.7,20.3,13.5c6.4,2.5,11.8,3.1,16,3.6
		c-2.7,5.2-6,10-10.1,14.1c-7.4,7.3-16.7,12.6-26.8,15.1c-10.3,2.5-21.6,2.5-31.2-2.4c-8.5-4.4-15.4-13.6-14.2-23.5
		c0.1-0.6,0.1-1.2,0.3-1.8c1.4,1.5,2.5,3.4,3.8,5c2.2,2.6,4.9,5.1,8.4,5.8c2.5,0.5,6.1-0.2,7.5-2.6c1.6-2.6,0.6-6.2,0.4-9
		c-0.2-4-0.7-8-1.2-12c-1.1-8.4-1.6-17-4.2-25.1c-2.7,1.1-5.2,2.6-7.5,4.3c-1.6,1.2-3.3,2.6-4.4,4.3c-1.6,2.5-0.7,4.1,0.2,6.6
		c0.7,1.9,0.9,4.8-0.6,6.4c-2.4,2.6-6.4,0.3-7.1-2.6c-0.7-2.7,0.3-5.7,1.1-8.3C39.1,94.2,40.8,91.1,42.8,88.2z"/>
</g>
<g>
	<g>
		<path class="st6" d="M68.9,10.9c0,0.5-2.4,1.3-2.2,1.4"/>
		<path class="st7" d="M95.8,6.4c0.1,0,0.3,0,0.4,0c0.3,0.1,0.5,0.3,0.8,0.5c2.6,2.5,4.6,5.6,5.9,9c0.9,2.1,3.1,3.3,4.6,4.8
			c7.4,7.1,11.5,17,13,27c1.2,8.1,1,16.1,1.3,24.2c0.1,2.3,1.1,3.7,2.3,5.6c2,3.1,3.8,6.3,5.7,9.5c2.6,4.3,4.8,9,6,14
			c0.7,2.7,1,5.6,0.3,8.3c-0.4,1.6-1.4,3.2-2.9,3.7c-2.3,0.9-5.8-0.5-6.9-2.8c-0.7-1.5,0.4-2.4,1.3-3.3c0.8-0.8,1.5-1.8,1.9-2.8
			c0.8-2.1,0.8-4.4,0.2-6.5c-0.6-2-1.8-3.8-3.1-5.4c-1-1.2-2.8-3.5-4.6-3.7c-1.5-0.2,0.2,1.8-2,11.9c-0.7,3.4-1.6,6.7-2.6,10
			c-3.2,10.1-8,19.9-15.6,27.4c-7.4,7.3-16.7,12.6-26.8,15.1c-10.3,2.5-21.6,2.5-31.2-2.4c-8.5-4.4-15.4-13.6-14.2-23.5
			c0.1-0.6,0.1-1.2,0.3-1.8c1.4,1.5,2.5,3.4,3.8,5c2.2,2.6,4.9,5.1,8.4,5.8c2.5,0.5,6.1-0.2,7.5-2.6c1.6-2.6,0.6-6.2,0.4-9
			c-0.2-4-0.7-8-1.2-12c-1.1-8.4-1.6-17-4.2-25.1c-2.7,1.1-5.2,2.6-7.5,4.3c-1.6,1.2-3.3,2.6-4.4,4.3c-1.6,2.5-0.7,4.1,0.2,6.6
			c0.7,1.9,0.9,4.8-0.6,6.4c-2.4,2.6-6.4,0.3-7.1-2.6c-0.7-2.7,0.3-5.7,1.1-8.3c1-3.4,2.7-6.5,4.7-9.4c1.6-2.3,3.2-4.5,5-6.6
			c1.6-1.9,3.5-3.4,5-5.3c1.4-1.8,0.5-4.3,0.3-6.4c-0.2-2.2-0.5-4.4-0.6-6.6c-0.2-3.9-0.4-7.9-0.5-11.8c-0.1-5.3,0-10.7,0.9-15.9
			c0.6-3.7,1.9-7.3,4-10.4c1.6-2.4,3.4-4.9,5.6-6.5c2.8-2,6.1-3.3,8.7-5.6c0,0,1.7-6.5,3.3-7.1c1.7-0.6,4.1-0.3,5.6,3.8
			c6.1-0.1,12.2-0.1,18.3,0.3c1.7,0.1,3.5,0.2,5.2,0.8c1.5,0.5,1.5-1.7,1.9-2.6C93.9,7.4,94.7,6.4,95.8,6.4z"/>
		<path class="st8" d="M30.8,88.5c1.6-2.3,3.2-4.5,5-6.6c1.6-1.9,3.5-3.4,5-5.3c1.4-1.8,0.5-4.3,0.3-6.4c-0.2-2.2-0.5-4.4-0.6-6.6
			c-0.2-3.9-0.4-7.9-0.5-11.8c-0.1-5.3,0-10.7,0.9-15.9c0.6-3.7,1.9-7.3,4-10.4c1.6-2.4,3.4-4.9,5.6-6.5c0.1-0.1,0.2-0.2,0.3-0.2
			c2,22.3,6.8,50.7,18.6,81.9c7.8,20.8,15.9,35.4,20.6,46.3c-4.7,2.7-9.7,4.7-14.9,6c-10.3,2.5-21.6,2.5-31.2-2.4
			c-8.5-4.4-15.4-13.6-14.2-23.5c0.1-0.6,0.1-1.2,0.3-1.8c1.4,1.5,2.5,3.4,3.8,5c2.2,2.6,4.9,5.1,8.4,5.8c2.5,0.5,6.1-0.2,7.5-2.6
			c1.6-2.6,0.6-6.2,0.4-9c-0.2-4-0.7-8-1.2-12c-1.1-8.4-1.6-17-4.2-25.1c-2.7,1.1-5.2,2.6-7.5,4.3c-1.6,1.2-3.3,2.6-4.4,4.3
			c-1.6,2.5-0.7,4.1,0.2,6.6c0.7,1.9,0.9,4.8-0.6,6.4c-2.4,2.6-6.4,0.3-7.1-2.6c-0.7-2.7,0.3-5.7,1.1-8.3
			C27.1,94.5,28.8,91.3,30.8,88.5z"/>
		<path class="st9" d="M62.9,6v6.3l-3.8,0.9C59.1,13.2,61.5,5.5,62.9,6z"/>
		<path class="st6" d="M95,6.8c0,0,0.6,5,0,5c-0.6,0.1-3.3-0.7-3.3-0.7S94.5,6.2,95,6.8z"/>
	</g>
	<path class="st10" d="M30.8,88.4c1.6-2.3,3.2-4.5,5-6.6c1.6-1.9,3.5-3.4,5-5.3c1.4-1.8,0.5-4.3,0.3-6.4c-0.2-2.2-0.5-4.4-0.6-6.6
		c0-1-0.1-2-0.2-2.9c3,6.6,7,14,12.4,21.6c2.1,3,9.9,13.6,23,24.4c8.6,7.1,13,10.7,20.3,13.5c6.4,2.5,11.8,3.1,16,3.6
		c-2.7,5.2-6,10-10.1,14.1c-7.4,7.3-16.7,12.6-26.8,15.1c-10.3,2.5-21.6,2.5-31.2-2.4c-8.5-4.4-15.4-13.6-14.2-23.5
		c0.1-0.6,0.1-1.2,0.3-1.8c1.4,1.5,2.5,3.4,3.8,5c2.2,2.6,4.9,5.1,8.4,5.8c2.5,0.5,6.1-0.2,7.5-2.6c1.6-2.6,0.6-6.2,0.4-9
		c-0.2-4-0.7-8-1.2-12c-1.1-8.4-1.6-17-4.2-25.1c-2.7,1.1-5.2,2.6-7.5,4.3c-1.6,1.2-3.3,2.6-4.4,4.3c-1.6,2.5-0.7,4.1,0.2,6.6
		c0.7,1.9,0.9,4.8-0.6,6.4c-2.4,2.6-6.4,0.3-7.1-2.6c-0.7-2.7,0.3-5.7,1.1-8.3C27.1,94.4,28.8,91.3,30.8,88.4z"/>
</g>
</svg>
