<?xml version="1.0" encoding="utf-8"?>
<!-- Generator: Adobe Illustrator 21.1.0, SVG Export Plug-In . SVG Version: 6.00 Build 0)  -->
<svg version="1.1" id="圖層_1" xmlns="http://www.w3.org/2000/svg" xmlns:xlink="http://www.w3.org/1999/xlink" x="0px" y="0px"
	 viewBox="0 0 168 167" style="enable-background:new 0 0 168 167;" xml:space="preserve">
<style type="text/css">
	.st0{opacity:0.58;fill:url(#SVGID_1_);enable-background:new    ;}
	.st1{fill:#855E59;}
	.st2{fill:#9A6F6B;}
	.st3{fill:url(#SVGID_2_);}
	.st4{fill:url(#SVGID_3_);}
</style>
<g>
	
		<linearGradient id="SVGID_1_" gradientUnits="userSpaceOnUse" x1="63.1192" y1="740.7516" x2="94.7784" y2="814.6243" gradientTransform="matrix(1 0 0 1 0 -702)">
		<stop  offset="0.108" style="stop-color:#040000"/>
		<stop  offset="0.146" style="stop-color:#211F1E"/>
		<stop  offset="0.3136" style="stop-color:#58504C"/>
		<stop  offset="0.4761" style="stop-color:#695A52"/>
		<stop  offset="0.6298" style="stop-color:#6E584D"/>
		<stop  offset="0.7726" style="stop-color:#6D5447"/>
		<stop  offset="0.9002" style="stop-color:#6C4F43"/>
		<stop  offset="1" style="stop-color:#6B4F42"/>
	</linearGradient>
	<path class="st0" d="M81.6,19.8c0,0-9.5-0.6-15.3,1.1c-5.8,1.7-8.2,3.1-10.8,6C47,36.1,44.9,49.2,44.9,61.8
		c0,7.6,0.4,15.2,0.5,22.8c0.1,5.6,0.1,11.3,0.2,16.9c0.1,4.3,0.1,8.7,0.2,13c0,2.9,0.1,5.8,0.1,8.7c0,0.1,0,0.2,0,0.3c0,4,0,4,0,4
		l3.7-5.7l4.2,9.1l4.2-9.1l3.7,11.4l4.2-13.7l4.8,14.3l4.8-13.1l5.3,11.4l5.3-10.9l5.8,13.7l4.2-13.1l4.2,12l4.2-13.7l5.3,12
		l4.2-12.6l5.3,6.3c0,0,1.1-37.2,0.5-42.3c0-5.1,0.5-26.3,0-33.2s-0.5-9.1-2.1-13.1s-4.2-7.4-9-11.4s-11.1-5.1-15.9-5.7
		C88.2,19.5,81.6,19.8,81.6,19.8z"/>
	<path class="st1" d="M52.2,61.1c-1.7-3.2-7.9-0.2-10,1c-3.4,2-6.3,4.9-8.5,8.2c-7.5,11.1-11.3,26.5-7.3,39.8
		c0.1,0.3,0.2,0.6,0.3,0.9l0,0c0,0,0.5,4.7,1.3,7.1c0.7,1.6,1.5,3.2,3.3,4.7c1.8,1.6,2.9,0.4,2.9,0.4s0.4-3.2-0.4-4.7
		c0,0,2.2,4.4,4,2.8s-1.1-5.9-2.2-7.1c0,0,6.2,2,6.9-0.4s-1.5-3.2-4.4-3.6s-2.9-0.4-4-2c-4.2-10.6,2.1-30.1,10-37
		c1-0.9,2.1-1.7,3.2-2.5c1.3-0.9,2.5-1.9,3.5-3.1C52.1,64.5,53,62.5,52.2,61.1z"/>
	<path class="st2" d="M30,119.3c-0.5-1-0.9-2-1.2-3.1c-0.3-0.9-0.6-1.8-0.7-2.7c-0.4-0.3-0.7-0.7-1.1-1.1c0.2,1.6,0.6,4.1,1.1,5.7
		c0.7,1.6,1.5,3.2,3.3,4.7c0.3,0.3,0.7,0.5,0.9,0.6C31.2,122.4,30.7,120.8,30,119.3z"/>
	<path class="st2" d="M32.9,115.8c-0.2-0.2-0.4-0.4-0.5-0.6c0.2,0.6,0.4,1.1,0.7,1.7c0.4,0.7,0.7,1.6,1,2.4
		c-0.1-0.3-0.1-0.5-0.2-0.7c0,0,2.2,4.4,4,2.8c0.1-0.1,0.2-0.2,0.3-0.3C36.5,119.3,34.6,117.7,32.9,115.8z"/>
	<path class="st2" d="M44.7,70.1L44.7,70.1c0,0-0.1,0-0.2,0.1c-0.4,0.1-0.7,0.5-1,0.8c-1.5,1.2-2.9,2.4-4.1,4
		c-1.2,1.6-2,3.5-2.9,5.3c-1,1.8-1.8,3.7-2.5,5.7c-0.6,1.8-1.2,3.6-1.6,5.5c0,0.4,0,0.9,0,1.3c-0.1,1.8-0.3,3.7-0.2,5.5
		c0,2,0.5,4,1,5.9c0.1,0.4,0.3,0.7,0.5,1c-2.2-11,3.7-27.7,10.9-33.9c0.2-0.2,0.4-0.3,0.5-0.5C44.8,70.5,44.8,70.3,44.7,70.1z"/>
	<path class="st2" d="M39.3,114.2c-1.3-0.3-2.5-0.9-3.7-1.6c-0.1,0-0.1,0-0.2,0c0.2,0.3,0.5,0.5,0.7,0.8c0.4,0.4,0.8,0.8,1.2,1.2
		c1.5,0.3,3.8,0.6,4.8-0.1C41.2,114.6,40.2,114.4,39.3,114.2z"/>
	<path class="st1" d="M131.2,66.9c-2.6-3-5.8-5.6-9.4-7.1c-2.2-0.9-8.6-3.1-10,0.3c-0.6,1.5,0.5,3.3,1.7,4.4
		c1.2,1.1,2.5,1.9,3.9,2.7c1.2,0.7,2.3,1.3,3.5,2c8.1,5.4,16.1,22.3,14.5,33.5l0,0c-1.1,1.6-1.1,1.6-3.9,2c-2.8,0.4-5,1.2-4.2,3.6
		c0.7,2.4,6.7,0.4,6.7,0.4c-1.1,1.2-3.9,5.5-2.1,7.1c1.8,1.6,3.9-2.8,3.9-2.8c-0.7,1.6-0.4,4.7-0.4,4.7s1.1,1.2,2.8-0.4
		c1.8-1.6,2.5-3.2,3.2-4.7c0.4-1.5,0.8-3.9,1-5.5c0.3-0.5,0.4-1,0.6-1.6C145.4,91.7,139.9,76.9,131.2,66.9z"/>
	<path class="st2" d="M135.3,102.5c0.3-0.4,0.5-0.9,0.7-1.4c0.2-0.8,0.3-1.7,0.5-2.6c-0.1-1.3-0.1-2.6-0.3-3.9
		c-0.4-2.7-1.2-5.4-2.2-7.9c-1.8-4.8-4.5-9.8-7.6-13.7c-2.7-3.4-6.3-6.4-10.2-7.6c-0.8-0.3-1.6-0.5-2.5-0.7c1.1,1,2.4,1.8,3.7,2.5
		c1.2,0.7,2.3,1.3,3.5,2C128.9,74.6,136.8,91.3,135.3,102.5z"/>
	<path class="st2" d="M134,108.7c0-0.2,0.1-0.3,0.2-0.5c0-0.1,0.1-0.2,0.1-0.2c-2.4,0.4-4.6,0.6-7,0.5
		C128.3,110.5,133.9,108.7,134,108.7c-0.1,0-0.2,0.1-0.2,0.2C133.8,108.8,133.9,108.7,134,108.7z"/>
	<path class="st2" d="M135.4,113.7c0.1-0.2,0.2-0.3,0.2-0.5s0-0.3-0.1-0.5c-0.1,0.1-0.3,0.2-0.5,0.3c-0.3,0.4-0.6,0.8-0.9,0.9
		c0,0-0.1,0.1-0.2,0.1l0,0c-0.1,0-0.1,0.1-0.2,0.1c-0.2,0.2-0.4,0.3-0.5,0.5c-0.5,0.4-1,0.8-1.5,1c1.8,1.5,3.9-2.8,3.9-2.8
		C135.5,113.2,135.5,113.4,135.4,113.7z"/>
	<path class="st2" d="M141.6,109.6c-0.3,1.8-1.3,3.5-2.2,5.1c-0.2,0.4-0.5,0.7-0.9,1c0,0,0,0.1-0.1,0.1c-0.2,0.3-0.4,0.6-0.6,0.8
		c-0.1,0.1-0.2,0.1-0.2,0.2c0,0,0,0.1-0.1,0.1c-0.2,0.4-0.7,0.9-1.3,1.2c0.5,0,1.1-0.1,1.9-0.8c1.8-1.6,2.5-3.2,3.2-4.7
		c0.3-0.9,0.5-2.2,0.7-3.4C141.9,109.4,141.8,109.5,141.6,109.6z"/>
	<polygon class="st1" points="85.5,115 85.5,158.1 112.2,161.3 98.3,147.4 98.6,115 	"/>
	<path class="st2" d="M87.2,132c1.9,1.9,3.4,4.6,4.6,7c0.7-1,1.4-2,2.1-3c0.1-0.1,0.7-1.2,0.5-0.8c0.2-0.4,0.5-0.8,0.7-1.2
		c0.6-1,1.1-2.1,1.6-3.2s1-2.2,1.4-3.3c0.1-0.3,0.2-0.6,0.3-0.8l0.1-11.7h-13v14C86,130,86.6,131,87.2,132z"/>
	<polygon class="st1" points="79.3,115 79.3,158.1 52.6,161.3 66.5,147.4 66.1,115 	"/>
	<path class="st2" d="M69.7,137.4c0.1,0.1,0.2,0.1,0.2,0.2c0.5-0.8,1.1-1.6,1.7-2.4c0.8-1.9,2-3.6,3-5.1c0.6-0.9,1.2-1.9,1.9-2.8
		c0.3-0.5,0.7-1,1-1.5c-0.1,0.1,0.7-1.3,0.8-1.5c0.3-0.6,0.6-1.1,1-1.6V115H66.1l0.2,14.4C67.9,131.7,68.8,134.6,69.7,137.4z"/>
	
		<linearGradient id="SVGID_2_" gradientUnits="userSpaceOnUse" x1="65.882" y1="731.3771" x2="92.0295" y2="818.2961" gradientTransform="matrix(1 0 0 1 0 -702)">
		<stop  offset="0" style="stop-color:#AD827A"/>
		<stop  offset="0.6241" style="stop-color:#B08178"/>
		<stop  offset="0.8706" style="stop-color:#B47D72"/>
		<stop  offset="1" style="stop-color:#B9796C"/>
	</linearGradient>
	<path class="st3" d="M81,18.1c0,0-9.5-0.6-15.3,1.1c-5.8,1.7-8.2,3.1-10.8,6c-8.5,9.2-10.6,22.3-10.6,34.9c0,7.6,0.4,15.2,0.5,22.8
		c0.1,5.6,0.1,11.3,0.2,16.9c0.1,4.3,0.1,8.7,0.2,13c0,2.9,0.1,5.8,0.1,8.7c0,0.1,0,0.2,0,0.3c0,4,0,4,0,4l3.7-5.7l4.2,9.1l4.2-9.1
		l3.7,11.4l4.2-13.7l4.8,14.3L75,119l5.3,11.4l5.3-10.9l5.8,13.7l4.2-13.1l4.2,12l4.2-13.7l5.3,12l4.2-12.6l5.3,6.3
		c0,0,1.1-37.2,0.5-42.3c0-5.1,0.5-26.3,0-33.2s-0.5-9.1-2.1-13.1s-4.2-7.4-9-11.4S97.1,19,92.3,18.4C87.6,17.8,81,18.1,81,18.1z"/>
	
		<linearGradient id="SVGID_3_" gradientUnits="userSpaceOnUse" x1="73.2278" y1="729.8526" x2="90.1684" y2="836.3927" gradientTransform="matrix(1 0 0 1 0 -702)">
		<stop  offset="0" style="stop-color:#FFFFFF;stop-opacity:0"/>
		<stop  offset="0.3731" style="stop-color:#FEFEFE;stop-opacity:0.1892"/>
		<stop  offset="0.5076" style="stop-color:#F4F4F3;stop-opacity:0.2574"/>
		<stop  offset="0.6034" style="stop-color:#E4E2E0;stop-opacity:0.306"/>
		<stop  offset="0.6809" style="stop-color:#CCC9C6;stop-opacity:0.3453"/>
		<stop  offset="0.7473" style="stop-color:#B1AAA5;stop-opacity:0.379"/>
		<stop  offset="0.8061" style="stop-color:#908883;stop-opacity:0.4088"/>
		<stop  offset="0.8593" style="stop-color:#6C625E;stop-opacity:0.4358"/>
		<stop  offset="0.9081" style="stop-color:#473F3B;stop-opacity:0.4605"/>
		<stop  offset="0.9516" style="stop-color:#201F1C;stop-opacity:0.4826"/>
		<stop  offset="0.9859" style="stop-color:#070001;stop-opacity:0.5"/>
	</linearGradient>
	<path class="st4" d="M81,18.2c0,0-9.5-0.6-15.3,1.1c-5.8,1.7-8.2,3.1-10.8,5.9c-8.5,9-10.6,21.8-10.6,34c0,7.4,0.4,14.8,0.5,22.3
		c0.1,5.5,0.1,11,0.2,16.5c0.1,4.2,0.1,8.4,0.2,12.7c0,2.8,0.1,5.7,0.1,8.5c0,0.1,0,0.2,0,0.3c0,3.9,0,3.9,0,3.9l3.7-5.6l4.2,8.9
		l4.2-8.9l3.7,11.1l4.2-13.4l4.7,13.9l4.7-12.8l5.3,11.1l5.3-10.6l5.8,13.4l4.2-12.8l4.2,11.7l4.2-13.4l5.3,11.7l4.2-12.3l5.3,6.1
		c0,0,1.1-36.2,0.5-41.2c0-5,0.5-25.6,0-32.3s-0.5-8.9-2.1-12.8s-4.2-7.2-9-11.1c-4.7-3.9-11.1-5-15.8-5.6
		C87.6,17.9,81,18.2,81,18.2z"/>
</g>
</svg>
