<?xml version="1.0" encoding="utf-8"?>
<!-- Generator: Adobe Illustrator 21.1.0, SVG Export Plug-In . SVG Version: 6.00 Build 0)  -->
<svg version="1.1" id="圖層_1" xmlns="http://www.w3.org/2000/svg" xmlns:xlink="http://www.w3.org/1999/xlink" x="0px" y="0px"
	 viewBox="0 0 168 167" style="enable-background:new 0 0 168 167;" xml:space="preserve">
<style type="text/css">
	.st0{display:none;}
	.st1{display:inline;}
	.st2{opacity:0.58;fill:url(#SVGID_1_);enable-background:new    ;}
	.st3{fill:#855E59;}
	.st4{fill:#9A6F6B;}
	.st5{fill:url(#SVGID_2_);}
	.st6{fill:url(#SVGID_3_);}
	.st7{fill:#555656;}
	.st8{opacity:0.58;fill:url(#SVGID_4_);enable-background:new    ;}
	.st9{fill:#727171;}
	.st10{fill:#44403F;}
	.st11{fill:#9B9B9B;}
</style>
<g class="st0">
	<g class="st1">
		
			<linearGradient id="SVGID_1_" gradientUnits="userSpaceOnUse" x1="60.1192" y1="733.7516" x2="91.7784" y2="807.6243" gradientTransform="matrix(1 0 0 1 0 -702)">
			<stop  offset="0.108" style="stop-color:#040000"/>
			<stop  offset="0.146" style="stop-color:#211F1E"/>
			<stop  offset="0.3136" style="stop-color:#58504C"/>
			<stop  offset="0.4761" style="stop-color:#695A52"/>
			<stop  offset="0.6298" style="stop-color:#6E584D"/>
			<stop  offset="0.7726" style="stop-color:#6D5447"/>
			<stop  offset="0.9002" style="stop-color:#6C4F43"/>
			<stop  offset="1" style="stop-color:#6B4F42"/>
		</linearGradient>
		<path class="st2" d="M78.6,12.8c0,0-9.5-0.6-15.3,1.1s-8.2,3.1-10.8,6C44,29.1,41.9,42.2,41.9,54.8c0,7.6,0.4,15.2,0.5,22.8
			c0.1,5.6,0.1,11.3,0.2,16.9c0.1,4.3,0.1,8.7,0.2,13c0,2.9,0.1,5.8,0.1,8.7c0,0.1,0,0.2,0,0.3c0,4,0,4,0,4l3.7-5.7l4.2,9.1l4.2-9.1
			l3.7,11.4l4.2-13.7l4.8,14.3l4.8-13.1l5.3,11.4l5.3-10.9l5.8,13.7l4.2-13.1l4.2,12l4.2-13.7l5.3,12l4.2-12.6l5.3,6.3
			c0,0,1.1-37.2,0.5-42.3c0-5.1,0.5-26.3,0-33.2s-0.5-9.1-2.1-13.1s-4.2-7.4-9-11.4s-11.1-5.1-15.9-5.7
			C85.2,12.5,78.6,12.8,78.6,12.8z"/>
		<path class="st3" d="M49.2,54.1c-1.7-3.2-7.9-0.2-10,1c-3.4,2-6.3,4.9-8.5,8.2c-7.5,11.1-11.3,26.5-7.3,39.8
			c0.1,0.3,0.2,0.6,0.3,0.9l0,0c0,0,0.5,4.7,1.3,7.1c0.7,1.6,1.5,3.2,3.3,4.7c1.8,1.6,2.9,0.4,2.9,0.4s0.4-3.2-0.4-4.7
			c0,0,2.2,4.4,4,2.8s-1.1-5.9-2.2-7.1c0,0,6.2,2,6.9-0.4s-1.5-3.2-4.4-3.6s-2.9-0.4-4-2c-4.2-10.6,2.1-30.1,10-37
			c1-0.9,2.1-1.7,3.2-2.5c1.3-0.9,2.5-1.9,3.5-3.1C49.1,57.5,50,55.5,49.2,54.1z"/>
		<path class="st4" d="M27,112.3c-0.5-1-0.9-2-1.2-3.1c-0.3-0.9-0.6-1.8-0.7-2.7c-0.4-0.3-0.7-0.7-1.1-1.1c0.2,1.6,0.6,4.1,1.1,5.7
			c0.7,1.6,1.5,3.2,3.3,4.7c0.3,0.3,0.7,0.5,0.9,0.6C28.2,115.4,27.7,113.8,27,112.3z"/>
		<path class="st4" d="M29.9,108.8c-0.2-0.2-0.4-0.4-0.5-0.6c0.2,0.6,0.4,1.1,0.7,1.7c0.4,0.7,0.7,1.6,1,2.4
			c-0.1-0.3-0.1-0.5-0.2-0.7c0,0,2.2,4.4,4,2.8c0.1-0.1,0.2-0.2,0.3-0.3C33.5,112.3,31.6,110.7,29.9,108.8z"/>
		<path class="st4" d="M41.7,63.1L41.7,63.1c0,0-0.1,0-0.2,0.1c-0.4,0.1-0.7,0.5-1,0.8c-1.5,1.2-2.9,2.4-4.1,4
			c-1.2,1.6-2,3.5-2.9,5.3c-1,1.8-1.8,3.7-2.5,5.7c-0.6,1.8-1.2,3.6-1.6,5.5c0,0.4,0,0.9,0,1.3c-0.1,1.8-0.3,3.7-0.2,5.5
			c0,2,0.5,4,1,5.9c0.1,0.4,0.3,0.7,0.5,1c-2.2-11,3.7-27.7,10.9-33.9c0.2-0.2,0.4-0.3,0.5-0.5C41.8,63.5,41.8,63.3,41.7,63.1z"/>
		<path class="st4" d="M36.3,107.2c-1.3-0.3-2.5-0.9-3.7-1.6c-0.1,0-0.1,0-0.2,0c0.2,0.3,0.5,0.5,0.7,0.8c0.4,0.4,0.8,0.8,1.2,1.2
			c1.5,0.3,3.8,0.6,4.8-0.1C38.2,107.6,37.2,107.4,36.3,107.2z"/>
		<path class="st3" d="M128.2,59.9c-2.6-3-5.8-5.6-9.4-7.1c-2.2-0.9-8.6-3.1-10,0.3c-0.6,1.5,0.5,3.3,1.7,4.4s2.5,1.9,3.9,2.7
			c1.2,0.7,2.3,1.3,3.5,2c8.1,5.4,16.1,22.3,14.5,33.5l0,0c-1.1,1.6-1.1,1.6-3.9,2c-2.8,0.4-5,1.2-4.2,3.6c0.7,2.4,6.7,0.4,6.7,0.4
			c-1.1,1.2-3.9,5.5-2.1,7.1c1.8,1.6,3.9-2.8,3.9-2.8c-0.7,1.6-0.4,4.7-0.4,4.7s1.1,1.2,2.8-0.4c1.8-1.6,2.5-3.2,3.2-4.7
			c0.4-1.5,0.8-3.9,1-5.5c0.3-0.5,0.4-1,0.6-1.6C142.4,84.7,136.9,69.9,128.2,59.9z"/>
		<path class="st4" d="M132.3,95.5c0.3-0.4,0.5-0.9,0.7-1.4c0.2-0.8,0.3-1.7,0.5-2.6c-0.1-1.3-0.1-2.6-0.3-3.9
			c-0.4-2.7-1.2-5.4-2.2-7.9c-1.8-4.8-4.5-9.8-7.6-13.7c-2.7-3.4-6.3-6.4-10.2-7.6c-0.8-0.3-1.6-0.5-2.5-0.7c1.1,1,2.4,1.8,3.7,2.5
			c1.2,0.7,2.3,1.3,3.5,2C125.9,67.6,133.8,84.3,132.3,95.5z"/>
		<path class="st4" d="M131,101.7c0-0.2,0.1-0.3,0.2-0.5c0-0.1,0.1-0.2,0.1-0.2c-2.4,0.4-4.6,0.6-7,0.5
			C125.3,103.5,130.9,101.7,131,101.7c-0.1,0-0.2,0.1-0.2,0.2C130.8,101.8,130.9,101.7,131,101.7z"/>
		<path class="st4" d="M132.4,106.7c0.1-0.2,0.2-0.3,0.2-0.5s0-0.3-0.1-0.5c-0.1,0.1-0.3,0.2-0.5,0.3c-0.3,0.4-0.6,0.8-0.9,0.9
			c0,0-0.1,0.1-0.2,0.1l0,0c-0.1,0-0.1,0.1-0.2,0.1c-0.2,0.2-0.4,0.3-0.5,0.5c-0.5,0.4-1,0.8-1.5,1c1.8,1.5,3.9-2.8,3.9-2.8
			C132.5,106.2,132.5,106.4,132.4,106.7z"/>
		<path class="st4" d="M138.6,102.6c-0.3,1.8-1.3,3.5-2.2,5.1c-0.2,0.4-0.5,0.7-0.9,1c0,0,0,0.1-0.1,0.1c-0.2,0.3-0.4,0.6-0.6,0.8
			c-0.1,0.1-0.2,0.1-0.2,0.2c0,0,0,0.1-0.1,0.1c-0.2,0.4-0.7,0.9-1.3,1.2c0.5,0,1.1-0.1,1.9-0.8c1.8-1.6,2.5-3.2,3.2-4.7
			c0.3-0.9,0.5-2.2,0.7-3.4C138.9,102.4,138.8,102.5,138.6,102.6z"/>
		<polygon class="st3" points="82.5,108 82.5,151.1 109.2,154.3 95.3,140.4 95.6,108 		"/>
		<path class="st4" d="M84.2,125c1.9,1.9,3.4,4.6,4.6,7c0.7-1,1.4-2,2.1-3c0.1-0.1,0.7-1.2,0.5-0.8c0.2-0.4,0.5-0.8,0.7-1.2
			c0.6-1,1.1-2.1,1.6-3.2s1-2.2,1.4-3.3c0.1-0.3,0.2-0.6,0.3-0.8l0.1-11.7h-13v14C83,123,83.6,124,84.2,125z"/>
		<polygon class="st3" points="76.3,108 76.3,151.1 49.6,154.3 63.5,140.4 63.1,108 		"/>
		<path class="st4" d="M66.7,130.4c0.1,0.1,0.2,0.1,0.2,0.2c0.5-0.8,1.1-1.6,1.7-2.4c0.8-1.9,2-3.6,3-5.1c0.6-0.9,1.2-1.9,1.9-2.8
			c0.3-0.5,0.7-1,1-1.5c-0.1,0.1,0.7-1.3,0.8-1.5c0.3-0.6,0.6-1.1,1-1.6V108H63.1l0.2,14.4C64.9,124.7,65.8,127.6,66.7,130.4z"/>
		
			<linearGradient id="SVGID_2_" gradientUnits="userSpaceOnUse" x1="62.882" y1="724.3771" x2="89.0295" y2="811.2961" gradientTransform="matrix(1 0 0 1 0 -702)">
			<stop  offset="0" style="stop-color:#AD827A"/>
			<stop  offset="0.6241" style="stop-color:#B08178"/>
			<stop  offset="0.8706" style="stop-color:#B47D72"/>
			<stop  offset="1" style="stop-color:#B9796C"/>
		</linearGradient>
		<path class="st5" d="M78,11.1c0,0-9.5-0.6-15.3,1.1s-8.2,3.1-10.8,6c-8.5,9.2-10.6,22.3-10.6,34.9c0,7.6,0.4,15.2,0.5,22.8
			c0.1,5.6,0.1,11.3,0.2,16.9c0.1,4.3,0.1,8.7,0.2,13c0,2.9,0.1,5.8,0.1,8.7c0,0.1,0,0.2,0,0.3c0,4,0,4,0,4l3.7-5.7l4.2,9.1l4.2-9.1
			l3.7,11.4l4.2-13.7l4.8,14.3L72,112l5.3,11.4l5.3-10.9l5.8,13.7l4.2-13.1l4.2,12l4.2-13.7l5.3,12l4.2-12.6l5.3,6.3
			c0,0,1.1-37.2,0.5-42.3c0-5.1,0.5-26.3,0-33.2s-0.5-9.1-2.1-13.1s-4.2-7.4-9-11.4S94.1,12,89.3,11.4C84.6,10.8,78,11.1,78,11.1z"
			/>
		
			<linearGradient id="SVGID_3_" gradientUnits="userSpaceOnUse" x1="70.2278" y1="722.8526" x2="87.1684" y2="829.3927" gradientTransform="matrix(1 0 0 1 0 -702)">
			<stop  offset="0" style="stop-color:#FFFFFF;stop-opacity:0"/>
			<stop  offset="0.3731" style="stop-color:#FEFEFE;stop-opacity:0.1892"/>
			<stop  offset="0.5076" style="stop-color:#F4F4F3;stop-opacity:0.2574"/>
			<stop  offset="0.6034" style="stop-color:#E4E2E0;stop-opacity:0.306"/>
			<stop  offset="0.6809" style="stop-color:#CCC9C6;stop-opacity:0.3453"/>
			<stop  offset="0.7473" style="stop-color:#B1AAA5;stop-opacity:0.379"/>
			<stop  offset="0.8061" style="stop-color:#908883;stop-opacity:0.4088"/>
			<stop  offset="0.8593" style="stop-color:#6C625E;stop-opacity:0.4358"/>
			<stop  offset="0.9081" style="stop-color:#473F3B;stop-opacity:0.4605"/>
			<stop  offset="0.9516" style="stop-color:#201F1C;stop-opacity:0.4826"/>
			<stop  offset="0.9859" style="stop-color:#070001;stop-opacity:0.5"/>
		</linearGradient>
		<path class="st6" d="M78,11.2c0,0-9.5-0.6-15.3,1.1s-8.2,3.1-10.8,5.9c-8.5,9-10.6,21.8-10.6,34c0,7.4,0.4,14.8,0.5,22.3
			c0.1,5.5,0.1,11,0.2,16.5c0.1,4.2,0.1,8.4,0.2,12.7c0,2.8,0.1,5.7,0.1,8.5c0,0.1,0,0.2,0,0.3c0,3.9,0,3.9,0,3.9l3.7-5.6l4.2,8.9
			l4.2-8.9l3.7,11.1l4.2-13.4l4.7,13.9l4.7-12.8l5.3,11.1l5.3-10.6l5.8,13.4l4.2-12.8l4.2,11.7l4.2-13.4l5.3,11.7l4.2-12.3l5.3,6.1
			c0,0,1.1-36.2,0.5-41.2c0-5,0.5-25.6,0-32.3s-0.5-8.9-2.1-12.8s-4.2-7.2-9-11.1c-4.7-3.9-11.1-5-15.8-5.6
			C84.6,10.9,78,11.2,78,11.2z"/>
	</g>
</g>
<g>
	<g>
		<path class="st7" d="M44.7,70.3L44.7,70.3c0,0-0.1,0-0.2,0.1c-0.4,0.1-0.7,0.5-1,0.8c-1.5,1.2-3,2.4-4.2,4s-2,3.5-3,5.3
			s-1.8,3.7-2.5,5.7c-0.6,1.8-1.2,3.6-1.6,5.5c0,0.4,0,0.9,0,1.3c-0.1,1.8-0.3,3.7-0.2,5.5c0,2,0.5,4,1,5.9c0.1,0.4,0.3,0.7,0.5,1
			c-2.2-11,3.8-27.8,11.1-34c0.2-0.2,0.4-0.3,0.5-0.5C44.8,70.7,44.8,70.5,44.7,70.3z"/>
		
			<linearGradient id="SVGID_4_" gradientUnits="userSpaceOnUse" x1="63.1041" y1="740.9164" x2="94.7633" y2="814.7892" gradientTransform="matrix(1 0 0 1 0 -702)">
			<stop  offset="0.108" style="stop-color:#040000"/>
			<stop  offset="0.146" style="stop-color:#211F1E"/>
			<stop  offset="0.3136" style="stop-color:#9FA0A0"/>
			<stop  offset="0.4761" style="stop-color:#CBCCCD"/>
			<stop  offset="0.6298" style="stop-color:#CBCCCD"/>
			<stop  offset="0.7726" style="stop-color:#CACBCB"/>
			<stop  offset="0.9002" style="stop-color:#C9CACA"/>
			<stop  offset="1" style="stop-color:#A2A2A2"/>
		</linearGradient>
		<path class="st8" d="M81.6,20c0,0-9.5-0.6-15.3,1.1c-5.8,1.7-8.2,3.1-10.8,6C47,36.3,44.9,49.4,44.9,62c0,7.6,0.4,15.2,0.5,22.8
			c0.1,5.6,0.1,11.3,0.2,16.9c0.1,4.3,0.1,8.7,0.2,13c0,2.9,0.1,5.8,0.1,8.7c0,0.1,0,0.2,0,0.3c0,4,0,4,0,4l3.7-5.7l4.2,9.1L58,122
			l3.7,11.4l4.2-13.7l4.8,14.3l4.8-13.1l5.3,11.4l5.3-10.9l5.8,13.7l4.2-13.1l4.2,12l4.2-13.7l5.3,12l4.2-12.6l5.3,6.3
			c0,0,1.1-37.2,0.5-42.3c0-5.1,0.5-26.3,0-33.2s-0.5-9.1-2.1-13.1s-4.2-7.4-9-11.4s-11.1-5.1-15.9-5.7C88.2,19.7,81.6,20,81.6,20z"
			/>
		<path class="st9" d="M52.2,61.3c-1.7-3.2-7.9-0.2-10,1c-3.4,2-6.3,4.9-8.5,8.2c-7.5,11.1-11.3,26.5-7.3,39.8
			c0.1,0.3,0.2,0.6,0.3,0.9l0,0c0,0,0.5,4.7,1.3,7.1c0.7,1.6,1.5,3.2,3.3,4.7c1.8,1.6,2.9,0.4,2.9,0.4s0.4-3.2-0.4-4.7
			c0,0,2.2,4.4,4,2.8s-1.1-5.9-2.2-7.1c0,0,6.2,2,6.9-0.4s-1.5-3.2-4.4-3.6s-2.9-0.4-4-2c-4.2-10.6,2.1-30.1,10-37
			c1-0.9,2.1-1.7,3.2-2.5c1.3-0.9,2.5-1.9,3.5-3.1C52.1,64.7,53,62.7,52.2,61.3z"/>
		<path class="st7" d="M30,119.5c-0.5-1-0.9-2-1.2-3.1c-0.3-0.9-0.6-1.8-0.7-2.7c-0.4-0.3-0.7-0.7-1.1-1.1c0.2,1.6,0.6,4.1,1.1,5.7
			c0.7,1.6,1.5,3.2,3.3,4.7c0.3,0.3,0.7,0.5,0.9,0.6C31.2,122.6,30.7,121,30,119.5z"/>
		<path class="st7" d="M32.9,116c-0.2-0.2-0.4-0.4-0.5-0.6c0.2,0.6,0.4,1.1,0.7,1.7c0.4,0.7,0.7,1.6,1,2.4c-0.1-0.3-0.1-0.5-0.2-0.7
			c0,0,2.2,4.4,4,2.8c0.1-0.1,0.2-0.2,0.3-0.3C36.5,119.5,34.6,117.9,32.9,116z"/>
		<path class="st7" d="M39.3,114.4c-1.3-0.3-2.5-0.9-3.7-1.6c-0.1,0-0.1,0-0.2,0c0.2,0.3,0.5,0.5,0.7,0.8c0.4,0.4,0.8,0.8,1.2,1.2
			c1.5,0.3,3.8,0.6,4.8-0.1C41.2,114.8,40.2,114.6,39.3,114.4z"/>
		<path class="st9" d="M131.2,67.1c-2.6-3-5.8-5.6-9.4-7.1c-2.2-0.9-8.6-3.1-10,0.3c-0.6,1.5,0.5,3.3,1.7,4.4
			c1.2,1.1,2.5,1.9,3.9,2.7c1.2,0.7,2.3,1.3,3.5,2c8.1,5.4,16.1,22.3,14.5,33.5l0,0c-1.1,1.6-1.1,1.6-3.9,2c-2.8,0.4-5,1.2-4.2,3.6
			c0.7,2.4,6.7,0.4,6.7,0.4c-1.1,1.2-3.9,5.5-2.1,7.1c1.8,1.6,3.9-2.8,3.9-2.8c-0.7,1.6-0.4,4.7-0.4,4.7s1.1,1.2,2.8-0.4
			c1.8-1.6,2.5-3.2,3.2-4.7c0.4-1.5,0.8-3.9,1-5.5c0.3-0.5,0.4-1,0.6-1.6C145.4,91.9,139.9,77.1,131.2,67.1z"/>
		<path class="st7" d="M135.3,102.7c0.3-0.4,0.5-0.9,0.7-1.4c0.2-0.8,0.3-1.7,0.5-2.6c-0.1-1.3-0.1-2.6-0.3-3.9
			c-0.4-2.7-1.2-5.4-2.2-7.9c-1.8-4.8-4.5-9.8-7.6-13.7c-2.7-3.4-6.3-6.4-10.2-7.6c-0.8-0.3-1.6-0.5-2.5-0.7c1.1,1,2.4,1.8,3.7,2.5
			c1.2,0.7,2.3,1.3,3.5,2C128.9,74.8,136.8,91.5,135.3,102.7z"/>
		<path class="st10" d="M134,108.9c0-0.2,0.1-0.3,0.2-0.5c0-0.1,0.1-0.2,0.1-0.2c-2.4,0.4-4.6,0.6-7,0.5
			C128.3,110.7,133.9,108.9,134,108.9c-0.1,0-0.2,0.1-0.2,0.2C133.8,109,133.9,108.9,134,108.9z"/>
		<path class="st10" d="M135.4,113.9c0.1-0.2,0.2-0.3,0.2-0.5s0-0.3-0.1-0.5c-0.1,0.1-0.3,0.2-0.5,0.3c-0.3,0.4-0.6,0.8-0.9,0.9
			c0,0-0.1,0.1-0.2,0.1l0,0c-0.1,0-0.1,0.1-0.2,0.1c-0.2,0.2-0.4,0.3-0.5,0.5c-0.5,0.4-1,0.8-1.5,1c1.8,1.5,3.9-2.8,3.9-2.8
			C135.5,113.4,135.5,113.6,135.4,113.9z"/>
		<path class="st10" d="M141.6,109.8c-0.3,1.8-1.3,3.5-2.2,5.1c-0.2,0.4-0.5,0.7-0.9,1c0,0,0,0.1-0.1,0.1c-0.2,0.3-0.4,0.6-0.6,0.8
			c-0.1,0.1-0.2,0.1-0.2,0.2c0,0,0,0.1-0.1,0.1c-0.2,0.4-0.7,0.9-1.3,1.2c0.5,0,1.1-0.1,1.9-0.8c1.8-1.6,2.5-3.2,3.2-4.7
			c0.3-0.9,0.5-2.2,0.7-3.4C141.9,109.6,141.8,109.7,141.6,109.8z"/>
		<polygon class="st7" points="85.5,115.2 85.5,158.3 112.2,161.5 98.3,147.6 98.6,115.2 		"/>
		<path class="st10" d="M87.2,132.2c1.9,1.9,3.4,4.6,4.6,7c0.7-1,1.4-2,2.1-3c0.1-0.1,0.7-1.2,0.5-0.8c0.2-0.4,0.5-0.8,0.7-1.2
			c0.6-1,1.1-2.1,1.6-3.2s1-2.2,1.4-3.3c0.1-0.3,0.2-0.6,0.3-0.8l0.1-11.7h-13v14C86,130.2,86.6,131.2,87.2,132.2z"/>
		<polygon class="st7" points="79.3,115.2 79.3,158.3 52.6,161.5 66.5,147.6 66.1,115.2 		"/>
		<path class="st10" d="M69.7,137.6c0.1,0.1,0.2,0.1,0.2,0.2c0.5-0.8,1.1-1.6,1.7-2.4c0.8-1.9,2-3.6,3-5.1c0.6-0.9,1.2-1.9,1.9-2.8
			c0.3-0.5,0.7-1,1-1.5c-0.1,0.1,0.7-1.3,0.8-1.5c0.3-0.6,0.6-1.1,1-1.6v-7.7H66.1l0.2,14.4C67.9,131.9,68.8,134.8,69.7,137.6z"/>
		<path class="st11" d="M81,18.3c0,0-9.5-0.6-15.3,1.1c-5.8,1.7-8.2,3.1-10.8,6c-8.5,9.2-10.6,22.3-10.6,34.9
			c0,7.6,0.4,15.2,0.5,22.8c0.1,5.6,0.1,11.3,0.2,16.9c0.1,4.3,0.1,8.7,0.2,13c0,2.9,0.1,5.8,0.1,8.7c0,0.1,0,0.2,0,0.3c0,4,0,4,0,4
			l3.7-5.7l4.2,9.1l4.2-9.1l3.7,11.4l4.2-13.7l4.8,14.3l4.9-13.1l5.3,11.4l5.3-10.9l5.8,13.7l4.2-13.1l4.2,12l4.2-13.7l5.3,12
			l4.2-12.6l5.3,6.3c0,0,1.1-37.2,0.5-42.3c0-5.1,0.5-26.3,0-33.2s-0.5-9.1-2.1-13.1s-4.2-7.4-9-11.4s-11.1-5.1-15.9-5.7
			C87.6,18,81,18.3,81,18.3z"/>
	</g>
</g>
</svg>
