<?xml version="1.0" encoding="utf-8"?>
<!-- Generator: Adobe Illustrator 21.1.0, SVG Export Plug-In . SVG Version: 6.00 Build 0)  -->
<svg version="1.1" id="圖層_1" xmlns="http://www.w3.org/2000/svg" xmlns:xlink="http://www.w3.org/1999/xlink" x="0px" y="0px"
	 viewBox="0 0 168 167" style="enable-background:new 0 0 168 167;" xml:space="preserve">
<style type="text/css">
	.st0{fill:#825F54;}
	.st1{fill:#B88A83;}
</style>
<path class="st0" d="M67.7,13.9C66.9,7.6,61,3.2,54.7,4S44,10.7,44.9,17c0,0,0.6,27.7,18.6,39.7l3.5-6c0,0-8.5-11.7-1.5-28.3
	C67.3,20.1,68.2,17.1,67.7,13.9z"/>
<path class="st1" d="M62.4,17.2c0-4.1-2.6-7.4-5.8-7.4s-5.8,3.3-5.8,7.4c0,0-1.5,17.7,6.6,26.8l2.1-3.5c0,0-3.5-8.1,1.2-18.1
	C61.7,21.1,62.4,19.3,62.4,17.2z"/>
<path class="st0" d="M100,13.9c0.8-6.3,6.7-10.7,13-9.9s10.7,6.7,9.9,13c0,0-0.6,27.7-18.6,39.7l-3.5-6c0,0,8.5-11.7,1.5-28.3
	C100.4,20.1,99.5,17.1,100,13.9z"/>
<path class="st1" d="M105.3,17.2c0-4.1,2.6-7.4,5.8-7.4s5.8,3.3,5.8,7.4c0,0,1.5,17.7-6.6,26.8l-2.1-3.5c0,0,3.5-8.1-1.2-18.1
	C106,21.1,105.3,19.3,105.3,17.2z"/>
<path class="st0" d="M67.6,139.4l-2.8,7.5c-0.6,1.7,0.6,3.5,2.4,3.5h10c1.9,0,3.1-1.9,2.4-3.6l-3.2-7.5c-0.4-0.9-1.3-1.6-2.4-1.6
	h-3.9C69,137.7,68,138.3,67.6,139.4z"/>
<path class="st0" d="M93.8,139.3L91,147c-0.6,1.6,0.6,3.4,2.3,3.4h10.2c1.8,0,3-1.8,2.3-3.5l-3.3-7.7c-0.4-0.9-1.3-1.5-2.3-1.5h-4.1
	C95.1,137.7,94.2,138.3,93.8,139.3z"/>
<path class="st0" d="M132.7,96c3-1.7,4.6-5,4-8.3c-0.7-3.5-3.7-6.1-7.3-6.7c2.1-2.6,2.5-6.1,0.6-9c-2-3.1-5.8-4.5-9.4-4
	c1-3.1,0-6.5-2.9-8.7c-3-2.3-7.1-2.5-10.4-0.8c-0.2-3.2-2.5-6.1-6-7.3c-3.7-1.2-7.7-0.1-10.1,2.4c-1.4-2.9-4.6-5-8.4-5
	c-3.9,0-7.3,2.2-8.5,5.4c-2.4-2.3-6.2-3.3-9.8-2.1c-3.7,1.2-6,4.3-6,7.7c-3.2-1.4-7.1-1.1-10,1c-3,2.3-4,5.9-2.7,9.1
	c-3.5-0.4-7.1,1.1-9,4.1c-2,3.1-1.5,6.8,0.9,9.4c-3.4,0.7-6.2,3.2-6.9,6.6c-0.7,3.5,1.2,6.8,4.4,8.5c-3,1.7-4.6,5-4,8.3
	c0.7,3.5,3.7,6.1,7.3,6.7c-2.1,2.6-2.5,6.1-0.6,9c2,3.1,5.8,4.5,9.4,4c-1,3.1,0,6.5,2.9,8.7c3,2.3,7.1,2.5,10.4,0.8
	c0.2,3.2,2.5,6.1,6,7.3c3.7,1.2,7.7,0.1,10.1-2.4c1.4,2.9,4.6,5,8.4,5c3.9,0,7.3-2.2,8.5-5.4c2.4,2.3,6.2,3.3,9.8,2.1
	c3.7-1.2,6-4.3,6-7.7c3.2,1.4,7.1,1.1,10-1c3-2.3,4-5.9,2.7-9.1c3.5,0.4,7.1-1.1,9-4.1c2-3.1,1.5-6.8-0.9-9.4
	c3.4-0.7,6.2-3.2,6.9-6.6C137.8,101.1,135.9,97.7,132.7,96z"/>
<path class="st1" d="M131,79.5c2.9-1.9,4.5-5.4,3.9-9c-0.7-3.8-3.6-6.6-7.2-7.2c2.1-2.8,2.4-6.6,0.6-9.8c-1.9-3.3-5.7-4.9-9.2-4.3
	c1-3.3,0-7-2.8-9.4c-2.9-2.5-7-2.7-10.2-0.9c-0.2-3.5-2.4-6.6-5.9-7.9c-3.6-1.3-7.5-0.1-9.9,2.6c-1.4-3.2-4.5-5.4-8.2-5.4
	c-3.8,0-7.1,2.4-8.4,5.8c-2.4-2.5-6.1-3.5-9.6-2.3c-3.6,1.3-5.8,4.7-5.9,8.3c-3.1-1.6-6.9-1.2-9.8,1.1c-2.9,2.5-3.9,6.4-2.7,9.8
	c-3.4-0.4-6.9,1.2-8.8,4.4c-1.9,3.3-1.5,7.4,0.9,10.2c-3.4,0.8-6.1,3.5-6.7,7.1c-0.7,3.8,1.2,7.4,4.3,9.3c-2.9,1.9-4.5,5.4-3.9,9
	c0.7,3.8,3.6,6.6,7.2,7.2c-2.1,2.8-2.4,6.6-0.6,9.8c1.9,3.3,5.7,4.9,9.2,4.3c-1,3.3,0,7,2.8,9.4c2.9,2.5,7,2.7,10.2,0.9
	c0.2,3.5,2.4,6.6,5.9,7.9c3.6,1.3,7.5,0.1,9.9-2.6c1.4,3.2,4.5,5.4,8.2,5.4c3.8,0,7.1-2.4,8.4-5.8c2.4,2.5,6.1,3.5,9.6,2.3
	c3.6-1.3,5.8-4.7,5.9-8.3c3.1,1.6,6.9,1.2,9.8-1.1c2.9-2.5,3.9-6.4,2.7-9.8c3.4,0.4,6.9-1.2,8.8-4.4c1.9-3.3,1.5-7.4-0.9-10.2
	c3.4-0.8,6.1-3.5,6.7-7.1C135.9,85,134.1,81.3,131,79.5z"/>
</svg>
