<svg xmlns="http://www.w3.org/2000/svg" viewBox="0 0 584.37 615.87"><defs><style>.cls-1{fill:#b0a68f;}.cls-2{fill:#a49b87;}.cls-3{fill:#c6b187;}.cls-4{fill:#a386aa;}.cls-5{fill:#294c71;}.cls-6{fill:#253d59;}.cls-7{fill:#4c7199;}.cls-8{fill:#ddeaed;}.cls-9{fill:#324050;}.cls-10{fill:#364658;}.cls-11{fill:#262425;}.cls-12{fill:#a56969;}.cls-13{fill:#e3a4a4;}.cls-14{fill:#c66f6f;}.cls-15{fill:#304f6a;}.cls-16{fill:#2a4c71;}.cls-17{fill:#e99e33;}.cls-18{fill:#bf4b46;}.cls-19{fill:#bb3f3f;}.cls-20{fill:#c54f4f;}.cls-21{fill:#913b3a;}.cls-22{fill:#923b3a;}.cls-23{fill:#bb3e3e;}.cls-24{fill:#dde6e8;}.cls-25{fill:#923d3b;}.cls-26{fill:#903b3a;}.cls-27{fill:#ba4242;}</style></defs><title>3D-print-image</title><g id="圖層_2" data-name="圖層 2"><g id="圖層_1-2" data-name="圖層 1"><path class="cls-1" d="M.15,188.88a56.84,56.84,0,0,1,5.35-4.12c8.66-5.19,17.34-10.36,26.12-15.35S49.27,159.8,58,154.82c5.73-3.27,11.21-7,16.9-10.33,7.63-4.48,15.37-8.76,23-13.17,8-4.62,16-9.31,24-13.93,7.75-4.48,15.55-8.89,23.3-13.37,11.63-6.73,23.21-13.53,34.84-20.23,8.69-5,17.45-9.88,26.14-14.87,8.12-4.67,16.2-9.43,24.3-14.15,7.55-4.39,15.15-8.72,22.65-13.21,2-1.22,3.59-.52,5.3.48,5.26,3.07,10.53,6.14,15.84,9.12s10.8,5.92,16.21,8.88a257.53,257.53,0,0,0-31,62.7,251.4,251.4,0,0,0-9.94,42.9c-6.07.73-11.63,2.63-15.89,7.27-3.42,3.73-3.69,8.21-.52,12.07,1.31,1.6,3.26,2.67,4.92,4l10.08,3.66a30.28,30.28,0,0,0,15.33-.2l9.26-3.38c9-4.79,9.78-13,1.41-18.76-2.66-1.82-6-2.63-9-3.91a10.79,10.79,0,0,1-.05-1.88c4-27.9,13.42-53.94,27.12-78.46,3.28-5.88,7.25-11.36,10.91-17a16.29,16.29,0,0,1,3.9,1.12c4.39,2.56,8.61,5.4,13,7.95,6.56,3.8,13.25,7.39,19.82,11.18,6.78,3.91,13.45,8,20.23,11.93,8.32,4.78,16.73,9.38,25.06,14.14s16.75,9.63,25.1,14.5c8.52,5,17,10.08,25.54,15,3.29,1.87,6.85,3.28,10.29,4.9,4.63,2.84,9.24,5.71,13.9,8.5a7,7,0,0,0,2.16.49,57.6,57.6,0,0,0,6.24,4.74c12.28,7.06,24.67,13.93,37,21a44.76,44.76,0,0,1,5.5,4.38,23.4,23.4,0,0,1-3.48,3.22c-3.78,2.32-7.7,4.42-11.55,6.62q-10.41,6-20.82,11.95c-7.35,4.23-14.73,8.43-22.05,12.72s-14.36,8.7-21.64,12.89c-10.21,5.89-20.56,11.54-30.77,17.43-13.75,7.92-27.39,16-41.12,24C344.29,286.33,329.1,295,314,303.75c-12.85,7.42-25.66,14.93-38.52,22.35-6,3.46-12.06,6.8-18.09,10.2-3.84-2.15-7.71-4.27-11.52-6.47-7.77-4.51-15.49-9.12-23.29-13.58C213,310.78,203.31,305.5,193.77,300c-10.64-6.14-21.19-12.46-31.8-18.67-8-4.68-16-9.29-24.05-13.95-7.8-4.52-15.56-9.11-23.38-13.58-5.7-3.27-11.52-6.34-17.23-9.6-5.19-3-10.28-6.11-15.46-9.08-8-4.59-16.12-9.05-24.13-13.68-6.35-3.67-12.59-7.56-18.92-11.26q-17-9.91-34-19.69A25.46,25.46,0,0,0,.15,188.88Z"/><path class="cls-2" d="M.15,188.88a25.46,25.46,0,0,1,4.62,1.6q17.06,9.75,34,19.69c6.33,3.7,12.57,7.59,18.92,11.26,8,4.63,16.11,9.09,24.13,13.68,5.18,3,10.27,6.12,15.46,9.08,5.71,3.26,11.53,6.33,17.23,9.6,7.82,4.47,15.58,9.06,23.38,13.58,8,4.66,16.05,9.27,24.05,13.95,10.61,6.21,21.16,12.53,31.8,18.67,9.54,5.51,19.21,10.79,28.77,16.26,7.8,4.46,15.52,9.07,23.29,13.58,3.81,2.2,7.68,4.32,11.52,6.47q0,136.07,0,272.14c0,1.92,0,3.83-.06,5.75h-1.42l-2.41-1.38-.69-.12c-.08-1.64-1.22-1.54-2.36-1.44l-2.28-1.54-2.35-1.5-.69-.12c-.08-1.65-1.23-1.53-2.37-1.44l-6.07-3.18c-.54-.47-1.08-.94-1.61-1.42l-.69-.12c-.09-1.63-1.24-1.52-2.38-1.43l-3-1.65-1.64-1.39c-2.64-1.47-5.29-2.91-7.92-4.4-4.56-2.57-9.12-5.14-13.64-7.78-7.86-4.59-15.66-9.29-23.53-13.85-6.7-3.88-13.48-7.62-20.2-11.45-10.58-6-21.18-12-31.71-18.14-10.2-5.92-20.3-12-30.51-17.94C86.57,516.2,73.23,508.65,60,501c-10-5.78-19.86-11.73-29.84-17.49-8.91-5.14-17.89-10.15-26.87-15.16A5.62,5.62,0,0,1,0,462.81c.11-13.17.05-26.34.05-39.51V195C.06,193,.12,190.93.15,188.88Zm43.59,251.8c.53.65.94,1.52,1.62,1.92q19,11.1,38.06,22.09,32.13,18.57,64.27,37.11,28.83,16.66,57.62,33.39c2.28,1.32,4.61,2.55,7.6,4.2V368.14a29.49,29.49,0,0,0-.07-5,4.74,4.74,0,0,0-1.7-3c-4.73-2.76-9.59-5.27-14.41-7.87-2.23-1.56-4.35-3.29-6.69-4.63-13.19-7.58-26.46-15-39.66-22.59-5.62-3.21-11.1-6.64-16.71-9.86-8.15-4.69-16.39-9.23-24.53-13.94-9.67-5.6-19.25-11.36-28.91-17q-15.17-8.82-30.42-17.51c-1.72-1-3.55-1.8-5.64-2.85-.14,1.32-.29,2-.3,2.79-.25,18.78-.64,37.55-.7,56.33-.11,37.75-.05,75.49,0,113.24A31.77,31.77,0,0,0,43.74,440.68Z"/><path class="cls-3" d="M257.28,614.19c0-1.92.06-3.83.06-5.75q0-136.08,0-272.14c6-3.4,12.09-6.74,18.09-10.2,12.86-7.42,25.67-14.93,38.52-22.35,15.14-8.75,30.33-17.42,45.46-26.18,13.73-7.95,27.37-16,41.12-24,10.21-5.89,20.56-11.54,30.77-17.43,7.28-4.19,14.4-8.64,21.64-12.89s14.7-8.49,22.05-12.72q10.41-6,20.82-11.95c3.85-2.2,7.77-4.3,11.55-6.62a23.4,23.4,0,0,0,3.48-3.22c3.7.87,3.73.87,3.73,4.81q0,54.82,0,109.65c0,2.9.38,5.81.58,8.71l-7.24.6a19.18,19.18,0,0,0-3.4.21,80.18,80.18,0,0,0-22.91,9L472,326.69c-.41-1.5-1.16-3-1.17-4.52-.08-17.91-.06-35.82-.06-53.72v-4.87l-8.45,5.18c-9.68,5.48-19.41,10.9-29.05,16.48-7.48,4.33-14.8,8.94-22.26,13.29s-14.79,8.36-22.17,12.56q-14.53,8.28-29.05,16.62c-7.14,4.1-14.22,8.31-21.4,12.35-7.51,4.23-15.12,8.3-22.66,12.47-.38.21-.59.75-.87,1.13-3.41,2-6.73,4.19-10.27,5.94-2.45,1.21-3.06,2.82-3.05,5.41.08,32.55,0,65.1.05,97.65,0,1.4.1,2.8.16,4.2q-.06,32.94-.1,65.89l-1.8,2.32c.48,5.41.6,10.9,1.53,16.24a24.48,24.48,0,0,0,12.64,18c3.19,1.78,6.25,3.81,9.36,5.73-5,3.56-10.07,7.09-15.08,10.67-4.21,3-7.4,7.11-13.12,8.44-4.82,1.12-9.13,4.61-13.55,7.24-5.72,3.41-11.3,7.06-17,10.47C262.42,613.2,260.19,614.86,257.28,614.19Z"/><path class="cls-4" d="M462.15,158.68a7,7,0,0,1-2.16-.49c-4.66-2.79-9.27-5.66-13.9-8.5-.87-7.86-1.6-15.73-2.66-23.56-1-7.44-1.87-15-3.67-22.24-3.24-13.11-6.58-26.25-10.87-39C423.68,49.34,416,35.1,403,24.46c-11-9-23.34-12.19-37.25-8.08C357.47,18.84,350,23,342.88,27.69c-10.41,6.89-19.19,15.62-27.53,24.8-4.61,5.08-9.43,10-12.2,16.51-3.66,5.67-7.63,11.15-10.91,17-13.7,24.52-23.13,50.56-27.12,78.46a10.79,10.79,0,0,0,.05,1.88c-.28.54-.78,1.07-.81,1.63-.32,5.67-.56,11.35-.82,17q0,3.71,0,7.39a30.28,30.28,0,0,1-15.33.2l0-7.61,1.38-19.37a251.4,251.4,0,0,1,9.94-42.9,257.53,257.53,0,0,1,31-62.7c2.91-3.52,5.85-7,8.73-10.58,10.6-13.07,22.56-24.7,36.54-34.14,10.46-7,21.7-12.49,34.22-14.67,9.84-1.71,19.3,0,28.36,4.21,13.72,6.32,23.71,16.63,31.52,29.25,8.46,13.67,14,28.58,18.32,44A297.86,297.86,0,0,1,457,119.61c1.55,11.63,3,23.28,4.47,34.92C461.62,155.92,461.91,157.3,462.15,158.68Z"/><path class="cls-5" d="M386.21,587.37c5.65-3.87,11.57-7.42,16.91-11.68a103.27,103.27,0,0,0,33.22-45.77A4.51,4.51,0,0,1,437,529c5.59,3.13,11.14,6.3,16.77,9.36a61.26,61.26,0,0,0,5.64,2.41,19.9,19.9,0,0,0,4.26-1.31C481.83,529,500,518.33,518.2,507.83c10.23-5.9,19.21-13.39,27.91-21.27,5.63,3.45,11.26,6.88,16.88,10.35,3.32,2.06,6.6,4.17,9.89,6.25-.52,1.07-.79,2.46-1.62,3.14a36.49,36.49,0,0,1-5.16,3.09c-7.14,4.06-14.3,8.09-21.44,12.17-9.14,5.23-18.25,10.5-27.39,15.73-7.38,4.22-14.8,8.37-22.15,12.63-5.15,3-10.19,6.14-15.33,9.13-8.08,4.72-16.2,9.35-24.29,14-4.71,2.73-9.38,5.53-14.1,8.25q-14.67,8.45-29.38,16.8a27.53,27.53,0,0,1-4.19,1.55Z"/><path class="cls-6" d="M407.83,599.68a27.53,27.53,0,0,0,4.19-1.55q14.73-8.34,29.38-16.8c4.72-2.72,9.39-5.52,14.1-8.25,8.09-4.68,16.21-9.31,24.29-14,5.14-3,10.18-6.15,15.33-9.13,7.35-4.26,14.77-8.41,22.15-12.63,9.14-5.23,18.25-10.5,27.39-15.73,7.14-4.08,14.3-8.11,21.44-12.17a36.49,36.49,0,0,0,5.16-3.09c.83-.68,1.1-2.07,1.62-3.14.77,1,2.13,2,2.21,3a71,71,0,0,1,0,11.48,5.88,5.88,0,0,1-2.63,3.76c-6.06,3.76-12.26,7.29-18.44,10.86q-17.21,9.95-34.44,19.85L481.2,574.34Q448.61,593.19,416,612.05c-2.09,1.2-4.3,2.2-6.45,3.29-2.62-1-1.35-3.12-1.52-4.84L409,610l-.94-.46Z"/><path class="cls-7" d="M408,610.5c.17,1.72-1.1,3.89,1.52,4.84-2.36,1.38-4.15-.26-5.92-1.27-11.8-6.75-23.55-13.58-35.32-20.39l17.91-6.31,21.62,12.31.19,9.89Z"/><path class="cls-8" d="M245.77,608.21l2.35,1.5C246.14,611.08,246.18,609.29,245.77,608.21Z"/><path class="cls-8" d="M232,600.5c1.14-.09,2.29-.2,2.38,1.43Z"/><path class="cls-8" d="M242.71,606.65c1.14-.09,2.29-.21,2.37,1.44Z"/><path class="cls-8" d="M250.4,611.25c1.14-.1,2.28-.2,2.36,1.44Z"/><path class="cls-8" d="M253.45,612.81l2.41,1.38Z"/><path class="cls-8" d="M227.34,597.46l1.64,1.39Z"/><path class="cls-8" d="M235,602.05c.53.48,1.07,1,1.61,1.42C236.1,603,235.56,602.53,235,602.05Z"/><path class="cls-9" d="M249.61,165.64,248.23,185l-10.11,4c-1.66-1.31-3.61-2.38-4.92-4-3.17-3.86-2.9-8.34.52-12.07C238,168.27,243.54,166.37,249.61,165.64Z"/><path class="cls-10" d="M263.54,185c.26-5.68.5-11.36.82-17,0-.56.53-1.09.81-1.63,3,1.28,6.37,2.09,9,3.91,8.37,5.73,7.64,14-1.41,18.76Z"/><path class="cls-11" d="M238.12,189l10.11-4,0,7.61Z"/><path class="cls-11" d="M263.54,185l9.25,4-9.26,3.38Q263.53,188.73,263.54,185Z"/><path class="cls-12" d="M196.73,352.27c4.82,2.6,9.68,5.11,14.41,7.87a4.74,4.74,0,0,1,1.7,3,29.49,29.49,0,0,1,.07,5V539.39c-3-1.65-5.32-2.88-7.6-4.2q-28.81-16.7-57.62-33.39-32.11-18.58-64.27-37.11-19-11-38.06-22.09c-.68-.4-1.09-1.27-1.62-1.92a13.29,13.29,0,0,0,1.39-.61q30-17.29,60-34.61c12.36-7.15,24.68-14.38,37.05-21.52s25-14.31,37.48-21.52C185.37,359.11,191,355.66,196.73,352.27Z"/><path class="cls-13" d="M196.73,352.27c-5.7,3.39-11.36,6.84-17.1,10.15-12.47,7.21-25,14.32-37.48,21.52s-24.69,14.37-37.05,21.52q-30,17.34-60,34.61a13.29,13.29,0,0,1-1.39.61,31.77,31.77,0,0,1-.6-4.41c0-37.75-.08-75.49,0-113.24.06-18.78.45-37.55.7-56.33,0-.74.16-1.47.3-2.79,2.09,1,3.92,1.86,5.64,2.85Q65,275.48,80.23,284.27c9.66,5.62,19.24,11.38,28.91,17,8.14,4.71,16.38,9.25,24.53,13.94,5.61,3.22,11.09,6.65,16.71,9.86,13.2,7.56,26.47,15,39.66,22.59C192.38,349,194.5,350.71,196.73,352.27Z"/><path class="cls-14" d="M314.89,353.66c.28-.38.49-.92.87-1.13,7.54-4.17,15.15-8.24,22.66-12.47,7.18-4,14.26-8.25,21.4-12.35q14.51-8.34,29.05-16.62c7.38-4.2,14.83-8.29,22.17-12.56s14.78-9,22.26-13.29c9.64-5.58,19.37-11,29.05-16.48v55a7.6,7.6,0,0,1-.06,2.66c-.83,2.09-.22,3.78,1,5.41-.94.65-1.85,1.36-2.83,1.93-12,7-24.11,13.88-36.12,20.88a24.67,24.67,0,0,0-3.5,3.08c-.05,1.4-.15,2.8-.15,4.19,0,15,0,30.05,0,45.07a31.13,31.13,0,0,1-.51,4.05,16,16,0,0,1-3.18-1c-5.43-3.08-10.71-6.43-16.22-9.36-7.38-3.93-14-9.45-22.61-10.85-.52-.37-1-.78-1.56-1.1-16.2-9.37-32.39-18.77-48.62-28.07C323.69,358.15,319.25,356,314.89,353.66Z"/><path class="cls-15" d="M314.89,353.66c4.36,2.31,8.8,4.49,13.09,6.95,16.23,9.3,32.42,18.7,48.62,28.07.55.32,1,.73,1.56,1.1l-7.27,1.55c-4,1.11-8.11,1.88-11.92,3.42a66.58,66.58,0,0,0-19.55,12.07c-1.21.9-2.5,1.72-3.62,2.73a89.41,89.41,0,0,0-16.19,18.66c-2.94,4.7-5.15,9.85-7.69,14.8-1.31,3.1-2.87,6.12-3.86,9.31-1.48,4.77-2.56,9.67-3.8,14.51l-2.48,0c-.06-1.4-.16-2.8-.16-4.2,0-32.55,0-65.1-.05-97.65,0-2.59.6-4.2,3.05-5.41C308.16,357.85,311.48,355.66,314.89,353.66Z"/><path class="cls-16" d="M301.78,466.86l2.48,0c-.27,3.42-.56,6.83-.81,10.24-.14,1.78.38,2.81,2.24,3.81,7.28,3.9,14.3,8.27,21.49,12.33,5.06,2.86,10.23,5.51,15.35,8.25l7.58-3.44c4.81,2.77,9.64,5.51,14.44,8.31,2.06,1.2,5.05,2.08,5.8,3.87.69,1.63-1.08,4.3-1.76,6.5a59.06,59.06,0,0,1-14.51,16.5,19.54,19.54,0,0,1-3.94-1.28q-10-5.7-19.85-11.6c-2.3-1.38-4.14-1.58-6.66-.05-7.19,4.37-14.62,8.35-21.95,12.48Z"/><path class="cls-2" d="M472,326.69l-8.71,5.12c-1.25-1.63-1.86-3.32-1-5.41a7.6,7.6,0,0,0,.06-2.66v-55l8.45-5.18v4.87c0,17.9,0,35.81.06,53.72C470.87,323.68,471.62,325.19,472,326.69Z"/><path class="cls-17" d="M561.17,335.54c11.23,5.32,17.49,14.46,20.3,26.31,3.62,15.25,3.47,30.6,1.63,46.07a138,138,0,0,1-7.75,31.91,123.16,123.16,0,0,1-18.18,33.06c-3.6,4.62-7.37,9.11-11.06,13.67-8.7,7.88-17.68,15.37-27.91,21.27C500,518.33,481.83,529,463.62,539.45a19.9,19.9,0,0,1-4.26,1.31q0-75.72,0-151.46c0-3.32.05-6.64.08-10,6.53-3.65,13.09-7.24,19.57-11q14.91-8.57,29.71-17.3c3.81-2.25,7.5-4.7,11.24-7.06,3.47-1.37,7-2.56,10.4-4.16a55.39,55.39,0,0,1,18.73-5.13ZM490.7,445.87a22,22,0,0,0-.66,3.72q-.06,20.31,0,40.62a17.18,17.18,0,0,0,.69,3.35,5.4,5.4,0,0,0,1.29-.15c10.64-6.15,21.63-11.75,31.41-19.24,3.56-2.73,6.45-6.34,9.65-9.54a41.38,41.38,0,0,0,3.49-3.52c11.76-14.95,16.27-32.38,17-51a84.84,84.84,0,0,0-.85-16.79,54,54,0,0,0-4.44-13.72,13.28,13.28,0,0,0-9.84-7.86c-8.79-1.3-16.92,1.06-24.19,6.25a27.74,27.74,0,0,0-3.12,1.31c-6,3.42-11.87,7-17.92,10.29-2.33,1.27-3.15,2.78-3.13,5.44.12,15.7,0,31.4.07,47.1A24.93,24.93,0,0,0,490.7,445.87Z"/><path class="cls-18" d="M561.17,335.54l-12-.83c-3.54-2.39-7-4.91-10.64-7.13-6.2-3.8-12.38-7.69-18.85-11-3.62-1.85-7.11-4.68-11.68-4l7.24-.6c11,1.26,19.25,8.33,28.49,13.29C549.63,328.44,555.34,332.09,561.17,335.54Z"/><path class="cls-19" d="M420.87,357.7a24.67,24.67,0,0,1,3.5-3.08c12-7,24.08-13.92,36.12-20.88,1-.57,1.89-1.28,2.83-1.93l8.71-5.12,9.61-4.94c3.6,1.71,7.29,3.24,10.77,5.16q10.36,5.71,20.54,11.81a80.73,80.73,0,0,1,7,5.28c-3.74,2.36-7.43,4.81-11.24,7.06q-14.81,8.73-29.71,17.3c-6.48,3.73-13,7.32-19.57,11-1.25-.85-2.45-1.79-3.76-2.54-7.14-4.07-14.28-8.15-21.47-12.12C429.84,362.24,425.33,360,420.87,357.7Z"/><path class="cls-20" d="M520,344a80.73,80.73,0,0,0-7-5.28q-10.16-6.09-20.54-11.81c-3.48-1.92-7.17-3.45-10.77-5.16a80.18,80.18,0,0,1,22.91-9,19.18,19.18,0,0,1,3.4-.21c4.57-.64,8.06,2.19,11.68,4,6.47,3.3,12.65,7.19,18.85,11,3.64,2.22,7.1,4.74,10.64,7.13a55.39,55.39,0,0,0-18.73,5.13C527,341.44,523.46,342.63,520,344Z"/><path class="cls-21" d="M420.87,357.7c4.46,2.32,9,4.54,13.37,7,7.19,4,14.33,8.05,21.47,12.12,1.31.75,2.51,1.69,3.76,2.54,0,3.33-.08,6.65-.08,10q0,75.74,0,151.46a61.26,61.26,0,0,1-5.64-2.41c-5.63-3.06-11.18-6.23-16.77-9.36,1.2-4.94,2.82-9.82,3.5-14.83,1.12-8.18,1.85-16.43-1.54-24.41-2.89-6.81-8.28-10.57-15.68-10.64h-2.94c2.95-4.51,6-8.44,8.25-12.76,6.84-13,10.49-26.59,5.41-41.12-2-5.76-5.83-10.14-12.23-11.49l-.82-.66a4,4,0,0,0-.66-.16c0-.64-.05-1.27-.07-1.91a31.13,31.13,0,0,0,.51-4.05c0-15,0-30,0-45.07C420.72,360.5,420.82,359.1,420.87,357.7Z"/><path class="cls-22" d="M514.27,378c7.27-5.19,15.4-7.55,24.19-6.25a13.28,13.28,0,0,1,9.84,7.86,54,54,0,0,1,4.44,13.72,84.84,84.84,0,0,1,.85,16.79c-.74,18.59-5.25,36-17,51a41.38,41.38,0,0,1-3.49,3.52,7,7,0,0,1-1.45-.46c-8-4.74-16-9.57-24.08-14.22-4.38-2.53-8.92-4.76-13.39-7.13a15.63,15.63,0,0,1,1.07-1.58C510.79,422.93,515.52,401.38,514.27,378Z"/><path class="cls-23" d="M494.17,442.82c4.47,2.37,9,4.6,13.39,7.13,8.08,4.65,16.05,9.48,24.08,14.22a7,7,0,0,0,1.45.46c-3.2,3.2-6.09,6.81-9.65,9.54-9.78,7.49-20.77,13.09-31.41,19.24a5.4,5.4,0,0,1-1.29.15,17.18,17.18,0,0,1-.69-3.35q-.07-20.31,0-40.62a22,22,0,0,1,.66-3.72Z"/><path class="cls-24" d="M494.17,442.82l-3.47,3.05a24.93,24.93,0,0,1-.53-3.71c0-15.7.05-31.4-.07-47.1,0-2.66.8-4.17,3.13-5.44,6-3.29,11.94-6.87,17.92-10.29a27.74,27.74,0,0,1,3.12-1.31c1.25,23.36-3.48,44.91-19,63.22A15.63,15.63,0,0,0,494.17,442.82Z"/><path class="cls-17" d="M368.3,593.68c-3.52-.18-7.33.41-10.51-.74-4.76-1.73-9.07-4.68-13.57-7.12a13.78,13.78,0,0,0-.36-2.83c-.88-2.51-2-4.93-2.83-7.46-2-6.38-2-13-2.28-19.62A28.2,28.2,0,0,0,343,554.3c6.49-3.73,12.9-7.6,19.4-11.34a13.7,13.7,0,0,1,3.25-.92c.25,1.49.46,3,.75,4.48.48,2.47.56,5.14,1.61,7.35,2.46,5.18,4.66,7.87,10.46,7.58a23.54,23.54,0,0,0,10.34-3.26A42.26,42.26,0,0,0,407.09,539c.84-1.95,1.66-3.9,2.54-5.83A28.79,28.79,0,0,0,411.58,514c-1.39-5.74-6-8.43-11.78-7.51-5.17.82-9.58,3.25-14,5.78l-5.51,3.16v-23.2c5.15-1.28,9.2-4.53,13.24-7.7a50.67,50.67,0,0,0,5.14-5.31c1.45-1.37,3.22-2.53,4.29-4.15,5.08-7.65,8.08-15.8,5-25.1-1.6-4.8-5.58-6.83-10.46-5.61a33.15,33.15,0,0,0-15.84,9.45c-2.93,3-6.22,6.09-7,10.65A8.91,8.91,0,0,0,373,466.7c-2.11,6.49-4.18,13-3.68,20l-2.93,1.7L350.11,498l-7.58,3.44a77.47,77.47,0,0,1,3-20.54c1.55-5.2,3.32-10.34,5-15.5A99.43,99.43,0,0,1,374,432.76c1.16-1.08,2.17-2.33,3.25-3.51,1.4-.8,2.86-1.52,4.2-2.41,7.36-4.85,14.68-9.75,23.32-12.14a7.46,7.46,0,0,0,1.58-.87l13.94-.91a4,4,0,0,1,.66.16l.82.66c6.4,1.35,10.21,5.73,12.23,11.49,5.08,14.53,1.43,28.12-5.41,41.12-2.27,4.32-5.3,8.25-8.25,12.76h2.94c7.4.07,12.79,3.83,15.68,10.64,3.39,8,2.66,16.23,1.54,24.41-.68,5-2.3,9.89-3.5,14.83a4.51,4.51,0,0,0-.61.93,103.27,103.27,0,0,1-33.22,45.77c-5.34,4.26-11.26,7.81-16.91,11.68Z"/><path class="cls-25" d="M338.75,555.91c.23,6.6.25,13.24,2.28,19.62.8,2.53,2,5,2.83,7.46a13.78,13.78,0,0,1,.36,2.83c-3.22-1.67-6.43-3.35-9.65-5-3.71-1.93-7.44-3.84-11.16-5.76-3.11-1.92-6.17-3.95-9.36-5.73a24.48,24.48,0,0,1-12.64-18c-.93-5.34-1.05-10.83-1.53-16.24.58-.07,1.31-.41,1.72-.17,10.27,5.9,20.5,11.89,30.77,17.8C334.43,553.89,336.62,554.84,338.75,555.91Z"/><path class="cls-20" d="M301.68,532.75c7.33-4.13,14.76-8.11,21.95-12.48,2.52-1.53,4.36-1.33,6.66.05q9.85,5.91,19.85,11.6a19.54,19.54,0,0,0,3.94,1.28c.4.59.68,1.4,1.23,1.73,2.64,1.57,5.4,2.92,8,4.53a12.3,12.3,0,0,1,2.32,2.58,13.7,13.7,0,0,0-3.25.92c-6.5,3.74-12.91,7.61-19.4,11.34a28.2,28.2,0,0,1-4.23,1.61c-2.13-1.07-4.32-2-6.38-3.21-10.27-5.91-20.5-11.9-30.77-17.8-.41-.24-1.14.1-1.72.17Z"/><path class="cls-23" d="M311.92,443c2.54-4.95,4.75-10.1,7.69-14.8a89.41,89.41,0,0,1,16.19-18.66c1.12-1,2.41-1.83,3.62-2.73.3.4.51,1,.91,1.19,7.52,4.34,15.08,8.64,22.62,13,4.76,2.74,9.5,5.51,14.25,8.27-1.08,1.18-2.09,2.43-3.25,3.51a99.43,99.43,0,0,0-23.48,32.66,13.07,13.07,0,0,0-2.52-2.66c-9.7-5.71-19.43-11.38-29.22-16.93A58.35,58.35,0,0,0,311.92,443Z"/><path class="cls-26" d="M311.92,443a58.35,58.35,0,0,1,6.81,2.82c9.79,5.55,19.52,11.22,29.22,16.93a13.07,13.07,0,0,1,2.52,2.66c-1.67,5.16-3.44,10.3-5,15.5a77.47,77.47,0,0,0-3,20.54c-5.12-2.74-10.29-5.39-15.35-8.25-7.19-4.06-14.21-8.43-21.49-12.33-1.86-1-2.38-2-2.24-3.81.25-3.41.54-6.82.81-10.24,1.24-4.84,2.32-9.74,3.8-14.51C309.05,449.13,310.61,446.11,311.92,443Z"/><path class="cls-20" d="M377.2,429.25c-4.75-2.76-9.49-5.53-14.25-8.27-7.54-4.33-15.1-8.63-22.62-13-.4-.23-.61-.79-.91-1.19A66.58,66.58,0,0,1,359,394.75c3.81-1.54,7.94-2.31,11.92-3.42a12.66,12.66,0,0,0,2.13,2c8.74,5.06,17.54,10,26.25,15.11,2.54,1.49,5.56,2.44,7,5.37a7.46,7.46,0,0,1-1.58.87c-8.64,2.39-16,7.29-23.32,12.14C380.06,427.73,378.6,428.45,377.2,429.25Z"/><path class="cls-23" d="M365.63,542a12.3,12.3,0,0,0-2.32-2.58c-2.6-1.61-5.36-3-8-4.53-.55-.33-.83-1.14-1.23-1.73a59.06,59.06,0,0,0,14.51-16.5c1.59,1,3.15,2.09,4.78,3,6.67,3.83,13.37,7.6,20.05,11.42,4.56,2.61,9.11,5.25,13.67,7.88a42.26,42.26,0,0,1-18.3,19.16,23.54,23.54,0,0,1-10.34,3.26c-5.8.29-8-2.4-10.46-7.58-1.05-2.21-1.13-4.88-1.61-7.35C366.09,545,365.88,543.53,365.63,542Z"/><path class="cls-21" d="M407.09,539c-4.56-2.63-9.11-5.27-13.67-7.88-6.68-3.82-13.38-7.59-20.05-11.42-1.63-.94-3.19-2-4.78-3,.68-2.2,2.45-4.87,1.76-6.5-.75-1.79-3.74-2.67-5.8-3.87-4.8-2.8-9.63-5.54-14.44-8.31l16.31-9.63,2.93-1.7,10.95,5.5v23.2l5.51-3.16c4.41-2.53,8.82-5,14-5.78,5.77-.92,10.39,1.77,11.78,7.51a28.79,28.79,0,0,1-1.95,19.24C408.75,535.13,407.93,537.08,407.09,539Z"/><path class="cls-21" d="M374.65,464.42c.77-4.56,4.06-7.62,7-10.65a33.15,33.15,0,0,1,15.84-9.45c4.88-1.22,8.86.81,10.46,5.61,3.11,9.3.11,17.45-5,25.1-1.07,1.62-2.84,2.78-4.29,4.15-4.74-2.83-9.49-5.62-14.2-8.5C381.17,468.65,377.92,466.51,374.65,464.42Z"/><path class="cls-23" d="M374.65,464.42c3.27,2.09,6.52,4.23,9.83,6.26,4.71,2.88,9.46,5.67,14.2,8.5a50.67,50.67,0,0,1-5.14,5.31c-4,3.17-8.09,6.42-13.24,7.7l-10.95-5.5c-.5-7,1.57-13.5,3.68-20A8.91,8.91,0,0,1,374.65,464.42Z"/><path class="cls-27" d="M406.3,413.83c-1.47-2.93-4.49-3.88-7-5.37-8.71-5.1-17.51-10-26.25-15.11a12.66,12.66,0,0,1-2.13-2l7.27-1.55c8.6,1.4,15.23,6.92,22.61,10.85,5.51,2.93,10.79,6.28,16.22,9.36a16,16,0,0,0,3.18,1c0,.64,0,1.27.07,1.91Z"/><path class="cls-27" d="M420.9,413.08l.82.66Z"/><path class="cls-5" d="M408,610.5v-.93l.94.46Z"/></g></g></svg>