<svg xmlns="http://www.w3.org/2000/svg" xmlns:xlink="http://www.w3.org/1999/xlink" viewBox="0 0 175.15 209.59"><defs><style>.cls-1{isolation:isolate;}.cls-2{fill:#2f7437;}.cls-3{fill:#046535;}.cls-4{opacity:0.58;fill:url(#未命名漸層_33);}.cls-5{fill:#e99214;}.cls-6{fill:url(#新增漸層色票_2);}.cls-7{fill:url(#新增漸層色票_2-2);}.cls-8{fill:url(#新增漸層色票_2-3);}.cls-9{fill:url(#新增漸層色票_2-4);}.cls-10{fill:url(#未命名漸層_63);}.cls-11{fill:url(#未命名漸層_64);}.cls-12,.cls-20{fill:#545354;}.cls-12{opacity:0.57;}.cls-13{fill:#f7f7f7;}.cls-14{fill:#80b9e5;}.cls-15{fill:#424144;}.cls-16{fill:#fff;}.cls-17{fill:#ed9027;}.cls-18{fill:#5d5e5e;}.cls-19{fill:#565657;}.cls-21{fill:#ccc;mix-blend-mode:multiply;}</style><linearGradient id="未命名漸層_33" x1="1.77" y1="-57.93" x2="45.92" y2="45.08" gradientTransform="translate(55.27 97.5) rotate(-0.69)" gradientUnits="userSpaceOnUse"><stop offset="0.11" stop-color="#f0ee88"/><stop offset="0.28" stop-color="#b8c56e"/><stop offset="0.45" stop-color="#89a359"/><stop offset="0.61" stop-color="#658948"/><stop offset="0.76" stop-color="#4a763c"/><stop offset="0.9" stop-color="#3b6a35"/><stop offset="1" stop-color="#356632"/></linearGradient><linearGradient id="新增漸層色票_2" x1="101.1" y1="18.1" x2="117.62" y2="18.1" gradientTransform="matrix(0.99, -0.11, 0.11, 0.99, 53.32, 17.21)" gradientUnits="userSpaceOnUse"><stop offset="0" stop-color="#3a72a8"/><stop offset="0.63" stop-color="#5e96c0"/><stop offset="1" stop-color="#6da5ca"/></linearGradient><linearGradient id="新增漸層色票_2-2" x1="84.72" y1="29.82" x2="96.42" y2="29.82" xlink:href="#新增漸層色票_2"/><linearGradient id="新增漸層色票_2-3" x1="-18.52" y1="-299.09" x2="0.81" y2="-299.09" gradientTransform="matrix(0.82, 0.25, -0.25, 0.82, -58.69, 266.95)" xlink:href="#新增漸層色票_2"/><linearGradient id="新增漸層色票_2-4" x1="-2.97" y1="-289.18" x2="15.79" y2="-289.18" gradientTransform="matrix(0.82, 0.25, -0.25, 0.82, -58.69, 266.95)" xlink:href="#新增漸層色票_2"/><linearGradient id="未命名漸層_63" x1="5.72" y1="-70.68" x2="42.03" y2="50.02" gradientTransform="translate(55.27 97.5) rotate(-0.69)" gradientUnits="userSpaceOnUse"><stop offset="0" stop-color="#addac8"/><stop offset="0.5" stop-color="#abd9c7"/><stop offset="0.69" stop-color="#a4d7c4"/><stop offset="0.84" stop-color="#98d2bf"/><stop offset="0.95" stop-color="#87ccb7"/><stop offset="1" stop-color="#7dc8b3"/></linearGradient><linearGradient id="未命名漸層_64" x1="15.83" y1="-76.1" x2="39.79" y2="74.63" gradientTransform="translate(55.27 97.5) rotate(-0.69)" gradientUnits="userSpaceOnUse"><stop offset="0" stop-color="#fff" stop-opacity="0"/><stop offset="0.97" stop-color="#141010" stop-opacity="0.47"/><stop offset="0.99" stop-color="#040000" stop-opacity="0.5"/></linearGradient></defs><title>資產 5</title><g class="cls-1"><g id="圖層_2" data-name="圖層 2"><g id="圖層_1-2" data-name="圖層 1"><polygon class="cls-2" points="86.64 145.54 87.07 204.89 126.84 208.96 106.02 190.05 106.25 145.4 86.64 145.54"/><path class="cls-3" d="M89.45,169a36.58,36.58,0,0,1,6.9,9.64c1-1.4,2.08-2.8,3.07-4.22.13-.18,1.1-1.67.78-1.16q.51-.81,1-1.62,1.26-2.15,2.37-4.37c.74-1.49,1.43-3,2.1-4.51.17-.39.34-.78.5-1.17l.08-16.14-19.6.14.14,19.36Q88.09,166.94,89.45,169Z"/><polygon class="cls-2" points="77.39 145.61 77.81 204.96 38.09 209.59 58.65 190.39 57.79 145.75 77.39 145.61"/><path class="cls-3" d="M63.44,176.56l.34.29c.81-1.1,1.63-2.19,2.49-3.26a35.84,35.84,0,0,1,4.37-7c.94-1.28,1.84-2.59,2.77-3.88.48-.68,1-1.35,1.44-2-.11.11,1-1.73,1.13-2a13.22,13.22,0,0,1,1.48-2.25l-.07-10.79-19.6.14.38,19.84C60.7,168.72,62.06,172.67,63.44,176.56Z"/><path class="cls-4" d="M81.62,13.72s-14.17-.62-22.79,1.85S46.69,20,42.8,24C30.26,36.86,27.43,54.92,27.64,72.2c.13,10.48.83,20.93,1.12,31.41.21,7.75.39,15.49.63,23.25q.27,8.92.53,17.87c.11,4,.24,8,.31,12,0,.13,0,.26,0,.39l.06,5.51,5.41-7.94,6.45,12.51,6.14-12.66L54,170.24l6.06-19,7.32,19.59,6.86-18.18,8.06,15.64L90,153.28l8.88,18.78L105,153.89l6.49,16.45,6.06-19,8.07,16.43,6.09-17.39,8,8.56s1-51.15.08-58.22c-.08-7.08.36-36.2-.54-45.63s-.94-12.58-3.37-18.06-6.41-10.15-13.56-15.57-16.61-6.89-23.7-7.59A138.77,138.77,0,0,0,81.62,13.72Z"/><path class="cls-3" d="M36.25,70a1.41,1.41,0,0,1,1.63.85,1.88,1.88,0,0,1-.15,1.55c.32-.12.64-.25,1-.36A1.21,1.21,0,0,1,39,72a3.06,3.06,0,0,0-.33-.84,3.76,3.76,0,0,0-2-1.6A3.48,3.48,0,0,1,36.25,70Z"/><path class="cls-2" d="M156.34,77.67a38.64,38.64,0,0,0-14.12-9.55c-3.31-1.24-12.88-4.1-14.87.64-.85,2,.84,4.52,2.59,6a30.69,30.69,0,0,0,5.8,3.59c1.74.88,3.5,1.72,5.18,2.73,12.21,7.33,24.38,30.41,22.07,45.86h0c-1.56,2.2-1.56,2.2-5.77,2.79s-7.36,1.73-6.27,5,10,.42,10,.42c-1.57,1.66-5.71,7.7-3.05,9.84s5.75-3.88,5.75-3.88c-1,2.19-.44,6.54-.44,6.54s1.6,1.62,4.21-.59a17,17,0,0,0,4.66-6.59,53.92,53.92,0,0,0,1.44-7.64,6.63,6.63,0,0,0,.8-2.19C177.89,111.6,169.49,91.32,156.34,77.67Z"/><path class="cls-3" d="M163,126.58a7.83,7.83,0,0,0,1-1.94c.36-1.13.43-2.36.68-3.52-.24-1.8-.25-3.63-.53-5.43a47.56,47.56,0,0,0-3.37-10.85,70.89,70.89,0,0,0-11.59-18.71c-4.06-4.58-9.42-8.67-15.26-10.29-1.23-.34-2.46-.63-3.7-.88a31.66,31.66,0,0,0,5.51,3.37c1.74.88,3.5,1.72,5.18,2.73C153,88.34,165.11,111.13,163,126.58Z"/><path class="cls-3" d="M161.13,135.19a2.92,2.92,0,0,1,.22-.65l.19-.32a49.71,49.71,0,0,1-10.48.75c1.53,2.79,9.9.13,9.9.13l-.21.23Z"/><path class="cls-3" d="M163.34,142a6.77,6.77,0,0,1,.36-.65,6.53,6.53,0,0,0-.1-.72,5,5,0,0,1-.7.47,4.16,4.16,0,0,1-1.38,1.31l-.28.13-.06.06a2.31,2.31,0,0,0-.24.2l-.8.68a10.69,10.69,0,0,1-2.2,1.47c2.66,2.08,5.72-3.9,5.72-3.9A6.22,6.22,0,0,0,163.34,142Z"/><path class="cls-3" d="M172.55,136.31a20.37,20.37,0,0,1-3.2,7,5.83,5.83,0,0,1-1.3,1.45c0,.06-.05.1-.07.16a4.09,4.09,0,0,1-.92,1.15l-.37.28-.08.17a4.84,4.84,0,0,1-2,1.66,4,4,0,0,0,2.79-1.16,17,17,0,0,0,4.66-6.59,37.35,37.35,0,0,0,1-4.65A3.94,3.94,0,0,1,172.55,136.31Z"/><path class="cls-5" d="M137,52.36c26.46-12.44,46.7-35.2,32.84-52-2.31,12.43-4.56,18.34-23.86,26.82-7.47,3.14-12.17,3.53-16.14,2.89Z"/><path class="cls-6" d="M164,15.49s3,1.41,8.1,6.22c0,0-1.16,4.13-5.78,9.08,0,0-1,2.09-10.77-8.47L160.25,19Z"/><path class="cls-7" d="M139.87,29.29s3.92,14.85,7.22,17.61c1-.6,4.77-3.08,5.87-3.89s-5.83-15.13-7-15.86A20.8,20.8,0,0,1,139.87,29.29Z"/><path class="cls-5" d="M31.13,48.6C-13.16,35.58-1.8,5.58,15.06,0c-7.34,2.43-.73,17.26,2.56,20,1.66,1.38,21.71,11.62,23.56,7.79Z"/><path class="cls-8" d="M13.52,13.33c0-.07-7.8,2.16-8.62,2.57-4.83,2.43-5.64,4-4.35,9.37,1.82,7.58,14.34-3,17.07-5.27Z"/><path class="cls-9" d="M24.27,23.59s-11.8,3.21-15.4,13.9c0,0,1,2.16,7.86,5.34,0,0,10.46-10.06,12.58-17Z"/><path class="cls-10" d="M80.81,11.37S66.64,10.75,58,13.22s-12.14,4.47-16,8.45C29.45,34.51,26.62,52.57,26.83,69.85c.12,10.48.83,20.93,1.11,31.41.21,7.75.4,15.49.63,23.25q.27,8.92.53,17.87c.12,4,.25,8,.31,12,0,.13,0,.26,0,.39l.07,5.5,5.41-7.93,6.44,12.51,6.15-12.66,5.69,15.67,6.07-19,7.32,19.58,6.86-18.17L81.49,166l7.68-15,8.88,18.78,6.08-18.17L110.62,168l6.07-19,8.06,16.43,6.09-17.39,8,8.56s1-51.15.09-58.23c-.09-7.08.35-36.19-.55-45.62S137.41,40.2,135,34.72s-6.42-10.15-13.57-15.58-16.6-6.88-23.69-7.58A138.77,138.77,0,0,0,80.81,11.37Z"/><path class="cls-11" d="M80.69,7.56S66.54,6.94,57.92,9.41s-12.12,4.47-16,8.45C29.4,30.7,26.57,48.75,26.78,66c.13,10.48.83,20.93,1.11,31.4.22,7.76.4,15.5.63,23.26q.27,8.92.53,17.87c.12,4,.25,8,.32,12V151l.07,5.5,5.4-7.93,6.44,12.51,6.13-12.66,5.69,15.67,6.06-19,7.31,19.58,6.85-18.18,8.05,15.64,7.67-15,8.87,18.78L104,147.73l6.48,16.45,6.06-19,8.06,16.43,6.08-17.39,8,8.56s.95-51.15.08-58.22c-.08-7.08.35-36.2-.55-45.63s-.93-12.58-3.35-18.06-6.41-10.15-13.55-15.57S104.67,8.45,97.59,7.75A138.44,138.44,0,0,0,80.69,7.56Z"/><ellipse class="cls-12" cx="53.45" cy="48.46" rx="16.34" ry="16.06" transform="translate(-0.58 0.65) rotate(-0.69)"/><circle class="cls-13" cx="52.93" cy="48.29" r="16.13"/><ellipse class="cls-12" cx="111.15" cy="47.07" rx="14.24" ry="13.49" transform="translate(-0.56 1.34) rotate(-0.69)"/><circle class="cls-13" cx="110.35" cy="46.82" r="13.77"/><circle class="cls-14" cx="57.53" cy="45.79" r="11.01"/><circle class="cls-14" cx="107.58" cy="45.67" r="11.01"/><circle class="cls-15" cx="59.16" cy="45.77" r="7.08"/><circle class="cls-16" cx="62.49" cy="45.73" r="3.17"/><circle class="cls-15" cx="104.86" cy="45.7" r="7.08"/><path class="cls-17" d="M83,44.84c-2.69-.48-5.2,1.68-6.54,5.45a38.28,38.28,0,0,0-1.94,15.14c.38,4.65,3.3,14.92,10,11.59a9.68,9.68,0,0,0,4.3-5.31c2.59-6.55,2.82-16.94-1.12-23.06C86.22,46.32,84.58,45.12,83,44.84Z"/><path class="cls-18" d="M75.06,68.76l14.75-.18a30.29,30.29,0,0,0,.6-3.15l-15.88.19A23.12,23.12,0,0,0,75.06,68.76Z"/><path class="cls-18" d="M74.42,61.69l16.3-.2c0-1.05,0-2.1-.09-3.14l-16,.19C74.52,59.59,74.44,60.64,74.42,61.69Z"/><path class="cls-18" d="M75.26,54.6,90,54.42a22.06,22.06,0,0,0-1-3.14l-13,.16C75.77,52.46,75.49,53.51,75.26,54.6Z"/><rect class="cls-19" x="30.44" y="75.95" width="20.29" height="1.9" transform="translate(-31.31 27.99) rotate(-27.95)"/><rect class="cls-19" x="126.67" y="67.14" width="1.9" height="17.94" transform="translate(-10.16 131.78) rotate(-52.81)"/><polygon class="cls-16" points="57.16 102.57 51.46 110.11 46.02 104.94 51.73 97.4 57.16 102.57"/><polygon class="cls-16" points="100.4 111.31 97.4 105.21 104.07 101.99 107.08 108.09 100.4 111.31"/><polygon class="cls-16" points="56.86 111.57 58.19 103.81 65.44 105.46 64.12 113.22 56.86 111.57"/><path class="cls-19" d="M79.6,107.54C66.29,107.7,56,104.23,49,97.22a29.15,29.15,0,0,1-8.48-20.06l1.9,0c.16,13.35,10,28.83,37.16,28.5,26.88-.32,46.08-12.48,46.69-29.55l1.9.06C127.52,94.3,107.55,107.21,79.6,107.54Z"/><path class="cls-20" d="M53.82,70.81c-12.18.14-22.2-9.28-22.34-21s9.65-21.39,21.83-21.53,22.2,9.27,22.34,21S66,70.66,53.82,70.81Zm-.47-39.2C43,31.73,34.69,39.88,34.81,49.77s8.63,17.83,19,17.71,18.66-8.27,18.54-18.16S63.69,31.48,53.35,31.61Z"/><path class="cls-20" d="M111,69.58c-12.17.14-22.19-9.28-22.34-21s9.65-21.39,21.83-21.53,22.2,9.27,22.34,21S123.16,69.43,111,69.58Zm-.47-39.2C100.17,30.5,91.85,38.65,92,48.54s8.63,17.83,19,17.71S129.6,58,129.48,48.09,120.85,30.25,110.51,30.38Z"/><path class="cls-20" d="M90,47.65c-8.8-3.58-14.77-.1-15,.05l-3-4.85c.34-.21,8.55-5.21,20.17-.49Z"/><path class="cls-20" d="M25.71,42.53l.1,8.16s7.3,1.17,8.6,5.15c.17.19-4.32-11.73,2.14-17.8C36.55,38.3,31.7,42.45,25.71,42.53Z"/><path class="cls-20" d="M138.88,39.92l.33,8.16s-7.23,1.55-8.32,5.6c-.16.2,3.7-12-3.07-17.66C127.83,36.28,132.89,40.17,138.88,39.92Z"/><path class="cls-21" d="M25.87,46.23a3.68,3.68,0,0,1,0-.47,1.89,1.89,0,0,1,0-.41,2.77,2.77,0,0,1,0-.5V44.6c0-.12,0-.24,0-.35s0-.31,0-.47v-.34a2.72,2.72,0,0,1,0-.28v-.53a35.75,35.75,0,0,1-11-5.57,21.35,21.35,0,0,1-4.52-4.7,13.63,13.63,0,0,1-2.12-2.44,13.35,13.35,0,0,1-2.14-4.8,18.06,18.06,0,0,1-1-12.27C5.37,8.77,7.65,5,10.76,2.18c.19-.18.39-.34.59-.51C-2.54,9.65-9.18,34.2,25.89,46.88v0C25.87,46.65,25.87,46.44,25.87,46.23Z"/><path class="cls-21" d="M169.8.33c0,.07,0,.14,0,.21A11.93,11.93,0,0,1,170,1.83s0,.17,0,.33c2,4,1.83,9.94.65,13.94a23.38,23.38,0,0,1-1.3,3.36c-3,7.29-9.25,13.41-16,17-2,1-4,2-6,3l-.4.19c-.72.37-1.45.73-2.18,1.08s-1.44.63-2.18.91c-1.21.44-2.45.84-3.69,1.18,0,.14,0,.27,0,.41A9.07,9.07,0,0,1,139,45c.05.66.19,1.34.2,2a1.79,1.79,0,0,1,0,.36.6.6,0,0,1-.24.7,1.31,1.31,0,0,1-.86.24l-.08,0a8.22,8.22,0,0,1,.07,1.32,7.73,7.73,0,0,1,.14,1.82c0,.1,0,.19,0,.29C164,39.21,183.44,16.9,169.8.33Z"/><circle class="cls-16" cx="101.48" cy="45.26" r="3.17"/></g></g></g></svg>