<svg xmlns="http://www.w3.org/2000/svg" viewBox="0 0 404.38 419.38"><defs><style>.cls-1{isolation:isolate;}.cls-2{fill:#b3b192;}.cls-3{fill:#4a6c56;}.cls-4{fill:#768970;}.cls-5{fill:#667760;}.cls-6{fill:#656d58;}.cls-7{fill:#4f6449;}.cls-8{fill:#405f42;}.cls-9{fill:#576349;}.cls-10{fill:#465f43;}.cls-11{fill:#7f7d63;}.cls-12{fill:#908d74;}.cls-13{fill:#d9e2b9;}.cls-14{fill:#818d76;}.cls-15{fill:#b4b091;}.cls-16{fill:#77866d;}.cls-17{fill:#87846a;}.cls-18{fill:#a7c1c2;}.cls-19{fill:#edf2dd;}.cls-20{fill:#728b8f;}.cls-21{fill:#62737d;}.cls-22{fill:#c6d7ce;}.cls-23{fill:#94b5c0;}.cls-24{fill:#414d4b;}.cls-25{fill:#68a393;}.cls-26{fill:#8bc89c;}.cls-27,.cls-28{fill:#faf09f;mix-blend-mode:overlay;}.cls-27{opacity:0.6;}.cls-28{opacity:0.4;}</style></defs><title>資產 7</title><g class="cls-1"><g id="圖層_2" data-name="圖層 2"><g id="圖層_1-2" data-name="圖層 1"><polygon class="cls-2" points="0 209.22 19.85 241.57 19.85 250.02 0 209.22"/><polygon class="cls-3" points="361 235.75 404.38 230.6 370.19 281.43 348.5 283.91 361 235.75"/><polygon class="cls-4" points="79.29 309.22 100.44 367.49 149.82 347.81 129.65 319.39 79.29 309.22"/><polygon class="cls-5" points="129.65 319.39 169.46 326.54 149.82 347.81 129.65 319.39"/><polygon class="cls-6" points="149.82 347.81 211.82 364.08 215.35 320.07 169.46 326.54 149.82 347.81"/><polygon class="cls-7" points="211.82 364.08 305.44 303.29 215.35 320.07 211.82 364.08"/><polygon class="cls-8" points="305.44 303.29 295.3 338.32 269.14 377.96 269.19 326.83 305.44 303.29"/><polygon class="cls-9" points="269.19 326.83 269.14 377.96 242.63 402.14 211.82 364.08 269.19 326.83"/><polygon class="cls-10" points="211.82 364.08 193.43 419.38 242.63 402.14 211.82 364.08"/><polygon class="cls-11" points="211.82 364.08 193.43 419.38 149.82 347.81 211.82 364.08"/><polygon class="cls-12" points="149.82 347.81 100.44 367.49 193.43 419.38 149.82 347.81"/><polygon class="cls-12" points="79.29 309.22 129.65 319.39 166.41 296.6 55.05 284.84 79.29 309.22"/><polygon class="cls-7" points="129.65 319.39 166.41 296.6 169.46 326.54 129.65 319.39"/><polygon class="cls-9" points="166.41 296.6 169.46 326.54 215.35 320.07 215.35 292.68 166.41 296.6"/><polygon class="cls-4" points="215.35 320.07 215.35 292.68 305.44 280.43 305.44 303.29 215.35 320.07"/><polygon class="cls-13" points="19.85 241.63 138.96 271.77 279.39 256.7 314.68 258.74 361 235.75 404.38 230.6 370.56 190.16 173.51 161.49 43.38 178.4 0 209.28 19.85 241.63"/><polygon class="cls-14" points="138.96 271.77 177.19 304.13 279.39 256.7 138.96 271.77"/><polygon class="cls-15" points="138.96 271.77 19.85 241.63 177.19 304.13 138.96 271.77"/><polygon class="cls-16" points="19.85 241.63 19.85 250.09 177.19 314.05 177.19 304.13 19.85 241.63"/><polygon class="cls-2" points="177.19 304.13 314.68 258.74 279.39 256.7 177.19 304.13"/><polygon class="cls-17" points="177.19 304.13 314.68 258.74 331.59 281.43 254.39 304.13 177.19 304.13"/><polygon class="cls-13" points="177.19 304.13 177.19 314.05 254.39 309.09 254.39 304.13 177.19 304.13"/><polygon class="cls-3" points="254.39 304.13 254.39 309.09 348.5 283.91 331.59 281.43 254.39 304.13"/><polygon class="cls-2" points="348.5 283.91 331.59 281.43 314.68 258.74 361 235.75 348.5 283.91"/><polygon class="cls-13" points="49.51 262.14 55.05 284.84 123 292.02 49.51 262.14"/><polygon class="cls-18" points="83.22 192.89 82.55 226.81 75.91 232.78 68.83 188.95 78.18 172.82 83.22 192.89"/><path class="cls-19" d="M68.55,188.8a.28.28,0,0,0,0,.2l7.08,43.83a.32.32,0,0,0,.2.25l.11,0a.3.3,0,0,0,.21-.09l6.63-6a.3.3,0,0,0,.11-.23l.67-33.93a.25.25,0,0,0,0-.08l-5-20.06a.32.32,0,0,0-.26-.24.34.34,0,0,0-.32.16Zm.6.21,8.92-15.36,4.83,19.27-.67,33.75-6.11,5.5Z"/><polygon class="cls-20" points="75.91 232.78 68.83 232.78 64.46 190.41 68.83 188.95 75.91 232.78"/><path class="cls-19" d="M64.14,190.44l4.37,42.37a.32.32,0,0,0,.32.29h7.08a.32.32,0,0,0,.24-.11.39.39,0,0,0,.07-.26L69.13,188.9a.26.26,0,0,0-.14-.21.3.3,0,0,0-.26,0l-4.37,1.45A.32.32,0,0,0,64.14,190.44Zm.65.19,3.79-1.26,7,43.1H69.11Z"/><polygon class="cls-21" points="64.46 190.41 68.83 232.78 59.9 228.99 46.65 187.74 56.18 183.99 64.46 190.41"/><path class="cls-19" d="M46.35,187.83l13.26,41.26a.27.27,0,0,0,.17.19l8.92,3.79a.28.28,0,0,0,.13,0A.26.26,0,0,0,69,233a.31.31,0,0,0,.13-.28l-4.37-42.37a.3.3,0,0,0-.12-.22l-8.28-6.42a.29.29,0,0,0-.3,0l-9.53,3.75A.3.3,0,0,0,46.35,187.83Zm.69.09,9.09-3.57,8,6.22,4.3,41.72-8.3-3.53Z"/><polygon class="cls-22" points="67.46 168.58 78.18 172.82 68.83 188.95 64.46 190.41 56.18 183.99 58.46 167.35 67.46 168.58"/><path class="cls-19" d="M58.15,167.31l-2.28,16.63a.33.33,0,0,0,.12.3l8.27,6.42a.36.36,0,0,0,.2.06h.1l4.36-1.46a.28.28,0,0,0,.18-.14L78.46,173a.33.33,0,0,0,0-.26.31.31,0,0,0-.18-.19l-10.73-4.24L58.5,167a.31.31,0,0,0-.23.06A.28.28,0,0,0,58.15,167.31Zm-1.63,16.54,2.2-16.15,8.69,1.19L77.73,173l-9.12,15.71-4.09,1.37Z"/><polygon class="cls-23" points="58.46 167.35 56.18 183.99 46.65 187.74 48.8 175.03 58.46 167.35"/><path class="cls-19" d="M48.5,175l-2.16,12.7a.33.33,0,0,0,.11.3.31.31,0,0,0,.2.07l.12,0,9.52-3.75a.3.3,0,0,0,.2-.25l2.28-16.64a.32.32,0,0,0-.51-.29l-9.65,7.69A.27.27,0,0,0,48.5,175Zm-1.45,12.26,2-12L58,168.08,55.9,183.76Z"/><polygon class="cls-20" points="71.59 235.59 61.83 239.13 74.84 221.78 71.59 235.59"/><path class="cls-19" d="M61.58,238.94a.29.29,0,0,0,0,.37.31.31,0,0,0,.25.13l.1,0,9.76-3.53a.31.31,0,0,0,.2-.23l3.25-13.81a.31.31,0,0,0-.55-.26Zm1.13-.47,11.48-15.31-2.87,12.2Z"/><polygon class="cls-23" points="61.83 239.13 50.98 223.4 74.84 221.78 61.83 239.13"/><path class="cls-19" d="M50.7,223.27a.29.29,0,0,0,0,.31L61.57,239.3a.3.3,0,0,0,.25.14h0a.33.33,0,0,0,.25-.13l13-17.34a.32.32,0,0,0,0-.34.31.31,0,0,0-.29-.17L51,223.09A.31.31,0,0,0,50.7,223.27Zm.85.41,22.63-1.55L61.84,238.59Z"/><polygon class="cls-24" points="52.61 234.25 50.98 223.4 61.83 239.13 52.61 234.25"/><path class="cls-19" d="M50.67,223.45l1.63,10.84a.33.33,0,0,0,.16.23l9.22,4.88a.28.28,0,0,0,.15,0,.31.31,0,0,0,.23-.11.3.3,0,0,0,0-.38L51.24,223.22a.33.33,0,0,0-.37-.11A.31.31,0,0,0,50.67,223.45Zm.82,1.24,9.35,13.56L52.9,234Z"/><polygon class="cls-22" points="74.84 221.78 50.98 223.4 65.83 216.6 74.84 221.78"/><path class="cls-19" d="M50.66,223.4a.31.31,0,0,0,.31.31h0l23.86-1.62a.31.31,0,0,0,.28-.24.29.29,0,0,0-.15-.34l-9-5.18a.31.31,0,0,0-.28,0L50.9,223.1A.3.3,0,0,0,50.66,223.4Zm2-.43,13.14-6,8,4.58Z"/><polygon class="cls-20" points="116.65 205.39 107.72 228.54 98.57 231.99 102.55 209.48 116.65 205.39"/><path class="cls-19" d="M98.28,231.85a.33.33,0,0,0,0,.14c0,.18.17.35.32.32h0l.11,0,9.15-3.45a.35.35,0,0,0,.19-.19l8.92-23.15a.31.31,0,0,0-.06-.32.32.32,0,0,0-.32-.09l-14.1,4.09a.3.3,0,0,0-.22.24Zm.7-.34,3.84-21.78,13.31-3.86-8.65,22.43Z"/><polygon class="cls-23" points="102.55 209.48 98.57 231.99 92.8 231.16 94.1 204.6 102.55 209.48"/><path class="cls-19" d="M93.79,204.58l-1.3,26.57a.31.31,0,0,0,.27.32l5.77.83h0a.32.32,0,0,0,.31-.26l4-22.52a.31.31,0,0,0-.15-.32l-8.46-4.88a.31.31,0,0,0-.46.25Zm-.66,26.31,1.25-25.76,7.82,4.51-3.88,22Z"/><polygon class="cls-22" points="116.65 205.39 102.55 209.48 94.1 204.6 104.2 190.82 116.65 205.39"/><path class="cls-19" d="M93.84,204.42a.31.31,0,0,0,0,.25.3.3,0,0,0,.15.2l8.45,4.88a.32.32,0,0,0,.16,0h.09l14.09-4.09a.3.3,0,0,0,.15-.5l-12.44-14.57a.41.41,0,0,0-.25-.11.28.28,0,0,0-.24.13Zm.72.08,9.66-13.17,11.87,13.9-13.5,3.91Z"/><polygon class="cls-21" points="92.8 231.16 88.65 224.13 87.55 196.54 94.1 204.6 92.8 231.16"/><path class="cls-19" d="M87.24,196.55l1.09,27.6a.24.24,0,0,0,0,.14l4.15,7a.32.32,0,0,0,.27.16h.08a.34.34,0,0,0,.24-.29l1.29-26.57a.33.33,0,0,0-.07-.21l-6.55-8.06a.31.31,0,0,0-.55.21Zm.66.92,5.88,7.23-1.24,25.4L89,224Z"/><polygon class="cls-18" points="94.1 204.6 87.55 196.54 104.2 190.82 94.1 204.6"/><path class="cls-19" d="M87.25,196.45a.28.28,0,0,0,.06.28l6.54,8.07a.33.33,0,0,0,.25.11h0a.33.33,0,0,0,.24-.12L104.45,191a.32.32,0,0,0,0-.37.3.3,0,0,0-.35-.11l-16.65,5.71A.3.3,0,0,0,87.25,196.45Zm.83.24,15.28-5.25-9.28,12.65Z"/><polygon class="cls-23" points="82.79 244.17 73.88 240.17 67.19 221.82 83.35 226.31 82.79 244.17"/><path class="cls-19" d="M67,221.61a.31.31,0,0,0-.06.32l6.68,18.34a.3.3,0,0,0,.17.18l8.92,4,.12,0a.32.32,0,0,0,.32-.31l.56-17.86a.33.33,0,0,0-.23-.31l-16.16-4.49A.32.32,0,0,0,67,221.61Zm.73.67L83,226.55l-.54,17.15-8.36-3.77Z"/><polygon class="cls-20" points="92.27 223.34 92.83 243.52 82.79 244.17 83.35 226.31 92.27 223.34"/><path class="cls-19" d="M82.48,244.07a.36.36,0,0,0,0,.1.32.32,0,0,0,.32.32h0l10-.66a.32.32,0,0,0,.29-.32l-.56-20.18a.31.31,0,0,0-.13-.25.35.35,0,0,0-.28,0l-8.92,3a.3.3,0,0,0-.21.28Zm.64-.23.54-17.3,8.3-2.77.54,19.46Z"/><polygon class="cls-18" points="89.76 212.69 92.27 223.34 83.35 226.31 67.19 221.82 73.88 214.68 89.76 212.69"/><path class="cls-19" d="M67,221.61a.31.31,0,0,0,.15.51l16.16,4.49h.18l8.92-3a.3.3,0,0,0,.2-.36l-2.5-10.66a.33.33,0,0,0-.35-.24l-15.88,2a.35.35,0,0,0-.19.1Zm.81,0L74,215,89.52,213l2.38,10.1L83.34,226Z"/><polygon class="cls-21" points="96.72 239.22 92.83 243.52 92.27 223.34 98.12 218.01 96.72 239.22"/><path class="cls-19" d="M92.06,223.11a.3.3,0,0,0-.11.24l.56,20.18a.31.31,0,0,0,.21.28.2.2,0,0,0,.11,0,.3.3,0,0,0,.23-.1l3.9-4.3a.46.46,0,0,0,.08-.19L98.43,218a.31.31,0,0,0-.52-.25Zm.52.36,5.18-4.7-1.34,20.32-3.3,3.64Z"/><polygon class="cls-22" points="92.27 223.34 89.76 212.69 98.12 218.01 92.27 223.34"/><path class="cls-19" d="M89.58,212.43a.31.31,0,0,0-.12.33L92,223.41a.33.33,0,0,0,.21.23h.1a.34.34,0,0,0,.21-.08l5.85-5.33a.31.31,0,0,0,.1-.26.31.31,0,0,0-.14-.23l-8.36-5.33A.32.32,0,0,0,89.58,212.43Zm.66.93,7.37,4.69-5.16,4.7Z"/><path class="cls-25" d="M100.76,117.84,97.33,115c-2.09-3.76-4.38-8.23-6.54-13.18l5,1.56-6.61-5.46A117.15,117.15,0,0,1,84.6,84.23l6.4,2-7.38-6.11A80.71,80.71,0,0,1,82,68.55s35,15.78,22.83,58.55c0,0-2.72-3.76-6.29-10Z"/><path class="cls-25" d="M83.26,70.05v-.12a2.33,2.33,0,0,0,0-.56L83,68.78l-.37-.63a5,5,0,0,0-.5-.66,8.94,8.94,0,0,0-.59-.68l-.68-.65a8.8,8.8,0,0,0-.72-.65l-1.48-1.18c-.23-.19-.48-.34-.7-.5l-.64-.43L76,62.49l1.19,1.07.57.51a8.31,8.31,0,0,1,.63.58L79.71,66c.23.22.4.48.6.71l.57.7c.18.22.3.47.45.68a4.09,4.09,0,0,1,.36.62c.08.2.16.37.23.53a2.78,2.78,0,0,0,.08.38c0,.07,0,.05,0,.08l0,.1Z"/><path class="cls-25" d="M128,90.39l-4.43-.25c-3.9-1.8-8.39-4.06-13.06-6.78l4.94-1.68-8.56-.51A115.13,115.13,0,0,1,95.1,72.79l6.36-2.15-9.56-.58a77.81,77.81,0,0,1-8.16-8.38s37.56-7.91,53,33.8c0,0-4.42-1.44-11-4.33Z"/><path class="cls-25" d="M85.66,62.14,85.59,62a2.91,2.91,0,0,0-.36-.43l-.52-.35L84,61a4.56,4.56,0,0,0-.79-.23,7.55,7.55,0,0,0-.88-.21l-.93-.12a7.77,7.77,0,0,0-1-.1l-1.88-.08c-.3,0-.59,0-.87,0l-.77,0-1.6,0,1.59.16.77.08c.27,0,.55,0,.85.09l1.82.32a8.09,8.09,0,0,1,.91.21l.87.23a6.88,6.88,0,0,1,.77.29,4.08,4.08,0,0,1,.66.29l.49.29.29.25c0,.06,0,.06,0,.06a.35.35,0,0,1,0,.1Z"/><path class="cls-25" d="M137.34,52.92l-3.77,2.35c-4.23.78-9.2,1.52-14.58,2l3.06-4.21-7.28,4.51a116.27,116.27,0,0,1-14.45-.05l4-5.43-8.14,5A78.93,78.93,0,0,1,84.63,55S110.75,26.85,147.41,52c0,0-4.44,1.38-11.45,2.78Z"/><path class="cls-25" d="M86.46,54.25l-.11,0a2.56,2.56,0,0,0-.55-.14h-.62l-.72.15a5.48,5.48,0,0,0-.78.26,8.21,8.21,0,0,0-.83.35l-.84.43a8.68,8.68,0,0,0-.84.48l-1.59,1c-.25.16-.47.35-.7.51l-.62.47L77,58.69l1.38-.78.67-.38c.24-.13.48-.29.75-.41l1.68-.8a7.18,7.18,0,0,1,.87-.35l.84-.31a6.65,6.65,0,0,1,.79-.21,2.8,2.8,0,0,1,.7-.14l.58-.05.38,0c.06,0,.05,0,.07,0l.09,0Z"/><path class="cls-25" d="M114,22.23l-1.26,3.61c-2.42,2.79-5.36,6-8.73,9.17l-.2-4.48-2.47,6.95a98.91,98.91,0,0,1-9.73,7.73l-.27-5.77-2.75,7.77A69.35,69.35,0,0,1,79.66,52S82.08,19,120.24,16.22c0,0-2.24,3.31-6.19,8Z"/><path class="cls-25" d="M80.49,50.47l-.1,0a2.27,2.27,0,0,0-.44.2l-.42.35-.39.48a3.88,3.88,0,0,0-.39.6,6.1,6.1,0,0,0-.37.67l-.33.75a6.51,6.51,0,0,0-.31.77c-.18.52-.35,1-.52,1.54-.08.24-.13.49-.19.72l-.17.64c-.2.8-.34,1.33-.34,1.33s.2-.51.51-1.27l.24-.61a6.61,6.61,0,0,1,.29-.68l.69-1.44a7.94,7.94,0,0,1,.4-.7c.13-.23.27-.45.39-.66a7,7,0,0,1,.42-.57,3.26,3.26,0,0,1,.4-.47l.36-.35.28-.17s0,0,.06,0h.09Z"/><path class="cls-25" d="M90.65,8.33l.67,3.76c-.74,3.62-1.74,7.83-3.09,12.28l-2.38-3.8,1.27,7.26a99.08,99.08,0,0,1-4.68,11.52l-3.07-4.9,1.42,8.12a66.67,66.67,0,0,1-5.4,8.5S61.31,21.2,93.17,0c0,0-.33,4-1.45,10Z"/><path class="cls-25" d="M75.4,49.37l-.08.08a2,2,0,0,0-.28.39c-.06.14-.12.31-.2.5s-.07.39-.1.62a4.09,4.09,0,0,0,0,.71c0,.24,0,.51,0,.77l.08.81a5.76,5.76,0,0,0,.11.82c.1.55.21,1.09.31,1.6,0,.25.12.49.18.72l.17.65c.22.79.36,1.32.36,1.32s-.07-.54-.18-1.36c0-.2-.06-.42-.09-.65s-.08-.48-.09-.74c0-.5-.07-1-.1-1.59a7.12,7.12,0,0,1,0-.8l0-.77c0-.25.06-.48.08-.71a3.35,3.35,0,0,1,.12-.6c0-.17.1-.33.14-.48a3.08,3.08,0,0,0,.16-.28c0-.05,0,0,0-.06s.07-.06.07,0Z"/><path class="cls-25" d="M53.27,116.55l3.37-2.9c2-3.8,4.19-8.32,6.23-13.33L57.94,102l6.48-5.62a116.34,116.34,0,0,0,4.24-13.8L62.3,84.73l7.24-6.27a79.59,79.59,0,0,0,1.38-11.62S36.29,83.41,49.43,125.9c0,0,2.63-3.83,6.06-10.1Z"/><path class="cls-25" d="M69.67,68.38v-.13a2.88,2.88,0,0,1,0-.56c.06-.17.12-.37.2-.6s.22-.4.35-.63a3.82,3.82,0,0,1,.49-.67,7.18,7.18,0,0,1,.57-.69l.67-.67a8.9,8.9,0,0,1,.7-.67l1.45-1.21c.23-.19.48-.35.7-.51l.62-.46,1.3-.93-1.16,1.09-.57.53c-.19.19-.41.37-.61.59l-1.26,1.36a7.86,7.86,0,0,0-.59.73l-.55.71a6.62,6.62,0,0,0-.44.69,3.6,3.6,0,0,0-.34.63c-.08.2-.16.37-.22.53s0,.28-.07.38,0,.06,0,.08,0,.1,0,.1Z"/><path class="cls-25" d="M25.43,89.73l4.43-.35c3.86-1.89,8.29-4.25,12.9-7.08l-5-1.57,8.55-.7A115.18,115.18,0,0,0,57.9,71.38l-6.41-2L61,68.58A78.83,78.83,0,0,0,69,60s-37.73-7-52.2,35c0,0,4.38-1.53,10.85-4.58Z"/><path class="cls-25" d="M67.1,60.52l.06-.12a2.39,2.39,0,0,1,.36-.43l.51-.36.66-.31a5.93,5.93,0,0,1,.78-.25,7.54,7.54,0,0,1,.88-.22l.93-.15c.32,0,.63-.11,1-.12l1.88-.12c.3,0,.59,0,.87,0h2.37l-1.58.19-.77.09c-.27,0-.55.06-.85.12l-1.82.36a7,7,0,0,0-.9.23l-.86.25c-.28.08-.52.21-.77.3a3.47,3.47,0,0,0-.64.31l-.49.3-.28.26c0,.06,0,0-.06.06l0,.1Z"/><path class="cls-25" d="M15.22,52.48l3.83,2.26c4.24.69,9.22,1.31,14.62,1.66l-3.16-4.14,7.38,4.35a117.43,117.43,0,0,0,14.44-.39l-4.07-5.34,8.25,4.86A79.77,79.77,0,0,0,68,53.34S41.21,25.81,5.13,51.82c0,0,4.47,1.28,11.51,2.52Z"/><path class="cls-25" d="M66.11,52.65l.12-.06a3.07,3.07,0,0,1,.54-.15h.63l.71.13a5.13,5.13,0,0,1,.79.25,7.21,7.21,0,0,1,.84.32l.85.42c.28.15.58.27.85.45l1.61,1c.26.16.48.34.71.5l.63.45,1.3.93-1.41-.76-.67-.36c-.25-.13-.49-.28-.76-.4l-1.7-.76a9.14,9.14,0,0,0-.87-.33L69.43,54a6.57,6.57,0,0,0-.8-.19,4,4,0,0,0-.7-.13l-.58,0-.37,0c-.07,0-.06,0-.08,0l-.09,0Z"/><path class="cls-25" d="M38.42,20.73l1.22,3.62c2.39,2.82,5.29,6,8.62,9.27l.26-4.47,2.39,7A98.39,98.39,0,0,0,60.55,44l.33-5.76L63.55,46a66.84,66.84,0,0,0,8.82,4.85s-2.05-33-40.17-36.19c0,0,2.2,3.33,6.1,8.09Z"/><path class="cls-25" d="M71.55,49.35l.11,0a2.09,2.09,0,0,1,.43.21c.12.09.25.21.41.35l.4.48a5.06,5.06,0,0,1,.37.6,6.43,6.43,0,0,1,.37.69l.32.74a7.38,7.38,0,0,1,.3.78l.5,1.55c.08.24.13.49.19.72l.16.64.32,1.34s-.2-.51-.49-1.28l-.24-.62c-.09-.22-.16-.45-.28-.68l-.67-1.45a7.87,7.87,0,0,0-.39-.7L73,52.08c-.12-.22-.29-.39-.41-.57a4,4,0,0,0-.39-.48l-.36-.34-.28-.18s0,0-.06,0l-.08,0Z"/><path class="cls-26" d="M106.71,93.84,103.6,92.7c-2.4-2.14-5.12-4.73-7.87-7.7l3.89-.12-6-2.23A87.84,87.84,0,0,1,87,74.1l5-.16-6.71-2.49a58.29,58.29,0,0,1-4-7.77s28.59,2.5,30.56,35.7c0,0-2.85-2-6.9-5.48Z"/><path class="cls-26" d="M82.57,64.43l0-.1a2.26,2.26,0,0,0-.17-.38l-.29-.36-.42-.36a3.77,3.77,0,0,0-.51-.34c-.19-.1-.38-.24-.59-.33l-.64-.29a5,5,0,0,0-.67-.29l-1.33-.46c-.21-.08-.42-.12-.62-.18l-.56-.15-1.15-.32,1.1.46.53.22a5.92,5.92,0,0,1,.59.26l1.24.62a5.88,5.88,0,0,1,.6.35l.57.35c.19.12.34.26.49.37a3.89,3.89,0,0,1,.41.35l.29.32.15.24s0,0,0,.06a.32.32,0,0,1,0,.07Z"/><path class="cls-26" d="M130.2,74.37l-4,.83c-3.89-.67-8.4-1.6-13.19-2.91l4-2.66-7.71,1.58a105.16,105.16,0,0,1-12.43-4.62L102,63.16l-8.62,1.77a74.08,74.08,0,0,1-9.23-5.49s31.42-15.95,55,17.36c0,0-4.26-.22-10.74-1.24Z"/><path class="cls-26" d="M86,59.39l-.09-.08a1.77,1.77,0,0,0-.43-.29l-.54-.19-.66-.1a3.8,3.8,0,0,0-.76,0,7.68,7.68,0,0,0-.82,0l-.86.11c-.29,0-.59.06-.88.14l-1.69.38c-.27.06-.52.15-.77.22l-.68.2-1.4.42L77.83,60l.69-.12c.25,0,.51-.09.78-.11l1.7-.16a8,8,0,0,1,.85,0h.83c.26,0,.51,0,.75.07a3.06,3.06,0,0,1,.65.1l.51.14.31.16s0,0,.06,0l.06.07Z"/><path class="cls-26" d="M128,40.82l-2.83,2.93c-3.59,1.64-7.85,3.41-12.54,5l1.79-4.44L108.92,50a105.23,105.23,0,0,1-12.87,3.18l2.3-5.72-6.12,6.32a72.45,72.45,0,0,1-10.72.66s17-30.88,55.24-16.65c0,0-3.64,2.21-9.57,5Z"/><path class="cls-26" d="M83,53.37l-.11,0a2.24,2.24,0,0,0-.52,0l-.55.15-.6.29a4.06,4.06,0,0,0-.64.41c-.21.16-.46.3-.67.49l-.64.58a6.25,6.25,0,0,0-.65.61l-1.18,1.26c-.2.2-.35.42-.51.61l-.45.56-.92,1.13,1.06-1,.51-.48a7.68,7.68,0,0,1,.58-.54c.41-.35.86-.71,1.31-1.08a6.82,6.82,0,0,1,.69-.51l.68-.46A6.36,6.36,0,0,1,81,55a3.43,3.43,0,0,1,.59-.28l.5-.17.35,0h.08l.08,0Z"/><path class="cls-26" d="M98.1,15.7,98,19.05c-1.27,3-2.86,6.43-4.81,10l-1.38-3.68-.18,6.47a88.69,88.69,0,0,1-6,9.07l-1.78-4.75-.2,7.23a60.27,60.27,0,0,1-6.13,6.35S70.64,21.61,101.73,9c0,0-1,3.37-3,8.37Z"/><path class="cls-26" d="M77.8,48.29l-.08.05a1.62,1.62,0,0,0-.31.29l-.26.4c-.06.15-.13.32-.2.51a3.77,3.77,0,0,0-.16.6,6.63,6.63,0,0,0-.13.67c0,.23,0,.47-.07.71a5.81,5.81,0,0,0,0,.72c0,.49,0,1,0,1.43,0,.23,0,.45,0,.65s0,.41,0,.59l.07,1.2s0-.48.08-1.2l0-.58c0-.21,0-.42,0-.65.07-.44.13-.91.2-1.38a5,5,0,0,1,.14-.69q.08-.34.15-.66c.05-.22.14-.4.2-.59a2.6,2.6,0,0,1,.2-.5l.21-.38.18-.22s0,0,0,0l.07,0Z"/><path class="cls-26" d="M46.77,92.69l3.09-1.22c2.35-2.19,5-4.84,7.69-7.86l-3.9,0,6-2.36a86.43,86.43,0,0,0,6.4-8.7l-5-.05,6.66-2.64A58.88,58.88,0,0,0,71.49,62S43,65.11,41.75,98.34c0,0,2.8-2,6.77-5.63Z"/><path class="cls-26" d="M70.23,62.73l0-.09a1.54,1.54,0,0,1,.17-.39l.28-.37.41-.36a3.16,3.16,0,0,1,.5-.35c.19-.11.37-.25.58-.35l.64-.31a4.88,4.88,0,0,1,.66-.29l1.32-.5c.21-.08.42-.13.62-.19l.55-.17L77.12,59,76,59.51l-.53.23c-.19.09-.39.16-.58.27l-1.23.65a5.8,5.8,0,0,0-.59.36l-.57.37c-.18.11-.32.26-.48.38a2.77,2.77,0,0,0-.39.36l-.29.32c0,.1-.1.18-.14.25s0,0,0,0v.08Z"/><path class="cls-26" d="M22.84,73.76l4,.74c3.88-.76,8.37-1.8,13.13-3.21l-4-2.57,7.74,1.41A105.62,105.62,0,0,0,56,65.22l-5.2-3.31,8.65,1.57a72.62,72.62,0,0,0,9.1-5.7S36.78,42.55,13.94,76.39c0,0,4.26-.32,10.72-1.48Z"/><path class="cls-26" d="M66.74,57.77l.08-.08a2.3,2.3,0,0,1,.42-.3l.54-.2.66-.11a3.7,3.7,0,0,1,.75,0,7.69,7.69,0,0,1,.83,0l.86.09a8.85,8.85,0,0,1,.88.12l1.7.34c.27,0,.53.14.77.2l.69.19,1.41.39-1.45-.2-.7-.1c-.25,0-.51-.09-.78-.1l-1.7-.12a8.23,8.23,0,0,0-.86,0l-.82,0a5.7,5.7,0,0,0-.75.09,3.82,3.82,0,0,0-.65.11l-.5.15-.31.17s0,0-.06,0l-.06.07Z"/><path class="cls-26" d="M24.3,40.16,27.2,43c3.62,1.55,7.92,3.22,12.65,4.74L38,43.38l5.6,5.52A107.22,107.22,0,0,0,56.5,51.79l-2.43-5.66,6.26,6.17a72.7,72.7,0,0,0,10.74.41S53.39,22.23,15.46,37.32c0,0,3.7,2.14,9.69,4.82Z"/><path class="cls-26" d="M69.57,51.69l.12,0a2.83,2.83,0,0,1,.52,0l.55.14.61.28a4.47,4.47,0,0,1,.65.39,7,7,0,0,1,.67.48l.66.56a7.32,7.32,0,0,1,.66.59l1.21,1.24c.2.2.36.41.53.6s.31.38.46.54l.94,1.12-1.08-1-.52-.48c-.19-.16-.37-.36-.59-.52l-1.34-1.06a5.43,5.43,0,0,0-.7-.48l-.69-.45c-.22-.15-.46-.24-.67-.36A3.76,3.76,0,0,0,71,53l-.5-.16-.35,0c-.06,0,0,0-.07,0l-.09,0Z"/><path class="cls-26" d="M53.56,15.41l.13,3.35c1.3,3,3,6.39,4.94,9.94L60,25l.28,6.46a87.06,87.06,0,0,0,6.16,9l1.71-4.77.31,7.22a59.39,59.39,0,0,0,6.22,6.27S81.1,20.94,49.83,8.75c0,0,1,3.36,3.13,8.33Z"/><path class="cls-26" d="M74.32,47.71l.08.06a1.5,1.5,0,0,1,.31.28c.08.11.16.24.26.39s.14.32.21.51a3.78,3.78,0,0,1,.17.6,6.4,6.4,0,0,1,.14.66l.08.71a6,6,0,0,1,.07.73c0,.48,0,1,0,1.42,0,.23,0,.45,0,.66s0,.4,0,.58l-.05,1.2-.1-1.2,0-.57c0-.21,0-.43-.06-.65-.07-.44-.14-.91-.21-1.38,0-.24-.1-.46-.15-.69l-.17-.66c0-.21-.14-.4-.2-.58a3.42,3.42,0,0,0-.21-.5l-.22-.38L74,48.68s0,0,0,0l-.07,0Z"/><path class="cls-25" d="M74.44,53.37,74.17,55c-.42,2.4-.85,4.88-1.2,7.31l-.59,4.14-.52,4.11c-.36,2.85-.67,5.64-1,8.24-.12,1.08-.22,2.15-.31,3.21l-.47,5.55c-.2,2.52-.41,5.12-.59,7.69l-.43,8.22-.2,4.1-.22,8.18c0,.94,0,1.83,0,2.73,0,.46,0,.93,0,1.41l.06,8.15,0,4.08.18,6.11.62,10.13c.06.9.14,1.78.22,2.64,0,.47.09.94.13,1.42l1.29,12.13,1,8L79,215.79l11.13-2.15-7.16-43-1.29-7.93-1.11-8-.78-6-.64-6c-.09-.9-.18-1.81-.28-2.72-.18-1.74-.36-3.53-.49-5.28l-.33-4-.81-12.08-.13-2-.46-10.07-.34-12.13-.07-7.37v-.66c0-1.57,0-3.15,0-4.73,0-1.14,0-2.28,0-3.41l.17-8.17.07-4.07.34-12.22.07-.67Z"/><path class="cls-26" d="M76.31,96.51l0-2V94.3c-2.62.94-4.91,1.89-6.82,2.75l-.12,2.41C71.15,98.59,73.52,97.55,76.31,96.51Z"/><path class="cls-26" d="M77.21,119l0-.29-.12-1.86c-3.23,1-6.07,2.13-8.44,3.15l0,2.32A86.81,86.81,0,0,1,77.21,119Z"/><path class="cls-26" d="M76.66,108l-.06-1.38,0-.82c-3,1.08-5.62,2.18-7.7,3.14l-.06,2.4A84.33,84.33,0,0,1,76.66,108Z"/><path class="cls-26" d="M76.21,84.73c0-.74,0-1.48,0-2.22-2.17.73-4.13,1.49-5.86,2.22l-.21,2.39C71.89,86.36,73.92,85.54,76.21,84.73Z"/><path class="cls-26" d="M83.35,173.29a92.65,92.65,0,0,0-10.46,3.58l.34,2.16a90.08,90.08,0,0,1,10.46-3.69Z"/><path class="cls-26" d="M76.38,73.3l.05-2.25c-1.78.63-3.4,1.27-4.86,1.88-.1.82-.19,1.63-.29,2.44C72.76,74.71,74.47,74,76.38,73.3Z"/><path class="cls-26" d="M73,62.26l-.23,1.61c1.13-.52,2.43-1.1,3.88-1.69l.07-2.29c-1.3.5-2.5,1-3.58,1.48C73.06,61.66,73,62,73,62.26Z"/><path class="cls-26" d="M80.24,152.62,80,150.56A91.77,91.77,0,0,0,70,153.64l.23,2.16A89.71,89.71,0,0,1,80.24,152.62Z"/><path class="cls-26" d="M85.52,186.27l-.34-2a91.52,91.52,0,0,0-10.66,3.06l.33,2.11A87.75,87.75,0,0,1,85.52,186.27Z"/><path class="cls-26" d="M87.38,197.45l-.34-2a92.75,92.75,0,0,0-10.84,2.7l.33,2.08A88.16,88.16,0,0,1,87.38,197.45Z"/><path class="cls-26" d="M68.77,133.2A89,89,0,0,1,78,130.05l-.14-2.11a91.35,91.35,0,0,0-9.09,3l0,1.12Z"/><path class="cls-26" d="M89.26,208.7l-.34-2a91.44,91.44,0,0,0-11,2.67l.32,2.08A87.79,87.79,0,0,1,89.26,208.7Z"/><path class="cls-26" d="M81.81,163.83l-.18-1.08-.13-1a94.15,94.15,0,0,0-10.28,3L71.5,167A89.39,89.39,0,0,1,81.81,163.83Z"/><path class="cls-26" d="M78.94,141.26l-.12-1.15-.09-.92a93.11,93.11,0,0,0-9.56,2.93l.13,2.19A92.33,92.33,0,0,1,78.94,141.26Z"/><path class="cls-27" d="M78,209.35l.32,2.08.68,4.36,6.64-1.28c-3.45-21.07-14-90-13.84-143.07-.07.5-.13,1-.18,1.49h0c-.09.82-.18,1.62-.27,2.42h0c-.13,1.15-.26,2.28-.38,3.38S70.69,80.9,70.6,82l-.23,2.77,0,.28-.21,2.5c-.2,2.52-.41,5.12-.59,7.69l-.09,1.85h0l-.08,1.62-.25,4.75-.2,4.1,0,1.44-.06,2.4-.12,4.34c0,.94,0,1.83,0,2.73,0,.46,0,.93,0,1.41v2.5h0l0,5.65,0,3,0,1.12,0,.92.15,5.19.62,10.13c.06.9.14,1.78.22,2.64,0,.47.09.94.13,1.42l.14,1.27h0l.14,1.32,1,9.54,1,8,.8,5.19.21,1.32,1.29,8.27.19,1.26,1.49,9.58.33,2.08h0L78,209.35Z"/><path class="cls-28" d="M72.69,29.7c-3-7.61-9.5-15.74-22.86-20.95,0,0,1,3.36,3.13,8.33l.6-1.67.13,3.35c.46,1.06,1,2.18,1.53,3.34-5.63-3.76-13.11-6.61-23-7.45,0,0,2.2,3.33,6.1,8.09l.12-2,1.22,3.62c2.39,2.82,5.29,6,8.62,9.27l.26-4.47L50.86,36c-8.8-3.5-20.54-4.58-35.4,1.33,0,0,3.67,2.12,9.62,4.79A59.6,59.6,0,0,0,5.13,51.82S9.6,53.1,16.64,54.34l-1.42-1.86,3.83,2.26c4.24.69,9.22,1.31,14.62,1.66l-3.16-4.14,7.38,4.35H38c-8,2.79-16.54,8.61-24.08,19.78,0,0,4.26-.32,10.72-1.48l-1.82-1.15,4,.74,1.95-.4A58.39,58.39,0,0,0,16.81,95s4.38-1.53,10.85-4.58l-2.23-.7,4.43-.35c3.86-1.89,8.29-4.25,12.9-7.08l-5-1.57L46.15,80a43,43,0,0,0-4.4,18.3s2.8-2,6.77-5.63l-1.75,0,2.38-.94c-3.17,8.75-4.09,20,.28,34.15,0,0,2.63-3.83,6.06-10.1l-2.22.75,3.37-2.9c2-3.8,4.19-8.32,6.23-13.33L57.94,102l6.48-5.62a116.34,116.34,0,0,0,4.24-13.8L62.3,84.73l7.24-6.27a80.29,80.29,0,0,0,1.3-10.37l.1,0s0,0,0-.1,0,0,0-.08,0-.23.07-.38.14-.33.22-.53a3.6,3.6,0,0,1,.34-.63,6.62,6.62,0,0,1,.44-.69l.38-.5,0-1.17c-.15.15-.29.3-.44.44l-.67.67a7.18,7.18,0,0,0-.57.69,3.82,3.82,0,0,0-.49.67c-.13.23-.25.44-.35.63l-.12.37c-.34.19-.74.43-1.2.71a58.31,58.31,0,0,0,2.56-5.35h.08v-.08s0,0,0,0,.09-.15.14-.25l.29-.32a2.77,2.77,0,0,1,.39-.36c.14-.11.27-.23.43-.34s0-.51,0-.77l-.32.16c-.21.1-.39.24-.58.35a3.16,3.16,0,0,0-.5.35l-.41.36-.17.23a32.61,32.61,0,0,0-4.22,1.08c.65-.72,1.28-1.46,1.9-2.21l.09,0,0-.1s0,0,.06-.06l.28-.26.49-.3a3.47,3.47,0,0,1,.64-.31c.25-.09.49-.22.77-.3l.86-.25a7,7,0,0,1,.9-.23l.23-.05c0-.21,0-.41,0-.62l-.35,0c-.33,0-.64.08-1,.12l-.93.15a7.54,7.54,0,0,0-.88.22,5.93,5.93,0,0,0-.78.25l-.66.31-.32.22c-.49-.06-1.12-.12-1.86-.16.6-.4,1.18-.81,1.76-1.22l.08,0,.06-.07s0,0,.06,0l.31-.17.5-.15a3.82,3.82,0,0,1,.65-.11,5.7,5.7,0,0,1,.75-.09l.82,0a8.23,8.23,0,0,1,.86,0l.91.06c0-.16,0-.32,0-.48l-.87-.18a8.85,8.85,0,0,0-.88-.12L70,57.05a7.69,7.69,0,0,0-.83,0,3.7,3.7,0,0,0-.75,0l-.66.11-.33.12A43.33,43.33,0,0,0,60,55.18c2.28-.4,4.54-.91,6.76-1.52l.06.09.09,0s0,0,.08,0l.37,0,.58,0a4,4,0,0,1,.7.13,6.57,6.57,0,0,1,.8.19l.85.29a9.14,9.14,0,0,1,.87.33l1.57.71c0-.17,0-.33,0-.5l-1.3-.8c-.27-.18-.57-.3-.85-.45l-.85-.42a7.21,7.21,0,0,0-.84-.32l-.17-.06,1.19,0,0,.1.09,0s0,0,.07,0l.35,0L71,53a3.76,3.76,0,0,1,.6.26c.21.12.45.21.67.36l.54.35c0-.31,0-.62,0-.93l-.13-.1a7,7,0,0,0-.67-.48,4.47,4.47,0,0,0-.65-.39l-.61-.28-.34-.08c-.48-.71-1.22-1.74-2.24-3,1.06.58,2.13,1.12,3.22,1.63v.09l.08,0s0,0,.06,0l.28.18.36.34a4,4,0,0,1,.39.48c.09.14.21.27.31.43,0-.49,0-1,.07-1.45a.25.25,0,0,1,0-.07l-.4-.48c-.09-.09-.17-.15-.25-.22-.1-.78-.29-1.94-.62-3.36.48.48,1,.94,1.46,1.4.59-10.49,1.47-20.1,2.7-28.52A37.66,37.66,0,0,0,72.69,29.7ZM25.13,42.1l-.83-1.94L26,41.87Zm28.77,28-2.41-.76,3.7-.3C54.76,69.4,54.33,69.76,53.9,70.13Zm-3-15.76-2.66-3.49,6.07,3.58C53.24,54.39,52.1,54.35,50.92,54.37ZM64.35,71.13c-.53.42-1.08.86-1.65,1.35l-1.71,0ZM60,25l0,.87-.26-.24Zm.73,16.57.19-3.37,1.66,4.86C62,42.56,61.34,42.06,60.69,41.57Zm7.47-4.77c-.09-.17-.17-.35-.26-.52l.21-.6Z"/><path class="cls-25" d="M125.59,193.39l2.27-1.86c1.37-2.48,2.88-5.43,4.31-8.69l-3.28,1,4.36-3.6a76,76,0,0,0,3-9L132,172.55l4.86-4a51.66,51.66,0,0,0,1.08-7.64s-23.07,10.41-15,38.62c0,0,1.79-2.49,4.15-6.57Z"/><path class="cls-25" d="M137.13,161.88v-.09a1.76,1.76,0,0,1,0-.37l.14-.39.25-.41a3.19,3.19,0,0,1,.32-.43,5.46,5.46,0,0,1,.39-.45l.45-.43c.16-.14.3-.3.48-.43l1-.78c.15-.12.32-.22.47-.33l.42-.29.86-.59-.78.7-.38.34c-.13.12-.28.24-.41.38l-.85.88a3.55,3.55,0,0,0-.4.47l-.38.46c-.12.15-.2.31-.3.45a2.93,2.93,0,0,0-.23.41l-.15.35c0,.09,0,.18-.05.24s0,0,0,.06,0,.07,0,.06Z"/><path class="cls-25" d="M107.64,175.29l2.93-.17c2.57-1.19,5.53-2.68,8.61-4.47l-3.26-1.11,5.64-.33a75.27,75.27,0,0,0,7.76-5.53l-4.19-1.42,6.31-.38a53,53,0,0,0,5.38-5.53s-24.77-5.21-34.94,22.29c0,0,2.91-.94,7.22-2.86Z"/><path class="cls-25" d="M135.55,156.66l0-.08a1.87,1.87,0,0,1,.25-.28l.34-.23.44-.19a3.53,3.53,0,0,1,.52-.16c.18,0,.38-.1.58-.13l.61-.08c.21,0,.43-.07.64-.07l1.24-.05c.2,0,.39,0,.57,0l.52,0,1,0-1,.1-.5,0-.57.06-1.2.21a5.82,5.82,0,0,0-.6.14l-.57.15c-.19.05-.35.14-.51.19a2.5,2.5,0,0,0-.43.19l-.33.2a2.31,2.31,0,0,1-.19.16s0,0,0,0,0,.07,0,.06Z"/><path class="cls-25" d="M101.47,150.58l2.49,1.55c2.79.51,6.06,1,9.61,1.31l-2-2.78,4.81,3a75.73,75.73,0,0,0,9.52,0l-2.6-3.58,5.36,3.33a52.57,52.57,0,0,0,7.59-1.41S119,133.39,94.83,150c0,0,2.93.91,7.55,1.84Z"/><path class="cls-25" d="M135,151.45l.08,0a1.25,1.25,0,0,1,.36-.09h.41l.47.1a2.54,2.54,0,0,1,.51.17c.18.07.37.13.55.22l.55.29a5,5,0,0,1,.56.31l1.05.68c.17.11.31.23.46.34l.41.3.84.63-.92-.51-.44-.25c-.16-.09-.31-.19-.49-.28l-1.11-.52a4,4,0,0,0-.57-.23l-.55-.21c-.18-.07-.36-.09-.53-.14a2.86,2.86,0,0,0-.46-.09l-.38,0-.25,0h0l-.06,0Z"/><path class="cls-25" d="M116.89,130.34l.84,2.38c1.59,1.84,3.53,3.93,5.75,6.05l.14-3,1.62,4.59a66.2,66.2,0,0,0,6.42,5.09l.18-3.8,1.81,5.12a45.13,45.13,0,0,0,5.86,3.13s-1.6-21.72-26.76-23.56c0,0,1.47,2.18,4.08,5.29Z"/><path class="cls-25" d="M139,149l.07,0a1.83,1.83,0,0,1,.29.14l.27.22.26.32a1.73,1.73,0,0,1,.25.39c.08.15.18.29.25.45l.22.49a4.5,4.5,0,0,1,.2.51l.34,1a4.77,4.77,0,0,1,.13.47l.11.43.23.87-.34-.84-.16-.4a4.32,4.32,0,0,0-.19-.45c-.14-.3-.3-.63-.46-.95a4.17,4.17,0,0,0-.26-.46l-.26-.44c-.08-.14-.19-.25-.27-.37a2.14,2.14,0,0,0-.27-.31l-.23-.23-.19-.11,0,0h0Z"/><path class="cls-25" d="M132.26,121.17l-.44,2.48c.48,2.39,1.14,5.16,2,8.1l1.57-2.51-.84,4.79a64.39,64.39,0,0,0,3.08,7.6l2-3.23-.94,5.35a44.27,44.27,0,0,0,3.56,5.61s9.29-19.7-11.72-33.68c0,0,.21,2.63,1,6.62Z"/><path class="cls-25" d="M142.32,148.24l.05,0a1.25,1.25,0,0,1,.19.26l.12.33.07.4a2.42,2.42,0,0,1,0,.47,4.34,4.34,0,0,1,0,.51l-.06.53a5.17,5.17,0,0,1-.07.55c-.07.36-.14.71-.2,1,0,.17-.08.33-.12.48l-.12.42-.23.87.12-.89.06-.43c0-.16.05-.32.06-.49,0-.33,0-.69.06-1a4.68,4.68,0,0,0,0-.53v-.51a3.4,3.4,0,0,0-.06-.46,2.21,2.21,0,0,0-.07-.4l-.1-.31-.1-.19,0,0,0,0Z"/><path class="cls-25" d="M156.91,192.54l-2.22-1.92c-1.32-2.5-2.76-5.49-4.11-8.78l3.25,1.1-4.27-3.7a75.63,75.63,0,0,1-2.8-9.11l4.19,1.43-4.77-4.14a51.83,51.83,0,0,1-.91-7.66s22.83,10.93,14.17,38.94c0,0-1.74-2.52-4-6.66Z"/><path class="cls-25" d="M146.09,160.77v-.08a1.64,1.64,0,0,0,0-.37l-.13-.4-.23-.42a4.07,4.07,0,0,0-.32-.44c-.12-.14-.24-.31-.38-.45l-.44-.44a6.33,6.33,0,0,0-.46-.44l-1-.8c-.15-.13-.31-.23-.46-.34l-.41-.3-.86-.61.77.71.37.35c.13.13.28.25.41.39l.83.9a5.84,5.84,0,0,1,.39.48l.36.47c.12.15.19.31.29.45a2.86,2.86,0,0,1,.22.42l.15.35c0,.1,0,.18,0,.25s0,0,0,.05l0,.07Z"/><path class="cls-25" d="M175.27,174.85l-2.92-.23c-2.55-1.25-5.47-2.81-8.51-4.67l3.28-1-5.63-.47a73.39,73.39,0,0,1-7.63-5.7l4.22-1.32-6.29-.53a51.15,51.15,0,0,1-5.26-5.65s24.88-4.65,34.42,23.08c0,0-2.89-1-7.15-3Z"/><path class="cls-25" d="M147.79,155.59l0-.08a2.43,2.43,0,0,0-.24-.28l-.33-.24-.44-.2a2.64,2.64,0,0,0-.52-.17,4.74,4.74,0,0,0-.57-.15l-.62-.09a4.52,4.52,0,0,0-.63-.08l-1.24-.08a5.51,5.51,0,0,0-.57,0H141l1,.13.5.06c.18,0,.37,0,.56.08l1.2.23a5.87,5.87,0,0,1,.6.16l.57.16c.18.05.34.14.5.2a2.89,2.89,0,0,1,.43.2l.32.2.18.17s0,0,0,.05l0,.06Z"/><path class="cls-25" d="M182,150.29l-2.52,1.49c-2.8.45-6.09.86-9.64,1.09l2.08-2.73L167.05,153a76.56,76.56,0,0,1-9.52-.26l2.68-3.52-5.44,3.21a52.78,52.78,0,0,1-7.55-1.59s17.64-18.15,41.43-1c0,0-3,.84-7.59,1.66Z"/><path class="cls-25" d="M148.44,150.4l-.08,0a1.68,1.68,0,0,0-.35-.1h-.42l-.47.09a2.59,2.59,0,0,0-.52.16c-.17.07-.37.12-.55.21l-.56.28a5,5,0,0,0-.56.3l-1.07.65a5.4,5.4,0,0,0-.46.33l-.42.29-.85.62.92-.5.45-.24c.16-.08.32-.18.5-.26l1.12-.5a4,4,0,0,1,.57-.22l.56-.19a3.71,3.71,0,0,1,.53-.13,2,2,0,0,1,.46-.08l.38,0,.25,0s0,0,0,0a.19.19,0,0,1,.06,0Z"/><path class="cls-25" d="M166.7,129.35l-.81,2.39c-1.57,1.86-3.48,4-5.68,6.11L160,134.9l-1.57,4.6a65.9,65.9,0,0,1-6.36,5.17l-.22-3.8L150.13,146a44.39,44.39,0,0,1-5.82,3.19s1.35-21.73,26.49-23.86c0,0-1.45,2.2-4,5.34Z"/><path class="cls-25" d="M144.85,148.22l-.07,0a1.45,1.45,0,0,0-.28.14l-.27.23-.26.32a2.06,2.06,0,0,0-.25.4,3.21,3.21,0,0,0-.24.45l-.21.49a3.17,3.17,0,0,0-.2.51c-.12.35-.23.7-.33,1a4.94,4.94,0,0,0-.13.48l-.1.42-.22.88.33-.84.16-.41c.06-.14.1-.3.18-.45l.45-.95c.07-.17.17-.31.25-.47l.26-.44c.08-.14.19-.25.27-.37a2.24,2.24,0,0,1,.26-.32l.23-.23.18-.11,0,0H145Z"/><path class="cls-26" d="M121.67,177.56l2-.75c1.59-1.41,3.38-3.12,5.19-5.08l-2.57-.08,4-1.47a58.76,58.76,0,0,0,4.35-5.64l-3.31-.1,4.43-1.64a38.23,38.23,0,0,0,2.64-5.13s-18.85,1.65-20.15,23.54c0,0,1.88-1.31,4.55-3.61Z"/><path class="cls-26" d="M137.58,158.16l0-.06a2.15,2.15,0,0,1,.11-.25l.2-.24.27-.23a2.88,2.88,0,0,1,.34-.23,3.44,3.44,0,0,1,.38-.22l.43-.19a4.48,4.48,0,0,1,.44-.19l.88-.3.41-.12.37-.1.75-.21-.72.3-.35.15a3.29,3.29,0,0,0-.39.17l-.82.41a3.18,3.18,0,0,0-.4.23l-.37.23c-.12.08-.22.17-.32.25a1.25,1.25,0,0,0-.27.23l-.19.21-.1.16s0,0,0,0,0,.06,0,.05Z"/><path class="cls-26" d="M106.18,164.72l2.63.55c2.56-.44,5.54-1.06,8.7-1.92l-2.62-1.75,5.08,1a69.92,69.92,0,0,0,8.19-3l-3.38-2.26,5.68,1.17a46.81,46.81,0,0,0,6.09-3.63s-20.72-10.51-36.28,11.45c0,0,2.81-.14,7.09-.81Z"/><path class="cls-26" d="M135.35,154.84l.06-.05a1.35,1.35,0,0,1,.28-.19l.36-.13.44-.06a3.93,3.93,0,0,1,.49,0c.18,0,.36,0,.55,0l.57.08a5.21,5.21,0,0,1,.57.09l1.12.25c.18,0,.34.1.5.14l.45.14.93.28-.95-.16-.46-.08c-.17,0-.34-.06-.52-.07l-1.11-.11a5.42,5.42,0,0,0-.57,0h-.54a3.9,3.9,0,0,0-.5,0,1.84,1.84,0,0,0-.43.07l-.33.09-.21.1s0,0,0,0l0,.05Z"/><path class="cls-26" d="M107.64,142.6l1.87,1.93c2.37,1.08,5.17,2.25,8.27,3.32l-1.18-2.93,3.61,3.73a70.69,70.69,0,0,0,8.49,2.09L127.18,147l4,4.17a47.55,47.55,0,0,0,7.06.43s-11.19-20.36-36.42-11c0,0,2.4,1.46,6.31,3.32Z"/><path class="cls-26" d="M137.32,150.87h.07a1.28,1.28,0,0,1,.34,0l.37.1.39.19a1.88,1.88,0,0,1,.42.27,4.48,4.48,0,0,1,.44.32l.43.38c.14.14.3.26.43.41l.78.83c.12.13.22.28.33.4l.3.37.6.75-.69-.67-.34-.32c-.12-.11-.24-.24-.38-.35l-.87-.72c-.14-.12-.3-.22-.45-.33l-.45-.31c-.15-.1-.3-.16-.44-.24a1.92,1.92,0,0,0-.39-.18l-.33-.12-.23,0h-.05l0,0Z"/><path class="cls-26" d="M127.34,126l.06,2.21c.83,2,1.89,4.23,3.17,6.59l.91-2.42.12,4.26a58.53,58.53,0,0,0,4,6l1.17-3.13.14,4.77a40,40,0,0,0,4,4.19s4.52-18.56-16-26.88c0,0,.65,2.22,2,5.52Z"/><path class="cls-26" d="M140.73,147.52l.06,0a1.14,1.14,0,0,1,.2.19l.17.26.13.34a2.11,2.11,0,0,1,.11.4c0,.14.07.28.08.43l.05.47c0,.16,0,.32,0,.48,0,.32,0,.64,0,.94s0,.3,0,.43l0,.39-.05.79,0-.79,0-.38c0-.14,0-.28,0-.43l-.13-.91a3.4,3.4,0,0,0-.09-.46l-.1-.43a3.56,3.56,0,0,0-.13-.39c0-.12-.08-.24-.13-.33l-.14-.25-.12-.15s0,0,0,0l-.05,0Z"/><path class="cls-26" d="M161.2,176.8l-2-.8c-1.55-1.44-3.31-3.19-5.07-5.19l2.56,0-3.92-1.56a56.38,56.38,0,0,1-4.23-5.74l3.31,0-4.39-1.74a39.38,39.38,0,0,1-2.53-5.18s18.82,2.08,19.62,24c0,0-1.85-1.35-4.47-3.72Z"/><path class="cls-26" d="M145.72,157.05V157a1,1,0,0,0-.11-.26l-.19-.24-.26-.24a2,2,0,0,0-.34-.23,2.4,2.4,0,0,0-.38-.23l-.42-.21c-.14-.06-.28-.14-.43-.19l-.87-.33-.41-.13-.37-.1-.75-.23.72.32.34.15.39.18.81.43c.14.07.26.16.39.24l.37.24c.12.08.21.17.32.25a3.2,3.2,0,0,1,.26.24l.19.21a1.31,1.31,0,0,0,.09.17s0,0,0,0v.05Z"/><path class="cls-26" d="M177,164.32l-2.64.49c-2.56-.5-5.52-1.19-8.65-2.12l2.66-1.69-5.11.93a71.86,71.86,0,0,1-8.12-3.24l3.43-2.18-5.71,1a47.84,47.84,0,0,1-6-3.76s21-10,36,12.27c0,0-2.8-.2-7.06-1Z"/><path class="cls-26" d="M148,153.78l-.06-.06a1,1,0,0,0-.27-.19l-.36-.14-.43-.07a2.74,2.74,0,0,0-.5,0c-.18,0-.36,0-.55,0l-.57.06a5.77,5.77,0,0,0-.58.08l-1.12.23c-.18,0-.34.09-.5.13l-.46.12-.93.26,1-.14.46-.06c.16,0,.33-.06.51-.07l1.12-.08a5.42,5.42,0,0,1,.57,0h.54a3.8,3.8,0,0,1,.5.06,1.65,1.65,0,0,1,.42.08l.34.1.2.1s0,0,0,0l0,0Z"/><path class="cls-26" d="M176,142.17l-1.91,1.89c-2.39,1-5.22,2.13-8.34,3.13l1.25-2.9-3.7,3.64a69.89,69.89,0,0,1-8.53,1.9l1.6-3.73-4.13,4.07a49.2,49.2,0,0,1-7.08.27s11.66-20.1,36.67-10.15c0,0-2.44,1.41-6.39,3.18Z"/><path class="cls-26" d="M146.16,149.76h-.08a1.22,1.22,0,0,0-.34,0l-.37.09-.4.19a2.4,2.4,0,0,0-.42.26c-.14.1-.31.19-.45.31l-.43.37a5.56,5.56,0,0,0-.44.39l-.8.82c-.13.13-.23.27-.34.39l-.31.36-.62.74.71-.65.35-.32c.12-.1.24-.23.38-.34l.89-.7c.14-.12.31-.21.46-.32l.46-.29a4.77,4.77,0,0,1,.44-.24,3.09,3.09,0,0,1,.39-.17l.33-.11.23,0h0l.06,0Z"/><path class="cls-26" d="M156.72,125.85l-.09,2.2c-.86,2-1.94,4.21-3.26,6.56l-.87-2.44-.19,4.26a56.16,56.16,0,0,1-4.06,5.92l-1.13-3.14-.2,4.76a39,39,0,0,1-4.1,4.13s-4.26-18.61,16.35-26.65c0,0-.67,2.21-2.06,5.49Z"/><path class="cls-26" d="M143,147.14l-.05,0a.88.88,0,0,0-.21.19l-.17.25-.14.34a2.5,2.5,0,0,0-.11.39,3.12,3.12,0,0,0-.09.44l-.06.47c0,.16,0,.32,0,.48,0,.32,0,.64,0,.94,0,.15,0,.29,0,.43l0,.38c0,.48,0,.8,0,.8l.06-.79,0-.38c0-.14,0-.28,0-.43s.1-.6.14-.91c0-.16.07-.31.1-.46l.11-.43a3.37,3.37,0,0,1,.13-.38,1.72,1.72,0,0,1,.14-.33l.14-.25.13-.15,0,0,0,0Z"/><path class="cls-25" d="M143,150.88l.18,1c.27,1.58.56,3.21.78,4.82l.4,2.72.34,2.72c.24,1.87.44,3.72.63,5.43.08.71.14,1.42.2,2.12l.31,3.66c.13,1.66.27,3.37.39,5.07l.29,5.42.13,2.7.14,5.4c0,.62,0,1.2,0,1.8,0,.3,0,.61,0,.93l0,5.37,0,2.69-.12,4-.41,6.68c0,.59-.09,1.18-.15,1.74,0,.31-.06.62-.08.94l-.85,8-.69,5.29L140,258l-7.34-1.42,4.73-28.33.84-5.23.74-5.26.51-3.92.43-3.95c.05-.6.12-1.2.18-1.8.12-1.14.24-2.32.32-3.48l.22-2.65.53-8,.09-1.33.31-6.64.22-8,.05-4.86v-.43c0-1,0-2.08,0-3.12,0-.75,0-1.51,0-2.25l-.11-5.38,0-2.69-.22-8.06-.05-.44Z"/><path class="cls-26" d="M141.71,179.32l0-1.32v-.13c1.73.61,3.24,1.24,4.49,1.81l.09,1.59C145.11,180.69,143.55,180,141.71,179.32Z"/><path class="cls-26" d="M141.12,194.17V194l.08-1.22c2.14.68,4,1.41,5.57,2.08v1.52A59.16,59.16,0,0,0,141.12,194.17Z"/><path class="cls-26" d="M141.48,186.91l.05-.91v-.54c2,.71,3.71,1.44,5.08,2.07l0,1.58C145.38,188.49,143.62,187.7,141.48,186.91Z"/><path class="cls-26" d="M141.78,171.55c0-.49,0-1,0-1.46,1.43.48,2.72,1,3.87,1.46l.13,1.58C144.63,172.63,143.29,172.09,141.78,171.55Z"/><path class="cls-26" d="M137.07,230a63,63,0,0,1,6.9,2.36l-.22,1.42a60.51,60.51,0,0,0-6.9-2.42Z"/><path class="cls-26" d="M141.67,164l0-1.49c1.17.42,2.24.84,3.2,1.24.07.55.13,1.08.19,1.61C144.05,165,142.93,164.48,141.67,164Z"/><path class="cls-26" d="M143.91,156.74l.16,1.06c-.75-.35-1.6-.72-2.56-1.11l0-1.52c.85.33,1.64.66,2.36,1C143.86,156.34,143.89,156.54,143.91,156.74Z"/><path class="cls-26" d="M139.13,216.32l.17-1.36a62.09,62.09,0,0,1,6.56,2l-.15,1.42A60.53,60.53,0,0,0,139.13,216.32Z"/><path class="cls-26" d="M135.64,238.51l.23-1.33a59.41,59.41,0,0,1,7,2l-.22,1.39A59.56,59.56,0,0,0,135.64,238.51Z"/><path class="cls-26" d="M134.41,245.89l.23-1.33a59.07,59.07,0,0,1,7.14,1.78l-.21,1.37A57.79,57.79,0,0,0,134.41,245.89Z"/><path class="cls-26" d="M146.69,203.52a57.9,57.9,0,0,0-6.06-2.08l.1-1.4a61.75,61.75,0,0,1,6,2v.74Z"/><path class="cls-26" d="M133.18,253.3l.22-1.33a60.85,60.85,0,0,1,7.23,1.76l-.21,1.37A59.82,59.82,0,0,0,133.18,253.3Z"/><path class="cls-26" d="M138.09,223.71l.11-.71.09-.63a61.09,61.09,0,0,1,6.78,2l-.18,1.4A59.86,59.86,0,0,0,138.09,223.71Z"/><path class="cls-26" d="M140,208.83c0-.25.05-.5.08-.76l.06-.6a62.17,62.17,0,0,1,6.31,1.93l-.09,1.45A59.42,59.42,0,0,0,140,208.83Z"/><path class="cls-27" d="M140.63,253.73l-.21,1.37L140,258l-4.37-.85c2.27-13.89,9.22-59.32,9.13-94.34,0,.33.08.66.11,1h0c.07.54.13,1.07.19,1.6h0c.08.76.17,1.51.25,2.23s.14,1.42.2,2.12l.16,1.82v.19l.14,1.65c.13,1.66.27,3.37.39,5.07l.06,1.22h0l.06,1.07.17,3.13.13,2.7,0,.95,0,1.58.08,2.87c0,.62,0,1.2,0,1.8,0,.3,0,.61,0,.93v1.64h0l0,3.73,0,1.95v.74l0,.61-.1,3.42-.41,6.68c0,.59-.09,1.18-.15,1.74,0,.31-.06.62-.08.94l-.09.84h0l-.09.86-.67,6.29-.69,5.29-.53,3.42-.13.87-.85,5.46-.13.83-1,6.32-.21,1.37h0l-.94,6Z"/><path class="cls-28" d="M142.06,128.37c.81,5.55,1.39,11.89,1.78,18.8.33-.3.65-.6,1-.92-.22.94-.34,1.7-.41,2.22l-.16.14-.26.32,0,0c0,.32,0,.64,0,1l.21-.28a2.24,2.24,0,0,1,.26-.32l.23-.23.18-.11,0,0H145v-.06c.72-.34,1.43-.7,2.12-1.08-.66.81-1.16,1.49-1.47,2l-.23.05-.4.19a2.4,2.4,0,0,0-.42.26c-.14.1-.31.19-.45.31l-.08.07,0,.61.36-.23a4.77,4.77,0,0,1,.44-.24,3.09,3.09,0,0,1,.39-.17l.33-.11.23,0h0l.06,0,0-.07.79,0-.12,0c-.17.07-.37.12-.55.21l-.56.28a5,5,0,0,0-.56.3l-.86.52c0,.11,0,.22,0,.33l1-.46a4,4,0,0,1,.57-.22l.56-.19a3.71,3.71,0,0,1,.53-.13,2,2,0,0,1,.46-.08l.38,0,.25,0s0,0,0,0a.19.19,0,0,1,.06,0l0-.06c1.47.4,3,.73,4.46,1a28.2,28.2,0,0,0-4.92,1.4l-.22-.08-.43-.07a2.74,2.74,0,0,0-.5,0c-.18,0-.36,0-.55,0l-.57.06a5.77,5.77,0,0,0-.58.08l-.57.12c0,.1,0,.21,0,.32l.6,0a5.42,5.42,0,0,1,.57,0h.54a3.8,3.8,0,0,1,.5.06,1.65,1.65,0,0,1,.42.08l.34.1.2.1s0,0,0,0l0,0,0,0,1.16.81-1.23.1-.2-.14-.44-.2a2.64,2.64,0,0,0-.52-.17,4.74,4.74,0,0,0-.57-.15l-.62-.09a4.52,4.52,0,0,0-.63-.08l-.23,0c0,.14,0,.28,0,.41l.15,0a5.87,5.87,0,0,1,.6.16l.57.16c.18.05.34.14.5.2a2.89,2.89,0,0,1,.43.2l.32.2.18.17s0,0,0,.05l0,.06.07,0c.41.5.82,1,1.25,1.46a22.59,22.59,0,0,0-2.78-.71l-.12-.15-.26-.24a2,2,0,0,0-.34-.23,2.4,2.4,0,0,0-.38-.23l-.21-.11c0,.17,0,.34,0,.51s.2.15.29.22a3.2,3.2,0,0,1,.26.24l.19.21a1.31,1.31,0,0,0,.09.17s0,0,0,0v.05h0a37.91,37.91,0,0,0,1.69,3.52l-.79-.47-.08-.24-.23-.42a4.07,4.07,0,0,0-.32-.44c-.12-.14-.24-.31-.38-.45l-.44-.44-.29-.29c0,.26,0,.51,0,.77l.25.33c.12.15.19.31.29.45a2.86,2.86,0,0,1,.22.42l.15.35c0,.1,0,.18,0,.25s0,0,0,.05l0,.07h.07a52.19,52.19,0,0,0,.86,6.84l4.77,4.14-4.19-1.43a75.63,75.63,0,0,0,2.8,9.11l4.27,3.7-3.25-1.1c1.35,3.29,2.79,6.28,4.11,8.78l2.22,1.92-1.46-.5c2.25,4.14,4,6.66,4,6.66,2.88-9.32,2.28-16.75.19-22.51l1.57.61H160c2.62,2.37,4.47,3.72,4.47,3.72a28.49,28.49,0,0,0-2.91-12.07l5.52.46-3.28,1c3,1.86,6,3.42,8.51,4.67l2.92.23-1.47.46c4.26,2,7.15,3,7.15,3a38.35,38.35,0,0,0-7.9-13.78l1.28.26,2.64-.49-1.19.76c4.26.77,7.06,1,7.06,1-5-7.36-10.58-11.2-15.87-13h.08l4.87-2.87-2.08,2.73c3.55-.23,6.84-.64,9.64-1.09l2.52-1.49-.94,1.22c4.64-.82,7.59-1.66,7.59-1.66a39.22,39.22,0,0,0-13.15-6.4c3.92-1.76,6.34-3.16,6.34-3.16-9.8-3.89-17.54-3.18-23.34-.87L160,134.9l.17,2.95c2.2-2.14,4.11-4.25,5.68-6.11l.81-2.39.08,1.33c2.57-3.14,4-5.34,4-5.34a31.63,31.63,0,0,0-15.18,4.91c.37-.76.71-1.5,1-2.2l.09-2.2.39,1.09c1.39-3.28,2.06-5.49,2.06-5.49-8.8,3.44-13.07,8.8-15.07,13.82A24.75,24.75,0,0,0,142.06,128.37Zm32.82,14.92,1.13-1.12-.55,1.27Zm-19.24,17.93,2.44.21-1.59.49Zm.57-9.63,4-2.36-1.75,2.3Q157.29,151.52,156.21,151.59Zm-4.4,11.87h-1.12c-.37-.31-.74-.61-1.09-.88Zm.83-30.88a1.29,1.29,0,0,1-.17.16l0-.57Zm-1.85,11.49,1.1-3.2.13,2.22C151.59,143.42,151.18,143.75,150.79,144.07Zm-3.67-4.86.14.4-.17.33Z"/></g></g></g></svg>