<svg xmlns="http://www.w3.org/2000/svg" viewBox="0 0 242.44 231.6"><defs><style>.cls-1{fill:#816356;}.cls-2{fill:#a070ae;}.cls-3{fill:#b58882;opacity:0.5;isolation:isolate;}.cls-4{fill:#845994;}.cls-5{fill:#468aa5;}.cls-6{fill:#69b5da;}.cls-7{fill:#fff;}.cls-8{fill:#231815;}.cls-9{fill:#a68223;}.cls-10{fill:#37121c;}.cls-11{fill:#e2a658;}.cls-12{fill:#131313;}.cls-13{fill:#545354;}</style></defs><title>doll__NPC</title><g id="圖層_2" data-name="圖層 2"><g id="圖層_1-2" data-name="圖層 1"><path class="cls-1" d="M25.4,183.8h0c.2,0,.5,0,.6.3l4,4.3c1,1,1.6.8,1.9-.5a9.71,9.71,0,0,0-1.4-7.8c-.2-.2-.3-.5-.2-.6h0C30.1,179.5,28.4,182.8,25.4,183.8Z"/><path class="cls-1" d="M17.9,188.5a21.63,21.63,0,0,0,2.2,3.6c.3.3,1.1.8,1.4.6a4.68,4.68,0,0,0,.8-1.4,9.73,9.73,0,0,0-.3-4.8.49.49,0,0,1,.2-.8,13.45,13.45,0,0,1-5.1,2.1h0A1.68,1.68,0,0,1,17.9,188.5Z"/><path class="cls-1" d="M8.8,187.8h0a1.1,1.1,0,0,1,.5,1,24.18,24.18,0,0,0,1,3.6c.3,1,1.1,1,1.7.2.3-.5.6-1.1,1-1.7.3-1,.3-2.1,1-2.9.2-.2.3-.2.3-.3h0A6.76,6.76,0,0,1,8.8,187.8Z"/><path class="cls-1" d="M211.9,178.5c-.2.2-.2.3-.3.3a9.59,9.59,0,0,0-1.7,7.6,2.48,2.48,0,0,0,.8,1.4c.3.2,1-.3,1.3-.6,1.3-1.3,2.7-2.9,4-4.1a.83.83,0,0,1,.8-.2C214.6,182.5,211.9,178.5,211.9,178.5Z"/><path class="cls-1" d="M220,185.6a9.65,9.65,0,0,0-.3,4.8c.2.5.5,1.3,1,1.4.3.2,1.1-.3,1.4-.8a37.88,37.88,0,0,0,2.2-3.6,1,1,0,0,1,.8-.5,13.9,13.9,0,0,1-5.4-2.5A1,1,0,0,1,220,185.6Z"/><path class="cls-1" d="M228.1,187.9h0a5.58,5.58,0,0,1,.5.8,21.21,21.21,0,0,0,1.3,3.8c.5,1,1.3.8,1.7-.2a21.09,21.09,0,0,0,1.1-3.8,1.82,1.82,0,0,1,.5-.8h0A10.39,10.39,0,0,1,228.1,187.9Z"/><path class="cls-2" d="M240.4,183.5c.3-1,.6-1.9,1-3a51,51,0,0,0,.8-14.6,100.06,100.06,0,0,0-3.3-18.8,111.62,111.62,0,0,0-10.3-24.9,107.3,107.3,0,0,0-12.5-17.3c-1-1-1.9-1.9-2.9-3a9,9,0,0,1,2.9-.2c1.6.2,3.2.6,4.8.8.3,0,1,0,1.1-.3a1.48,1.48,0,0,0,0-1.3,5.21,5.21,0,0,0-1.4-1.6,15,15,0,0,0-2.2-1.1,6.84,6.84,0,0,0,2.2-.2c1.6-.2,3.3-.5,4.9-.8.3,0,.6-.5.6-.6a1.91,1.91,0,0,0-.5-1,4.67,4.67,0,0,0-1.9-.6c-1.4-.2-3-.2-4.3-.3s-3-.2-4.8-.3l.8-.8a10.56,10.56,0,0,0,3.6-4.8c.2-.6.5-1.4-.2-1.7a1.53,1.53,0,0,0-1.6,0,16,16,0,0,0-2.9,1.9c-1.1,1-2.1,1.9-3.2,3v-.2a16.63,16.63,0,0,0-1-7.9c-.2-.5-.6-1-1-1a1.88,1.88,0,0,0-1.3.8,9.63,9.63,0,0,0-1.4,5.5,4,4,0,0,1-.2,1.3c-.5-1-.8-1.6-1.1-2.1a10.72,10.72,0,0,0-1.3-1.9,7.66,7.66,0,0,0-3.6-2.7c-1-.3-1.6.2-1.4,1.3a13.06,13.06,0,0,0,.8,2.1c.3.8,1,1.4,1.3,2.2.3,1,.6,1.9,1,3.2a1,1,0,0,0-.5-.2,54.08,54.08,0,0,1-5.2-3.6,1.23,1.23,0,0,1-.5-1,48.23,48.23,0,0,0-1-5.7v-.6h0V79.1a2.15,2.15,0,0,0-.2-1.1c0-.3-.2-.8-.2-1.1s-.2-.8-.2-1.1-.2-.8-.2-1.1-.2-.8-.2-1.1a9.68,9.68,0,0,0-.3-1.1,2.9,2.9,0,0,1-.3-1.1,2.9,2.9,0,0,1-.3-1.1,2.9,2.9,0,0,1-.3-1.1,2.9,2.9,0,0,1-.3-1.1,1.8,1.8,0,0,1-.3-1.1,1.69,1.69,0,0,1-.3-1,9.29,9.29,0,0,1-.5-1,9.29,9.29,0,0,1-.5-1,9.29,9.29,0,0,1-.5-1,9.29,9.29,0,0,1-.5-1,9.29,9.29,0,0,1-.5-1,9.29,9.29,0,0,1-.5-1,9.29,9.29,0,0,1-.5-1,9.29,9.29,0,0,1-.5-1,9.29,9.29,0,0,1-.5-1,9.29,9.29,0,0,1-.5-1l-.5-1a5.58,5.58,0,0,0-.5-.8,5.58,5.58,0,0,0-.5-.8,5.58,5.58,0,0,0-.5-.8c-.2-.3-.3-.5-.5-.8s-.3-.5-.5-.8-.3-.5-.5-.8-.3-.5-.5-.8-.3-.5-.5-.8-.3-.5-.5-.8-.3-.5-.5-.6-.3-.5-.5-.6-.3-.5-.5-.6-.3-.5-.5-.6-.3-.5-.5-.6a3.17,3.17,0,0,1-.5-.6l-.5-.5-.5-.5-.5-.5c-.2-.2-.3-.3-.3-.5-.2-.2-.3-.3-.3-.5a1.33,1.33,0,0,1-.3-.5c-.2-.2-.2-.3-.3-.3l-.3-.3-.3-.3L175,40l-1-1c-.2-.2-.5-.3-.6-.5s-.3-.2-.5-.3a6,6,0,0,0-1.1-.6,6,6,0,0,0-1.1-.6,6,6,0,0,0-1.1-.6,6,6,0,0,0-1.1-.6,7.54,7.54,0,0,1-1.3-.6l-1.3-.5-1.3-.5-1.3-.5a1.69,1.69,0,0,0-1-.3c-1.3-.5-2.5-.8-4-1.4a1,1,0,0,1,.6-.2,43.46,43.46,0,0,1,15.4,4.1,26.55,26.55,0,0,0-12.7-11.2c0-.2,0-.2.2-.3,2.7-.3,5.2-.6,7.9-1.1V23A21.77,21.77,0,0,0,154,18.1v-.3c2.2-1.3,4.6-2.7,6.8-4.1-5.2-1.9-10.5-1.7-15.8-.5,1.1-2.5,3.2-4.3,5.1-5.9a26.6,26.6,0,0,0-15,1.7,15.87,15.87,0,0,1,6.2-9,39.46,39.46,0,0,0-22.5,17.1c-.8-3.8,0-7.6,1-11.1-3.2,3.6-4.9,7.9-6,12.8a26.19,26.19,0,0,0-8.1-6.2c-3.5-1.7-8.2-3.2-9.3-2.9a21.77,21.77,0,0,1,7.3,9.7,35.53,35.53,0,0,0-11.6-.8,25.47,25.47,0,0,0-10.9,3.5A12.83,12.83,0,0,1,89,25.9a37.09,37.09,0,0,0-10.9,2.7,32.52,32.52,0,0,0-9.5,6c2.1.3,4.3.6,6.5.8l-.3.3A45.31,45.31,0,0,0,70,38.4a9.13,9.13,0,0,1-1.3.8c.5,1.2-20.1,22.5-20.1,43.6v.5c-.3,2.1-.6,4.1-1,6.2a1.14,1.14,0,0,1-.3.6c-1.7,1.3-3.8,2.5-5.7,3.8a1.08,1.08,0,0,1,.2-.8,11.12,11.12,0,0,1,1.9-4.3,5.54,5.54,0,0,0,1-2.2c.2-1-.3-1.4-1.3-1.3a6.71,6.71,0,0,0-1.7.8,15.76,15.76,0,0,0-4,5.2c-.2.2-.2.3-.5.6a12.29,12.29,0,0,0-.2-2.7,8.51,8.51,0,0,0-1.6-4.6c-.6-.6-1.3-.6-1.6.3-.3.6-.5,1.4-.8,2.1a23.49,23.49,0,0,0-.5,6.5,3.29,3.29,0,0,1-.6-.6,19.92,19.92,0,0,0-4.4-4.3c-.6-.5-1.4-1-2.2-.3-.6.6-.3,1.6,0,2.5a12.3,12.3,0,0,0,3.5,4.3,3,3,0,0,0,1,.5l-2.1-1.7c-2.9.2-5.5.3-8.4.6a8.24,8.24,0,0,0-2.5.6,1,1,0,0,0-.5.8.65.65,0,0,0,.6.6c1.3.3,2.5.6,3.8.8a16.68,16.68,0,0,0,3.2.2,5.34,5.34,0,0,1-1.4.6,3.25,3.25,0,0,0-2.1,1.9,1.69,1.69,0,0,0,0,1.4c.2.3.8.3,1.1.3,1.6-.2,3.2-.6,4.8-.8a12.15,12.15,0,0,1,2.7,0c0,.2.2.2.2.3a1.33,1.33,0,0,1-.5.3,91.59,91.59,0,0,0-9,10.6A102.52,102.52,0,0,0,9.2,130.3a110.73,110.73,0,0,0-7.4,22.6A77.27,77.27,0,0,0,.1,172.7c.2,3.5.5,6.7,1.9,9.8v.3H2s1.9,3.5,3.3,4.3a22.56,22.56,0,0,0,3.3,1.3c.2,0,.3.2.5.3h0a6.2,6.2,0,0,0,5.5-.2h0a13.75,13.75,0,0,1,2.5-.5h.4a10.3,10.3,0,0,0,5.1-2.1h0l.2-.2c.8-.5,1.7-1,2.5-1.6a1.33,1.33,0,0,1,.5-.3h0c3.2-.8,4.8-4.3,4.8-4.3h0a.55.55,0,0,1,.2-.5,24.41,24.41,0,0,0,2.1-4.3c1.4-4.1,1.7-8.6,2.2-13,.6-6.3,1.3-13,2.1-19.3a75.63,75.63,0,0,1,6.2-20.6c0-.2.2-.2.5-.5a5.63,5.63,0,0,0,.2,1c0,2.1.2,4.1.2,6.2A175.17,175.17,0,0,0,46,147.8a106.11,106.11,0,0,0,5.9,24.1c.8,1.9,1.6,4.1,2.5,5.9a28,28,0,0,0,7.3,9.8,52.45,52.45,0,0,0,13.6,8.2,2.25,2.25,0,0,1,1.4,1.7c1.3,5.4,2.7,10.6,3.8,16a8.58,8.58,0,0,1,.3,1.7c-.2,0-.3,0-.3-.2a23.57,23.57,0,0,0-6.8-8.2c-2.5-1.7-5.1-3.2-8.2-3.2a4.49,4.49,0,0,0-4.4,4.9,6.79,6.79,0,0,0,.6,2.1,1.82,1.82,0,0,0-1.1-.2c-2.5-.5-4.6-.2-6.2,1.9a4.32,4.32,0,0,0,.6,6.2s.2.2.2.3a2.61,2.61,0,0,1-.8.3,7.51,7.51,0,0,0-2.5,1.3,4.86,4.86,0,0,0,0,8.2,8.94,8.94,0,0,0,4.6,1.7,119.67,119.67,0,0,0,18.8,1.3A138.46,138.46,0,0,0,91,230.3a3.61,3.61,0,0,0,3.3-3.2,12.5,12.5,0,0,0,.3-1.9c.2-2.5.2-5.1.3-7.6a89.05,89.05,0,0,1,2.2-15.5c.2-.8.5-1,1.1-.8a176,176,0,0,0,21.7,1.6c2.5,0,4.8,0,7.3-.2,4.9-.3,9.7-.8,14.6-1.1,2.2-.2,2.2-.3,3,1.9a75.7,75.7,0,0,1,1.9,13.5c0,3,.2,5.9.3,8.9.2,2.5,1.1,4,3.2,4.3a11.76,11.76,0,0,0,2.1.3c5.9.6,11.6,1.3,17.6,1,4.8-.2,9.3-.5,13.9-1a16.48,16.48,0,0,0,5.2-1.6,4.64,4.64,0,0,0,2.1-7.3,7.51,7.51,0,0,0-3.6-2.7,9.29,9.29,0,0,0-1-.5c2.7-2.2,2.7-5.4,0-7.6a5.24,5.24,0,0,0-3.5-1.1c-1,0-1.9.2-3.2.3v-.3a4.37,4.37,0,0,0-2.9-6.5,11.3,11.3,0,0,0-5.4.6,21.09,21.09,0,0,0-9,7.8,16,16,0,0,0-1.7,3v-.8c1.3-5.9,2.9-11.7,4.3-17.6,0-.3.5-.6.8-.8a52.54,52.54,0,0,0,10.5-5.5,26.94,26.94,0,0,0,8.4-8.4c1.1-1.9,2.2-4,3.3-6,1-2.2,2.1-4.4,3-6.7a120,120,0,0,0,4.6-18.8,191.47,191.47,0,0,0,2.2-26.1c0-1,.2-2.1.2-3.2h.2a1.33,1.33,0,0,1,.3.8c1.1,3,2.2,5.7,3.3,8.7a87.13,87.13,0,0,1,3.8,17.3c.5,4,.8,8.1,1.3,12,.2,2.1.2,4.3.5,6.3.5,4.6,1.3,9,4.3,12.8,0,0,2.7,4,4.9,4.4,1,.5,1.7,1.1,2.9,1.7a17.88,17.88,0,0,0,5.4,2.5h.3a8.73,8.73,0,0,0,2.2.5.77.77,0,0,1,.5.2h0a8.46,8.46,0,0,0,5.2-.2h0c.2,0,.2-.2.3-.2a17.18,17.18,0,0,0,2.9-1.1.55.55,0,0,1,.5-.2h0C238.9,187.2,240.4,183.5,240.4,183.5Z"/><path class="cls-1" d="M237.4,186.8c.5.8.8,1.7,1.4,2.7.5.8,1.1.8,1.4,0a7.42,7.42,0,0,0,.3-6.5,2.15,2.15,0,0,1-.2-1.1s-1.6,3.8-3.6,4.6h0C237.1,186.3,237.3,186.4,237.4,186.8Z"/><path class="cls-3" d="M33.9,170.5c.5-2.7.6-5.1,1-7.8.6-6.3,1.3-13,2.1-19.3a75.63,75.63,0,0,1,6.2-20.6c0-.2.2-.2.5-.5C43.7,122.5,30.3,135.1,33.9,170.5Z"/><path class="cls-4" d="M242.3,165.9a100.06,100.06,0,0,0-3.3-18.8,111.62,111.62,0,0,0-10.3-24.9,107.3,107.3,0,0,0-12.5-17.3c-1-1-1.9-1.9-2.9-3a9,9,0,0,1,2.9-.2c1.6.2,3.2.6,4.8.8.3,0,1,0,1.1-.3a1.48,1.48,0,0,0,0-1.3,5.21,5.21,0,0,0-1.4-1.6,15,15,0,0,0-2.2-1.1,6.84,6.84,0,0,0,2.2-.2c1.6-.2,3.3-.5,4.9-.8.3,0,.6-.5.6-.6a1.91,1.91,0,0,0-.5-1,4.67,4.67,0,0,0-1.9-.6c-1.4-.2-3-.2-4.3-.3s-3-.2-4.8-.3l.8-.8a10.56,10.56,0,0,0,3.6-4.8c.2-.6.5-1.4-.2-1.7a1.53,1.53,0,0,0-1.6,0,16,16,0,0,0-2.9,1.9c-1.1,1-2.1,1.9-3.2,3v-.2a16.63,16.63,0,0,0-1-7.9c-.2-.5-.6-1-1-1a1.88,1.88,0,0,0-1.3.8,9.63,9.63,0,0,0-1.4,5.5,4,4,0,0,1-.2,1.3c-.5-1-.8-1.6-1.1-2.1a10.72,10.72,0,0,0-1.3-1.9,7.66,7.66,0,0,0-3.6-2.7c-1-.3-1.6.2-1.4,1.3a13.06,13.06,0,0,0,.8,2.1c.3.8,1,1.4,1.3,2.2.3,1,.6,1.9,1,3.2a1,1,0,0,0-.5-.2,54.08,54.08,0,0,1-5.2-3.6s45,60,45.9,82.5A19.61,19.61,0,0,0,242.3,165.9Z"/><path class="cls-5" d="M168.74,156.77l-.14-1.61a10.07,10.07,0,0,0-11.88-9.06C148.8,147.44,122,160,122,160v3.49h-.88V160S94.29,147.44,86.3,146.1a10.1,10.1,0,0,0-11.88,9.06l-.14,1.61a126.86,126.86,0,0,0,0,22.56l.14,1.61a10.36,10.36,0,0,0,12,9.2h0c7.92-1.35,34.77-13.9,34.77-13.9v-5.1H122v5.1s26.79,12.55,34.78,13.9h0a10.2,10.2,0,0,0,11.88-9.07l.13-1.61A122.83,122.83,0,0,0,168.74,156.77Z"/><path class="cls-6" d="M168.74,154.15l-.14-1.61a10.07,10.07,0,0,0-11.88-9.06C148.8,144.82,122,157.31,122,157.31v3.49h-.88v-3.49s-26.78-12.55-34.77-13.9a10.2,10.2,0,0,0-11.88,9.13l-.14,1.61a126.86,126.86,0,0,0,0,22.56l.14,1.61a10.06,10.06,0,0,0,11.88,9.06h0c7.92-1.34,34.77-13.89,34.77-13.89v-5.1H122v5.1s26.78,12.55,34.77,13.89h0a10.18,10.18,0,0,0,11.88-9.06l.14-1.61A116.47,116.47,0,0,0,168.74,154.15Z"/><path class="cls-7" d="M83.41,147.24A2.27,2.27,0,0,0,85.7,145a2.18,2.18,0,0,0-.74-1.68,10,10,0,0,0-3.56.47,3.34,3.34,0,0,0-.33,1.14A2.41,2.41,0,0,0,83.41,147.24Z"/><path class="cls-7" d="M91.87,147.24A2.39,2.39,0,0,0,94,145.7c-1.61-.54-3-1.14-4.36-1.55a2.22,2.22,0,0,0-.07.67A2.34,2.34,0,0,0,91.87,147.24Z"/><path class="cls-7" d="M151.28,147.24a2.26,2.26,0,0,0,2.28-2.28c0-.27-.06-.47-.06-.67a43.29,43.29,0,0,0-4.37,1.54A2.43,2.43,0,0,0,151.28,147.24Z"/><path class="cls-7" d="M157.46,144.89a2.28,2.28,0,0,0,4.56,0,1.75,1.75,0,0,0-.33-1.14,9.64,9.64,0,0,0-3.69-.47A2.44,2.44,0,0,0,157.46,144.89Z"/><path class="cls-7" d="M77.31,153A2.27,2.27,0,0,0,75,150.66H75a7.62,7.62,0,0,0-.34,1.82l-.13,1.61c0,.33-.07.74-.07,1a2.19,2.19,0,0,0,.67.07A2.15,2.15,0,0,0,77.31,153Z"/><circle class="cls-7" cx="83.41" cy="152.95" r="2.28"/><circle class="cls-7" cx="91.87" cy="152.95" r="2.28"/><circle class="cls-7" cx="100.4" cy="152.95" r="2.28"/><path class="cls-7" d="M106.57,153a2.29,2.29,0,0,0,4.57,0v-.14c-1.21-.53-2.48-1-3.76-1.61A2.28,2.28,0,0,0,106.57,153Z"/><path class="cls-7" d="M134.3,155.3a2.27,2.27,0,0,0,2.28-2.29,2.36,2.36,0,0,0-.87-1.81c-1.28.54-2.55,1.14-3.76,1.61V153A2.43,2.43,0,0,0,134.3,155.3Z"/><circle class="cls-7" cx="142.76" cy="152.95" r="2.28"/><circle class="cls-7" cx="151.28" cy="152.95" r="2.28"/><circle class="cls-7" cx="159.74" cy="152.95" r="2.28"/><path class="cls-7" d="M165.92,153a2.26,2.26,0,0,0,2.28,2.28c.27,0,.47-.07.67-.07,0-.33-.07-.74-.07-1l-.13-1.61a7.46,7.46,0,0,0-.34-1.81h-.06A2.18,2.18,0,0,0,165.92,153Z"/><path class="cls-7" d="M77.31,161A2.27,2.27,0,0,0,75,158.72a3.26,3.26,0,0,0-.87.13c-.07,1.41-.13,2.82-.13,4.23a2.67,2.67,0,0,0,1,.27A2.37,2.37,0,0,0,77.31,161Z"/><circle class="cls-7" cx="83.41" cy="161" r="2.28"/><circle class="cls-7" cx="91.87" cy="161" r="2.28"/><circle class="cls-7" cx="100.4" cy="161" r="2.28"/><circle class="cls-7" cx="108.86" cy="161" r="2.28"/><circle class="cls-7" cx="117.31" cy="161" r="2.28"/><circle class="cls-7" cx="125.84" cy="161" r="2.28"/><circle class="cls-7" cx="134.3" cy="161" r="2.28"/><circle class="cls-7" cx="142.76" cy="161" r="2.28"/><circle class="cls-7" cx="151.28" cy="161" r="2.28"/><circle class="cls-7" cx="159.74" cy="161" r="2.28"/><path class="cls-7" d="M165.92,161a2.25,2.25,0,0,0,2.28,2.28,1.64,1.64,0,0,0,1-.26c0-1.41-.07-2.82-.14-4.23a3.3,3.3,0,0,0-.87-.14A2.37,2.37,0,0,0,165.92,161Z"/><path class="cls-7" d="M77.31,169.06A2.26,2.26,0,0,0,75,166.78a1.59,1.59,0,0,0-1,.26c0,1.35.06,2.82.06,4.17a2.21,2.21,0,0,0,.94.13A2.27,2.27,0,0,0,77.31,169.06Z"/><circle class="cls-7" cx="83.41" cy="169.06" r="2.28"/><circle class="cls-7" cx="91.87" cy="169.06" r="2.28"/><circle class="cls-7" cx="100.4" cy="169.06" r="2.28"/><circle class="cls-7" cx="108.86" cy="169.06" r="2.28"/><circle class="cls-7" cx="117.31" cy="169.06" r="2.28"/><circle class="cls-7" cx="125.84" cy="169.06" r="2.28"/><circle class="cls-7" cx="134.3" cy="169.06" r="2.28"/><circle class="cls-7" cx="142.76" cy="169.06" r="2.28"/><circle class="cls-7" cx="151.28" cy="169.06" r="2.28"/><circle class="cls-7" cx="159.74" cy="169.06" r="2.28"/><path class="cls-7" d="M165.92,169.06a2.26,2.26,0,0,0,2.28,2.28,4.44,4.44,0,0,0,.94-.13c.07-1.35.07-2.82.07-4.17a3,3,0,0,0-1-.26A2.25,2.25,0,0,0,165.92,169.06Z"/><path class="cls-7" d="M77.31,177.11A2.27,2.27,0,0,0,75,174.83a3.19,3.19,0,0,0-.74.13c.07.54.07,1.21.14,1.75l.13,1.61a4,4,0,0,0,.14,1H75A2.23,2.23,0,0,0,77.31,177.11Z"/><circle class="cls-7" cx="83.41" cy="177.11" r="2.28"/><circle class="cls-7" cx="91.87" cy="177.11" r="2.28"/><circle class="cls-7" cx="100.4" cy="177.11" r="2.28"/><path class="cls-7" d="M108.86,174.83a2.27,2.27,0,0,0-2.29,2.28,2.38,2.38,0,0,0,1.68,2.22c.94-.4,1.81-.81,2.69-1.21a2.92,2.92,0,0,0,.27-1A2.33,2.33,0,0,0,108.86,174.83Z"/><path class="cls-7" d="M115.17,176.31c1.14-.47,2.08-.94,3-1.35a3.19,3.19,0,0,0-.81-.13A2.39,2.39,0,0,0,115.17,176.31Z"/><path class="cls-7" d="M125.84,174.83a3.8,3.8,0,0,0-.81.13c.88.41,1.82.81,3,1.35A2.4,2.4,0,0,0,125.84,174.83Z"/><path class="cls-7" d="M136.65,177.11a2.29,2.29,0,0,0-4.57,0,1.63,1.63,0,0,0,.27,1c.87.4,1.75.81,2.69,1.21A2.22,2.22,0,0,0,136.65,177.11Z"/><circle class="cls-7" cx="142.76" cy="177.11" r="2.28"/><circle class="cls-7" cx="151.28" cy="177.11" r="2.28"/><circle class="cls-7" cx="159.74" cy="177.11" r="2.28"/><path class="cls-7" d="M165.92,177.11a2.26,2.26,0,0,0,2.28,2.29h.27a6.82,6.82,0,0,0,.13-1l.14-1.61c.06-.54.06-1.21.13-1.75a2.74,2.74,0,0,0-.74-.13A2.14,2.14,0,0,0,165.92,177.11Z"/><path class="cls-7" d="M76.43,183.42c.14.27.41.47.54.74A1.94,1.94,0,0,0,76.43,183.42Z"/><circle class="cls-7" cx="83.41" cy="185.17" r="2.28"/><path class="cls-7" d="M91.87,182.89a2.26,2.26,0,0,0-2.28,2.28,2.39,2.39,0,0,0,.4,1.34q1.92-.6,4.23-1.41A2.35,2.35,0,0,0,91.87,182.89Z"/><path class="cls-7" d="M151.28,182.89A2.24,2.24,0,0,0,149,185q2.31.81,4.23,1.41a2.24,2.24,0,0,0,.4-1.34A2.3,2.3,0,0,0,151.28,182.89Z"/><circle class="cls-7" cx="159.74" cy="185.17" r="2.28"/><path class="cls-7" d="M166.12,184.16a2.44,2.44,0,0,0,.53-.74C166.52,183.62,166.32,183.89,166.12,184.16Z"/><path class="cls-5" d="M122,160.8h-.87v-3.49s-4.76-2.22-10.94-5a5.63,5.63,0,0,0-.54,2.28v21.49a4.15,4.15,0,0,0,.54,2.28c6.11-2.69,10.94-5,10.94-5v-5.1H122v5.1s4.77,2.22,11,5a5.78,5.78,0,0,0,.53-2.28V154.69a4.12,4.12,0,0,0-.53-2.28c-6.11,2.68-11,5-11,5Z"/><polygon class="cls-5" points="110.8 167.65 94.89 164.76 110.8 162.41 110.8 167.65"/><polygon class="cls-5" points="132.42 167.65 148.26 164.76 132.42 162.41 132.42 167.65"/><path class="cls-6" d="M126.91,152h-10.6a4.7,4.7,0,0,0-4.57,4.76v18.8a4.67,4.67,0,0,0,4.57,4.77H127a4.7,4.7,0,0,0,4.57-4.77v-18.8A4.8,4.8,0,0,0,126.91,152Z"/><circle class="cls-7" cx="158.42" cy="74.74" r="24.55"/><circle class="cls-8" cx="159.47" cy="75.94" r="16.47"/><circle class="cls-7" cx="159.32" cy="73.15" r="7.64"/><path class="cls-9" d="M134.92,67.41a48.89,48.89,0,0,0,46.86,0,24.55,24.55,0,0,0-23.51-17.22A24.29,24.29,0,0,0,134.92,67.41Z"/><circle class="cls-7" cx="84.45" cy="75.64" r="24.85"/><circle class="cls-8" cx="83.4" cy="76.84" r="16.77"/><circle class="cls-7" cx="83.41" cy="73.9" r="7.79"/><path class="cls-9" d="M108.1,68.15a48.59,48.59,0,0,1-23.65,6A48.89,48.89,0,0,1,60.64,68a24.87,24.87,0,0,1,47.46.15Z"/><path class="cls-10" d="M145.29,131.29c-9.6,0-18.6-6.72-21.89-9.43-12.91,8.79-23.42,11.37-31,7.66-10-4.81-11-18.41-11.08-19a2.1,2.1,0,1,1,4.2-.19h0c0,.1.89,11.7,8.68,15.51,6.3,3,16,.12,28.11-8.27l1.4-1,1.2,1.21c.2.1,12.49,11.41,23.59,9,5.6-1.2,10.11-5.89,13.42-13.89a2.09,2.09,0,0,1,3.9,1.51c-3.81,9.39-9.42,14.89-16.42,16.38A14.81,14.81,0,0,1,145.29,131.29Z"/><path class="cls-11" d="M170.23,134.94c-.2,0-11.1.7-15.5,6-1.3-1.4,1.4-4.1-2.3-9.3-2.8-3.9-8.3-5.4-12.7-6.5-7.2-1.8-9.3-.3-10.6-.9-.9-.4-3.6-1.3-2.8-1.9,3.5-2.1,22.3-2.1,31.3,5.4s7.8,4.5,12.3,6.7A.46.46,0,0,1,170.23,134.94Z"/><path class="cls-12" d="M233,148c-1.5-.6-5-1.7-13.6-3.3-14.4-2.7-15.6-1.7-15.6-1.7-3.1,1.7-6,15.6-11.6,15.6s-21.3-20.5-22-23.6c-.2,0-11.1.7-15.5,6,3.5,3.2,16.5,19.3,22.8,27.3,8.6,11,12.4,17,29.7,17,18,0,21.2-7.7,23.7-12.4,2.2-4.1,2.9-19.2,3.1-23.1A1.78,1.78,0,0,0,233,148Z"/><path class="cls-13" d="M83.12,104.61c-16.18-.07-29.29-12.8-29.23-28.38S67.17,48,83.35,48.08s29.3,12.8,29.23,28.38S99.3,104.67,83.12,104.61Zm.21-52.1c-13.74-.06-25,10.59-25,23.73s11.09,23.89,24.83,23.94,25-10.59,25-23.73S97.07,52.56,83.33,52.51Z"/><path class="cls-13" d="M159.1,104.19c-16.18-.07-29.29-12.8-29.23-28.38s13.28-28.21,29.46-28.14,29.3,12.79,29.23,28.38S175.29,104.25,159.1,104.19Zm.21-52.1c-13.74-.06-25,10.59-25,23.74s11.09,23.88,24.83,23.93,25-10.59,25-23.73S173.06,52.14,159.31,52.09Z"/><path class="cls-13" d="M131.7,74.61c-11.62-5-19.62-.45-19.95-.25l-3.89-6.51c.46-.28,11.48-6.75,26.81-.22Z"/><path class="cls-13" d="M46.37,66.43l0,10.85s9.68,1.7,11.32,7c.23.25-5.5-15.69,3.22-23.61C60.86,61,54.33,66.46,46.37,66.43Z"/><path class="cls-13" d="M196.8,65.38l.27,10.85s-9.64,1.9-11.18,7.26c-.21.26,5.18-15.8-3.7-23.54C182.2,60.3,188.84,65.58,196.8,65.38Z"/></g></g></svg>