<svg xmlns="http://www.w3.org/2000/svg" viewBox="0 0 360.87 283.65"><defs><style>.cls-1{fill:#2f7437;}.cls-2{fill:#046535;}.cls-3,.cls-5,.cls-6{fill:#898989;}.cls-4{fill:#f39800;}.cls-5{opacity:0.42;}.cls-6{opacity:0.41;}</style></defs><title>hand_sign</title><g id="圖層_2" data-name="圖層 2"><g id="圖層_1-2" data-name="圖層 1"><path class="cls-1" d="M236.4,277.6c-2.57,8.89-20.29,5.79-26.46,4.27a69.78,69.78,0,0,1-27.24-14.12c-26.36-21.64-45.63-56.14-43.25-90.83a13.4,13.4,0,0,1,.37-2.28h0s-1.53-11.7-1.08-17.88c.93-4.28,1.86-8.56,5.63-13.57s7.36-2.89,7.36-2.89,2.89,7.35,2,11.63c0,0,3-11.9,8.75-9.31s.78,15-1.34,18.55c0,0,14.93-8.87,18.29-3.66s-1.86,8.57-9.22,11.46-7.35,2.88-9.23,7.41c-4.37,28.3,23.92,70.92,48.62,82.07,3.23,1.46,6.55,2.59,9.84,3.8a55.35,55.35,0,0,1,11.12,5.21C234,269.69,237.49,273.84,236.4,277.6Z"/><path class="cls-2" d="M143.13,152.56a43.53,43.53,0,0,0-1.3,8.32c-.1,2.34-.55,4.72-.18,7-.78,1.08-1.51,2.18-2.24,3.29a97.31,97.31,0,0,1-.68-14.42c.93-4.28,1.86-8.56,5.63-13.57a10.64,10.64,0,0,1,2.06-2.11C144.36,144.45,144,148.72,143.13,152.56Z"/><path class="cls-2" d="M152.83,159.05c-.35.62-.69,1.26-1,1.92a36.41,36.41,0,0,1,.82-4.53c.49-1.94.71-4.27,1.24-6.45a9.14,9.14,0,0,1-.18,1.94s3-11.9,8.75-9.31a3.83,3.83,0,0,1,.95.6C159.93,148.5,155.93,153.58,152.83,159.05Z"/><path class="cls-2" d="M211.34,261v0a3,3,0,0,0-.52,0c-1.07,0-2.21-.8-3.19-1.21-4.59-1.87-9.12-3.76-13.1-6.78s-7.36-7.17-10.9-10.77a94.07,94.07,0,0,1-10.1-12,116.4,116.4,0,0,1-7.58-12.08c-.27-1-.56-2.06-.88-3.07-1.4-4.37-3-8.65-4-13.13a58.2,58.2,0,0,1-1.11-14.85,8.62,8.62,0,0,1,.59-2.81c1.06,27.77,26.52,64,49,74.2.57.26,1.13.49,1.7.73A3.41,3.41,0,0,1,211.34,261Z"/><path class="cls-2" d="M170.47,158.76a45.27,45.27,0,0,0-8.73,6.32l-.44,0c.43-.81.88-1.6,1.34-2.34.77-1.25,1.56-2.47,2.38-3.69,3.8-1.83,9.44-4,12.62-2.92A24.38,24.38,0,0,0,170.47,158.76Z"/><rect class="cls-3" x="7.17" y="76.71" width="262.96" height="86.07" transform="matrix(0.96, -0.28, 0.28, 0.96, -27.84, 43.3)"/><polygon class="cls-3" points="360.87 53.24 287.42 160.45 241.5 1.88 360.87 53.24"/><rect class="cls-4" x="6.78" y="74.35" width="262.96" height="86.07" transform="translate(-27.2 43.1) rotate(-16.15)"/><polygon class="cls-4" points="358.89 51.36 285.44 158.57 239.52 0 358.89 51.36"/><rect class="cls-5" x="19.1" y="149.06" width="260.32" height="8.87" transform="translate(-36.81 47.58) rotate(-16.15)"/><polygon class="cls-6" points="354.54 48.58 283.77 151.88 285.44 157.66 358.89 50.46 354.54 48.58"/></g></g></svg>