<svg xmlns="http://www.w3.org/2000/svg" viewBox="0 0 404.38 440.4"><defs><style>.cls-1{fill:#b3b1c5;}.cls-2{fill:#4a6c89;}.cls-3{fill:#7689a3;}.cls-4{fill:#667793;}.cls-5{fill:#656d8b;}.cls-6{fill:#4f647c;}.cls-7{fill:#405f75;}.cls-8{fill:#57637c;}.cls-9{fill:#465f76;}.cls-10{fill:#7f7d96;}.cls-11{fill:#908da7;}.cls-12{fill:#d9e2ec;}.cls-13{fill:#818da9;}.cls-14{fill:#b4b0c4;}.cls-15{fill:#7786a0;}.cls-16{fill:#87849d;}.cls-17{fill:#6785a2;}.cls-18{fill:#c1ddf3;}.cls-19{fill:#d8eefe;}.cls-20{fill:#fff;}.cls-21{fill:#7f9dba;}.cls-22{fill:#4e6c89;}.cls-23{fill:#c8e7fe;}.cls-24{fill:#afcee3;}.cls-25{fill:#fffff5;}.cls-26{fill:#7a96b0;}.cls-27{fill:#6b7c9e;}.cls-28{fill:#d3e4eb;}.cls-29{fill:#95bde1;}.cls-30{fill:#505a6b;}</style></defs><title>資產 8</title><g id="圖層_2" data-name="圖層 2"><g id="圖層_1-2" data-name="圖層 1"><polygon class="cls-1" points="0 230.24 19.85 262.58 19.85 271.04 0 230.24"/><polygon class="cls-2" points="361 256.76 404.38 251.62 370.19 302.45 348.5 304.92 361 256.76"/><polygon class="cls-3" points="79.29 330.24 100.44 388.5 149.82 368.83 129.65 340.4 79.29 330.24"/><polygon class="cls-4" points="129.65 340.4 169.46 347.56 149.82 368.83 129.65 340.4"/><polygon class="cls-5" points="149.82 368.83 211.82 385.1 215.35 341.09 169.46 347.56 149.82 368.83"/><polygon class="cls-6" points="211.82 385.1 305.44 324.31 215.35 341.09 211.82 385.1"/><polygon class="cls-7" points="305.44 324.31 295.3 359.34 269.14 398.98 269.19 347.84 305.44 324.31"/><polygon class="cls-8" points="269.19 347.84 269.14 398.98 242.63 423.15 211.82 385.1 269.19 347.84"/><polygon class="cls-9" points="211.82 385.1 193.43 440.4 242.63 423.15 211.82 385.1"/><polygon class="cls-10" points="211.82 385.1 193.43 440.4 149.82 368.83 211.82 385.1"/><polygon class="cls-11" points="149.82 368.83 100.44 388.5 193.43 440.4 149.82 368.83"/><polygon class="cls-11" points="79.29 330.24 129.65 340.4 166.41 317.62 55.05 305.86 79.29 330.24"/><polygon class="cls-6" points="129.65 340.4 166.41 317.62 169.46 347.56 129.65 340.4"/><polygon class="cls-8" points="166.41 317.62 169.46 347.56 215.35 341.09 215.35 313.7 166.41 317.62"/><polygon class="cls-3" points="215.35 341.09 215.35 313.7 305.44 301.44 305.44 324.31 215.35 341.09"/><polygon class="cls-12" points="19.85 262.65 138.96 292.79 279.39 277.72 314.68 279.75 361 256.76 404.38 251.62 370.56 211.18 173.51 182.51 43.38 199.42 0 230.3 19.85 262.65"/><polygon class="cls-13" points="138.96 292.79 177.19 325.14 279.39 277.72 138.96 292.79"/><polygon class="cls-14" points="138.96 292.79 19.85 262.65 177.19 325.14 138.96 292.79"/><polygon class="cls-15" points="19.85 262.65 19.85 271.1 177.19 335.07 177.19 325.14 19.85 262.65"/><polygon class="cls-1" points="177.19 325.14 314.68 279.75 279.39 277.72 177.19 325.14"/><polygon class="cls-16" points="177.19 325.14 314.68 279.75 331.59 302.45 254.39 325.14 177.19 325.14"/><polygon class="cls-12" points="177.19 325.14 177.19 335.07 254.39 330.1 254.39 325.14 177.19 325.14"/><polygon class="cls-2" points="254.39 325.14 254.39 330.1 348.5 304.92 331.59 302.45 254.39 325.14"/><polygon class="cls-1" points="348.5 304.92 331.59 302.45 314.68 279.75 361 256.76 348.5 304.92"/><polygon class="cls-12" points="49.51 283.16 55.05 305.86 123 313.03 49.51 283.16"/><polygon class="cls-17" points="337.77 220.71 268.54 0 195.02 220.71 337.77 220.71"/><polygon class="cls-18" points="268.54 0 289.7 67.46 278.97 84.31 268.54 0"/><polygon class="cls-19" points="278.97 84.31 269.31 130.72 259.83 84.31 268.54 0 278.97 84.31"/><polygon class="cls-20" points="259.83 84.31 235.18 98.33 268.54 0 259.83 84.31"/><polygon class="cls-21" points="259.83 84.31 232.46 220.71 195.02 220.71 235.18 98.33 259.83 84.31"/><polygon class="cls-22" points="278.97 84.31 301.29 220.71 337.77 220.71 289.7 67.46 278.97 84.31"/><polygon class="cls-22" points="137.88 229.21 213.66 108.87 296.25 229.21 137.88 229.21"/><polygon class="cls-17" points="213.66 108.87 246.94 229.21 185.55 229.21 213.66 108.87"/><polygon class="cls-21" points="213.66 108.87 185.55 229.21 137.88 229.21 213.66 108.87"/><polygon class="cls-19" points="213.79 108.09 205.38 144.15 214.23 161 223.16 141.96 213.79 108.09"/><polygon class="cls-20" points="189.91 146.02 213.79 108.09 205.38 144.15 189.91 146.02"/><polygon class="cls-18" points="213.79 108.09 239.83 146.02 223.16 141.96 213.79 108.09"/><polygon class="cls-17" points="205.77 229.71 144.69 35 79.84 229.71 205.77 229.71"/><polygon class="cls-18" points="144.69 35 163.36 94.51 153.89 109.38 144.69 35"/><polygon class="cls-19" points="153.89 109.38 145.37 150.32 137.01 109.38 144.69 35 153.89 109.38"/><polygon class="cls-20" points="137.01 109.38 115.26 121.75 144.69 35 137.01 109.38"/><polygon class="cls-21" points="137.01 109.38 112.87 229.71 79.84 229.71 115.26 121.75 137.01 109.38"/><polygon class="cls-22" points="153.89 109.38 173.59 229.71 205.77 229.71 163.36 94.51 153.89 109.38"/><path class="cls-20" d="M74.74,201.3c.23.9,2.49,9.08,2.49,9.08H48s6.14-32.92,6.14-34-2.37,2.3-2.5,2.49l5-18.38-2,.91,4.31-20-2,2L59.76,128l-1.82.91,3.86-10.67-1.59.23,2.39-15.11.34-2.14,2,12.26H64l2.61,10.66H64.75l1.82,5.9L69.29,143,67,141.15,70.88,152l1.14,7s-3.41-3.18-3.18-2.27S73.6,172,73.6,172s-3.85-4.54-3.4-3.64S75,177.46,75,177.46l2.26,16.8-4.08-3.18s3.26,10,3.95,11.77C76.57,202.12,74.54,200.51,74.74,201.3Z"/><path class="cls-23" d="M74.74,201.3c.23.9,2.49,9.08,2.49,9.08H62.6v-107l.34-2.14,2,12.26H64l2.61,10.66H64.75l1.82,5.9L69.29,143,67,141.15,70.88,152l1.14,7s-3.41-3.18-3.18-2.27S73.6,172,73.6,172s-3.85-4.54-3.4-3.64S75,177.46,75,177.46l2.26,16.8-4.08-3.18s3.26,10,3.95,11.77C76.57,202.12,74.54,200.51,74.74,201.3Z"/><path class="cls-20" d="M374.74,234.3c.23.9,2.49,9.08,2.49,9.08H348s6.14-32.92,6.14-34-2.37,2.3-2.5,2.49l5-18.38-2,.91,4.31-20-2,2L359.76,161l-1.82.91,3.86-10.67-1.59.23,2.39-15.11.34-2.14,2,12.26h-1l2.61,10.66h-1.82l1.82,5.9L369.29,176,367,174.15,370.88,185l1.14,7s-3.41-3.18-3.18-2.27S373.6,205,373.6,205s-3.85-4.54-3.4-3.64,4.77,9.08,4.77,9.08l2.26,16.8-4.08-3.18s3.26,10,4,11.77C376.57,235.12,374.54,233.51,374.74,234.3Z"/><path class="cls-23" d="M374.74,234.3c.23.9,2.49,9.08,2.49,9.08H362.6v-107l.34-2.14,2,12.26h-1l2.61,10.66h-1.82l1.82,5.9L369.29,176,367,174.15,370.88,185l1.14,7s-3.41-3.18-3.18-2.27S373.6,205,373.6,205s-3.85-4.54-3.4-3.64,4.77,9.08,4.77,9.08l2.26,16.8-4.08-3.18s3.26,10,4,11.77C376.57,235.12,374.54,233.51,374.74,234.3Z"/><polygon class="cls-24" points="43.9 213.21 44.57 247.14 51.21 253.1 58.29 209.27 48.93 193.14 43.9 213.21"/><path class="cls-25" d="M49.2,193a.33.33,0,0,0-.31-.16.31.31,0,0,0-.26.24l-5,20.06a.25.25,0,0,0,0,.08l.67,33.93a.34.34,0,0,0,.11.23l6.64,6a.32.32,0,0,0,.21.08l.1,0a.32.32,0,0,0,.21-.25l7.08-43.82a.3.3,0,0,0,0-.21ZM51,252.49,44.88,247l-.67-33.75L49.05,194,58,209.34Z"/><polygon class="cls-26" points="51.21 253.1 58.29 253.1 62.66 210.73 58.29 209.27 51.21 253.1"/><path class="cls-25" d="M62.76,210.43,58.39,209a.29.29,0,0,0-.26,0,.27.27,0,0,0-.15.22L50.9,253.05a.31.31,0,0,0,.07.26.3.3,0,0,0,.24.11h7.08a.31.31,0,0,0,.31-.28L63,210.76A.33.33,0,0,0,62.76,210.43ZM58,252.79H51.57l7-43.1L62.32,211Z"/><polygon class="cls-27" points="62.66 210.73 58.29 253.1 67.21 249.31 80.46 208.06 70.93 204.31 62.66 210.73"/><path class="cls-25" d="M80.58,207.77,71.05,204a.31.31,0,0,0-.31,0l-8.28,6.42a.3.3,0,0,0-.11.22L58,253.07a.3.3,0,0,0,.12.28.28.28,0,0,0,.19.07.27.27,0,0,0,.12,0l8.92-3.79a.31.31,0,0,0,.18-.19l13.25-41.26A.31.31,0,0,0,80.58,207.77ZM67,249.08l-8.3,3.53L63,210.89l8-6.22,9.09,3.57Z"/><polygon class="cls-28" points="59.66 188.9 48.93 193.14 58.29 209.27 62.66 210.73 70.93 204.31 68.66 187.67 59.66 188.9"/><path class="cls-25" d="M68.85,187.42a.34.34,0,0,0-.24-.06l-9.07,1.25-10.73,4.24a.34.34,0,0,0-.18.19.3.3,0,0,0,0,.26L58,209.43a.29.29,0,0,0,.17.14L62.56,211h.1a.33.33,0,0,0,.19-.06l8.27-6.42a.3.3,0,0,0,.12-.29L69,187.63A.32.32,0,0,0,68.85,187.42Zm-6.25,23L58.5,209,49.38,193.3l10.32-4.09L68.39,188l2.21,16.15Z"/><polygon class="cls-29" points="68.66 187.67 70.93 204.31 80.46 208.06 78.31 195.35 68.66 187.67"/><path class="cls-25" d="M78.5,195.11l-9.65-7.69a.3.3,0,0,0-.35,0,.3.3,0,0,0-.15.31l2.27,16.64a.32.32,0,0,0,.2.25l9.53,3.75.11,0a.31.31,0,0,0,.31-.37l-2.15-12.7A.31.31,0,0,0,78.5,195.11Zm-7.28,9L69.07,188.4l9,7.12,2,12Z"/><polygon class="cls-26" points="55.53 255.91 65.29 259.45 52.27 242.1 55.53 255.91"/><path class="cls-25" d="M52.52,241.91a.31.31,0,0,0-.38-.1.33.33,0,0,0-.17.36L55.22,256a.33.33,0,0,0,.2.23l9.76,3.53.11,0a.33.33,0,0,0,.25-.13.32.32,0,0,0,0-.37Zm3.27,13.77-2.87-12.2L64.4,258.79Z"/><polygon class="cls-29" points="65.29 259.45 76.13 243.72 52.27 242.1 65.29 259.45"/><path class="cls-25" d="M76.15,243.41,52.3,241.79a.29.29,0,0,0-.3.16.32.32,0,0,0,0,.34l13,17.35a.36.36,0,0,0,.26.12h0a.29.29,0,0,0,.25-.14L76.39,243.9a.31.31,0,0,0,0-.31A.33.33,0,0,0,76.15,243.41Zm-10.87,15.5L52.93,242.46,75.56,244Z"/><polygon class="cls-30" points="74.5 254.57 76.13 243.72 65.29 259.45 74.5 254.57"/><path class="cls-25" d="M76.24,243.43a.33.33,0,0,0-.37.11L65,259.27a.32.32,0,0,0,0,.39.35.35,0,0,0,.24.1.25.25,0,0,0,.14,0l9.22-4.88a.28.28,0,0,0,.16-.23l1.63-10.84A.32.32,0,0,0,76.24,243.43Zm-2,10.93-8,4.21L75.62,245Z"/><polygon class="cls-28" points="52.27 242.1 76.13 243.72 61.28 236.92 52.27 242.1"/><path class="cls-25" d="M76.21,243.42l-14.79-6.78a.33.33,0,0,0-.29,0l-9,5.18a.3.3,0,0,0-.15.34.32.32,0,0,0,.28.24L76.11,244h0a.32.32,0,0,0,.32-.32A.31.31,0,0,0,76.21,243.42Zm-22.89-1.56,8-4.58,13.14,6Z"/><polygon class="cls-26" points="10.46 225.71 19.39 248.86 28.54 252.31 24.56 229.8 10.46 225.71"/><path class="cls-25" d="M24.87,229.74a.29.29,0,0,0-.22-.24l-14.1-4.09a.3.3,0,0,0-.31.09.31.31,0,0,0-.07.33L19.1,249a.35.35,0,0,0,.18.18l9.15,3.45.11,0h0c.15,0,.32-.14.32-.32a.23.23,0,0,0,0-.14Zm-5.24,18.88L11,226.19l13.3,3.86,3.85,21.78Z"/><polygon class="cls-29" points="24.56 229.8 28.54 252.31 34.31 251.48 33.02 224.92 24.56 229.8"/><path class="cls-25" d="M33.17,224.65a.29.29,0,0,0-.31,0l-8.45,4.88a.28.28,0,0,0-.15.32l4,22.52a.32.32,0,0,0,.31.26h.05l5.76-.83a.31.31,0,0,0,.27-.32l-1.29-26.56A.33.33,0,0,0,33.17,224.65ZM28.8,252l-3.89-22,7.82-4.51L34,251.21Z"/><polygon class="cls-28" points="10.46 225.71 24.56 229.8 33.02 224.92 22.91 211.14 10.46 225.71"/><path class="cls-25" d="M23.16,211a.28.28,0,0,0-.24-.13.43.43,0,0,0-.25.11L10.23,225.51a.31.31,0,0,0-.06.29.3.3,0,0,0,.21.21l14.1,4.09h.08a.29.29,0,0,0,.16,0l8.45-4.88a.3.3,0,0,0,.15-.2.31.31,0,0,0,0-.25Zm1.36,18.5L11,225.55l11.87-13.9,9.67,13.17Z"/><polygon class="cls-27" points="34.31 251.48 38.47 244.46 39.56 216.86 33.02 224.92 34.31 251.48"/><path class="cls-25" d="M39.67,216.56a.33.33,0,0,0-.35.1l-6.55,8.06a.33.33,0,0,0-.07.21L34,251.5a.31.31,0,0,0,.23.29h.08a.32.32,0,0,0,.27-.16l4.16-7a.33.33,0,0,0,0-.14l1.09-27.6A.31.31,0,0,0,39.67,216.56Zm-1.51,27.8-3.59,6.06L33.34,225l5.87-7.24Z"/><polygon class="cls-24" points="33.02 224.92 39.56 216.86 22.91 211.14 33.02 224.92"/><path class="cls-25" d="M39.66,216.56,23,210.85a.31.31,0,0,0-.35.48l10.1,13.78a.33.33,0,0,0,.25.12h0a.32.32,0,0,0,.24-.11l6.55-8.07a.32.32,0,0,0-.15-.49ZM33,224.41l-9.27-12.65L39,217Z"/><polygon class="cls-29" points="44.32 264.5 53.23 260.49 59.92 242.14 43.76 246.63 44.32 264.5"/><path class="cls-25" d="M59.84,241.84l-16.16,4.49a.31.31,0,0,0-.23.31L44,264.5a.29.29,0,0,0,.14.26.34.34,0,0,0,.17.05.31.31,0,0,0,.13,0l8.91-4a.31.31,0,0,0,.17-.17l6.69-18.35a.34.34,0,0,0-.07-.32A.3.3,0,0,0,59.84,241.84ZM53,260.25,44.62,264l-.54-17.15,15.34-4.27Z"/><polygon class="cls-26" points="34.85 243.66 34.29 263.84 44.32 264.5 43.76 246.63 34.85 243.66"/><path class="cls-25" d="M44.07,246.62a.3.3,0,0,0-.21-.28l-8.92-3a.32.32,0,0,0-.27,0,.35.35,0,0,0-.14.25L34,263.83a.3.3,0,0,0,.29.32l10,.66h0a.32.32,0,0,0,.32-.32.36.36,0,0,0,0-.1Zm-9.46,16.93.54-19.46,8.3,2.77.54,17.3Z"/><polygon class="cls-24" points="37.35 233.01 34.85 243.66 43.76 246.63 59.92 242.14 53.23 235 37.35 233.01"/><path class="cls-25" d="M53.46,234.79a.32.32,0,0,0-.19-.1l-15.88-2a.3.3,0,0,0-.34.23l-2.51,10.66a.32.32,0,0,0,.21.37l8.91,3h.19L60,242.44a.32.32,0,0,0,.21-.21.29.29,0,0,0-.07-.3ZM43.77,246.3l-8.55-2.85,2.37-10.1,15.49,2L59.34,242Z"/><polygon class="cls-27" points="30.39 259.54 34.29 263.84 34.85 243.66 28.99 238.33 30.39 259.54"/><path class="cls-25" d="M29.21,238.1a.32.32,0,0,0-.53.25l1.4,21.21a.29.29,0,0,0,.08.19l3.9,4.3a.28.28,0,0,0,.23.1.23.23,0,0,0,.11,0,.29.29,0,0,0,.2-.28l.56-20.18a.35.35,0,0,0-.1-.24Zm4.78,25-3.3-3.64-1.33-20.32,5.17,4.7Z"/><polygon class="cls-28" points="34.85 243.66 37.35 233.01 28.99 238.33 34.85 243.66"/><path class="cls-25" d="M37.18,232.74l-8.35,5.33a.3.3,0,0,0-.15.23.31.31,0,0,0,.1.26l5.85,5.33a.35.35,0,0,0,.22.08h.09a.31.31,0,0,0,.21-.23l2.51-10.65a.31.31,0,0,0-.13-.33A.32.32,0,0,0,37.18,232.74Zm-2.52,10.33-5.15-4.7,7.36-4.69Z"/></g></g></svg>