<svg xmlns="http://www.w3.org/2000/svg" viewBox="0 0 73.27 87.47"><defs><style>.cls-1{fill:#2f7437;}.cls-2{fill:#046535;}</style></defs><title>waving</title><g id="圖層_2" data-name="圖層 2"><g id="圖層_1-2" data-name="圖層 1"><path class="cls-1" d="M73.23,82.26c-.93,6-12.68,5.41-16.81,4.93a45.54,45.54,0,0,1-18.81-6.92C18.74,68.39,3.42,47.6,2.12,24.91a8.32,8.32,0,0,1,0-1.51h0S.22,15.94,0,11.9A20.11,20.11,0,0,1,2.54,2.63C4.58-.93,7.08.15,7.08.15S9.55,4.69,9.3,7.54c0,0,1-8,4.91-6.76s1.74,9.65.65,12.14c0,0,9-7,11.56-3.87s-.5,5.71-5,8.18S16.85,19.71,16,22.8c-.51,18.71,21.32,44,38.26,49.24,2.21.68,4.45,1.14,6.69,1.65a36,36,0,0,1,7.63,2.47C71,77.33,73.63,79.72,73.23,82.26Z"/><path class="cls-2" d="M2.51,8.81a28.11,28.11,0,0,0-.16,5.5,23.07,23.07,0,0,0,.46,4.57c-.42.76-.8,1.53-1.19,2.31A63.75,63.75,0,0,1,0,11.9,20.11,20.11,0,0,1,2.54,2.63,6.69,6.69,0,0,1,3.7,1.1C2.64,3.45,2.78,6.25,2.51,8.81Z"/><path class="cls-2" d="M9.33,12.23c-.17.42-.34.87-.51,1.33a23.93,23.93,0,0,1,.16-3c.16-1.3.11-2.83.28-4.29a7,7,0,0,1,0,1.28s1-8,4.91-6.76a3.18,3.18,0,0,1,.67.31C13.07,4.8,10.89,8.43,9.33,12.23Z"/><path class="cls-2" d="M55.62,73.52v0a1.46,1.46,0,0,0-.34,0A6.45,6.45,0,0,1,53.11,73a36.82,36.82,0,0,1-9-3.32c-2.87-1.65-5.36-4-8-6.1a61.26,61.26,0,0,1-7.54-7,74.16,74.16,0,0,1-5.9-7.21c-.26-.65-.53-1.29-.82-1.92-1.27-2.72-2.65-5.36-3.68-8.18a37.85,37.85,0,0,1-1.93-9.55,5.74,5.74,0,0,1,.15-1.87c3,17.93,22.44,39.36,37.87,44.11.38.12.77.22,1.16.33A2.23,2.23,0,0,1,55.62,73.52Z"/><path class="cls-2" d="M20.75,10.6a29.54,29.54,0,0,0-5.15,4.81l-.28.06c.22-.56.45-1.1.68-1.63.39-.87.81-1.73,1.24-2.58,2.31-1.5,5.79-3.4,7.94-2.93A15.91,15.91,0,0,0,20.75,10.6Z"/></g></g></svg>