<?xml version="1.0" encoding="utf-8"?>
<!-- Generator: Adobe Illustrator 21.1.0, SVG Export Plug-In . SVG Version: 6.00 Build 0)  -->
<svg version="1.1" id="圖層_1" xmlns="http://www.w3.org/2000/svg" xmlns:xlink="http://www.w3.org/1999/xlink" x="0px" y="0px"
	 viewBox="0 0 250 250" style="enable-background:new 0 0 250 250;" xml:space="preserve">
<style type="text/css">
	.st0{opacity:0.58;fill:url(#SVGID_1_);enable-background:new    ;}
	.st1{fill:#855E59;}
	.st2{fill:#9A6F6B;}
	.st3{fill:url(#SVGID_2_);}
	.st4{fill:url(#SVGID_3_);}
</style>
<g>
	
		<linearGradient id="SVGID_1_" gradientUnits="userSpaceOnUse" x1="96.6256" y1="-579.3106" x2="147.4384" y2="-697.8759" gradientTransform="matrix(1 0 0 -1 0 -534)">
		<stop  offset="0.108" style="stop-color:#040000"/>
		<stop  offset="0.146" style="stop-color:#211F1E"/>
		<stop  offset="0.3136" style="stop-color:#58504C"/>
		<stop  offset="0.4761" style="stop-color:#695A52"/>
		<stop  offset="0.6298" style="stop-color:#6E584D"/>
		<stop  offset="0.7726" style="stop-color:#6D5447"/>
		<stop  offset="0.9002" style="stop-color:#6C4F43"/>
		<stop  offset="1" style="stop-color:#6B4F42"/>
	</linearGradient>
	<path class="st0" d="M126.3,14.9c0,0-15.2-1-24.6,1.8s-13.2,5-17.3,9.6c-13.6,14.8-17,35.8-17,56c0,12.2,0.6,24.4,0.8,36.6
		c0.2,9,0.2,18.1,0.3,27.1c0.2,6.9,0.2,14,0.3,20.9c0,4.7,0.2,9.3,0.2,14c0,0.2,0,0.3,0,0.5c0,6.4,0,6.4,0,6.4l5.9-9.1l6.7,14.6
		l6.7-14.6l5.9,18.3l6.7-22l7.7,23l7.7-21l8.5,18.3l8.5-17.5l9.3,22l6.7-21l6.7,19.3l6.7-22l8.5,19.3l6.7-20.2l8.5,10.1
		c0,0,1.8-59.7,0.8-67.9c0-8.2,0.8-42.2,0-53.3c-0.8-11.1-0.8-14.6-3.4-21c-2.6-6.4-6.7-11.9-14.4-18.3c-7.7-6.4-17.8-8.2-25.5-9.1
		C136.9,14.4,126.3,14.9,126.3,14.9z"/>
	<path class="st1" d="M79.1,81.2c-2.7-5.1-12.7-0.3-16,1.6c-5.5,3.2-10.1,7.9-13.6,13.2c-12,17.8-18.1,42.5-11.7,63.9
		c0.2,0.5,0.3,1,0.5,1.4l0,0c0,0,0.8,7.5,2.1,11.4c1.1,2.6,2.4,5.1,5.3,7.5c2.9,2.6,4.7,0.6,4.7,0.6s0.6-5.1-0.6-7.5
		c0,0,3.5,7.1,6.4,4.5c2.9-2.6-1.8-9.5-3.5-11.4c0,0,10,3.2,11.1-0.6c1.1-3.9-2.4-5.1-7.1-5.8c-4.7-0.6-4.7-0.6-6.4-3.2
		c-6.7-17,3.4-48.3,16-59.4c1.6-1.4,3.4-2.7,5.1-4c2.1-1.4,4-3,5.6-5C78.9,86.6,80.4,83.4,79.1,81.2z"/>
	<path class="st2" d="M43.5,174.6c-0.8-1.6-1.4-3.2-1.9-5c-0.5-1.4-1-2.9-1.1-4.3c-0.6-0.5-1.1-1.1-1.8-1.8c0.3,2.6,1,6.6,1.8,9.1
		c1.1,2.6,2.4,5.1,5.3,7.5c0.5,0.5,1.1,0.8,1.4,1C45.4,179.6,44.6,177,43.5,174.6z"/>
	<path class="st2" d="M48.1,169c-0.3-0.3-0.6-0.6-0.8-1c0.3,1,0.6,1.8,1.1,2.7c0.6,1.1,1.1,2.6,1.6,3.9c-0.2-0.5-0.2-0.8-0.3-1.1
		c0,0,3.5,7.1,6.4,4.5c0.2-0.2,0.3-0.3,0.5-0.5C53.9,174.6,50.9,172,48.1,169z"/>
	<path class="st2" d="M67.1,95.6L67.1,95.6c0,0-0.2,0-0.3,0.2c-0.6,0.2-1.1,0.8-1.6,1.3c-2.4,1.9-4.7,3.9-6.6,6.4
		c-1.9,2.6-3.2,5.6-4.7,8.5c-1.6,2.9-2.9,5.9-4,9.1c-1,2.9-1.9,5.8-2.6,8.8c0,0.6,0,1.4,0,2.1c-0.2,2.9-0.5,5.9-0.3,8.8
		c0,3.2,0.8,6.4,1.6,9.5c0.2,0.6,0.5,1.1,0.8,1.6c-3.5-17.7,5.9-44.5,17.5-54.4c0.3-0.3,0.6-0.5,0.8-0.8
		C67.2,96.3,67.2,95.9,67.1,95.6z"/>
	<path class="st2" d="M58.4,166.4c-2.1-0.5-4-1.4-5.9-2.6c-0.2,0-0.2,0-0.3,0c0.3,0.5,0.8,0.8,1.1,1.3c0.6,0.6,1.3,1.3,1.9,1.9
		c2.4,0.5,6.1,1,7.7-0.2C61.4,167,59.8,166.7,58.4,166.4z"/>
	<path class="st1" d="M205.9,90.5c-4.2-4.8-9.3-9-15.1-11.4c-3.5-1.4-13.8-5-16,0.5c-1,2.4,0.8,5.3,2.7,7.1c1.9,1.8,4,3,6.3,4.3
		c1.9,1.1,3.7,2.1,5.6,3.2c13,8.7,25.8,35.8,23.3,53.8l0,0c-1.8,2.6-1.8,2.6-6.3,3.2c-4.5,0.6-8,1.9-6.7,5.8
		c1.1,3.9,10.8,0.6,10.8,0.6c-1.8,1.9-6.3,8.8-3.4,11.4c2.9,2.6,6.3-4.5,6.3-4.5c-1.1,2.6-0.6,7.5-0.6,7.5s1.8,1.9,4.5-0.6
		c2.9-2.6,4-5.1,5.1-7.5c0.6-2.4,1.3-6.3,1.6-8.8c0.5-0.8,0.6-1.6,1-2.6C228.7,130.3,219.9,106.5,205.9,90.5z"/>
	<path class="st2" d="M212.5,147.6c0.5-0.6,0.8-1.4,1.1-2.2c0.3-1.3,0.5-2.7,0.8-4.2c-0.2-2.1-0.2-4.2-0.5-6.3
		c-0.6-4.3-1.9-8.7-3.5-12.7c-2.9-7.7-7.2-15.7-12.2-22c-4.3-5.5-10.1-10.3-16.4-12.2c-1.3-0.5-2.6-0.8-4-1.1c1.8,1.6,3.9,2.9,5.9,4
		c1.9,1.1,3.7,2.1,5.6,3.2C202.2,102.8,214.9,129.7,212.5,147.6z"/>
	<path class="st2" d="M210.4,157.6c0-0.3,0.2-0.5,0.3-0.8c0-0.2,0.2-0.3,0.2-0.3c-3.9,0.6-7.4,1-11.2,0.8
		C201.2,160.5,210.2,157.6,210.4,157.6c-0.2,0-0.3,0.2-0.3,0.3C210.1,157.7,210.2,157.6,210.4,157.6z"/>
	<path class="st2" d="M212.6,165.6c0.2-0.3,0.3-0.5,0.3-0.8s0-0.5-0.2-0.8c-0.2,0.2-0.5,0.3-0.8,0.5c-0.5,0.6-1,1.3-1.4,1.4
		c0,0-0.2,0.2-0.3,0.2l0,0c-0.2,0-0.2,0.2-0.3,0.2c-0.3,0.3-0.6,0.5-0.8,0.8c-0.8,0.6-1.6,1.3-2.4,1.6c2.9,2.4,6.3-4.5,6.3-4.5
		C212.8,164.8,212.8,165.1,212.6,165.6z"/>
	<path class="st2" d="M222.6,159c-0.5,2.9-2.1,5.6-3.5,8.2c-0.3,0.6-0.8,1.1-1.4,1.6c0,0,0,0.2-0.2,0.2c-0.3,0.5-0.6,1-1,1.3
		c-0.2,0.2-0.3,0.2-0.3,0.3c0,0,0,0.2-0.2,0.2c-0.3,0.6-1.1,1.4-2.1,1.9c0.8,0,1.8-0.2,3-1.3c2.9-2.6,4-5.1,5.1-7.5
		c0.5-1.4,0.8-3.5,1.1-5.5C223.1,158.7,222.9,158.9,222.6,159z"/>
	<polygon class="st1" points="132.5,167.7 132.5,236.9 175.4,242 153.1,219.7 153.6,167.7 	"/>
	<path class="st2" d="M135.3,195c3,3,5.5,7.4,7.4,11.2c1.1-1.6,2.2-3.2,3.4-4.8c0.2-0.2,1.1-1.9,0.8-1.3c0.3-0.6,0.8-1.3,1.1-1.9
		c1-1.6,1.8-3.4,2.6-5.1c0.8-1.8,1.6-3.5,2.2-5.3c0.2-0.5,0.3-1,0.5-1.3l0.2-18.8h-20.9v22.5C133.3,191.8,134.3,193.4,135.3,195z"/>
	<polygon class="st1" points="122.6,167.7 122.6,236.9 79.7,242 102.1,219.7 101.4,167.7 	"/>
	<path class="st2" d="M107.2,203.6c0.2,0.2,0.3,0.2,0.3,0.3c0.8-1.3,1.8-2.6,2.7-3.9c1.3-3,3.2-5.8,4.8-8.2c1-1.4,1.9-3,3-4.5
		c0.5-0.8,1.1-1.6,1.6-2.4c-0.2,0.2,1.1-2.1,1.3-2.4c0.5-1,1-1.8,1.6-2.6v-12.4h-21.2l0.3,23.1C104.3,194.5,105.7,199.1,107.2,203.6
		z"/>
	
		<linearGradient id="SVGID_2_" gradientUnits="userSpaceOnUse" x1="101.06" y1="-564.2645" x2="143.0265" y2="-703.769" gradientTransform="matrix(1 0 0 -1 0 -534)">
		<stop  offset="0" style="stop-color:#AD827A"/>
		<stop  offset="0.6241" style="stop-color:#B08178"/>
		<stop  offset="0.8706" style="stop-color:#B47D72"/>
		<stop  offset="1" style="stop-color:#B9796C"/>
	</linearGradient>
	<path class="st3" d="M125.3,12.2c0,0-15.2-1-24.6,1.8s-13.2,5-17.3,9.6c-13.6,14.8-17,35.8-17,56c0,12.2,0.6,24.4,0.8,36.6
		c0.2,9,0.2,18.1,0.3,27.1c0.2,6.9,0.2,14,0.3,20.9c0,4.7,0.2,9.3,0.2,14c0,0.2,0,0.3,0,0.5c0,6.4,0,6.4,0,6.4l5.9-9.1l6.7,14.6
		l6.7-14.6l5.9,18.3l6.7-22l7.7,23l7.9-21l8.5,18.3l8.5-17.5l9.3,22l6.7-21l6.7,19.3l6.7-22l8.5,19.3l6.7-20.2l8.5,10.1
		c0,0,1.8-59.7,0.8-67.9c0-8.2,0.8-42.2,0-53.3c-0.8-11.1-0.8-14.6-3.4-21s-6.7-11.9-14.4-18.3s-17.8-8.2-25.5-9.1
		C135.9,11.7,125.3,12.2,125.3,12.2z"/>
	
		<linearGradient id="SVGID_3_" gradientUnits="userSpaceOnUse" x1="112.85" y1="-561.8177" x2="140.0395" y2="-732.814" gradientTransform="matrix(1 0 0 -1 0 -534)">
		<stop  offset="0" style="stop-color:#FFFFFF;stop-opacity:0"/>
		<stop  offset="0.3731" style="stop-color:#FEFEFE;stop-opacity:0.1892"/>
		<stop  offset="0.5076" style="stop-color:#F4F4F3;stop-opacity:0.2574"/>
		<stop  offset="0.6034" style="stop-color:#E4E2E0;stop-opacity:0.306"/>
		<stop  offset="0.6809" style="stop-color:#CCC9C6;stop-opacity:0.3453"/>
		<stop  offset="0.7473" style="stop-color:#B1AAA5;stop-opacity:0.379"/>
		<stop  offset="0.8061" style="stop-color:#908883;stop-opacity:0.4088"/>
		<stop  offset="0.8593" style="stop-color:#6C625E;stop-opacity:0.4358"/>
		<stop  offset="0.9081" style="stop-color:#473F3B;stop-opacity:0.4605"/>
		<stop  offset="0.9516" style="stop-color:#201F1C;stop-opacity:0.4826"/>
		<stop  offset="0.9859" style="stop-color:#070001;stop-opacity:0.5"/>
	</linearGradient>
	<path class="st4" d="M125.3,12.3c0,0-15.2-1-24.6,1.8s-13.2,5-17.3,9.5c-13.6,14.4-17,35-17,54.6c0,11.9,0.6,23.8,0.8,35.8
		c0.2,8.8,0.2,17.7,0.3,26.5c0.2,6.7,0.2,13.5,0.3,20.4c0,4.5,0.2,9.1,0.2,13.6c0,0.2,0,0.3,0,0.5c0,6.3,0,6.3,0,6.3l5.9-9l6.7,14.3
		l6.7-14.3l5.9,17.8l6.7-21.5l7.5,22.3l7.5-20.5l8.5,17.8l8.5-17l9.3,21.5l6.7-20.5l6.7,18.8l6.7-21.5l8.5,18.8l6.7-19.7l8.5,9.8
		c0,0,1.8-58.1,0.8-66.1c0-8,0.8-41.1,0-51.8c-0.8-10.8-0.8-14.3-3.4-20.5c-2.6-6.3-6.7-11.6-14.4-17.8c-7.5-6.3-17.8-8-25.4-9
		C135.9,11.8,125.3,12.3,125.3,12.3z"/>
</g>
</svg>
