<?xml version="1.0" encoding="utf-8"?>
<!-- Generator: Adobe Illustrator 21.1.0, SVG Export Plug-In . SVG Version: 6.00 Build 0)  -->
<svg version="1.1" id="圖層_1" xmlns="http://www.w3.org/2000/svg" xmlns:xlink="http://www.w3.org/1999/xlink" x="0px" y="0px"
	 viewBox="0 0 250 250" style="enable-background:new 0 0 250 250;" xml:space="preserve">
<style type="text/css">
	.st0{fill:#C0C0C0;}
	.st1{opacity:0.59;fill:#9B9B9B;enable-background:new    ;}
	.st2{opacity:0.35;fill:#C0C0C0;enable-background:new    ;}
	.st3{fill:#9D9D9D;}
</style>
<g>
	<g>
		<path class="st0" d="M110.1,16.5c0,0.8-3.7,2-3.4,2.2"/>
		<path class="st0" d="M152.1,9.4c0.2,0,0.5,0,0.6,0c0.5,0.2,0.8,0.5,1.2,0.8c4.1,3.9,7.2,8.7,9.2,14.1c1.4,3.3,4.8,5.2,7.2,7.5
			c11.6,11.1,18,26.6,20.3,42.2c1.9,12.7,1.6,25.1,2,37.8c0.2,3.6,1.7,5.8,3.6,8.7c3.1,4.8,5.9,9.8,8.9,14.8
			c4.1,6.7,7.5,14.1,9.4,21.9c1.1,4.2,1.6,8.7,0.5,13c-0.6,2.5-2.2,5-4.5,5.8c-3.6,1.4-9.1-0.8-10.8-4.4c-1.1-2.3,0.6-3.7,2-5.2
			c1.2-1.2,2.3-2.8,3-4.4c1.2-3.3,1.2-6.9,0.3-10.2c-0.9-3.1-2.8-5.9-4.8-8.4c-1.6-1.9-4.4-5.5-7.2-5.8c-2.3-0.3,0.3,2.8-3.1,18.6
			c-1.1,5.3-2.5,10.5-4.1,15.6c-5,15.8-12.5,31.1-24.4,42.8c-11.6,11.4-26.1,19.7-41.9,23.6c-16.1,3.9-33.7,3.9-48.7-3.7
			c-13.3-6.9-24.1-21.2-22.2-36.7c0.2-0.9,0.2-1.9,0.5-2.8c2.2,2.3,3.9,5.3,5.9,7.8c3.4,4.1,7.7,8,13.1,9.1
			c3.9,0.8,9.5-0.3,11.7-4.1c2.5-4.1,0.9-9.7,0.6-14.1c-0.3-6.2-1.1-12.5-1.9-18.7c-1.7-13.1-2.5-26.6-6.6-39.2
			c-4.2,1.7-8.1,4.1-11.7,6.7c-2.5,1.9-5.2,4.1-6.9,6.7c-2.5,3.9-1.1,6.4,0.3,10.3c1.1,3,1.4,7.5-0.9,10c-3.7,4.1-10,0.5-11.1-4.1
			c-1.1-4.2,0.5-8.9,1.7-13c1.6-5.3,4.2-10.2,7.3-14.7c2.5-3.6,5-7,7.8-10.3c2.5-3,5.5-5.3,7.8-8.3c2.2-2.8,0.8-6.7,0.5-10
			c-0.3-3.4-0.8-6.9-0.9-10.3c-0.3-6.1-0.6-12.3-0.8-18.4c-0.2-8.3,0-16.7,1.4-24.8c0.9-5.8,3-11.4,6.2-16.2
			c2.5-3.7,5.3-7.7,8.7-10.2c4.4-3.1,9.5-5.2,13.6-8.7c0,0,2.7-10.2,5.2-11.1c2.7-0.9,6.4-0.5,8.7,5.9c9.5-0.2,19.1-0.2,28.6,0.5
			c2.7,0.2,5.5,0.3,8.1,1.2c2.3,0.8,2.3-2.7,3-4.1C149.1,11,150.4,9.4,152.1,9.4z"/>
		<path class="st1" d="M50.6,137.7c2.5-3.6,5-7,7.8-10.3c2.5-3,5.5-5.3,7.8-8.3c2.2-2.8,0.8-6.7,0.5-10c-0.3-3.4-0.8-6.9-0.9-10.3
			c-0.3-6.1-0.6-12.3-0.8-18.4c-0.2-8.3,0-16.7,1.4-24.8c0.9-5.8,3-11.4,6.2-16.2c2.5-3.7,5.3-7.7,8.7-10.2c0.2-0.2,0.3-0.3,0.5-0.3
			c3.1,34.8,10.6,79.2,29.1,127.9c12.2,32.5,24.8,55.3,32.2,72.3c-7.3,4.2-15.2,7.3-23.3,9.4c-16.1,3.9-33.7,3.9-48.7-3.7
			C57.8,227.8,47,213.4,48.9,198c0.2-0.9,0.2-1.9,0.5-2.8c2.2,2.3,3.9,5.3,5.9,7.8c3.4,4.1,7.7,8,13.1,9.1c3.9,0.8,9.5-0.3,11.7-4.1
			c2.5-4.1,0.9-9.7,0.6-14.1c-0.3-6.2-1.1-12.5-1.9-18.7c-1.7-13.1-2.5-26.6-6.6-39.2c-4.2,1.7-8.1,4.1-11.7,6.7
			c-2.5,1.9-5.2,4.1-6.9,6.7c-2.5,3.9-1.1,6.4,0.3,10.3c1.1,3,1.4,7.5-0.9,10c-3.7,4.1-10,0.5-11.1-4.1c-1.1-4.2,0.5-8.9,1.7-13
			C44.8,147,47.5,142,50.6,137.7z"/>
		<path class="st2" d="M100.7,8.8v9.8l-5.9,1.4C94.8,20.1,98.5,8,100.7,8.8z"/>
		<path class="st0" d="M150.9,10.1c0,0,0.9,7.8,0,7.8c-0.9,0.2-5.2-1.1-5.2-1.1S150.1,9.1,150.9,10.1z"/>
	</g>
	<path class="st3" d="M50.6,137.5c2.5-3.6,5-7,7.8-10.3c2.5-3,5.5-5.3,7.8-8.3c2.2-2.8,0.8-6.7,0.5-10c-0.3-3.4-0.8-6.9-0.9-10.3
		c0-1.6-0.2-3.1-0.3-4.5c4.7,10.3,10.9,21.9,19.4,33.7c3.3,4.7,15.5,21.2,35.9,38.1c13.4,11.1,20.3,16.7,31.7,21.1
		c10,3.9,18.4,4.8,25,5.6c-4.2,8.1-9.4,15.6-15.8,22c-11.6,11.4-26.1,19.7-41.9,23.6c-16.1,3.9-33.7,3.9-48.7-3.7
		c-13.3-6.9-24.1-21.2-22.2-36.7c0.2-0.9,0.2-1.9,0.5-2.8c2.2,2.3,3.9,5.3,5.9,7.8c3.4,4.1,7.7,8,13.1,9.1c3.9,0.8,9.5-0.3,11.7-4.1
		c2.5-4.1,0.9-9.7,0.6-14.1c-0.3-6.2-1.1-12.5-1.9-18.7c-1.7-13.1-2.5-26.6-6.6-39.2c-4.2,1.7-8.1,4.1-11.7,6.7
		c-2.5,1.9-5.2,4.1-6.9,6.7c-2.5,3.9-1.1,6.4,0.3,10.3c1.1,3,1.4,7.5-0.9,10c-3.7,4.1-10,0.5-11.1-4.1c-1.1-4.2,0.5-8.9,1.7-13
		C44.8,146.9,47.5,142,50.6,137.5z"/>
</g>
</svg>
