<?xml version="1.0" encoding="utf-8"?>
<!-- Generator: Adobe Illustrator 21.1.0, SVG Export Plug-In . SVG Version: 6.00 Build 0)  -->
<svg version="1.1" id="圖層_1" xmlns="http://www.w3.org/2000/svg" xmlns:xlink="http://www.w3.org/1999/xlink" x="0px" y="0px"
	 viewBox="0 0 250 250" style="enable-background:new 0 0 250 250;" xml:space="preserve">
<style type="text/css">
	.st0{opacity:0.55;}
	.st1{fill:#868686;}
	.st2{fill:#B5B5B5;}
</style>
<g class="st0">
	<path class="st1" d="M98.6,22.9C97.4,12.8,87.9,5.8,77.8,7.1S60.6,17.8,62.1,27.9c0,0,1,44.5,29.8,63.7l5.6-9.6
		c0,0-13.6-18.8-2.4-45.4C98,32.9,99.4,28.1,98.6,22.9z"/>
	<path class="st2" d="M90.1,28.2c0-6.6-4.2-11.9-9.3-11.9c-5.1,0-9.3,5.3-9.3,11.9c0,0-2.4,28.4,10.6,43l3.4-5.6c0,0-5.6-13,1.9-29
		C89,34.5,90.1,31.6,90.1,28.2z"/>
	<path class="st1" d="M150.5,22.9c1.3-10.1,10.8-17.2,20.9-15.9c10.1,1.3,17.2,10.8,15.9,20.9c0,0-1,44.5-29.8,63.7l-5.6-9.6
		c0,0,13.6-18.8,2.4-45.4C151.1,32.9,149.7,28.1,150.5,22.9z"/>
	<path class="st2" d="M159,28.2c0-6.6,4.2-11.9,9.3-11.9s9.3,5.3,9.3,11.9c0,0,2.4,28.4-10.6,43l-3.4-5.6c0,0,5.6-13-1.9-29
		C160.1,34.5,159,31.6,159,28.2z"/>
	<path class="st1" d="M98.5,224.3l-4.5,12c-1,2.7,1,5.6,3.9,5.6h16c3,0,5-3,3.9-5.8l-5.1-12c-0.6-1.4-2.1-2.6-3.9-2.6h-6.3
		C100.7,221.6,99.1,222.6,98.5,224.3z"/>
	<path class="st1" d="M140.5,224.2l-4.5,12.4c-1,2.6,1,5.5,3.7,5.5h16.4c2.9,0,4.8-2.9,3.7-5.6l-5.3-12.4c-0.6-1.4-2.1-2.4-3.7-2.4
		h-6.6C142.6,221.6,141.2,222.6,140.5,224.2z"/>
	<path class="st1" d="M203,154.7c4.8-2.7,7.4-8,6.4-13.3c-1.1-5.6-5.9-9.8-11.7-10.8c3.4-4.2,4-9.8,1-14.4c-3.2-5-9.3-7.2-15.1-6.4
		c1.6-5,0-10.4-4.7-14c-4.8-3.7-11.4-4-16.7-1.3c-0.3-5.1-4-9.8-9.6-11.7c-5.9-1.9-12.4-0.2-16.2,3.9c-2.2-4.7-7.4-8-13.5-8
		c-6.3,0-11.7,3.5-13.6,8.7c-3.9-3.7-9.9-5.3-15.7-3.4c-5.9,1.9-9.6,6.9-9.6,12.4c-5.1-2.2-11.4-1.8-16,1.6
		c-4.8,3.7-6.4,9.5-4.3,14.6c-5.6-0.6-11.4,1.8-14.4,6.6c-3.2,5-2.4,10.9,1.4,15.1c-5.5,1.1-9.9,5.1-11.1,10.6
		c-1.1,5.6,1.9,10.9,7.1,13.6c-4.8,2.7-7.4,8-6.4,13.3c1.1,5.6,5.9,9.8,11.7,10.8c-3.4,4.2-4,9.8-1,14.4c3.2,5,9.3,7.2,15.1,6.4
		c-1.6,5,0,10.4,4.7,14c4.8,3.7,11.4,4,16.7,1.3c0.3,5.1,4,9.8,9.6,11.7c5.9,1.9,12.4,0.2,16.2-3.9c2.2,4.7,7.4,8,13.5,8
		c6.3,0,11.7-3.5,13.6-8.7c3.9,3.7,9.9,5.3,15.7,3.4c5.9-1.9,9.6-6.9,9.6-12.4c5.1,2.2,11.4,1.8,16-1.6c4.8-3.7,6.4-9.5,4.3-14.6
		c5.6,0.6,11.4-1.8,14.4-6.6c3.2-5,2.4-10.9-1.4-15.1c5.5-1.1,9.9-5.1,11.1-10.6C211.1,162.9,208.1,157.4,203,154.7z"/>
	<path class="st2" d="M200.2,128.2c4.7-3,7.2-8.7,6.3-14.4c-1.1-6.1-5.8-10.6-11.6-11.6c3.4-4.5,3.9-10.6,1-15.7
		c-3-5.3-9.1-7.9-14.8-6.9c1.6-5.3,0-11.2-4.5-15.1c-4.7-4-11.2-4.3-16.4-1.4c-0.3-5.6-3.9-10.6-9.5-12.7c-5.8-2.1-12-0.2-15.9,4.2
		c-2.2-5.1-7.2-8.7-13.2-8.7c-6.1,0-11.4,3.9-13.5,9.3c-3.9-4-9.8-5.6-15.4-3.7c-5.8,2.1-9.3,7.5-9.5,13.3c-5-2.6-11.1-1.9-15.7,1.8
		c-4.7,4-6.3,10.3-4.3,15.7c-5.5-0.6-11.1,1.9-14.1,7.1c-3,5.3-2.4,11.9,1.4,16.4c-5.5,1.3-9.8,5.6-10.8,11.4
		c-1.1,6.1,1.9,11.9,6.9,14.9c-4.7,3-7.2,8.7-6.3,14.4c1.1,6.1,5.8,10.6,11.6,11.6c-3.4,4.5-3.9,10.6-1,15.7c3,5.3,9.1,7.9,14.8,6.9
		c-1.6,5.3,0,11.2,4.5,15.1c4.7,4,11.2,4.3,16.4,1.4c0.3,5.6,3.9,10.6,9.5,12.7c5.8,2.1,12,0.2,15.9-4.2c2.2,5.1,7.2,8.7,13.2,8.7
		c6.1,0,11.4-3.9,13.5-9.3c3.9,4,9.8,5.6,15.4,3.7c5.8-2.1,9.3-7.5,9.5-13.3c5,2.6,11.1,1.9,15.7-1.8c4.7-4,6.3-10.3,4.3-15.7
		c5.5,0.6,11.1-1.9,14.1-7.1c3-5.3,2.4-11.9-1.4-16.4c5.5-1.3,9.8-5.6,10.8-11.4C208.1,137,205.2,131.1,200.2,128.2z"/>
</g>
</svg>
