<?xml version="1.0" encoding="utf-8"?>
<!-- Generator: Adobe Illustrator 21.1.0, SVG Export Plug-In . SVG Version: 6.00 Build 0)  -->
<svg version="1.1" id="圖層_1" xmlns="http://www.w3.org/2000/svg" xmlns:xlink="http://www.w3.org/1999/xlink" x="0px" y="0px"
	 viewBox="0 0 250 250" style="enable-background:new 0 0 250 250;" xml:space="preserve">
<style type="text/css">
	.st0{fill:#868686;}
	.st1{fill:#B1B1B1;}
	.st2{opacity:0.5;fill:#B1B1B1;enable-background:new    ;}
</style>
<g>
	<path class="st0" d="M29.9,194.4L29.9,194.4c0.2,0,0.5,0,0.6,0.3c1.3,1.4,2.7,2.9,4,4.3c1,1,1.6,0.8,1.9-0.5
		c0.6-2.9,0.2-5.4-1.4-7.8c-0.2-0.2-0.3-0.5-0.2-0.6l0,0C34.6,190.1,32.9,193.4,29.9,194.4z"/>
	<path class="st0" d="M22.4,199.1c0.6,1.3,1.4,2.5,2.2,3.6c0.3,0.3,1.1,0.8,1.4,0.6s0.6-1,0.8-1.4c0.3-1.6,0.2-3.3-0.3-4.8
		c-0.2-0.3-0.2-0.6,0.2-0.8c-0.5,0.3-2.5,1.7-5.1,2.1l0,0C21.9,198.5,22.1,198.7,22.4,199.1z"/>
	<path class="st0" d="M13.3,198.4L13.3,198.4c0.3,0.2,0.5,0.5,0.5,1c0.2,1.1,0.6,2.5,1,3.6c0.3,1,1.1,1,1.7,0.2
		c0.3-0.5,0.6-1.1,1-1.7c0.3-1,0.3-2.1,1-2.9c0.2-0.2,0.3-0.2,0.3-0.3l0,0C18.9,198.2,16.5,199.7,13.3,198.4z"/>
	<path class="st0" d="M216.4,189.1c-0.2,0.2-0.2,0.3-0.3,0.3c-1.7,2.1-2.1,4.8-1.7,7.6c0,0.5,0.5,1.1,0.8,1.4c0.3,0.2,1-0.3,1.3-0.6
		c1.3-1.3,2.7-2.9,4-4.1c0.2-0.2,0.6-0.3,0.8-0.2C219.1,193.1,216.4,189.1,216.4,189.1z"/>
	<path class="st0" d="M224.5,196.2c-0.5,1.4-0.6,3.2-0.3,4.8c0.2,0.5,0.5,1.3,1,1.4c0.3,0.2,1.1-0.3,1.4-0.8
		c0.8-1.1,1.4-2.2,2.2-3.6c0.2-0.3,0.5-0.5,0.8-0.5c-0.8-0.2-3.3-0.8-5.4-2.5C224.5,195.3,224.7,195.6,224.5,196.2z"/>
	<path class="st0" d="M232.6,198.5L232.6,198.5c0.2,0.2,0.3,0.5,0.5,0.8c0.3,1.3,0.8,2.7,1.3,3.8c0.5,1,1.3,0.8,1.7-0.2
		c0.5-1.1,0.8-2.5,1.1-3.8c0.2-0.5,0.3-0.6,0.5-0.8l0,0C237.8,198.3,235.3,199.1,232.6,198.5z"/>
	<path class="st1" d="M244.9,194.1c0.3-1,0.6-1.9,1-3c1.1-4.8,1.1-9.7,0.8-14.6c-0.5-6.3-1.6-12.7-3.3-18.8
		c-2.5-8.9-5.9-17.1-10.3-24.9c-3.6-6.2-7.8-12-12.5-17.3c-1-1-1.9-1.9-2.9-3c1-0.2,1.7-0.3,2.9-0.2c1.6,0.2,3.2,0.6,4.8,0.8
		c0.3,0,1,0,1.1-0.3c0.2-0.3,0.2-1,0-1.3c-0.3-0.6-0.8-1.1-1.4-1.6c-0.6-0.5-1.3-0.6-2.2-1.1c1,0,1.6,0,2.2-0.2
		c1.6-0.2,3.3-0.5,4.9-0.8c0.3,0,0.6-0.5,0.6-0.6c0-0.3-0.3-0.8-0.5-1c-0.6-0.3-1.3-0.6-1.9-0.6c-1.4-0.2-3-0.2-4.3-0.3
		c-1.4-0.2-3-0.2-4.8-0.3c0.5-0.5,0.6-0.6,0.8-0.8c1.6-1.3,3-2.9,3.6-4.8c0.2-0.6,0.5-1.4-0.2-1.7c-0.5-0.3-1.1-0.3-1.6,0
		c-1,0.5-1.9,1.1-2.9,1.9c-1.1,1-2.1,1.9-3.2,3c0,0.2,0,0,0-0.2c0.3-2.7,0-5.2-1-7.9c-0.2-0.5-0.6-1-1-1c-0.3,0-1,0.3-1.3,0.8
		c-1.1,1.6-1.4,3.6-1.4,5.5c0,0.3,0,0.6-0.2,1.3c-0.5-1-0.8-1.6-1.1-2.1c-0.3-0.6-0.8-1.3-1.3-1.9c-1-1.1-1.9-2.2-3.6-2.7
		c-1-0.3-1.6,0.2-1.4,1.3c0.2,0.8,0.5,1.4,0.8,2.1c0.3,0.8,1,1.4,1.3,2.2c0.3,1,0.6,1.9,1,3.2c-0.3-0.2-0.5-0.2-0.5-0.2
		c-1.7-1.1-3.5-2.2-5.2-3.6c-0.3-0.2-0.5-0.6-0.5-1c-0.3-1.9-0.5-4-1-5.7c0-0.3,0-0.5,0-0.6l0,0l0,0v-0.2c0-0.3,0-0.8,0-1.1
		c0-0.3,0-0.8,0-1.1c0-0.3,0-0.8-0.2-1.1c0-0.3-0.2-0.8-0.2-1.1c0-0.3-0.2-0.8-0.2-1.1c0-0.3-0.2-0.8-0.2-1.1c0-0.3-0.2-0.8-0.2-1.1
		c0-0.3-0.2-0.6-0.3-1.1c-0.2-0.3-0.2-0.6-0.3-1.1c-0.2-0.3-0.2-0.6-0.3-1.1c-0.2-0.3-0.2-0.6-0.3-1.1c-0.2-0.3-0.2-0.6-0.3-1.1
		c-0.2-0.3-0.3-0.6-0.3-1.1c-0.2-0.3-0.3-0.6-0.3-1c-0.2-0.3-0.3-0.6-0.5-1c-0.2-0.3-0.3-0.6-0.5-1c-0.2-0.3-0.3-0.6-0.5-1
		c-0.2-0.3-0.3-0.6-0.5-1c-0.2-0.3-0.3-0.6-0.5-1c-0.2-0.3-0.3-0.6-0.5-1c-0.2-0.3-0.3-0.6-0.5-1c-0.2-0.3-0.3-0.6-0.5-1
		c-0.2-0.3-0.3-0.6-0.5-1c-0.2-0.3-0.3-0.6-0.5-1s-0.3-0.6-0.5-1c-0.2-0.3-0.3-0.6-0.5-0.8c-0.2-0.3-0.3-0.6-0.5-0.8
		c-0.2-0.3-0.3-0.6-0.5-0.8c-0.2-0.3-0.3-0.5-0.5-0.8s-0.3-0.5-0.5-0.8s-0.3-0.5-0.5-0.8s-0.3-0.5-0.5-0.8s-0.3-0.5-0.5-0.8
		s-0.3-0.5-0.5-0.8c-0.2-0.2-0.3-0.5-0.5-0.6c-0.2-0.2-0.3-0.5-0.5-0.6c-0.2-0.2-0.3-0.5-0.5-0.6c-0.2-0.2-0.3-0.5-0.5-0.6
		c-0.2-0.2-0.3-0.5-0.5-0.6c-0.2-0.2-0.3-0.3-0.5-0.6c-0.2-0.2-0.3-0.3-0.5-0.5s-0.3-0.3-0.5-0.5s-0.3-0.3-0.5-0.5s-0.3-0.3-0.3-0.5
		c-0.2-0.2-0.3-0.3-0.3-0.5c-0.2-0.2-0.2-0.3-0.3-0.5c-0.2-0.2-0.2-0.3-0.3-0.3c-0.2-0.2-0.2-0.2-0.3-0.3c-0.2-0.2-0.2-0.2-0.3-0.3
		c-0.2-0.2-0.2-0.2-0.3-0.3c-0.3-0.3-0.6-0.6-1-1c-0.2-0.2-0.5-0.3-0.6-0.5s-0.3-0.2-0.5-0.3c-0.3-0.2-0.8-0.5-1.1-0.6
		c-0.3-0.2-0.8-0.5-1.1-0.6c-0.3-0.2-0.8-0.5-1.1-0.6c-0.3-0.2-0.8-0.5-1.1-0.6c-0.5-0.2-0.8-0.3-1.3-0.6c-0.5-0.2-0.8-0.3-1.3-0.5
		s-0.8-0.3-1.3-0.5s-0.8-0.3-1.3-0.5c-0.3-0.2-0.6-0.3-1-0.3c-1.3-0.5-2.5-0.8-4-1.4c0.3-0.2,0.5-0.2,0.6-0.2
		c5.4,0.5,10.5,1.7,15.4,4.1c-3-5.2-7.4-8.9-12.7-11.2c0-0.2,0-0.2,0.2-0.3c2.7-0.3,5.2-0.6,7.9-1.1c0-0.2,0-0.2,0-0.3
		c-4.6-3.8-9.8-5.2-15.7-4.9c0-0.2,0-0.2,0-0.3c2.2-1.3,4.6-2.7,6.8-4.1c-5.2-1.9-10.5-1.7-15.8-0.5c1.1-2.5,3.2-4.3,5.1-5.9
		c-5.2-1-10.1-0.2-15,1.7c1-4,3.3-6.8,6.2-9c-9.5,2.9-16.9,8.4-22.5,17.1c-0.8-3.8,0-7.6,1-11.1c-3.2,3.6-4.9,7.9-6,12.8
		c-2.5-2.7-5.1-4.8-8.1-6.2c-3.5-1.7-8.2-3.2-9.3-2.9c3.2,2.5,5.7,5.5,7.3,9.7c-4-0.8-7.9-1.3-11.6-0.8c-4,0.5-7.6,1.4-10.9,3.5
		c3,0.5,5.5,1.4,7.8,3.8c-3.8,0.5-7.4,1.1-10.9,2.7c-3.5,1.4-6.7,3.5-9.5,6c2.1,0.3,4.3,0.6,6.5,0.8c-0.2,0.2-0.3,0.3-0.3,0.3
		C77.7,47.1,76,48,74.5,49c-0.5,0.3-0.8,0.6-1.3,0.8c0.5,1.2-20.1,22.5-20.1,43.6c0,0.2,0,0.3,0,0.5c-0.3,2.1-0.6,4.1-1,6.2
		c0,0.2-0.2,0.5-0.3,0.6c-1.7,1.3-3.8,2.5-5.7,3.8c0-0.3,0-0.6,0.2-0.8c0.3-1.6,1-3,1.9-4.3c0.5-0.6,0.8-1.4,1-2.2
		c0.2-1-0.3-1.4-1.3-1.3c-0.6,0.2-1.3,0.5-1.7,0.8c-1.7,1.3-3,3.3-4,5.2c-0.2,0.2-0.2,0.3-0.5,0.6c0-1,0-1.7-0.2-2.7
		c-0.2-1.6-0.5-3.3-1.6-4.6c-0.6-0.6-1.3-0.6-1.6,0.3c-0.3,0.6-0.5,1.4-0.8,2.1c-0.5,2.1-0.6,4.3-0.5,6.5c-0.3-0.2-0.5-0.5-0.6-0.6
		c-1.3-1.6-2.7-3.2-4.4-4.3c-0.6-0.5-1.4-1-2.2-0.3c-0.6,0.6-0.3,1.6,0,2.5c0.8,1.7,2.1,3.2,3.5,4.3c0.2,0.2,0.5,0.3,1,0.5
		c-2.1-1.7-2.1-1.7-2.1-1.7c-2.9,0.2-5.5,0.3-8.4,0.6c-0.8,0-1.6,0.3-2.5,0.6c-0.3,0.2-0.5,0.5-0.5,0.8s0.3,0.6,0.6,0.6
		c1.3,0.3,2.5,0.6,3.8,0.8c1,0.2,2.1,0.2,3.2,0.2c-0.5,0.3-1,0.5-1.4,0.6c-0.8,0.3-1.7,0.8-2.1,1.9c-0.2,0.5-0.2,1.1,0,1.4
		s0.8,0.3,1.1,0.3c1.6-0.2,3.2-0.6,4.8-0.8c0.8-0.2,1.7,0,2.7,0c0,0.2,0.2,0.2,0.2,0.3c-0.2,0.2-0.3,0.2-0.5,0.3
		c-3.3,3.3-6.2,6.8-9,10.6c-4.1,5.7-7.6,11.7-10.5,18.2c-3.3,7.3-5.7,14.7-7.4,22.6C5,170,4.2,176.6,4.6,183.3
		c0.2,3.5,0.5,6.7,1.9,9.8c0,0,0,0.2,0,0.3l0,0c0,0,1.9,3.5,3.3,4.3c1.1,0.5,2.2,1,3.3,1.3c0.2,0,0.3,0.2,0.5,0.3l0,0
		c3.2,1.3,5.5-0.2,5.5-0.2l0,0c0.6-0.3,1.6-0.3,2.5-0.5c0,0,0,0,0.2,0H22l0,0c2.7-0.3,4.6-1.7,5.1-2.1l0,0l0,0l0,0c0,0,0,0,0.2-0.2
		c0.8-0.5,1.7-1,2.5-1.6c0.2-0.2,0.3-0.2,0.5-0.3l0,0c3.2-0.8,4.8-4.3,4.8-4.3l0,0c0-0.2,0-0.3,0.2-0.5c0.8-1.3,1.6-2.9,2.1-4.3
		c1.4-4.1,1.7-8.6,2.2-13c0.6-6.3,1.3-13,2.1-19.3c1-7.3,3.3-14.1,6.2-20.6c0-0.2,0.2-0.2,0.5-0.5c0,0.5,0.2,0.8,0.2,1
		c0,2.1,0.2,4.1,0.2,6.2c0.2,6.5,0.8,13,1.7,19.3c1.1,8.2,2.9,16.3,5.9,24.1c0.8,1.9,1.6,4.1,2.5,5.9c1.7,3.8,4.1,7,7.3,9.8
		c4.1,3.6,8.7,6,13.6,8.2c0.8,0.3,1.1,0.8,1.4,1.7c1.3,5.4,2.7,10.6,3.8,16c0.2,0.5,0.2,1.1,0.3,1.7c-0.2,0-0.3,0-0.3-0.2
		c-1.6-3.3-4-6-6.8-8.2c-2.5-1.7-5.1-3.2-8.2-3.2c-2.7,0.2-4.6,2.2-4.4,4.9c0,0.6,0.3,1.3,0.6,2.1c-0.3-0.2-0.6-0.2-1.1-0.2
		c-2.5-0.5-4.6-0.2-6.2,1.9s-1.3,4.6,0.6,6.2c0,0,0.2,0.2,0.2,0.3c-0.3,0.2-0.5,0.2-0.8,0.3c-0.8,0.3-1.7,0.6-2.5,1.3
		c-3,2.1-3,6,0,8.2c1.4,1,3,1.6,4.6,1.7c6.2,1,12.7,1.3,18.8,1.3c5.2-0.2,10.5-0.5,15.7-1.3c1.7-0.3,2.9-1.1,3.3-3.2
		c0.2-0.6,0.2-1.3,0.3-1.9c0.2-2.5,0.2-5.1,0.3-7.6c0.2-5.2,1.1-10.5,2.2-15.5c0.2-0.8,0.5-1,1.1-0.8c7.3,1.1,14.4,1.4,21.7,1.6
		c2.5,0,4.8,0,7.3-0.2c4.9-0.3,9.7-0.8,14.6-1.1c2.2-0.2,2.2-0.3,3,1.9c1,4.4,1.7,8.9,1.9,13.5c0,3,0.2,5.9,0.3,8.9
		c0.2,2.5,1.1,4,3.2,4.3c0.6,0.2,1.3,0.2,2.1,0.3c5.9,0.6,11.6,1.3,17.6,1c4.8-0.2,9.3-0.5,13.9-1c1.7-0.2,3.6-0.8,5.2-1.6
		c3.2-1.4,4-4.6,2.1-7.3c-0.8-1.3-2.2-2.1-3.6-2.7c-0.3-0.2-0.6-0.3-1-0.5c2.7-2.2,2.7-5.4,0-7.6c-1-0.8-2.1-1.1-3.5-1.1
		c-1,0-1.9,0.2-3.2,0.3c0-0.2,0-0.2,0-0.3c1.6-2.5,0-5.9-2.9-6.5c-1.7-0.3-3.6,0-5.4,0.6c-3.6,1.6-6.7,4.3-9,7.8
		c-0.6,0.8-1.1,1.7-1.7,3c0-0.5,0-0.6,0-0.8c1.3-5.9,2.9-11.7,4.3-17.6c0-0.3,0.5-0.6,0.8-0.8c3.6-1.4,7.3-3.3,10.5-5.5
		c3.3-2.2,6.2-4.8,8.4-8.4c1.1-1.9,2.2-4,3.3-6c1-2.2,2.1-4.4,3-6.7c2.1-6,3.5-12.5,4.6-18.8c1.3-8.7,2.1-17.4,2.2-26.1
		c0-1,0.2-2.1,0.2-3.2h0.2c0.2,0.3,0.3,0.5,0.3,0.8c1.1,3,2.2,5.7,3.3,8.7c1.9,5.5,3,11.2,3.8,17.3c0.5,4,0.8,8.1,1.3,12
		c0.2,2.1,0.2,4.3,0.5,6.3c0.5,4.6,1.3,9,4.3,12.8c0,0,2.7,4,4.9,4.4c1,0.5,1.7,1.1,2.9,1.7c2.1,1.6,4.6,2.2,5.4,2.5
		c0,0,0.2,0,0.3,0c0.8,0.2,1.4,0.5,2.2,0.5c0.3,0,0.5,0.2,0.5,0.2l0,0c2.9,0.8,5.2-0.2,5.2-0.2l0,0c0.2,0,0.2-0.2,0.3-0.2
		c1-0.3,1.9-0.6,2.9-1.1c0.2-0.2,0.3-0.2,0.5-0.2l0,0C243.4,197.8,244.9,194.1,244.9,194.1z"/>
	<path class="st0" d="M241.9,197.4c0.5,0.8,0.8,1.7,1.4,2.7c0.5,0.8,1.1,0.8,1.4,0c1-2.1,1.3-4.3,0.3-6.5c-0.2-0.3-0.2-0.8-0.2-1.1
		c0,0-1.6,3.8-3.6,4.6l0,0C241.6,196.9,241.8,197,241.9,197.4z"/>
	<path class="st2" d="M38.4,181.1c0.5-2.7,0.6-5.1,1-7.8c0.6-6.3,1.3-13,2.1-19.3c1-7.3,3.3-14.1,6.2-20.6c0-0.2,0.2-0.2,0.5-0.5
		C48.2,133.1,34.8,145.7,38.4,181.1z"/>
	<path class="st0" d="M246.8,176.5c-0.5-6.3-1.6-12.7-3.3-18.8c-2.5-8.9-5.9-17.1-10.3-24.9c-3.6-6.2-7.8-12-12.5-17.3
		c-1-1-1.9-1.9-2.9-3c1-0.2,1.7-0.3,2.9-0.2c1.6,0.2,3.2,0.6,4.8,0.8c0.3,0,1,0,1.1-0.3c0.2-0.3,0.2-1,0-1.3
		c-0.3-0.6-0.8-1.1-1.4-1.6c-0.6-0.5-1.3-0.6-2.2-1.1c1,0,1.6,0,2.2-0.2c1.6-0.2,3.3-0.5,4.9-0.8c0.3,0,0.6-0.5,0.6-0.6
		c0-0.3-0.3-0.8-0.5-1c-0.6-0.3-1.3-0.6-1.9-0.6c-1.4-0.2-3-0.2-4.3-0.3c-1.4-0.2-3-0.2-4.8-0.3c0.5-0.5,0.6-0.6,0.8-0.8
		c1.6-1.3,3-2.9,3.6-4.8c0.2-0.6,0.5-1.4-0.2-1.7c-0.5-0.3-1.1-0.3-1.6,0c-1,0.5-1.9,1.1-2.9,1.9c-1.1,1-2.1,1.9-3.2,3
		c0,0.2,0,0,0-0.2c0.3-2.7,0-5.2-1-7.9c-0.2-0.5-0.6-1-1-1c-0.3,0-1,0.3-1.3,0.8c-1.1,1.6-1.4,3.6-1.4,5.5c0,0.3,0,0.6-0.2,1.3
		c-0.5-1-0.8-1.6-1.1-2.1c-0.3-0.6-0.8-1.3-1.3-1.9c-1-1.1-1.9-2.2-3.6-2.7c-1-0.3-1.6,0.2-1.4,1.3c0.2,0.8,0.5,1.4,0.8,2.1
		c0.3,0.8,1,1.4,1.3,2.2c0.3,1,0.6,1.9,1,3.2c-0.3-0.2-0.5-0.2-0.5-0.2c-1.7-1.1-3.5-2.2-5.2-3.6c0,0,45,60,45.9,82.5
		C247,180,247,178.3,246.8,176.5z"/>
</g>
</svg>
