<?xml version="1.0" encoding="utf-8"?>
<!-- Generator: Adobe Illustrator 21.1.0, SVG Export Plug-In . SVG Version: 6.00 Build 0)  -->
<svg version="1.1" id="圖層_1" xmlns="http://www.w3.org/2000/svg" xmlns:xlink="http://www.w3.org/1999/xlink" x="0px" y="0px"
	 viewBox="0 0 250 250" style="enable-background:new 0 0 250 250;" xml:space="preserve">
<style type="text/css">
	.st0{fill:#959595;}
	.st1{fill:#7F7F7F;}
	.st2{fill:#ADADAD;}
	.st3{fill:#A4A4A4;}
</style>
<g>
	<path class="st0" d="M146.6,29.5c5.9-13.8-33-35-32.7-2c12-5.8-34.7-35.6-24.3,9.7c21-9.1-61-21.4-21.3,20.8
		C85.8,48.6,10,39.7,53.5,82.2c9.7-16.7-54.9-4.4-9.7,28.3C43.7,110.7,61.2,20.2,146.6,29.5z"/>
	<path class="st1" d="M210.3,115.5c-0.5-42.1-27.5-85-82.7-90.9c-40.3-7.6-86,52.1-86.2,104.3c-13.2,20.2-28.6,47.7-28.6,47.7
		l10-3.2l4.1,9.3c-1.8-7.3,7-23,16.1-35.9c4.6,20.2,17.6,37.7,42.7,47.4l2.7,26.8c-42.7,5.3-15.2,39.4,12.5,12.8v-35.1
		c7.1,1.7,15.1,2.7,23.6,3.3c7.4,0.2,14.4-0.5,20.8-1.8l2.1,31.9c64.3,33.3,40-28,15.7-10.9l-6.1-24.3
		c29.2-10.5,46.5-35.9,51.4-64.2C216.3,150.5,226,178,226,178l3.3-10.5l6.7,4C239.8,159.8,217.8,126.2,210.3,115.5z"/>
	<path class="st2" d="M213.1,116.9c0.8-42.4-25.8-86.4-81.5-92.4c-36.3-6.8-77.2,42-83.9,89.7c-12.5,19-33,59.7-33,59.7l9.1-3.2
		l3.6,9.3c-2-4.9,10.5-25.2,20.1-39.7c3.3,21.4,15.8,40.4,41.5,50.9l3,29.9c-42.7,5.3-15.2,39.4,12.5,12.8V196
		c7.3,1.7,15.4,2.9,24.3,3.5c6.5,0.2,12.8-0.3,18.5-1.4l2.1,33.1c64.3,33.3,38.3-27.7,14.1-10.6v-27.1c25.8-10.3,41.8-33,47.1-58.4
		c7.4,17.5,15.7,40.7,15.7,40.7l3.3-10.5l6.7,4C239.5,158.5,222,130.4,213.1,116.9z"/>
	<g>
		<ellipse class="st3" cx="87.2" cy="70.4" rx="8.2" ry="8.7"/>
		<ellipse class="st3" cx="69.1" cy="78.7" rx="2.9" ry="3"/>
		<ellipse class="st3" cx="88.4" cy="91.1" rx="4.3" ry="4.6"/>
		<ellipse class="st3" cx="200" cy="79.3" rx="3.5" ry="3.6"/>
		<ellipse class="st3" cx="71.8" cy="170" rx="3.2" ry="3.3"/>
		<ellipse class="st3" cx="83.1" cy="180" rx="4.1" ry="4.3"/>
		<ellipse class="st3" cx="226.3" cy="155.5" rx="4.7" ry="5"/>
		<ellipse class="st3" cx="219.2" cy="133.5" rx="2.4" ry="2.6"/>
		<ellipse class="st3" cx="83.1" cy="236.2" rx="4.1" ry="4.3"/>
		<ellipse class="st3" cx="97.4" cy="226.7" rx="2" ry="2"/>
		<ellipse class="st3" cx="157.4" cy="226.7" rx="2" ry="2"/>
		<ellipse class="st3" cx="178.7" cy="232.4" rx="5.6" ry="5.8"/>
	</g>
</g>
</svg>
