<?xml version="1.0" encoding="utf-8"?>
<!-- Generator: Adobe Illustrator 21.1.0, SVG Export Plug-In . SVG Version: 6.00 Build 0)  -->
<svg version="1.1" id="圖層_1" xmlns="http://www.w3.org/2000/svg" xmlns:xlink="http://www.w3.org/1999/xlink" x="0px" y="0px"
	 viewBox="0 0 168 167" style="enable-background:new 0 0 168 167;" xml:space="preserve">
<style type="text/css">
	.st0{fill:#FFFFFF;stroke:#000000;stroke-miterlimit:10;}
</style>
<defs> 
	<clipPath id="cross">
	<path class="st0" d="M138.9,80.5c0.5-25.2-13.7-51.1-43.3-58.9c0.9-8.3-18.6-18.7-21.5-4.1c-4-5.5-19.2-11.6-17.2,6
	c-8-2.9-28.2-2.1-17.3,13.4c-8.4-1.3-21.8,1.6-10.2,15.9C21,53,7.1,61.4,27.2,76.1c-0.6,3-1,6.1-1.1,9.1c-6,10.2-13,23.7-16.1,29.7
	c-1.7,3-2.8,4.9-2.8,4.9l6.6-2.1l2.7,6.1c-0.2-0.8-0.2-1.7-0.1-2.7l0.4,0.9c-1.1-2.7,4.7-12.9,10.3-21.7c3,13.3,11.6,24.7,28.1,31.1
	L57,149c-20.7,2.6-16.3,15.5-5.3,15c4.3,0.6,10-1,15.8-6.5v-22.7c4.1,0.8,8.5,1.4,13.2,1.7c4.9,0.1,9.5-0.3,13.7-1.2l1.4,21
	c13.4,6.9,20.9,7.6,24.5,5.7c9.4-3.1-2.6-21.2-13.9-13.2v-17.5c1.8-0.8,3.4-1.7,5.1-2.7c13.7-7.3,22.3-20.4,25.7-34.9
	c4.9,11.6,10.4,27,10.4,27l2.2-6.9l4.4,2.6c0.1-0.5,0.2-1,0.3-1.6C156,107.5,144.7,89.3,138.9,80.5z"/>
	</clipPath>
</defs>
</svg>
