<?xml version="1.0" encoding="utf-8"?>
<!-- Generator: Adobe Illustrator 21.1.0, SVG Export Plug-In . SVG Version: 6.00 Build 0)  -->
<svg version="1.1" id="圖層_1" xmlns="http://www.w3.org/2000/svg" xmlns:xlink="http://www.w3.org/1999/xlink" x="0px" y="0px"
	 viewBox="0 0 250 250" style="enable-background:new 0 0 250 250;" xml:space="preserve">
<style type="text/css">
	.st0{fill:#AEAEAE;}
</style>
<path class="st0" d="M213.1,116.9c0.7-38.2-20.9-77.8-65.9-89.6c1.4-12.6-28.4-28.5-32.7-6.2c-6.1-8.3-29.2-17.6-26.1,9.1
	C76.1,25.9,45.5,27,62.1,50.6c-12.8-1.9-33,2.6-15.5,24.2c-12.8,0.3-33.9,13-3.3,35.4c-0.9,4.7-1.5,9.4-1.8,14
	c-8.7,14.7-18.8,34-23.7,43.6c-3.1,5.3-5,8.8-5,8.8l10-3.2l4.1,9.3c-0.3-1.2-0.3-2.6-0.1-4.2l0.6,1.5c-1.7-4.2,7.1-19.5,15.7-32.9
	c4.7,20.1,17.7,37.4,42.6,47.1l2.7,26.8c-31.7,3.9-24.7,23.8-7.6,22.8c6.5,0.8,15.1-1.6,23.7-9.9v-34.4c6.2,1.2,12.9,2,20,2.5
	c7.4,0.2,14.4-0.5,20.8-1.8l2.1,31.9c21.1,10.9,32.7,11.7,37.8,8.3c13.2-5.3-4.7-31.8-21.7-19.8v-26.4c3.6-1.7,7-3.6,10.2-5.7
	c19.3-11.4,31.7-30.5,36.6-51.7C217.7,154.5,226,178,226,178l3.3-10.5l6.7,4c0.3-0.8,0.4-1.7,0.4-2.7
	C238.9,157.6,221.9,130.2,213.1,116.9z"/>
</svg>
