<?xml version="1.0" encoding="utf-8"?>
<!-- Generator: Adobe Illustrator 21.1.0, SVG Export Plug-In . SVG Version: 6.00 Build 0)  -->
<svg version="1.1" id="圖層_1" xmlns="http://www.w3.org/2000/svg" xmlns:xlink="http://www.w3.org/1999/xlink" x="0px" y="0px"
	 viewBox="0 0 250 250" style="enable-background:new 0 0 250 250;" xml:space="preserve">
<style type="text/css">
	.st0{fill:#B5B5B5;}
</style>
<path class="st0" d="M203,154.7c4.8-2.7,7.4-8,6.4-13.3c-0.5-2.3-1.6-4.4-3.2-6.2c-1.2-2.9-3.3-5.4-6-7c4.7-3,7.2-8.7,6.3-14.4
	c-1.1-6.1-5.8-10.6-11.6-11.6c3.4-4.5,3.9-10.6,1-15.7c-3-5.3-9.1-7.9-14.8-6.9c1.4-4.6,0.4-9.8-2.9-13.5c8.6-18.7,9-38.1,9-38.1
	c1.3-10.1-5.8-19.6-15.9-20.9c-10.1-1.3-19.6,5.8-20.9,15.9c-0.8,5.1,0.6,9.9,3.7,13.6c3.2,7.6,4.4,14.5,4.4,20.5
	c-1.6-3-4.3-5.4-7.8-6.7c-5.8-2.1-12-0.2-15.9,4.2c-2.2-5.1-7.2-8.7-13.2-8.7c-6.1,0-11.4,3.9-13.5,9.3c-3.9-4-9.8-5.6-15.4-3.7
	c-0.7,0.2-1.3,0.5-1.9,0.9c0.5-4.8,1.8-10.1,4.2-15.8c2.9-3.7,4.3-8.5,3.5-13.6C97.4,12.8,87.9,5.8,77.8,7.1
	C67.7,8.3,60.6,17.8,62.1,27.9c0,0,0.4,18.5,8.5,36.9c-1,0.5-2,1.1-2.9,1.8c-4.7,4-6.3,10.3-4.3,15.7c-5.5-0.6-11.1,1.9-14.1,7.1
	c-3,5.3-2.4,11.9,1.4,16.4c-5.5,1.3-9.8,5.6-10.8,11.4c-1.1,6.1,1.9,11.9,6.9,14.9c-3.3,2.1-5.5,5.5-6.2,9.4c-0.5,1-0.9,2.1-1.2,3.3
	c-1.1,5.6,1.9,10.9,7.1,13.6c-4.8,2.7-7.4,8-6.4,13.3c1.1,5.6,5.9,9.8,11.7,10.8c-3.4,4.2-4,9.8-1,14.4c3.2,5,9.3,7.2,15.1,6.4
	c-1.6,5,0,10.4,4.7,14c4.8,3.7,11.4,4,16.7,1.3c0.3,5,3.8,9.5,9.1,11.5l-2.4,6.3c-1,2.7,1,5.6,3.9,5.6h16c3,0,5-3,3.9-5.8l-3.2-7.4
	c2.6,3.4,7,5.6,12,5.6c5.4,0,10.2-2.6,12.6-6.6l-3.2,8.7c-1,2.6,1,5.5,3.7,5.5h16.4c2.9,0,4.8-2.9,3.7-5.6l-3.2-7.5
	c5.5-2.1,9-6.9,9-12.1c5.1,2.2,11.4,1.8,16-1.6c4.8-3.7,6.4-9.5,4.3-14.6c5.6,0.6,11.4-1.8,14.4-6.6c3.2-5,2.4-10.9-1.4-15.1
	c5.5-1.1,9.9-5.1,11.1-10.6S208.1,157.4,203,154.7z"/>
</svg>
