<?xml version="1.0" encoding="utf-8"?>
<!-- Generator: Adobe Illustrator 21.1.0, SVG Export Plug-In . SVG Version: 6.00 Build 0)  -->
<svg version="1.1" id="圖層_1" xmlns="http://www.w3.org/2000/svg" xmlns:xlink="http://www.w3.org/1999/xlink" x="0px" y="0px"
	 viewBox="0 0 250 250" style="enable-background:new 0 0 250 250;" xml:space="preserve">
<path d="M205.9,90.5c-4.2-4.8-9.3-9-15.1-11.4c-0.7-0.3-1.7-0.7-2.9-1c0-5.9-0.1-11-0.4-14.2c-0.7-9.7-0.8-13.7-2.6-18.8
	c-0.4-1.6-0.9-3.1-1.6-4.9c-2.6-6.4-6.7-11.9-14.4-18.3c-7.7-6.4-17.8-8.2-25.5-9.1c-7.5-1-18.1-0.5-18.1-0.5s-15.2-1-24.6,1.8
	c-9.3,2.7-13.2,5-17.3,9.6c-13.6,14.4-17,35-17,54.6c0,0.2,0,0.4,0,0.7c0,0.3,0,0.5,0,0.8c0,0.5,0,1,0,1.5c-1.4,0.6-2.6,1.2-3.4,1.7
	c-5.5,3.2-10.1,7.9-13.6,13.2c-12,17.8-18.1,42.5-11.7,63.9c0.2,0.5,0.3,1,0.5,1.4c0,0,0.8,7.5,2.1,11.4c1.1,2.6,2.4,5.1,5.3,7.5
	c2.9,2.6,4.7,0.6,4.7,0.6s0.5-3.8-0.2-6.4c0,0.1,0,0.1,0.1,0.2c-0.1-0.3-0.1-0.5-0.2-0.8c0.4,0.8,1.3,2.2,2.4,3.3
	c1.2,1.2,2.6,2,3.9,0.8c0.2-0.2,0.3-0.3,0.5-0.5c-0.1-0.1-0.1-0.1-0.2-0.2c1.9-2.9-2.3-9.1-4-10.9c0,0,6.4,2.1,9.5,0.9
	c0.3-0.1,0.6-0.2,0.9-0.4c0,0-0.1,0-0.2,0c0.4-0.3,0.7-0.6,0.8-1.1c1.1-3.9-2.4-5.1-7.1-5.8c-4.7-0.6-4.7-0.6-6.4-3.2
	c-1-2.5-1.6-5.2-1.9-8.2c0.1,0.6,0.3,1.2,0.5,1.8c0.2,0.6,0.5,1.1,0.8,1.6c-3.5-17.6,5.9-44.2,17.3-54.3c0.2,6.2,0.4,12.3,0.5,18.5
	c0.2,9,0.2,18.1,0.3,27.1c0.2,6.9,0.2,14,0.3,20.9c0,4.7,0.2,9.3,0.2,14c0,0.2,0,0.3,0,0.5c0,1,0,1.8,0,2.6c0,3.8,0,3.9,0,3.9l1-1.5
	c0,4.2,0,4.2,0,4.2l5.9-9.1l6.7,14.6l6.7-14.5l5,15.5l0-0.1l0.9,2.9l6.7-21.9l0.5,1.3l0.5,43.4L79.7,242l42.9-5.1V190l2.4,5.2
	l7.5-15.5v10.5v46.7l42.9,5.1l-22.3-22.3l0.3-30.2l2.9,8.4l6.7-22l8.5,19.3l6.7-20.2l8.5,10.1c0,0,1.8-59.7,0.8-67.9
	c0-3.9,0.2-13.5,0.3-23.8c0.5,0.3,1,0.6,1.5,0.9c12.8,8.7,25.5,35.5,23.1,53.4c0.1-0.1,0.2-0.2,0.2-0.4c0,0.2,0,0.5-0.1,0.7
	c-1.8,2.6-1.8,2.6-6.3,3.2c-4.5,0.6-8,1.9-6.7,5.8c0,0.1,0.1,0.2,0.2,0.3c-0.1,0-0.1,0-0.2,0c0.3,0.5,0.7,0.9,1.3,1.1
	c0.1,0,0.2,0.1,0.3,0.1c0,0,0,0,0,0c2.8,1,8.1-0.6,9-0.9c-0.1,0-0.1,0.1-0.1,0.2c0-0.1,0.1-0.1,0.1-0.2c0.1,0,0.1,0,0.1,0
	c-1.7,1.8-5.9,8.3-3.7,11.1c0,0,0,0,0,0c0,0,0.1,0,0.1,0.1c0.1,0.1,0.1,0.2,0.2,0.3c2.9,2.6,6.3-4.5,6.3-4.5
	c-1.1,2.6-0.6,7.5-0.6,7.5s1.8,1.9,4.5-0.6c2.9-2.6,4-5.1,5.1-7.5c0.6-2.4,1.3-6.3,1.6-8.8c0.5-0.8,0.6-1.6,1-2.6
	C228.7,130.3,219.9,106.5,205.9,90.5z M49.6,173.4C49.6,173.4,49.6,173.3,49.6,173.4C49.6,173.3,49.6,173.3,49.6,173.4
	C49.6,173.4,49.6,173.4,49.6,173.4z"/>
</svg>
