<?xml version="1.0" encoding="utf-8"?>
<!-- Generator: Adobe Illustrator 21.1.0, SVG Export Plug-In . SVG Version: 6.00 Build 0)  -->
<svg version="1.1" id="圖層_1" xmlns="http://www.w3.org/2000/svg" xmlns:xlink="http://www.w3.org/1999/xlink" x="0px" y="0px"
	 viewBox="0 0 250 250" style="enable-background:new 0 0 250 250;" xml:space="preserve">
<path d="M214.6,157.2c-1.9-7.8-5.3-15.2-9.4-21.9c-3-5-5.8-10-8.9-14.8c-1.9-3-3.4-5.2-3.6-8.7c-0.5-12.7-0.2-25.1-2-37.8
	c-2.3-15.6-8.7-31.1-20.3-42.2c-2.3-2.3-5.8-4.2-7.2-7.5c-2-5.3-5.2-10.2-9.2-14.1c-0.5-0.3-0.8-0.6-1.2-0.8c-0.2,0-0.5,0-0.6,0
	c-0.9,0-1.7,0.4-2.2,1.1c-1.5,1.6-4.2,6.2-4.2,6.2s0.5,0.2,1.2,0.3c-0.3,0.1-0.6,0.1-1.1,0c-2.7-0.9-5.5-1.1-8.1-1.2
	c-9.5-0.6-19.1-0.6-28.6-0.5c-2.3-6.2-5.8-6.8-8.4-6V8.8c-2.2-0.8-5.9,11.2-5.9,11.2l0.6-0.2c-0.1,0.4-0.2,0.6-0.2,0.6
	c-4,3.5-9.1,5.6-13.4,8.6c0-0.1,0-0.2,0-0.3c-0.2,0-0.3,0.2-0.5,0.3c-3.4,2.5-6.2,6.4-8.7,10.2c-3.3,4.8-5.3,10.5-6.2,16.2
	c-1.4,8.1-1.6,16.6-1.4,24.8c0.1,4.6,0.3,9.3,0.6,13.9c0-0.1-0.1-0.1-0.1-0.2c0.1,0.5,0.1,1,0.2,1.5c0.1,1.1,0.1,2.1,0.2,3.2
	c0.2,3.4,0.6,6.9,0.9,10.3c0.2,1.8,0.7,3.9,0.7,5.8c0,1.5-0.3,2.9-1.2,4.1c-2.3,3-5.3,5.3-7.8,8.3c-2.8,3.3-5.3,6.7-7.8,10.3
	c-2.8,4.1-5.2,8.4-6.5,13.3c-0.2,0.6-0.4,1.1-0.6,1.7c-1.2,4.1-2.8,8.7-1.7,13c0.3,1.4,1.2,2.8,2.3,3.8c2.4,2.4,6.3,3.3,8.9,0.4
	c1.3-1.4,1.8-3.5,1.8-5.5c0-1.6-0.3-3.3-0.8-4.6c-0.9-2.4-1.7-4.2-1.7-6.2c0-1.2,0.4-2.5,1.4-3.9c1.7-2.7,4.4-4.8,6.9-6.7
	c3.6-2.6,7.4-5,11.6-6.7c4,12.6,4.8,26,6.5,39c0.8,6.2,1.6,12.5,1.9,18.7c0.3,4.4,1.9,10-0.6,14.1c-1.8,3-5.7,4.3-9.3,4.3
	c-0.8,0-1.6-0.1-2.3-0.2c-5.5-1.1-9.7-5-13.1-9.1c-2-2.5-3.7-5.5-5.9-7.8c0,0,0,0.1,0,0.1c0,0-0.1-0.1-0.1-0.1
	c-0.3,0.9-0.3,1.9-0.5,2.8c-1.3,10.7,3.5,20.9,10.9,28.4c3.4,3.4,7.3,6.3,11.4,8.5c15,7.7,32.6,7.7,48.7,3.7
	c8.1-2,15.9-5.2,23.3-9.4c0-0.1-0.1-0.1-0.1-0.2c6.8-3.9,13.1-8.7,18.7-14.2c6.4-6.4,11.6-13.9,15.8-22c0,0,0,0,0,0
	c3.4-6.6,6.2-13.7,8.5-20.8c1.6-5.2,3-10.3,4.1-15.6c3.4-15.8,0.8-18.9,3.1-18.6c2.8,0.3,5.6,3.9,7.2,5.8c2,2.5,3.9,5.3,4.8,8.4
	c0.9,3.3,0.9,6.9-0.3,10.2c-0.6,1.6-1.7,3.1-3,4.4c-1.4,1.4-3.1,2.8-2,5.2c1.7,3.6,7.2,5.8,10.8,4.4c2.3-0.8,3.9-3.3,4.5-5.8
	C216.1,165.9,215.7,161.4,214.6,157.2z"/>
</svg>
