<?xml version="1.0" encoding="utf-8"?>
<!-- Generator: Adobe Illustrator 21.1.0, SVG Export Plug-In . SVG Version: 6.00 Build 0)  -->
<svg version="1.1" id="圖層_1" xmlns="http://www.w3.org/2000/svg" xmlns:xlink="http://www.w3.org/1999/xlink" x="0px" y="0px"
	 viewBox="0 0 168 167" style="enable-background:new 0 0 168 167;" xml:space="preserve">
<style type="text/css">
	.st0{display:none;}
	.st1{display:inline;fill:#836456;}
	.st2{display:inline;fill:#6B4F42;}
	.st3{display:inline;fill:#A87571;}
	.st4{display:inline;}
	.st5{fill:#9A6F6B;}
	.st6{clip-path:url(#SVGID_2_);fill:#FFAA4F;}
	.st7{clip-path:url(#SVGID_2_);fill:#FFFFFF;}
</style>
<g class="st0">
	<path class="st1" d="M99.2,18.8c3.9-9.1-21.7-23-21.5-1.3c7.9-3.8-22.8-23.4-16,6.4c13.8-6-40.1-14.1-14,13.7
		c11.5-6.2-38.4-12.1-9.8,15.9c6.4-11-36.1-2.9-6.4,18.6C31.5,72.2,43,12.7,99.2,18.8z"/>
	<path class="st2" d="M141.1,75.4c-0.3-27.7-18.1-55.9-54.4-59.8c-26.5-5-56.6,34.3-56.7,68.6c-8.7,13.3-18.8,31.4-18.8,31.4
		l6.6-2.1l2.7,6.1c-1.2-4.8,4.6-15.1,10.6-23.6c3,13.3,11.6,24.8,28.1,31.2l1.8,17.6c-28.1,3.5-10,25.9,8.2,8.4v-23.1
		c4.7,1.1,9.9,1.8,15.5,2.2c4.9,0.1,9.5-0.3,13.7-1.2l1.4,21c42.3,21.9,26.3-18.4,10.3-7.2l-4-16c19.2-6.9,30.6-23.6,33.8-42.2
		c5.2,11.7,11.6,29.8,11.6,29.8l2.2-6.9l4.4,2.6C160.5,104.5,146,82.4,141.1,75.4z"/>
	<path class="st3" d="M142.9,76.3c0.5-27.9-17-56.8-53.6-60.8c-23.9-4.5-50.8,27.6-55.2,59c-8.2,12.5-21.7,39.3-21.7,39.3l6-2.1
		l2.4,6.1c-1.3-3.2,6.9-16.6,13.2-26.1c2.2,14.1,10.4,26.6,27.3,33.5l2,19.7c-28.1,3.5-10,25.9,8.2,8.4v-24.9
		c4.8,1.1,10.1,1.9,16,2.3c4.3,0.1,8.4-0.2,12.2-0.9l1.4,21.8c42.3,21.9,25.2-18.2,9.3-7v-17.8c17-6.8,27.5-21.7,31-38.4
		c4.9,11.5,10.3,26.8,10.3,26.8l2.2-6.9l4.4,2.6C160.3,103.7,148.8,85.2,142.9,76.3z"/>
	<g class="st4">
		<ellipse class="st5" cx="60.1" cy="45.7" rx="5.4" ry="5.7"/>
		<ellipse class="st5" cx="48.2" cy="51.2" rx="1.9" ry="2"/>
		<ellipse class="st5" cx="60.9" cy="59.3" rx="2.8" ry="3"/>
		<ellipse class="st5" cx="134.3" cy="51.6" rx="2.3" ry="2.4"/>
		<ellipse class="st5" cx="50" cy="111.2" rx="2.1" ry="2.2"/>
		<ellipse class="st5" cx="57.4" cy="117.8" rx="2.7" ry="2.8"/>
		<ellipse class="st5" cx="151.6" cy="101.7" rx="3.1" ry="3.3"/>
		<ellipse class="st5" cx="146.9" cy="87.2" rx="1.6" ry="1.7"/>
		<ellipse class="st5" cx="57.4" cy="154.8" rx="2.7" ry="2.8"/>
		<ellipse class="st5" cx="66.8" cy="148.5" rx="1.3" ry="1.3"/>
		<ellipse class="st5" cx="106.3" cy="148.5" rx="1.3" ry="1.3"/>
		<ellipse class="st5" cx="120.3" cy="152.3" rx="3.7" ry="3.8"/>
	</g>
</g>
<g>
	<defs>
		<path id="SVGID_1_" d="M138.7,97.8c0,35.1-24.5,63.5-54.7,63.5s-54.7-28.4-54.7-63.5s24.5-92,54.7-92S138.7,62.7,138.7,97.8z"/>
	</defs>
	<clipPath id="SVGID_2_">
		<use xlink:href="#SVGID_1_"  style="overflow:visible;"/>
	</clipPath>
	<path class="st6" d="M138.7,97.8c0,35.1-24.5,63.5-54.7,63.5s-54.7-28.4-54.7-63.5s24.5-92,54.7-92S138.7,62.7,138.7,97.8z"/>
	<circle class="st7" cx="52.8" cy="27.7" r="13.1"/>
	<ellipse class="st7" cx="37.1" cy="101.2" rx="13.9" ry="12.3"/>
	<ellipse class="st7" cx="117.9" cy="100.9" rx="17.1" ry="16.3"/>
	<ellipse class="st7" cx="113.4" cy="34.3" rx="14.1" ry="19.7"/>
	<circle class="st7" cx="100" cy="79.1" r="5.5"/>
	<ellipse class="st7" cx="82" cy="113.4" rx="6.4" ry="4.8"/>
	<ellipse class="st7" cx="59.9" cy="147.1" rx="18.4" ry="8.5"/>
</g>
</svg>
