<?xml version="1.0" encoding="utf-8"?>
<!-- Generator: Adobe Illustrator 22.0.1, SVG Export Plug-In . SVG Version: 6.00 Build 0)  -->
<svg version="1.1" id="圖層_1" xmlns="http://www.w3.org/2000/svg" xmlns:xlink="http://www.w3.org/1999/xlink" x="0px" y="0px"
	 viewBox="0 0 132 51" style="enable-background:new 0 0 132 51;" xml:space="preserve">
<style type="text/css">
	.st0{fill:#887F7D;}
	.st1{fill:#040000;}
	.st2{opacity:0.5;fill:#231815;enable-background:new    ;}
	.st3{opacity:0.5;fill:#525151;enable-background:new    ;}
	.st4{opacity:0.5;}
	.st5{fill:#231815;}
	.st6{fill:#595857;}
	.st7{fill:#7F7775;}
	.st8{opacity:0.49;fill:#595857;enable-background:new    ;}
	.st9{opacity:0.35;fill:url(#SVGID_1_);enable-background:new    ;}
	.st10{opacity:0.35;fill:url(#SVGID_2_);enable-background:new    ;}
	.st11{opacity:0.58;fill:url(#SVGID_3_);enable-background:new    ;}
	.st12{fill:#727171;}
	.st13{fill:url(#SVGID_4_);}
	.st14{fill:url(#SVGID_5_);}
	.st15{fill:#585452;}
	.st16{fill:#94929A;}
	.st17{fill:#585554;}
	.st18{fill:#3E3A39;}
	.st19{fill:#7F7C7C;}
	.st20{fill:#E99214;}
	.st21{fill:url(#SVGID_6_);}
	.st22{fill:url(#SVGID_7_);}
	.st23{fill:url(#SVGID_8_);}
	.st24{fill:url(#SVGID_9_);}
	.st25{opacity:0.58;fill:url(#SVGID_10_);}
	.st26{fill:#2F7437;}
	.st27{fill:#046535;}
	.st28{fill:url(#SVGID_11_);}
	.st29{fill:url(#SVGID_12_);}
	.st30{opacity:0.57;fill:#545354;}
	.st31{fill:#F7F7F7;}
	.st32{fill:#80B9E5;}
	.st33{fill:#424144;}
	.st34{fill:#FFFFFF;}
	.st35{fill:#ED9027;}
	.st36{fill:#5D5E5E;}
	.st37{fill:#565657;}
	.st38{fill:#545354;}
	.st39{fill:#CCCCCC;}
	.st40{fill:#5A2C1D;}
	.st41{fill:#AC7783;}
	.st42{fill:#F3A7B7;}
	.st43{fill:#ACADAE;}
	.st44{fill:#F3E1A0;}
	.st45{fill:#F9C898;}
	.st46{fill-rule:evenodd;clip-rule:evenodd;fill:#C7371D;}
	.st47{fill:#E6778E;}
	.st48{fill:#B35C6F;}
	.st49{clip-path:url(#SVGID_14_);}
	.st50{fill:#62407F;}
	.st51{fill:#7F59A0;}
	.st52{fill:#8D7CA6;}
	.st53{fill:#9F8DB8;}
	.st54{clip-path:url(#SVGID_16_);}
	.st55{fill:#F3E2A4;}
	.st56{fill:#FDF3DF;}
	.st57{fill:#979696;}
	.st58{fill:#ABABA9;}
	.st59{fill:#EFCA7D;}
	.st60{fill:#F0D3AE;}
	.st61{clip-path:url(#SVGID_18_);fill:#EBAAB2;}
	.st62{clip-path:url(#SVGID_18_);fill:#FFFFFF;}
	.st63{clip-path:url(#SVGID_20_);fill:#FFFFFF;}
	.st64{clip-path:url(#SVGID_22_);fill:#FFFFFF;}
	.st65{fill:none;stroke:#B8292D;stroke-width:3;stroke-linecap:round;stroke-linejoin:round;stroke-miterlimit:10;}
	.st66{fill:#8CC1C5;}
	.st67{opacity:0.64;fill:#E6E8E8;}
	.st68{fill:#D6D4D4;}
	.st69{fill:#E6E6E5;}
	.st70{fill:#F5BAC3;}
	.st71{fill:#F096A2;}
	.st72{fill:none;stroke:#D3D3D3;stroke-width:2;stroke-miterlimit:10;}
	.st73{fill:#D3D3D3;}
	.st74{clip-path:url(#SVGID_24_);}
	.st75{fill:none;stroke:#D3D3D3;stroke-width:3;stroke-miterlimit:10;}
	.st76{fill:#DCDCDC;}
	.st77{fill:#D9B166;}
	.st78{fill:#831A1F;}
	.st79{fill:#138B3B;}
	.st80{opacity:0.53;fill:#231815;}
	.st81{fill:#B5B4B5;}
	.st82{opacity:0.19;fill:#231815;}
	.st83{fill:#673A1B;}
	.st84{opacity:0.5;fill:#231815;}
	.st85{opacity:0.31;fill:#231815;}
	.st86{fill:#B51D28;}
	.st87{fill:#D9B026;}
	.st88{fill:#7D6595;}
	.st89{fill:#AD8FC1;}
	.st90{fill:#54258A;}
	.st91{fill:#B41A3D;}
	.st92{fill:#D11F46;}
	.st93{fill:#8B1C3D;}
	.st94{opacity:0.6;}
	.st95{fill:#E33764;}
	.st96{opacity:0.5;fill:#FFFFFF;}
	.st97{fill:#E6B445;}
	.st98{fill:#F6FAFC;}
	.st99{fill:none;stroke:#0075B3;stroke-width:4;stroke-miterlimit:10;}
	.st100{fill:#0075B3;}
	.st101{fill:#5AB1DB;}
	.st102{opacity:0.49;fill:#0075B3;}
	.st103{opacity:0.35;fill:url(#SVGID_25_);}
	.st104{opacity:0.35;fill:url(#SVGID_26_);}
	.st105{fill:#E60012;}
	.st106{fill:#836456;}
	.st107{fill:#6B4F42;}
	.st108{fill:#A87571;}
	.st109{fill:#9A6F6B;}
	.st110{fill:#825F54;}
	.st111{fill:#B88A83;}
	.st112{opacity:0.58;fill:url(#SVGID_27_);enable-background:new    ;}
	.st113{fill:#855E59;}
	.st114{fill:url(#SVGID_28_);}
	.st115{fill:url(#SVGID_29_);}
	.st116{opacity:0.59;fill:#8F685C;enable-background:new    ;}
	.st117{opacity:0.35;fill:#B88A83;enable-background:new    ;}
	.st118{fill:#8C6B65;}
	.st119{opacity:0.5;fill:#B88A83;enable-background:new    ;}
</style>
<path class="st78" d="M68.6,43.1c24.4,0,44.2-16.4,44.2-36.6H24.4C24.4,26.7,44.2,43.1,68.6,43.1z"/>
<path class="st34" d="M111.9,15.1c-1.3,5.4-3.6,10.2-7.1,14.5c-4.7,5.9-10.7,10.2-17.6,13c-5.2,2.1-10.7,3.3-16.3,3.6
	c-10.2,0.5-19.6-1.8-28.2-7.2c-3.8-2.4-7.2-5.4-10.1-8.9c-4-5-6.6-10.6-7.8-16.8c0-0.2,0-0.3,0-0.5c1.4,3.3,3,6.4,5.2,9.3
	c0.2-0.8,0.4-1.6,0.6-2.3c0.3-0.8,0.6-1.5,1-2.3c0.3-0.6,0.9-0.8,1.7-0.7c1.7,0.2,3.1,1.1,4.4,2.3c1.3,1.2,2.3,2.7,3,4.4
	c0.3,0.8,0.4,1.6,0,2.4c-0.7,1.5-1.5,3-2.3,4.4c-0.3,0.5-0.2,0.7,0.2,1c0.7,0.5,1.4,1,2.2,1.6c0.6-1.6,1-3.2,1.7-4.6
	c1-2.3,1.8-2.7,4.5-2.6c2.1,0.1,3.9,0.8,5.5,2.1c1.7,1.2,2.2,2.8,1.6,4.8c-0.5,1.8-1.1,3.6-1.6,5.3c-0.2,0.5-0.1,0.8,0.4,0.9
	c0.8,0.2,1.6,0.4,2.5,0.7c0-0.7,0.1-1.3,0.1-1.8c0.2-2,0.4-4,1.1-6c0.4-1.2,1.4-1.8,2.4-2.3c3.8-2,7.8-2.7,12.1-2.5
	c3.2,0.2,6.2,1,9.1,2.6c1.6,0.9,2.1,2.3,2.4,3.9c0.3,1.8,0.5,3.6,0.7,5.6c0.9-0.3,1.8-0.6,2.8-1c0.1,0,0-0.4,0-0.6
	c-0.5-1.9-1.1-3.8-1.6-5.7c-0.5-1.8,0.4-3.2,1.7-4.3c2.1-1.6,4.4-2.5,7.1-2.2c0.9,0.1,1.7,0.5,2.1,1.3c0.7,1.6,1.2,3.1,1.8,4.7
	c0.1,0.2,0.1,0.4,0.2,0.7c0.9-0.7,1.7-1.4,2.4-2c0.1-0.1,0-0.4,0-0.6c-0.6-1.1-1.2-2.3-1.8-3.4c-0.6-1.2-0.7-2.4-0.1-3.8
	c0.9-2,2.1-3.8,3.8-5.1c1-0.7,2-1.2,3.2-1.3c0.9-0.1,1.6,0.3,2,1.4c0.4,0.9,0.6,1.8,0.9,2.7c0.1,0.2,0.1,0.3,0.2,0.6
	c1.7-2.4,2.8-5,4-7.6l0.2,0.1C112.2,13.6,112.1,14.4,111.9,15.1z"/>
</svg>
