<?xml version="1.0" encoding="utf-8"?>
<!-- Generator: Adobe Illustrator 22.0.1, SVG Export Plug-In . SVG Version: 6.00 Build 0)  -->
<svg version="1.1" id="圖層_1" xmlns="http://www.w3.org/2000/svg" xmlns:xlink="http://www.w3.org/1999/xlink" x="0px" y="0px"
	 viewBox="0 0 132 51" style="enable-background:new 0 0 132 51;" xml:space="preserve">
<style type="text/css">
	.st0{fill:#887F7D;}
	.st1{fill:#040000;}
	.st2{opacity:0.5;fill:#231815;enable-background:new    ;}
	.st3{opacity:0.5;fill:#525151;enable-background:new    ;}
	.st4{opacity:0.5;}
	.st5{fill:#231815;}
	.st6{fill:#595857;}
	.st7{fill:#7F7775;}
	.st8{opacity:0.49;fill:#595857;enable-background:new    ;}
	.st9{opacity:0.35;fill:url(#SVGID_1_);enable-background:new    ;}
	.st10{opacity:0.35;fill:url(#SVGID_2_);enable-background:new    ;}
	.st11{opacity:0.58;fill:url(#SVGID_3_);enable-background:new    ;}
	.st12{fill:#727171;}
	.st13{fill:url(#SVGID_4_);}
	.st14{fill:url(#SVGID_5_);}
	.st15{fill:#585452;}
	.st16{fill:#94929A;}
	.st17{fill:#585554;}
	.st18{fill:#3E3A39;}
	.st19{fill:#7F7C7C;}
	.st20{fill:#E99214;}
	.st21{fill:url(#SVGID_6_);}
	.st22{fill:url(#SVGID_7_);}
	.st23{fill:url(#SVGID_8_);}
	.st24{fill:url(#SVGID_9_);}
	.st25{opacity:0.58;fill:url(#SVGID_10_);}
	.st26{fill:#2F7437;}
	.st27{fill:#046535;}
	.st28{fill:url(#SVGID_11_);}
	.st29{fill:url(#SVGID_12_);}
	.st30{opacity:0.57;fill:#545354;}
	.st31{fill:#F7F7F7;}
	.st32{fill:#80B9E5;}
	.st33{fill:#424144;}
	.st34{fill:#FFFFFF;}
	.st35{fill:#ED9027;}
	.st36{fill:#5D5E5E;}
	.st37{fill:#565657;}
	.st38{fill:#545354;}
	.st39{fill:#CCCCCC;}
	.st40{fill:#5A2C1D;}
	.st41{fill:#AC7783;}
	.st42{fill:#F3A7B7;}
	.st43{fill:#ACADAE;}
	.st44{fill:#F3E1A0;}
	.st45{fill:#F9C898;}
	.st46{fill-rule:evenodd;clip-rule:evenodd;fill:#C7371D;}
	.st47{fill:#E6778E;}
	.st48{fill:#B35C6F;}
	.st49{clip-path:url(#SVGID_14_);}
	.st50{fill:#62407F;}
	.st51{fill:#7F59A0;}
	.st52{fill:#8D7CA6;}
	.st53{fill:#9F8DB8;}
	.st54{clip-path:url(#SVGID_16_);}
	.st55{fill:#F3E2A4;}
	.st56{fill:#FDF3DF;}
	.st57{fill:#979696;}
	.st58{fill:#ABABA9;}
	.st59{fill:#EFCA7D;}
	.st60{fill:#F0D3AE;}
	.st61{clip-path:url(#SVGID_18_);fill:#EBAAB2;}
	.st62{clip-path:url(#SVGID_18_);fill:#FFFFFF;}
	.st63{clip-path:url(#SVGID_20_);fill:#FFFFFF;}
	.st64{clip-path:url(#SVGID_22_);fill:#FFFFFF;}
	.st65{fill:none;stroke:#B8292D;stroke-width:3;stroke-linecap:round;stroke-linejoin:round;stroke-miterlimit:10;}
	.st66{fill:#8CC1C5;}
	.st67{opacity:0.64;fill:#E6E8E8;}
	.st68{fill:#D6D4D4;}
	.st69{fill:#E6E6E5;}
	.st70{fill:#F5BAC3;}
	.st71{fill:#F096A2;}
	.st72{fill:none;stroke:#D3D3D3;stroke-width:2;stroke-miterlimit:10;}
	.st73{fill:#D3D3D3;}
	.st74{clip-path:url(#SVGID_24_);}
	.st75{fill:none;stroke:#D3D3D3;stroke-width:3;stroke-miterlimit:10;}
	.st76{fill:#DCDCDC;}
	.st77{fill:#D9B166;}
	.st78{fill:#831A1F;}
	.st79{fill:#138B3B;}
	.st80{opacity:0.53;fill:#231815;}
	.st81{fill:#B5B4B5;}
	.st82{opacity:0.19;fill:#231815;}
	.st83{fill:#673A1B;}
	.st84{opacity:0.5;fill:#231815;}
	.st85{opacity:0.31;fill:#231815;}
	.st86{fill:#B51D28;}
	.st87{fill:#D9B026;}
	.st88{fill:#7D6595;}
	.st89{fill:#AD8FC1;}
	.st90{fill:#54258A;}
	.st91{fill:#B41A3D;}
	.st92{fill:#D11F46;}
	.st93{fill:#8B1C3D;}
	.st94{opacity:0.6;}
	.st95{fill:#E33764;}
	.st96{opacity:0.5;fill:#FFFFFF;}
	.st97{fill:#E6B445;}
	.st98{fill:#F6FAFC;}
	.st99{fill:none;stroke:#0075B3;stroke-width:4;stroke-miterlimit:10;}
	.st100{fill:#0075B3;}
	.st101{fill:#5AB1DB;}
	.st102{opacity:0.49;fill:#0075B3;}
	.st103{opacity:0.35;fill:url(#SVGID_25_);}
	.st104{opacity:0.35;fill:url(#SVGID_26_);}
	.st105{fill:#E60012;}
	.st106{fill:#836456;}
	.st107{fill:#6B4F42;}
	.st108{fill:#A87571;}
	.st109{fill:#9A6F6B;}
	.st110{fill:#825F54;}
	.st111{fill:#B88A83;}
	.st112{opacity:0.58;fill:url(#SVGID_27_);enable-background:new    ;}
	.st113{fill:#855E59;}
	.st114{fill:url(#SVGID_28_);}
	.st115{fill:url(#SVGID_29_);}
	.st116{opacity:0.59;fill:#8F685C;enable-background:new    ;}
	.st117{opacity:0.35;fill:#B88A83;enable-background:new    ;}
	.st118{fill:#8C6B65;}
	.st119{opacity:0.5;fill:#B88A83;enable-background:new    ;}
</style>
<g>
	<path class="st91" d="M48.9,23.4c-0.1,0.9,1.7,1.4,2.7,2.4c2.9,3,3.5,6.7,5.4,10.3c2.7,5.3,8.6,8.1,14.2,8.2c3.7,0,7.1-1.3,9.9-3.8
		c3.1-2.7,4.4-5.5,5.3-9.6c0.3-1.3,0.9-2.7,1.9-3.6c0.9-0.8,1.8-0.8,2.8-1.4c2.8-1.7-2.1-2.5-3.4-3c-3.3-1.1-6.6-2.2-9.7-3.7
		c-4.6-2.2-11.2-1.1-16.1-0.4c-2.7,0.4-5.5,0.9-8.1,1.7c-1.3,0.4-3.1,0.8-4.2,1.8C49.1,22.8,48.9,23.2,48.9,23.4z"/>
	<path class="st92" d="M45.2,21.4c0,0,3.1,0.7,6.4-0.7c3.3-1.5,10.5-17.4,18.8-6.4c0,0,6.8-12.9,18.1,6.4c1.7,2.8,4.5,3.7,8.5,1.8
		c-1.9,1.8-4.2,3.1-6.4,4.3c-3.5,2-9.1,0.7-12.7-0.6c-1.8-0.7-3.7-1.4-5.1-2.8c-0.3,0.7-1.1,1.1-1.9,1.2c-0.8,0-1.6-0.3-2.2-0.7
		c-0.1-0.1-0.3-0.2-0.5-0.2c-0.1,0-0.2,0.1-0.3,0.2c-1.3,1.1-2.2,1.9-3.8,2.4c-4.7,1.4-10.1,1.2-14.3-1.4
		C48.5,24.1,46.9,23,45.2,21.4z"/>
	<path class="st91" d="M95.2,24c0.2-0.2,0.5-0.4,0.7-0.5c0.1-0.1,0.2-0.1,0.3-0.2c0.3-0.3,0.6-0.5,0.9-0.8c-0.2,0.1-0.5,0.2-0.7,0.3
		c-0.1,0-0.2,0.1-0.3,0.1C96,23,95.8,23,95.7,23c-0.1,0-0.3,0.1-0.4,0.1c-0.1,0-0.2,0.1-0.3,0.1c-0.1,0-0.3,0.1-0.4,0.1
		c-0.1,0-0.1,0-0.2,0c-0.2,0-0.3,0-0.5,0.1c0,0-0.1,0-0.1,0c-0.2,0-0.3,0-0.5,0c0,0-0.1,0-0.1,0c-0.2,0-0.3,0-0.5,0c0,0,0,0,0,0
		c-0.2,0-0.3,0-0.5-0.1c-1.6-0.3-2.8-1.2-3.7-2.7c-11.3-19.4-18.1-6.4-18.1-6.4c-8.3-11-15.5,5-18.8,6.4c-1.1,0.5-2.2,0.7-3.1,0.8
		c-1.4,0.2-2.6,0-3-0.1l0,0c-0.1,0-0.1,0-0.2,0c0,0,0,0,0,0c0,0,0,0,0,0c0,0,0,0,0,0c0.2,0.2,0.5,0.4,0.7,0.6
		c0.1,0.1,0.1,0.1,0.2,0.1c0.2,0.1,0.3,0.3,0.5,0.4c0.1,0,0.1,0.1,0.2,0.1c0.2,0.1,0.4,0.3,0.5,0.4c0,0,0.1,0,0.1,0.1
		c0.2,0.2,0.4,0.3,0.6,0.4l0,0h0c0.7,0.5,1.3,0.9,1.9,1.2c4.3,2.7,9.6,2.9,14.3,1.4c1.6-0.5,2.5-1.3,3.8-2.4
		c0.1-0.1,0.2-0.2,0.3-0.2c0.2,0,0.3,0.1,0.5,0.2c0.7,0.4,1.4,0.7,2.2,0.7c0.8,0,1.6-0.5,1.9-1.2c1.4,1.4,3.3,2.2,5.1,2.8
		c3.6,1.3,9.2,2.6,12.7,0.6c1.5-0.8,3-1.6,4.4-2.6C95.1,24.2,95.2,24.1,95.2,24z M77.9,23.9c-0.5-0.2-1.1-0.4-1.6-0.7
		C76.2,23.1,76,23,76,22.9c0-0.1,0.1-0.2,0.1-0.3c0.5-0.7,0.8-1.5,0.9-2.3c-1.6,1.5-3.7,2.1-5.9,2.2c-2.1,0-4.2-0.6-6.2-1.4
		c0.4,0.4,1,1.4,0.8,1.9c-0.2,0.5-1.1,0.7-1.6,0.9c-4.3,1.3-9.1,1.3-13.1-0.7c0.3-0.1,0.5-0.2,0.8-0.3c3.3-1.5,10.5-17.4,18.8-6.4
		c0,0,6.8-12.9,18.1,6.4c0.4,0.7,0.9,1.3,1.5,1.7c-0.1,0-2.9,0.8-3.3,0.8c-1.2,0.1-2.4,0-3.6-0.2C81.6,24.9,79.7,24.5,77.9,23.9z"/>
	<path class="st93" d="M65.8,25.8c-0.2,0,2.3-1.5,2.5-2c0,0,3.3,1.1,5.1,0.2c0,0,4.5,1.9,3.5,2.1c-0.3,0.1-4.5,1.1-5.9,3.7
		C71,29.7,67.2,25.5,65.8,25.8z"/>
	<path class="st93" d="M93.7,24.7c-0.9,0.5-2.2,1.2-3.6,1.6c-1.4,0.4-2.8,0.7-3.8,0.7c-0.5,0-1,0-1.3,0c-0.3,0-0.5,0-0.5,0
		s-0.7,0-1.8-0.1c-1.1-0.1-2.5-0.3-3.9-0.7c-1.4-0.4-2.7-0.9-3.7-1.4c-0.6-0.3-1.1-0.6-1.4-0.8c0.1,0,0.2-0.1,0.3-0.1
		c1.3-0.8,2.3-1.8,2.3-1.9c-0.1-0.2-1.4,0.6-2.6,1.1c-0.6,0.3-1.3,0.4-1.8,0.5c-0.5,0-0.8,0-0.8,0s-0.1,0-0.2,0c-0.1,0-0.3,0-0.6,0
		c-0.5-0.1-1.1-0.3-1.8-0.5c-1.3-0.5-2.7-1-2.8-0.8c-0.1,0.1,1,0.8,2.1,1.4c-0.3,0.2-0.6,0.4-1,0.8c-0.8,0.6-2,1.3-3.3,1.7
		c-1.3,0.4-2.7,0.5-3.7,0.5c-1,0-1.7-0.1-1.7-0.1s-0.2,0-0.5,0c-0.3,0-0.7-0.1-1.2-0.1c-1-0.1-2.4-0.4-3.7-0.9
		c-2.6-0.9-5-2.5-5.1-2.4c-0.1,0.1,2.1,2,4.8,3.2c1.3,0.6,2.7,1,3.8,1.2c0.5,0.1,1,0.2,1.3,0.2c0.3,0,0.5,0.1,0.5,0.1s0.7,0.1,1.8,0
		c1.1-0.1,2.6-0.2,4-0.8c0.6-0.2,1.2-0.5,1.7-0.9c0,0,0.1,0,0.1,0c0.4,0.1,0.9,0.3,1.3,0.7c0.4,0.3,0.9,0.7,1.2,0.9
		c0.3,0.3,0.6,0.4,0.6,0.4s1,0.6,1.8,1.3c0.4,0.3,0.8,0.7,1.1,1c0.3,0.3,0.5,0.5,0.6,0.5c0.1,0,0-0.3-0.2-0.7
		c-0.1-0.3-0.3-0.6-0.6-0.9c0,0,0,0,0.1,0c0.3-0.2,0.7-0.5,1-0.7c0.6-0.5,1.3-0.9,1.3-0.9s0.6-0.5,1.4-0.8c0.5-0.2,1-0.4,1.3-0.5
		c0.6,0.3,1.3,0.6,2,0.9c1.4,0.5,2.9,0.8,4,1c1.1,0.1,1.9,0.2,1.9,0.2s0.2,0,0.5,0c0.3,0,0.8,0,1.4-0.1c1.1-0.1,2.6-0.5,4-1
		c1.4-0.5,2.7-1.3,3.6-2c0.9-0.7,1.4-1.2,1.3-1.3C95.2,23.8,94.6,24.2,93.7,24.7z M75,26c-0.9,0.2-1.8,0.6-1.8,0.6s-0.2,0.1-0.5,0.4
		c-0.3,0.2-0.6,0.6-0.9,0.9c-0.3,0.4-0.5,0.7-0.7,1c0,0,0,0,0,0c0,0-0.1-0.1-0.1-0.1c-0.4-0.5-0.8-0.9-1.2-1.2
		c-0.3-0.3-0.6-0.5-0.6-0.5s-0.3-0.2-0.6-0.4c-0.4-0.2-0.9-0.5-1.4-0.7c-0.4-0.2-0.8-0.3-1.2-0.3c0.4-0.3,0.7-0.6,1-0.9
		c0.4-0.4,0.7-0.8,0.9-1c0,0,0.1,0,0.1,0.1c0.6,0.4,1.3,0.7,1.9,0.8c0.3,0.1,0.5,0.1,0.7,0.1c0.2,0,0.3,0,0.3,0s0.1,0,0.3,0
		c0.2,0,0.4,0,0.7-0.1c0.5-0.1,1-0.3,1.6-0.6c0.2,0.2,0.6,0.6,1.3,1.1c0.3,0.2,0.6,0.4,1,0.6C75.7,25.9,75.3,26,75,26z"/>
	<path class="st92" d="M60.4,36c0,0-3.5-5.7,1.2-7.5c4.8-1.8,7.1,3.2,10.6,3.1c3.5-0.2,6.2-5.8,10.9-0.9S69.4,49.3,60.4,36z"/>
	<g>
		<g class="st94">
			<path class="st95" d="M63,34.3c-1.7,5.4,9.9,7.9,12.4,3.6c0.4-0.7,0.2-1.7-0.5-2.1c-2.1-1.2-5-0.7-7.3-1.5
				C66.7,34.1,63.5,32.7,63,34.3L63,34.3z"/>
		</g>
		<g class="st94">
			<path class="st95" d="M77.3,37.1c0.7-0.2,1.6-0.8,1.4-1.7c-0.1-0.3-0.4-0.5-0.7-0.4c-0.3,0.1-0.5,0.3-0.7,0.5
				c0,0-0.1,0.1-0.1,0.1c0,0,0,0,0,0c0,0,0,0-0.1,0c0,0-0.1,0-0.1,0.1c-0.2,0.1,0.1,0-0.1,0c-0.4,0.1-0.6,0.5-0.5,0.9
				C76.5,37,76.9,37.2,77.3,37.1L77.3,37.1z"/>
		</g>
		<g class="st94">
			<path class="st95" d="M58.7,21.7c1.8-0.2,3.1-1.8,4.9-2.1c1.2-0.3,2.4,0.3,3.6,0.4c1.3,0.1,2.1-0.3,3.1-1.1
				c0.7-0.6,0.6-1.9,0-2.5c-2.1-1.9-5.9-2.2-8.4-0.9c-1.8,0.9-4.1,3.3-3.9,5.5C58,21.3,58.2,21.7,58.7,21.7L58.7,21.7z"/>
		</g>
		<g class="st94">
			<path class="st95" d="M74.4,17.9c0.7,0.7,1.7,0.5,2.6,0.7c1.4,0.4,2.3,1.4,3.4,2.3c1,0.9,4.2,3.1,5,0.9c0.8-2.2-2.5-5-4-6
				c-2-1.4-5.1-2.1-6.9,0.1c-0.4,0.5-0.6,1.2-0.2,1.8C74.3,17.7,74.3,17.8,74.4,17.9L74.4,17.9z"/>
		</g>
	</g>
	<path class="st96" d="M61,17.9c-0.2,0.1-0.3-0.2-0.2-0.3c0.2-0.4,0.3-0.9,0.7-1.2c0.4-0.3,0.9-0.5,1.3-0.7c0.5-0.2,0.9-0.3,1.4-0.4
		c0.5,0,0.9,0.2,1.3,0.4c0.3,0.2,0.3,0.7,0,0.8c-0.4,0.2-0.6,0.5-1.1,0.6c-0.4,0.1-0.7,0.1-1.1,0.2c-0.4,0.1-0.8,0.3-1.2,0.4
		C61.8,17.9,61.4,17.8,61,17.9L61,17.9z M67.1,17.1c0.4,0,0.6,0,0.8-0.3c0.1-0.1,0.1-0.2,0-0.3c-0.2-0.3-0.5-0.3-0.8-0.3
		C66.5,16.1,66.5,17,67.1,17.1L67.1,17.1z M77.3,16.8c0.4,0.6,1.2,0.9,1.8,1.3c0.6,0.4,1.2,0.9,1.9,0.8c0.2,0,0.4-0.1,0.4-0.3
		c0.2-0.9-0.5-1.6-1.2-2c-0.6-0.4-1.7-1-2.5-0.8C77.3,15.8,77,16.3,77.3,16.8L77.3,16.8z M66.8,37.9c0.7,0.6,1.6,0.9,2.4,1.1
		c0.9,0.2,1.6,0.3,2.2-0.3c0.2-0.2,0.2-0.4,0.1-0.6c-0.3-0.8-0.9-0.9-1.7-1.1c-0.8-0.2-1.7-0.5-2.4-0.4
		C66.7,36.6,66.2,37.4,66.8,37.9L66.8,37.9z M73.1,38.5c0.2,0,0.3,0,0.5-0.1c0.2-0.1,0.3-0.2,0.4-0.4c0.1-0.2,0-0.6-0.2-0.7
		c-0.2-0.1-0.3-0.2-0.5-0.1c-0.2,0-0.3,0.1-0.5,0.2C72.3,37.7,72.5,38.5,73.1,38.5L73.1,38.5z"/>
</g>
</svg>
