<?xml version="1.0" encoding="utf-8"?>
<!-- Generator: Adobe Illustrator 22.0.1, SVG Export Plug-In . SVG Version: 6.00 Build 0)  -->
<svg version="1.1" xmlns="http://www.w3.org/2000/svg" xmlns:xlink="http://www.w3.org/1999/xlink" x="0px" y="0px"
	 viewBox="0 0 55 55" style="enable-background:new 0 0 55 55;" xml:space="preserve">
<style type="text/css">
	.st0{fill:#666666;}
	.st1{display:none;}
	.st2{display:inline;}
	.st3{fill:#FF91AF;}
	.st4{fill:#C8CD5F;}
	.st5{display:inline;fill:#73C3BE;}
	.st6{fill:#96C34B;}
	.st7{fill:#AA8CB4;}
	.st8{fill:#DC7800;}
</style>
<g id="圖層_1">
</g>
<g id="圖層_2">
	<path class="st0" d="M40.1,15.4H15.3c-2.3,0-4.1,1.9-4.1,4.1v24.8c0,2.3,1.9,4.1,4.1,4.1h12.4V37.1h-4.1v-5.2h4.1v-4.1
		c0-3.4,2.8-6.2,6.2-6.2H38v5.2h-2.1c-1.1,0-2.1-0.1-2.1,1v4.1H39L37,37.1h-3.1v11.3h6.2c2.3,0,4.1-1.9,4.1-4.1V19.6
		C44.2,17.3,42.3,15.4,40.1,15.4z"/>
</g>
<g id="圖層_2_拷貝" class="st1">
	<path class="st5" d="M40.1,15.4H15.3c-2.3,0-4.1,1.9-4.1,4.1v24.8c0,2.3,1.9,4.1,4.1,4.1h12.4V37.1h-4.1v-5.2h4.1v-4.1
		c0-3.4,2.8-6.2,6.2-6.2H38v5.2h-2.1c-1.1,0-2.1-0.1-2.1,1v4.1H39L37,37.1h-3.1v11.3h6.2c2.3,0,4.1-1.9,4.1-4.1V19.6
		C44.2,17.3,42.3,15.4,40.1,15.4z"/>
</g>
</svg>
