<?xml version="1.0" encoding="utf-8"?>
<!-- Generator: Adobe Illustrator 22.0.1, SVG Export Plug-In . SVG Version: 6.00 Build 0)  -->
<svg version="1.1" xmlns="http://www.w3.org/2000/svg" xmlns:xlink="http://www.w3.org/1999/xlink" x="0px" y="0px"
	 viewBox="0 0 55 55" style="enable-background:new 0 0 55 55;" xml:space="preserve">
<style type="text/css">
	.st0{fill:#666666;}
	.st1{display:none;}
	.st2{display:inline;}
	.st3{fill:#FF91AF;}
	.st4{fill:#C8CD5F;}
	.st5{display:inline;fill:#73C3BE;}
	.st6{fill:#96C34B;}
	.st7{fill:#AA8CB4;}
	.st8{fill:#DC7800;}
</style>
<g id="圖層_1">
</g>
<g id="圖層_2">
	<g>
		<path class="st0" d="M48.2,37.2c-0.5-0.5-1.1-0.7-1.7-0.7H34.6L31.2,40c-1,0.9-2.1,1.4-3.5,1.4c-1.3,0-2.5-0.5-3.5-1.4l-3.4-3.5
			H8.9c-0.7,0-1.3,0.2-1.7,0.7c-0.5,0.5-0.7,1.1-0.7,1.7v8.1c0,0.7,0.2,1.3,0.7,1.7c0.5,0.5,1.1,0.7,1.7,0.7h37.5
			c0.7,0,1.3-0.2,1.7-0.7c0.5-0.5,0.7-1.1,0.7-1.7V39C48.9,38.3,48.6,37.7,48.2,37.2L48.2,37.2z M38.6,45.8
			c-0.3,0.3-0.7,0.5-1.1,0.5c-0.4,0-0.8-0.2-1.1-0.5c-0.3-0.3-0.5-0.7-0.5-1.1c0-0.4,0.2-0.8,0.5-1.1c0.3-0.3,0.7-0.5,1.1-0.5
			c0.4,0,0.8,0.2,1.1,0.5c0.3,0.3,0.5,0.7,0.5,1.1C39.1,45.1,38.9,45.5,38.6,45.8L38.6,45.8z M45.1,45.8c-0.3,0.3-0.7,0.5-1.1,0.5
			s-0.8-0.2-1.1-0.5c-0.3-0.3-0.5-0.7-0.5-1.1c0-0.4,0.2-0.8,0.5-1.1c0.3-0.3,0.7-0.5,1.1-0.5s0.8,0.2,1.1,0.5
			c0.3,0.3,0.5,0.7,0.5,1.1C45.6,45.1,45.5,45.5,45.1,45.8L45.1,45.8z M45.1,45.8"/>
		<path class="st0" d="M26.5,37.7c0.3,0.3,0.7,0.5,1.1,0.5c0.5,0,0.8-0.2,1.1-0.5l11.4-11.4c0.5-0.5,0.6-1.1,0.4-1.8
			c-0.3-0.7-0.8-1-1.5-1h-6.5V12.1c0-0.4-0.2-0.8-0.5-1.1c-0.3-0.3-0.7-0.5-1.1-0.5h-6.5c-0.4,0-0.8,0.2-1.1,0.5
			c-0.3,0.3-0.5,0.7-0.5,1.1v11.4h-6.5c-0.7,0-1.2,0.3-1.5,1c-0.3,0.7-0.2,1.3,0.4,1.8L26.5,37.7z M26.5,37.7"/>
	</g>
</g>
<g id="圖層_2_拷貝" class="st1">
	<g class="st2">
		<path class="st4" d="M48.2,37.2c-0.5-0.5-1.1-0.7-1.7-0.7H34.6L31.2,40c-1,0.9-2.1,1.4-3.5,1.4c-1.3,0-2.5-0.5-3.5-1.4l-3.4-3.5
			H8.9c-0.7,0-1.3,0.2-1.7,0.7c-0.5,0.5-0.7,1.1-0.7,1.7v8.1c0,0.7,0.2,1.3,0.7,1.7c0.5,0.5,1.1,0.7,1.7,0.7h37.5
			c0.7,0,1.3-0.2,1.7-0.7c0.5-0.5,0.7-1.1,0.7-1.7V39C48.9,38.3,48.6,37.7,48.2,37.2L48.2,37.2z M38.6,45.8
			c-0.3,0.3-0.7,0.5-1.1,0.5c-0.4,0-0.8-0.2-1.1-0.5c-0.3-0.3-0.5-0.7-0.5-1.1c0-0.4,0.2-0.8,0.5-1.1c0.3-0.3,0.7-0.5,1.1-0.5
			c0.4,0,0.8,0.2,1.1,0.5c0.3,0.3,0.5,0.7,0.5,1.1C39.1,45.1,38.9,45.5,38.6,45.8L38.6,45.8z M45.1,45.8c-0.3,0.3-0.7,0.5-1.1,0.5
			s-0.8-0.2-1.1-0.5c-0.3-0.3-0.5-0.7-0.5-1.1c0-0.4,0.2-0.8,0.5-1.1c0.3-0.3,0.7-0.5,1.1-0.5s0.8,0.2,1.1,0.5
			c0.3,0.3,0.5,0.7,0.5,1.1C45.6,45.1,45.5,45.5,45.1,45.8L45.1,45.8z M45.1,45.8"/>
		<path class="st4" d="M26.5,37.7c0.3,0.3,0.7,0.5,1.1,0.5c0.5,0,0.8-0.2,1.1-0.5l11.4-11.4c0.5-0.5,0.6-1.1,0.4-1.8
			c-0.3-0.7-0.8-1-1.5-1h-6.5V12.1c0-0.4-0.2-0.8-0.5-1.1c-0.3-0.3-0.7-0.5-1.1-0.5h-6.5c-0.4,0-0.8,0.2-1.1,0.5
			c-0.3,0.3-0.5,0.7-0.5,1.1v11.4h-6.5c-0.7,0-1.2,0.3-1.5,1c-0.3,0.7-0.2,1.3,0.4,1.8L26.5,37.7z M26.5,37.7"/>
	</g>
</g>
</svg>
