<?xml version="1.0" encoding="utf-8"?>
<!-- Generator: Adobe Illustrator 22.0.1, SVG Export Plug-In . SVG Version: 6.00 Build 0)  -->
<svg version="1.1" xmlns="http://www.w3.org/2000/svg" xmlns:xlink="http://www.w3.org/1999/xlink" x="0px" y="0px"
	 viewBox="0 0 55 55" style="enable-background:new 0 0 55 55;" xml:space="preserve">
<style type="text/css">
	.st0{fill:#666666;}
	.st1{display:none;}
	.st2{display:inline;}
	.st3{fill:#FF91AF;}
	.st4{fill:#C8CD5F;}
	.st5{display:inline;fill:#73C3BE;}
	.st6{fill:#96C34B;}
	.st7{fill:#AA8CB4;}
	.st8{fill:#DC7800;}
</style>
<g id="圖層_1">
</g>
<g id="圖層_2">
	<g>
		<path class="st0" d="M51.5,24.4c0,0.1,0,0.3,0,0.4l-3.2,12.8c-0.2,0.6-0.7,1.1-1.4,1.1l-19.2,0.1H8.3c-0.7,0-1.3-0.5-1.4-1.1
			L3.7,24.9c0-0.1,0-0.3,0-0.4c-1.2-0.4-2.1-1.6-2.1-2.9c0-1.7,1.4-3.1,3.1-3.1c1.7,0,3.1,1.4,3.1,3.1c0,1-0.4,1.8-1.1,2.4l4,4
			c1,1,2.4,1.6,3.9,1.6c1.7,0,3.3-0.8,4.4-2.2l6.6-8.7c-0.6-0.6-0.9-1.3-0.9-2.2c0-1.7,1.4-3.1,3.1-3.1c1.7,0,3.1,1.4,3.1,3.1
			c0,0.8-0.3,1.6-0.9,2.1c0,0,0,0,0,0l6.6,8.8c1,1.4,2.7,2.2,4.4,2.2c1.5,0,2.8-0.6,3.8-1.6l4-4c-0.7-0.6-1.1-1.4-1.1-2.4
			c0-1.7,1.4-3.1,3.1-3.1c1.7,0,3.1,1.4,3.1,3.1C53.5,22.9,52.6,24,51.5,24.4L51.5,24.4z M47.9,43.5c0-0.8-0.7-1.5-1.5-1.5H8.7
			c-0.8,0-1.5,0.7-1.5,1.5V47c0,0.8,0.7,1.5,1.5,1.5h37.7c0.8,0,1.5-0.7,1.5-1.5V43.5z M47.9,43.5"/>
	</g>
</g>
<g id="圖層_2_拷貝" class="st1">
	<g class="st2">
		<path class="st3" d="M51.5,24.4c0,0.1,0,0.3,0,0.4l-3.2,12.8c-0.2,0.6-0.7,1.1-1.4,1.1l-19.2,0.1H8.3c-0.7,0-1.3-0.5-1.4-1.1
			L3.7,24.9c0-0.1,0-0.3,0-0.4c-1.2-0.4-2.1-1.6-2.1-2.9c0-1.7,1.4-3.1,3.1-3.1c1.7,0,3.1,1.4,3.1,3.1c0,1-0.4,1.8-1.1,2.4l4,4
			c1,1,2.4,1.6,3.9,1.6c1.7,0,3.3-0.8,4.4-2.2l6.6-8.7c-0.6-0.6-0.9-1.3-0.9-2.2c0-1.7,1.4-3.1,3.1-3.1c1.7,0,3.1,1.4,3.1,3.1
			c0,0.8-0.3,1.6-0.9,2.1c0,0,0,0,0,0l6.6,8.8c1,1.4,2.7,2.2,4.4,2.2c1.5,0,2.8-0.6,3.8-1.6l4-4c-0.7-0.6-1.1-1.4-1.1-2.4
			c0-1.7,1.4-3.1,3.1-3.1c1.7,0,3.1,1.4,3.1,3.1C53.5,22.9,52.6,24,51.5,24.4L51.5,24.4z M47.9,43.5c0-0.8-0.7-1.5-1.5-1.5H8.7
			c-0.8,0-1.5,0.7-1.5,1.5V47c0,0.8,0.7,1.5,1.5,1.5h37.7c0.8,0,1.5-0.7,1.5-1.5V43.5z M47.9,43.5"/>
	</g>
</g>
</svg>
