<?xml version="1.0" encoding="utf-8"?>
<!-- Generator: Adobe Illustrator 22.0.1, SVG Export Plug-In . SVG Version: 6.00 Build 0)  -->
<svg version="1.1" xmlns="http://www.w3.org/2000/svg" xmlns:xlink="http://www.w3.org/1999/xlink" x="0px" y="0px"
	 viewBox="0 0 55 55" style="enable-background:new 0 0 55 55;" xml:space="preserve">
<style type="text/css">
	.st0{fill:#666666;}
	.st1{display:none;}
	.st2{display:inline;}
	.st3{fill:#FF91AF;}
	.st4{fill:#C8CD5F;}
	.st5{display:inline;fill:#73C3BE;}
	.st6{fill:#96C34B;}
	.st7{fill:#AA8CB4;}
	.st8{fill:#DC7800;}
</style>
<g id="圖層_1">
</g>
<g id="圖層_2">
	<g>
		<path class="st0" d="M20.1,27.1c1.3,0,2.4-0.9,2.7-2.1c0.1-0.2,0.1-0.5,0.1-0.7V17h-4.7l-0.8,7.5c0,0.2,0,0.4,0.1,0.6
			C17.7,26.3,18.8,27.1,20.1,27.1L20.1,27.1z M20.1,27.1"/>
		<path class="st0" d="M12.7,27.1c1.3,0,2.4-0.9,2.7-2.1c0.1-0.2,0.1-0.5,0.1-0.7c0,0,0-0.1,0-0.1l0.8-7.3h-5.5l-0.8,7.5
			c0,0.2,0,0.4,0.1,0.6C10.3,26.3,11.4,27.1,12.7,27.1L12.7,27.1z M12.7,27.1"/>
		<rect x="34" y="35.5" class="st0" width="7.4" height="13"/>
		<rect x="13.6" y="35.5" class="st0" width="13" height="7.4"/>
		<path class="st0" d="M46.9,48.4V28c-0.4-0.3-0.7-0.6-0.9-0.9c-0.9,1.2-2.2,1.9-3.7,1.9c-1.5,0-2.8-0.7-3.7-1.9
			c-0.9,1.2-2.2,1.9-3.7,1.9s-2.8-0.7-3.7-1.9C30.3,28.3,29,29,27.5,29c-1.5,0-2.8-0.7-3.7-1.9c-0.9,1.2-2.2,1.9-3.7,1.9
			c-1.5,0-2.8-0.7-3.7-1.9c-0.9,1.2-2.2,1.9-3.7,1.9S9.8,28.3,9,27.1c-0.3,0.3-0.6,0.7-0.9,0.9v20.4h24.1V34.5
			c0-0.5,0.4-0.9,0.9-0.9h9.3c0.5,0,0.9,0.4,0.9,0.9v13.9H46.9z M28.4,43.8c0,0.5-0.4,0.9-0.9,0.9H12.7c-0.5,0-0.9-0.4-0.9-0.9v-9.3
			c0-0.5,0.4-0.9,0.9-0.9h14.8c0.5,0,0.9,0.4,0.9,0.9V43.8z M28.4,43.8"/>
		<path class="st0" d="M27.5,27.1c1.3,0,2.4-0.9,2.7-2.1c0.1-0.2,0.1-0.5,0.1-0.7V17h-5.6v7.4c0,0.2,0,0.5,0.1,0.7
			C25.1,26.3,26.2,27.1,27.5,27.1L27.5,27.1z M27.5,27.1"/>
		<path class="st0" d="M4.2,17l-1.7,7.5c0,1.5,1.3,2.7,2.8,2.7c0.5,0,1-0.1,1.4-0.4c0.6-0.4,1.1-1,1.3-1.7c0.1-0.2,0.1-0.5,0.1-0.7
			c0,0,0-0.1,0-0.1L8.9,17H4.2z M4.2,17"/>
		<path class="st0" d="M47.9,17h-1.7l0.8,7.3c0,0,0,0.1,0,0.1c0,0.2,0,0.5,0.1,0.7c0.2,0.7,0.7,1.3,1.3,1.7c0.4,0.2,0.9,0.4,1.4,0.4
			c1.5,0,2.7-1.2,2.8-2.7L50.8,17H47.9z M47.9,17"/>
		<rect x="3.8" y="13.3" class="st0" width="47.4" height="1.9"/>
		<path class="st0" d="M39.5,24.4c0,0.2,0,0.5,0.1,0.7c0.3,1.2,1.4,2.1,2.7,2.1c1.3,0,2.4-0.8,2.7-2.1c0.1-0.2,0.1-0.4,0.1-0.6
			L44.3,17h-5.5l0.8,7.3C39.5,24.3,39.5,24.3,39.5,24.4L39.5,24.4z M39.5,24.4"/>
		<path class="st0" d="M34.9,27.1c1.3,0,2.4-0.9,2.7-2.1c0.1-0.2,0.1-0.4,0.1-0.6L36.9,17h-4.7v7.4c0,0.2,0,0.5,0.1,0.7
			C32.5,26.3,33.6,27.1,34.9,27.1L34.9,27.1z M34.9,27.1"/>
	</g>
</g>
<g id="圖層_2_拷貝" class="st1">
	<g class="st2">
		<path class="st8" d="M20.1,27.1c1.3,0,2.4-0.9,2.7-2.1c0.1-0.2,0.1-0.5,0.1-0.7V17h-4.7l-0.8,7.5c0,0.2,0,0.4,0.1,0.6
			C17.7,26.3,18.8,27.1,20.1,27.1L20.1,27.1z M20.1,27.1"/>
		<path class="st8" d="M12.7,27.1c1.3,0,2.4-0.9,2.7-2.1c0.1-0.2,0.1-0.5,0.1-0.7c0,0,0-0.1,0-0.1l0.8-7.3h-5.5l-0.8,7.5
			c0,0.2,0,0.4,0.1,0.6C10.3,26.3,11.4,27.1,12.7,27.1L12.7,27.1z M12.7,27.1"/>
		<rect x="34" y="35.5" class="st8" width="7.4" height="13"/>
		<rect x="13.6" y="35.5" class="st8" width="13" height="7.4"/>
		<path class="st8" d="M46.9,48.4V28c-0.4-0.3-0.7-0.6-0.9-0.9c-0.9,1.2-2.2,1.9-3.7,1.9c-1.5,0-2.8-0.7-3.7-1.9
			c-0.9,1.2-2.2,1.9-3.7,1.9s-2.8-0.7-3.7-1.9C30.3,28.3,29,29,27.5,29c-1.5,0-2.8-0.7-3.7-1.9c-0.9,1.2-2.2,1.9-3.7,1.9
			c-1.5,0-2.8-0.7-3.7-1.9c-0.9,1.2-2.2,1.9-3.7,1.9S9.8,28.3,9,27.1c-0.3,0.3-0.6,0.7-0.9,0.9v20.4h24.1V34.5
			c0-0.5,0.4-0.9,0.9-0.9h9.3c0.5,0,0.9,0.4,0.9,0.9v13.9H46.9z M28.4,43.8c0,0.5-0.4,0.9-0.9,0.9H12.7c-0.5,0-0.9-0.4-0.9-0.9v-9.3
			c0-0.5,0.4-0.9,0.9-0.9h14.8c0.5,0,0.9,0.4,0.9,0.9V43.8z M28.4,43.8"/>
		<path class="st8" d="M27.5,27.1c1.3,0,2.4-0.9,2.7-2.1c0.1-0.2,0.1-0.5,0.1-0.7V17h-5.6v7.4c0,0.2,0,0.5,0.1,0.7
			C25.1,26.3,26.2,27.1,27.5,27.1L27.5,27.1z M27.5,27.1"/>
		<path class="st8" d="M4.2,17l-1.7,7.5c0,1.5,1.3,2.7,2.8,2.7c0.5,0,1-0.1,1.4-0.4c0.6-0.4,1.1-1,1.3-1.7c0.1-0.2,0.1-0.5,0.1-0.7
			c0,0,0-0.1,0-0.1L8.9,17H4.2z M4.2,17"/>
		<path class="st8" d="M47.9,17h-1.7l0.8,7.3c0,0,0,0.1,0,0.1c0,0.2,0,0.5,0.1,0.7c0.2,0.7,0.7,1.3,1.3,1.7c0.4,0.2,0.9,0.4,1.4,0.4
			c1.5,0,2.7-1.2,2.8-2.7L50.8,17H47.9z M47.9,17"/>
		<rect x="3.8" y="13.3" class="st8" width="47.4" height="1.9"/>
		<path class="st8" d="M39.5,24.4c0,0.2,0,0.5,0.1,0.7c0.3,1.2,1.4,2.1,2.7,2.1c1.3,0,2.4-0.8,2.7-2.1c0.1-0.2,0.1-0.4,0.1-0.6
			L44.3,17h-5.5l0.8,7.3C39.5,24.3,39.5,24.3,39.5,24.4L39.5,24.4z M39.5,24.4"/>
		<path class="st8" d="M34.9,27.1c1.3,0,2.4-0.9,2.7-2.1c0.1-0.2,0.1-0.4,0.1-0.6L36.9,17h-4.7v7.4c0,0.2,0,0.5,0.1,0.7
			C32.5,26.3,33.6,27.1,34.9,27.1L34.9,27.1z M34.9,27.1"/>
	</g>
</g>
</svg>
