<?xml version="1.0" encoding="utf-8"?>
<!-- Generator: Adobe Illustrator 22.0.1, SVG Export Plug-In . SVG Version: 6.00 Build 0)  -->
<svg version="1.1" xmlns="http://www.w3.org/2000/svg" xmlns:xlink="http://www.w3.org/1999/xlink" x="0px" y="0px"
	 viewBox="0 0 55 55" style="enable-background:new 0 0 55 55;" xml:space="preserve">
<style type="text/css">
	.st0{fill:#666666;}
	.st1{display:none;}
	.st2{display:inline;}
	.st3{fill:#FF91AF;}
	.st4{fill:#C8CD5F;}
	.st5{display:inline;fill:#73C3BE;}
	.st6{fill:#96C34B;}
	.st7{fill:#AA8CB4;}
	.st8{fill:#DC7800;}
</style>
<g id="圖層_1">
</g>
<g id="圖層_2">
	<g>
		<g>
			<path class="st0" d="M28.8,21.6c0,0.8-0.6,1.4-1.4,1.4c-0.8,0-1.4-0.6-1.4-1.4c0-0.8,0.6-1.4,1.4-1.4
				C28.2,20.2,28.8,20.8,28.8,21.6L28.8,21.6z M28.8,21.6"/>
			<path class="st0" d="M38.3,40.1c-0.7-0.4-0.6-1-0.6-1.4v-5.7c2-0.4,6.3-0.4,6.3-4.4c0-1.9-1.6-2.6-3.5-2.5
				c-1.5,0.2-2.3,1.2-4.9,0.2c-0.3-0.1-1.3-0.9-0.7-1.6c1.3-1.6,2.1-3.8,2.1-6.1c0-0.4,0-1.1,0.3-1.3c1.7-0.7,2.9-2.5,2.9-4.6
				c0-2.7-2.2-5-4.9-5c-1.5,0-2.8,0.7-3.7,1.7c-0.1,0.1-0.2,0.3-0.6,0.1c-1.2-0.6-2.2-0.7-3.7-0.7c-1.5,0-2.6,0.2-3.9,0.9
				c-0.4,0.1-0.7-0.3-0.9-0.5c-0.9-0.9-2.1-1.4-3.4-1.4c-2.7,0-4.9,2.2-4.9,5c0,2.1,1.3,3.9,3.1,4.6c0.2,0.1,0.4,0.3,0.5,1.2
				c0.1,2.3,0.8,4.4,2.1,6.1c0.5,0.6,0,1.4-0.7,1.6c-2.6,0.8-3.3-0.1-4.8-0.2c-1.9-0.2-3.5,0.5-3.5,2.5c0,3.8,4.4,4,6.3,4.4v5.8
				c0,0.4,0.1,1-0.8,1.6c-2.5,1-6,1.1-6,4.5c0,2.1,1.7,4.2,3.8,3.8c2.6-0.5,3.9-1.4,7.8-3.1c0.8-0.4,1.4-0.2,1.8-0.1
				c1.1,0.2,2.3,0.2,3.6,0.2c1.4,0,2.7-0.1,3.9-0.3c0.3-0.1,1-0.1,1.7,0.2c3.8,1.8,5,2.6,7.6,3.1c2.1,0.4,3.8-1.7,3.8-3.8
				C44.5,41.3,40.7,41.1,38.3,40.1L38.3,40.1z M32.1,23c0,2.1-2.1,3.7-4.7,3.7c-2.6,0-4.7-1.7-4.7-3.7s2.1-3.7,4.7-3.7
				C30,19.3,32.1,20.9,32.1,23L32.1,23z M20.6,16.9c0-0.9,0.8-1.7,1.7-1.7c0.9,0,1.7,0.8,1.7,1.7s-0.8,1.7-1.7,1.7
				C21.3,18.6,20.6,17.8,20.6,16.9L20.6,16.9z M33.2,37.8c0,3.2-2.6,4.6-5.7,4.6c-3.2,0-5.7-1.4-5.7-4.6v-2.7c0-3.2,2.6-5.7,5.7-5.7
				c3.2,0,5.7,2.6,5.7,5.7V37.8z M31.9,18.6c-0.9,0-1.7-0.8-1.7-1.7c0-0.9,0.8-1.7,1.7-1.7c0.9,0,1.7,0.8,1.7,1.7
				C33.6,17.8,32.8,18.6,31.9,18.6L31.9,18.6z M31.9,18.6"/>
		</g>
	</g>
</g>
<g id="圖層_2_拷貝" class="st1">
	<g class="st2">
		<g>
			<path class="st6" d="M28.8,21.6c0,0.8-0.6,1.4-1.4,1.4c-0.8,0-1.4-0.6-1.4-1.4c0-0.8,0.6-1.4,1.4-1.4
				C28.2,20.2,28.8,20.8,28.8,21.6L28.8,21.6z M28.8,21.6"/>
			<path class="st6" d="M38.3,40.1c-0.7-0.4-0.6-1-0.6-1.4v-5.7c2-0.4,6.3-0.4,6.3-4.4c0-1.9-1.6-2.6-3.5-2.5
				c-1.5,0.2-2.3,1.2-4.9,0.2c-0.3-0.1-1.3-0.9-0.7-1.6c1.3-1.6,2.1-3.8,2.1-6.1c0-0.4,0-1.1,0.3-1.3c1.7-0.7,2.9-2.5,2.9-4.6
				c0-2.7-2.2-5-4.9-5c-1.5,0-2.8,0.7-3.7,1.7c-0.1,0.1-0.2,0.3-0.6,0.1c-1.2-0.6-2.2-0.7-3.7-0.7c-1.5,0-2.6,0.2-3.9,0.9
				c-0.4,0.1-0.7-0.3-0.9-0.5c-0.9-0.9-2.1-1.4-3.4-1.4c-2.7,0-4.9,2.2-4.9,5c0,2.1,1.3,3.9,3.1,4.6c0.2,0.1,0.4,0.3,0.5,1.2
				c0.1,2.3,0.8,4.4,2.1,6.1c0.5,0.6,0,1.4-0.7,1.6c-2.6,0.8-3.3-0.1-4.8-0.2c-1.9-0.2-3.5,0.5-3.5,2.5c0,3.8,4.4,4,6.3,4.4v5.8
				c0,0.4,0.1,1-0.8,1.6c-2.5,1-6,1.1-6,4.5c0,2.1,1.7,4.2,3.8,3.8c2.6-0.5,3.9-1.4,7.8-3.1c0.8-0.4,1.4-0.2,1.8-0.1
				c1.1,0.2,2.3,0.2,3.6,0.2c1.4,0,2.7-0.1,3.9-0.3c0.3-0.1,1-0.1,1.7,0.2c3.8,1.8,5,2.6,7.6,3.1c2.1,0.4,3.8-1.7,3.8-3.8
				C44.5,41.3,40.7,41.1,38.3,40.1L38.3,40.1z M32.1,23c0,2.1-2.1,3.7-4.7,3.7c-2.6,0-4.7-1.7-4.7-3.7s2.1-3.7,4.7-3.7
				C30,19.3,32.1,20.9,32.1,23L32.1,23z M20.6,16.9c0-0.9,0.8-1.7,1.7-1.7c0.9,0,1.7,0.8,1.7,1.7s-0.8,1.7-1.7,1.7
				C21.3,18.6,20.6,17.8,20.6,16.9L20.6,16.9z M33.2,37.8c0,3.2-2.6,4.6-5.7,4.6c-3.2,0-5.7-1.4-5.7-4.6v-2.7c0-3.2,2.6-5.7,5.7-5.7
				c3.2,0,5.7,2.6,5.7,5.7V37.8z M31.9,18.6c-0.9,0-1.7-0.8-1.7-1.7c0-0.9,0.8-1.7,1.7-1.7c0.9,0,1.7,0.8,1.7,1.7
				C33.6,17.8,32.8,18.6,31.9,18.6L31.9,18.6z M31.9,18.6"/>
		</g>
	</g>
</g>
</svg>
