<?xml version="1.0" encoding="utf-8"?>
<!-- Generator: Adobe Illustrator 22.0.1, SVG Export Plug-In . SVG Version: 6.00 Build 0)  -->
<svg version="1.1" xmlns="http://www.w3.org/2000/svg" xmlns:xlink="http://www.w3.org/1999/xlink" x="0px" y="0px"
	 viewBox="0 0 55 55" style="enable-background:new 0 0 55 55;" xml:space="preserve">
<style type="text/css">
	.st0{display:none;}
	.st1{display:inline;}
	.st2{fill:#666666;}
	.st3{display:inline;fill:#666666;}
	.st4{fill:#FF91AF;}
	.st5{fill:#C8CD5F;}
	.st6{fill:#73C3BE;}
	.st7{fill:#96C34B;}
	.st8{fill:#AA8CB4;}
	.st9{fill:#DC7800;}
</style>
<g id="圖層_1">
</g>
<g id="圖層_2" class="st0">
	<g class="st1">
		<path class="st2" d="M36.4,32.9L36.4,32.9L36.4,32.9L36.4,32.9l-9.9-2.1l-7.1,3.8l0.1,0.1l-0.1,0v11.6l9.6,2.3l7.4-4.1l0-11.4
			L36.4,32.9z M28.5,47.9l-8.6-2V35.3l8.6,1.9V47.9z M28.5,47.9"/>
		<path class="st2" d="M39,10.8l-4.5-3.7H16V13h23V10.8z M39,10.8"/>
		<path class="st2" d="M48,14.4H7c-1.3,0-2.3,1-2.3,2.3v16.9C4.7,35,5.7,36,7,36h11.4v-1l-0.2-0.3h-0.5V28h20.1v6.7h-0.5l0,1.4H48
			c1.3,0,2.3-1,2.3-2.3V16.8C50.3,15.5,49.2,14.4,48,14.4L48,14.4z M19.1,19.9H9.2v-1.3h9.9V19.9z M44.3,21.5c-1.2,0-2.3-1-2.3-2.3
			c0-1.2,1-2.3,2.3-2.3c1.2,0,2.3,1,2.3,2.3C46.5,20.5,45.5,21.5,44.3,21.5L44.3,21.5z M44.3,21.5"/>
	</g>
</g>
<g id="圖層_2_拷貝">
	<g>
		<path class="st8" d="M36.4,32.9L36.4,32.9L36.4,32.9L36.4,32.9l-9.9-2.1l-7.1,3.8l0.1,0.1l-0.1,0v11.6l9.6,2.3l7.4-4.1l0-11.4
			L36.4,32.9z M28.5,47.9l-8.6-2V35.3l8.6,1.9V47.9z M28.5,47.9"/>
		<path class="st8" d="M39,10.8l-4.5-3.7H16V13h23V10.8z M39,10.8"/>
		<path class="st8" d="M48,14.4H7c-1.3,0-2.3,1-2.3,2.3v16.9C4.7,35,5.7,36,7,36h11.4v-1l-0.2-0.3h-0.5V28h20.1v6.7h-0.5l0,1.4H48
			c1.3,0,2.3-1,2.3-2.3V16.8C50.3,15.5,49.2,14.4,48,14.4L48,14.4z M19.1,19.9H9.2v-1.3h9.9V19.9z M44.3,21.5c-1.2,0-2.3-1-2.3-2.3
			c0-1.2,1-2.3,2.3-2.3c1.2,0,2.3,1,2.3,2.3C46.5,20.5,45.5,21.5,44.3,21.5L44.3,21.5z M44.3,21.5"/>
	</g>
</g>
</svg>
