<?xml version="1.0" encoding="utf-8"?>
<!-- Generator: Adobe Illustrator 21.1.0, SVG Export Plug-In . SVG Version: 6.00 Build 0)  -->
<svg version="1.1" id="圖層_1" xmlns="http://www.w3.org/2000/svg" xmlns:xlink="http://www.w3.org/1999/xlink" x="0px" y="0px"
	 viewBox="0 0 166.5 72" style="enable-background:new 0 0 166.5 72;" xml:space="preserve">
<style type="text/css">
	.st0{fill:#ACADAE;}
	.st1{fill:#FFFFFF;}
	.st2{fill:#F3E1A0;}
	.st3{fill:#F9C898;}
	.st4{fill:#C7371D;}
	.st5{fill:#E60012;}
	.st6{opacity:0.19;fill:#231815;enable-background:new    ;}
	.st7{fill:#D9B166;}
	.st8{fill:#138B3B;}
	.st9{opacity:0.53;fill:#231815;enable-background:new    ;}
	.st10{opacity:0.31;fill:#231815;enable-background:new    ;}
	.st11{fill:#4590AD;}
	.st12{fill:#69BDE6;}
	.st13{fill:#EAAA56;}
	.st14{fill:#131313;}
</style>
<g>
	<path class="st13" d="M73.4,19.4c-0.2,0-11.1,0.7-15.5,6c-1.3-1.4,1.4-4.1-2.3-9.3c-2.8-3.9-8.3-5.4-12.7-6.5
		c-7.2-1.8-9.3-0.3-10.6-0.9c-0.9-0.4-3.6-1.3-2.8-1.9c3.5-2.1,22.3-2.1,31.3,5.4s7.8,4.5,12.3,6.7C73.3,19,73.4,19.1,73.4,19.4z"/>
	<path class="st14" d="M136.2,32.5c-1.5-0.6-5-1.7-13.6-3.3c-14.4-2.7-15.6-1.7-15.6-1.7c-3.1,1.7-6,15.6-11.6,15.6
		s-21.3-20.5-22-23.6c-0.2,0-11.1,0.7-15.5,6c3.5,3.2,16.5,19.3,22.8,27.3c8.6,11,12.4,17,29.7,17c18,0,21.2-7.7,23.7-12.4
		c2.2-4.1,2.9-19.2,3.1-23.1C137.2,33.4,136.8,32.7,136.2,32.5z"/>
</g>
</svg>
