<?xml version="1.0" encoding="utf-8"?>
<!-- Generator: Adobe Illustrator 21.1.0, SVG Export Plug-In . SVG Version: 6.00 Build 0)  -->
<svg version="1.1" id="圖層_1" xmlns="http://www.w3.org/2000/svg" xmlns:xlink="http://www.w3.org/1999/xlink" x="0px" y="0px"
	 viewBox="0 0 166.5 72" style="enable-background:new 0 0 166.5 72;" xml:space="preserve">
<style type="text/css">
	.st0{fill:#ACADAE;}
	.st1{fill:#FFFFFF;}
	.st2{fill:#F3E1A0;}
	.st3{fill:#F9C898;}
	.st4{fill:#C7371D;}
	.st5{fill:#E60012;}
	.st6{opacity:0.19;fill:#231815;enable-background:new    ;}
	.st7{fill:#D9B166;}
	.st8{fill:#138B3B;}
	.st9{opacity:0.53;fill:#231815;enable-background:new    ;}
	.st10{opacity:0.31;fill:#231815;enable-background:new    ;}
	.st11{fill:#4590AD;}
	.st12{fill:#69BDE6;}
	.st13{fill:#EAAA56;}
	.st14{fill:#131313;}
</style>
<g>
	<path class="st5" d="M39.2,35.8c2-3.2,2.7-6.6,3.1-9.9c0-0.5,0.4-1.1,0.8-1.5c1.6-1.6,3.2-3.1,5.1-4.5c0.7-0.5,1.6-1.2,2.7-1.5
		c5.1-1.7,9.8-3.7,13.9-6.2c2.7-1.6,3.2-4.5-0.5-5.8c-4.1-1.3-8-2.8-12.2-4.1c-0.7-0.3-2-0.1-2.7,0.1c-1.1,0.4-2,1.1-2.8,1.6
		c-1.2,0.9-2.1,2-3.3,3.3c-0.5-1.2-1.1-2.1-1.3-3.2c-0.3-0.9-1.1-1.6-2.3-2L25.9,2.6C25.3,2.8,24.7,2.9,24,3
		c-1.3,0.3-1.6,0.8-0.9,1.5c0.9,0.9,2,1.7,2.9,2.7c3.6,3.2,7.4,6.4,11.1,9.8c-1.3,1.2-2.7,2.4-4,3.6c-2.9-0.1-5.6-0.1-8.3-0.3
		c-5.8-0.1-11.6-0.4-17.4-0.5c-1.1,0-2.5-0.1-2.4,0.9c0.3,2.5,0.5,5.1,4.1,6.8c0.5,0.3,1.1,0.7,1.5,0.9c0.9,0.7,2.1,0.8,3.6,0.5
		c2-0.4,4.1-0.7,6.7-0.9c-0.8,0.5-1.2,0.9-1.6,1.2c-1.1,1.2-2.3,2.3-3.2,3.5c-0.5,0.7-0.4,1.3,0.8,1.7c4.4,1.3,8.8,2.8,13.4,4.1
		c0.9,0.3,2.3,0.3,3.5,0.1C36.7,38.3,38.3,37.3,39.2,35.8z"/>
	<path class="st5" d="M33.6,20.4c0.3,3.5,0.7,7,1.2,10.3c0.9,6,2.3,11.9,4.9,17.4c0.7,1.5,1.3,2.9,2,4.3c1.5,2.7,3.5,5.1,6,7.1
		c1.7,1.3,3.5,2.4,5.3,3.3c0.5,0.3,1.1,0.5,1.5,0.8c0.4,0.1,0.8,0.4,1.2,0.5c0.1,0,0.1,0.1,0.3,0.1c0.9,0.4,2,0.8,2.9,1.2
		c0.1,0.1,0.4,0.1,0.5,0.3c5.9,2.1,12.2,3.5,18.5,4.3l0,0c0.1,0,0.3,0,0.4,0c5.9,0.8,11.8,1.1,17.8,1.2c2,0,4,0,5.9-0.1
		c4-0.3,8-0.5,11.9-0.9c0.5,0,0.9-0.1,1.2-0.1c6.7-0.9,13.6-2.5,20.5-5.1c2.4-0.9,4.8-2,7-3.3c2.7-1.6,5.2-3.5,7-6
		c0.9-1.3,1.9-2.8,2.7-4.4c0.8-1.6,1.7-3.2,2.4-4.9c1.7-4.4,2.9-9,3.7-13.6c0.8-4.1,1.2-8.2,1.6-12.3C159.7,20.7,100,85.5,33.6,20.4
		z"/>
	<path class="st6" d="M35,24.6h-0.1c0,0.8,0,1.6,0.1,2.4c0.1,2.7,0.4,5.5,0.7,8.2c0,0.4,0,0.7,0,0.8c0.8,4.5,2.1,9.4,4.4,14
		c0.8,1.6,1.9,3.3,2.9,4.8c1.5,1.9,3.1,3.6,5.3,4.8c1.2,0.7,2.5,1.3,3.9,1.9c1.5,0.7,2.9,1.2,4.4,1.7c4,1.2,8.2,2.1,12.3,2.8
		c3.7,0.5,7.5,0.9,11.2,1.3C80.4,67.2,39.1,61.3,35,24.6z"/>
	<path class="st6" d="M5.7,20.3L5.7,20.3c0.3,0.3,0.4,0.5,0.7,0.8c0.8,0.8,1.6,1.5,2.5,2.3C9,23.5,9,23.5,9.2,23.6
		c1.5,1.2,3.1,2.3,4.9,3.2c0.7,0.3,1.3,0.5,2,0.7c0.8,0.3,1.7,0.3,2.5,0.1c0.4-0.1,0.9-0.3,1.3-0.4c0.5-0.1,0.9-0.4,1.5-0.5
		c1.2-0.5,2.3-1.3,3.3-2.1c0.9-0.7,1.9-1.5,2.7-2.3C27.5,22.1,17.2,30.3,5.7,20.3z"/>
	<path class="st6" d="M71.1,61.7v0.1c1.5,0.1,2.9,0.3,4.4,0.4c4.9,0.4,9.9,0.8,14.8,1.1c0.7,0,1.2,0.1,1.5,0.1
		c8.3,0.3,17,0,25.7-0.9c3.1-0.4,6-0.9,9-1.6c3.5-0.9,6.7-2,9.1-3.7c1.3-0.9,2.5-2,3.6-3.1c1.2-1.2,2.4-2.4,3.3-3.6
		c2.5-3.2,4.3-6.8,5.8-10.3c1.2-3.2,2.3-6.4,2.9-9.6C151.2,30.3,138.1,65.6,71.1,61.7z"/>
</g>
</svg>
