<?xml version="1.0" encoding="utf-8"?>
<!-- Generator: Adobe Illustrator 21.1.0, SVG Export Plug-In . SVG Version: 6.00 Build 0)  -->
<svg version="1.1" id="圖層_1" xmlns="http://www.w3.org/2000/svg" xmlns:xlink="http://www.w3.org/1999/xlink" x="0px" y="0px"
	 viewBox="0 0 166.5 72" style="enable-background:new 0 0 166.5 72;" xml:space="preserve">
<style type="text/css">
	.st0{fill:#ACADAE;}
	.st1{fill:#FFFFFF;}
	.st2{fill:#F3E1A0;}
	.st3{fill:#F9C898;}
	.st4{fill:#C7371D;}
	.st5{fill:#E60012;}
	.st6{opacity:0.19;fill:#231815;enable-background:new    ;}
	.st7{fill:#D9B166;}
	.st8{fill:#138B3B;}
	.st9{opacity:0.53;fill:#231815;enable-background:new    ;}
	.st10{opacity:0.31;fill:#231815;enable-background:new    ;}
	.st11{fill:#4590AD;}
	.st12{fill:#69BDE6;}
	.st13{fill:#EAAA56;}
	.st14{fill:#131313;}
</style>
<g>
	<path class="st7" d="M10.6,2.7c0.3,4.5,0.7,9.1,1.5,13.6c1.2,7.9,2.8,15.5,6,22.9c0.9,1.9,1.6,3.9,2.5,5.7c1.8,3.6,4.2,6.7,7.3,9.3
		c2.1,1.6,4.2,3.1,6.6,4.3c0.6,0.3,1.2,0.6,1.8,1c0.4,0.3,0.9,0.4,1.3,0.6c0.1,0,0.1,0.1,0.3,0.1c1.2,0.6,2.4,1,3.6,1.5
		c0.3,0.1,0.4,0.1,0.6,0.3c7.2,2.8,14.8,4.5,22.4,5.5l0,0c0.1,0,0.3,0,0.4,0c7.2,1,14.5,1.5,21.7,1.6c2.4,0,4.8,0,7.2-0.1
		c4.9-0.3,9.7-0.7,14.6-1.2c0.6,0,1.2-0.1,1.5-0.1c8.1-1.2,16.6-3.3,25-6.6c3-1.2,5.8-2.7,8.5-4.5c3.3-2.1,6.3-4.6,8.5-7.9
		c1.2-1.8,2.2-3.7,3.3-5.7c1-2.1,2.1-4.2,2.8-6.4c2.1-5.8,3.6-11.8,4.5-17.9c0.9-5.4,1.5-10.8,1.9-16.3C164.5,3,91.6,88.1,10.6,2.7z
		"/>
	<path class="st8" d="M21.2,27.6c-2.4,0-4.5,0.7-6.3,2.1c0.9,3.1,1.9,6.3,3.3,9.4c0.9,1.9,1.6,3.9,2.5,5.7c0.7,1.3,1.5,2.7,2.2,3.9
		c4.9-0.9,8.8-5.2,8.8-10.5C31.7,32.4,27.1,27.6,21.2,27.6z"/>
	<path class="st8" d="M68.9,54.5c-6,0-10.8,4.8-10.8,10.8c0,0.4,0,0.9,0.1,1.3c2.1,0.4,4.3,0.7,6.6,1l0,0c0.1,0,0.3,0,0.4,0
		c4.5,0.7,9.1,1,13.7,1.3c0.4-1.2,0.7-2.4,0.7-3.7C79.7,59.3,74.9,54.5,68.9,54.5z"/>
	<circle class="st8" cx="115.1" cy="50.3" r="8.8"/>
	<path class="st8" d="M152.9,45.2c-5.2,0-9.6,4.3-9.6,9.6c0,0.7,0.1,1.3,0.3,2.1c0,0,0.1,0,0.1-0.1c3.3-2.1,6.3-4.6,8.5-7.9
		c0.7-1.2,1.3-2.4,2.1-3.6C153.8,45.4,153.3,45.2,152.9,45.2z"/>
	<path class="st8" d="M156.6,10.9c1.2,2.4,3.7,3.9,6.6,3.9c0.1,0,0.3,0,0.4,0c0.6-4,1-8.1,1.3-12.1C164.8,2.7,161.8,6.1,156.6,10.9z
		"/>
	<circle class="st8" cx="50.5" cy="45.8" r="3.4"/>
	<path class="st9" d="M6.3,18.6c-0.7-0.4-1.5-0.9-1.9-1.3c-0.4-0.3-0.7-0.7-0.9-1.2c-0.1-0.3-0.1-0.7,0-1c1.2-1.5,2.4-3,3.4-4.6
		c1-1.3,3-1.2,3.9,0c1.3,1.6,2.4,3.6,3.3,5.5c0.1,0.4,0.4,0.7,0.9,1c0.9,0.7,1.8,1.5,2.7,2.1c0.3,0.1,0.6,0.3,1,0.3
		c2.2,0.3,4.3,0.6,6.4,1.5c0.9,0.4,1.5,1,1.6,2.1c0,0.4,0,1-0.3,1.3c-1.2,1.6-2.4,3.4-3.6,5.1c-0.3,0.4-0.7,0.4-1.2,0.3
		c-0.7-0.4-1.5-0.9-2.2-1.3c-0.1-0.1-0.4-0.3-0.7-0.6c0.1,1,0.1,1.8,0.3,2.7c0.1,0.6-0.1,1-0.6,1.3c-0.3,0.1-0.6,0.3-0.7,0.6
		c-1.3,1.3-3,1.5-4.8,1.5c-0.7,0-0.6-0.4-0.6-0.9c0.4-2.2,0.9-4.5,1.3-6.7c0.1-1,0.4-2.1,0.7-3.3c-0.7-0.6-1.5-1-2.2-1.6
		c-2.4,1.3-4.8,2.7-7.2,4c-0.6,0.3-1.3,0.7-1.9,1c-0.4,0.3-0.7,0.1-0.9-0.4c-0.1-0.9-0.4-1.6-0.6-2.5c0-0.4,0-0.7,0.1-1.2
		c0.1-0.6,0.4-1,0.6-1.6c0.1-1,0.7-1.5,1.8-1.5C4.8,18.9,5.4,18.8,6.3,18.6z"/>
	<path class="st6" d="M89.8,69v0.3c1.5,0,3-0.1,4.3-0.1c4.9-0.3,9.7-0.7,14.6-1.2c0.6,0,1.2-0.1,1.5-0.1c8.1-1.2,16.6-3.3,25-6.6
		c3-1.2,5.8-2.7,8.5-4.5c3.3-2.1,6.3-4.6,8.5-7.9c1.2-1.8,2.2-3.7,3.3-5.7c1-2.1,2.1-4.2,2.8-6.4c2.1-5.8,3.6-11.8,4.5-17.9
		c0.9-5.4,1.5-10.8,1.9-16.3C164.8,2.7,155.6,62.1,89.8,69z"/>
	<path class="st7" d="M24.7,21c-2.1-0.9-4.2-1.2-6.4-1.5c-0.3,0-0.7-0.1-1-0.3c-0.9-0.6-1.9-1.3-2.7-2.1c-0.3-0.3-0.6-0.7-0.9-1
		c-0.9-1.9-1.9-3.9-3.3-5.5c-0.9-1-2.8-1.3-3.9,0c-1.2,1.5-2.4,3-3.4,4.6c-0.1,0.3-0.1,0.7,0,1c0.1,0.4,0.6,0.7,0.9,1.2
		c0.6,0.4,1.2,0.9,1.9,1.3c-0.7,0.1-1.5,0.3-2.2,0.4c-0.7,0.1-1.2,0.3-1.5,0.9l-0.6,5.4c0,0.3,0.1,0.4,0.1,0.7
		c0.1,0.6,0.4,0.6,0.9,0.4c0.6-0.3,1.3-0.7,1.9-1c2.4-1.3,4.8-2.7,7.2-4c0.7,0.6,1.5,1.2,2.2,1.6c-0.3,1.2-0.4,2.2-0.7,3.3
		c-0.4,2.2-0.9,4.5-1.3,6.7c-0.1,0.4-0.3,0.9,0.6,0.9c1.8,0,3.4,0,4.8-1.5c0.1-0.3,0.4-0.4,0.7-0.6c0.4-0.3,0.7-0.7,0.6-1.3
		c-0.1-0.7-0.1-1.6-0.3-2.7c0.3,0.3,0.6,0.4,0.7,0.6c0.7,0.4,1.5,0.9,2.2,1.3c0.4,0.1,0.9,0.1,1.2-0.3c1.2-1.6,2.4-3.3,3.6-5.1
		c0.3-0.3,0.3-0.9,0.3-1.3C26.2,22.1,25.6,21.3,24.7,21z"/>
	<path class="st10" d="M8,19.8c0,0-4.2,0.4-4.5,1c-0.4,0.4-0.6,1.2-0.6,1.2L8,19.8z"/>
	<path class="st10" d="M14.1,24.9c0,0,0.9,4.5-0.6,5.4c-1.5,1,2.8-0.7,2.8-1.6C16.2,27.8,14.1,24.9,14.1,24.9z"/>
	<path class="st10" d="M18.9,22.2c1.6,1.2,5.5,3.7,6.6,3l0.3-0.6C25.7,24.8,18.9,22.2,18.9,22.2z"/>
	<path class="st10" d="M19.3,24.2c-0.9-1-3-1.8-4-2.1l6.9,5.7C22.1,27.8,20.5,25.7,19.3,24.2z"/>
	<path class="st10" d="M6.5,10.4l-2.1,2.8c0.4-0.6,4,1.8,5.7,3.1C10,16.2,6.5,10.4,6.5,10.4z"/>
	<path class="st10" d="M16.3,18.5c0,0-3.7,1.6-3.7,2.8c0,1,0,1,0,1s0.7-1.2,1.2-1.6C14.1,20.3,16.3,18.5,16.3,18.5z"/>
</g>
</svg>
