<?xml version="1.0" encoding="utf-8"?>
<!-- Generator: Adobe Illustrator 21.1.0, SVG Export Plug-In . SVG Version: 6.00 Build 0)  -->
<svg version="1.1" id="圖層_1" xmlns="http://www.w3.org/2000/svg" xmlns:xlink="http://www.w3.org/1999/xlink" x="0px" y="0px"
	 viewBox="0 0 166.5 111" style="enable-background:new 0 0 166.5 111;" xml:space="preserve">
<style type="text/css">
	.st0{fill:#ACADAE;}
	.st1{fill:#FFFFFF;}
	.st2{fill:#F3E1A0;}
	.st3{fill:#F9C898;}
	.st4{fill:#C7371D;}
	.st5{fill:#E60012;}
	.st6{opacity:0.19;fill:#231815;enable-background:new    ;}
	.st7{fill:#D9B166;}
	.st8{fill:#138B3B;}
	.st9{opacity:0.53;fill:#231815;enable-background:new    ;}
	.st10{opacity:0.31;fill:#231815;enable-background:new    ;}
	.st11{fill:#4590AD;}
	.st12{fill:#69BDE6;}
	.st13{fill:#EAAA56;}
	.st14{fill:#131313;}
</style>
<g>
	<path class="st0" d="M21.9,22.8c0,0-16.6,4.3,0,9c0,0-11.1,12.8,3,10c0,0-9.1,13.8,3.4,10.5c0,0-13.4,13.4,4.3,9.6
		c0,0-10.7,15.5,6.1,10.1c0,0-12.2,11.8,5.9,7.5c0,0-6,12.4,8.2,8.1c0,0-3.9,15.4,9.5,6.7c0,0-0.9,13.8,10.7,4.8
		c0,0,4,15.7,11.6,2.1c0,0,7.7,10.8,11.5-1.4c0,0,9.4,9.5,8.9-4.2c0,0,12.4,10.9,8.1-5.4c0,0,13.8,8.9,7.1-7.3c0,0,17.6,5.6,5.9-8.3
		c0,0,19.9,2.8,5.2-9.6c0,0,20.6,4.1,3.6-8.7c0,0,21.3,1.4,3-9.3c0,0,24.7-0.2,3.3-12.5c0,0,19.3-4.1,1.9-9.1c0,0,20.4-4.6,1.4-8.6
		C144.6,16.7,100.9,117.1,21.9,22.8z"/>
	<path class="st1" d="M23.9,21.3c0,0-16.3,4.2,0,8.9c0,0-10.9,12.5,2.9,9.7c0,0-9,13.6,3.4,10.3c0,0-13.1,13.1,4.3,9.4
		c0,0-10.5,15.1,6,9.8c0,0-12,11.6,5.7,7.4c0,0-5.9,12.1,8,7.9c0,0-3.7,15.1,9.3,6.6c0,0-0.9,13.6,10.5,4.7c0,0,4,15.5,11.4,2
		c0,0,7.6,10.5,11.2-1.4c0,0,9.1,9.3,8.8-4.1c0,0,12.2,10.7,8-5.4c0,0,13.6,8.7,7-7.1c0,0,17.2,5.5,5.7-8.2c0,0,19.6,2.8,5-9.5
		c0,0,20.3,4,3.5-8.6c0,0,20.9,1.4,3-9c0,0,24.3-0.2,3.2-12.3c0,0,19-4,1.8-8.9c0,0,20-4.6,1.4-8.3
		C144.3,15.3,101.4,113.7,23.9,21.3z"/>
</g>
<path class="st2" d="M144.7,16.7c-20.5,137.8-119.1,74.8-118.5,0C55.9,34.9,95.6,39,144.7,16.7z"/>
<path class="st3" d="M80.4,32.1c-10.3,0-20.4-1.2-30.2-3.6c-24.5-6-38.6-17-39.1-17.5c-0.9-0.7-1.1-2-0.4-2.9s2-1.1,2.9-0.4l0,0
	c0.1,0.1,14.1,11,37.7,16.8c21.8,5.3,56.5,7,98.1-14.6c1.1-0.6,2.3-0.1,2.8,0.9c0.6,1.1,0.1,2.3-0.9,2.8
	c-18.9,9.8-38.1,15.8-56.8,17.8C89.8,31.9,85.1,32.1,80.4,32.1z"/>
<path class="st4" d="M85.9,48.8c-8.3-17.7-32.3-13.5-32.5,6.9C53.3,67,64.8,71.2,72.5,75.7C79.9,80,85.2,86,86,88.6
	c0.7-2.5,6.6-8.7,13.5-13c7.5-4.8,19.1-8.7,19.1-19.9C118.4,35.1,94,31.9,85.9,48.8z"/>
</svg>
