<?xml version="1.0" encoding="utf-8"?>
<!-- Generator: Adobe Illustrator 21.1.0, SVG Export Plug-In . SVG Version: 6.00 Build 0)  -->
<svg version="1.1" id="圖層_1" xmlns="http://www.w3.org/2000/svg" xmlns:xlink="http://www.w3.org/1999/xlink" x="0px" y="0px"
	 viewBox="0 0 166.5 72" style="enable-background:new 0 0 166.5 72;" xml:space="preserve">
<style type="text/css">
	.st0{fill:#ACADAE;}
	.st1{fill:#FFFFFF;}
	.st2{fill:#F3E1A0;}
	.st3{fill:#F9C898;}
	.st4{fill:#C7371D;}
	.st5{fill:#E60012;}
	.st6{opacity:0.19;fill:#231815;enable-background:new    ;}
	.st7{fill:#D9B166;}
	.st8{fill:#138B3B;}
	.st9{opacity:0.53;fill:#231815;enable-background:new    ;}
	.st10{opacity:0.31;fill:#231815;enable-background:new    ;}
	.st11{fill:#4590AD;}
	.st12{fill:#69BDE6;}
	.st13{fill:#EAAA56;}
	.st14{fill:#131313;}
</style>
<g>
	<path class="st11" d="M155.7,22.1l-0.2-2.4c-0.7-8.8-8.9-15.1-17.7-13.5C126,8.2,86,26.9,86,26.9v5.2h-1.3v-5.2
		c0,0-39.9-18.7-51.8-20.7C24.1,4.6,16,10.9,15.2,19.7L15,22.1c-1,11.2-1,22.5,0,33.6l0.2,2.4c1,8.9,9.1,15.2,17.8,13.7l0,0
		c11.8-2,51.8-20.7,51.8-20.7v-7.6h1.3v7.6c0,0,39.9,18.7,51.8,20.7l0,0c8.8,1.5,16.9-4.8,17.7-13.5l0.2-2.4
		C156.8,44.6,156.8,33.3,155.7,22.1z"/>
	<path class="st12" d="M155.7,18.2l-0.2-2.4c-0.7-8.8-8.9-15.1-17.7-13.5C126,4.3,86,22.9,86,22.9v5.2h-1.3v-5.2
		c0,0-39.9-18.7-51.8-20.7C24.1,0.7,16,7,15.2,15.8L15,18.2c-1,11.2-1,22.5,0,33.6l0.2,2.4c0.7,8.8,8.9,15.1,17.7,13.5l0,0
		c11.8-2,51.8-20.7,51.8-20.7v-7.6H86v7.6c0,0,39.9,18.7,51.8,20.7l0,0c8.8,1.5,16.9-4.8,17.7-13.5l0.2-2.4
		C156.8,40.6,156.8,29.4,155.7,18.2z"/>
	<g>
		<path class="st1" d="M28.6,7.9c1.9,0,3.4-1.5,3.4-3.4c0-1-0.4-1.9-1.1-2.5c-1.9-0.1-3.7,0.2-5.3,0.7c-0.2,0.5-0.5,1.1-0.5,1.7
			C25.2,6.3,26.7,7.9,28.6,7.9z"/>
		<path class="st1" d="M41.2,7.9c1.4,0,2.7-1,3.2-2.3c-2.4-0.8-4.5-1.7-6.5-2.3c-0.1,0.4-0.1,0.6-0.1,1C37.8,6.3,39.3,7.9,41.2,7.9z
			"/>
		<path class="st1" d="M129.7,7.9c1.9,0,3.4-1.5,3.4-3.4c0-0.4-0.1-0.7-0.1-1c-1.9,0.6-4.2,1.3-6.5,2.3C127,6.9,128.2,7.9,129.7,7.9
			z"/>
		<path class="st1" d="M138.9,4.4c0,1.9,1.5,3.4,3.4,3.4s3.4-1.5,3.4-3.4c0-0.6-0.1-1.2-0.5-1.7c-1.7-0.6-3.6-0.8-5.5-0.7
			C139.2,2.5,138.9,3.5,138.9,4.4z"/>
		<path class="st1" d="M19.5,16.4c0-1.9-1.5-3.4-3.4-3.4h-0.1c-0.2,0.8-0.5,1.8-0.5,2.7l-0.2,2.4c0,0.5-0.1,1.1-0.1,1.5
			c0.4,0.1,0.6,0.1,1,0.1C17.9,19.9,19.5,18.3,19.5,16.4z"/>
		<circle class="st1" cx="28.6" cy="16.4" r="3.4"/>
		<circle class="st1" cx="41.2" cy="16.4" r="3.4"/>
		<circle class="st1" cx="53.9" cy="16.4" r="3.4"/>
		<path class="st1" d="M63.1,16.4c0,1.9,1.5,3.4,3.4,3.4c1.9,0,3.4-1.5,3.4-3.4c0-0.1,0-0.2,0-0.2c-1.8-0.8-3.7-1.5-5.6-2.4
			C63.6,14.4,63.1,15.3,63.1,16.4z"/>
		<path class="st1" d="M104.4,19.9c1.9,0,3.4-1.5,3.4-3.4c0-1.1-0.5-2-1.3-2.7c-1.9,0.8-3.8,1.7-5.6,2.4c0,0.1,0,0.2,0,0.2
			C101,18.3,102.5,19.9,104.4,19.9z"/>
		<circle class="st1" cx="117" cy="16.4" r="3.4"/>
		<circle class="st1" cx="129.7" cy="16.4" r="3.4"/>
		<circle class="st1" cx="142.3" cy="16.4" r="3.4"/>
		<path class="st1" d="M151.5,16.4c0,1.9,1.5,3.4,3.4,3.4c0.4,0,0.7-0.1,1-0.1c0-0.5-0.1-1.1-0.1-1.5l-0.2-2.4
			c-0.1-1-0.2-1.9-0.5-2.7h-0.1C153,13,151.5,14.5,151.5,16.4z"/>
		<path class="st1" d="M19.5,28.4c0-1.9-1.5-3.4-3.4-3.4c-0.5,0-1,0.1-1.3,0.2c-0.1,2.1-0.2,4.2-0.2,6.3c0.5,0.2,1,0.4,1.5,0.4
			C17.9,31.9,19.5,30.3,19.5,28.4z"/>
		<circle class="st1" cx="28.6" cy="28.4" r="3.4"/>
		<circle class="st1" cx="41.2" cy="28.4" r="3.4"/>
		<circle class="st1" cx="53.9" cy="28.4" r="3.4"/>
		<circle class="st1" cx="66.5" cy="28.4" r="3.4"/>
		<circle class="st1" cx="79.1" cy="28.4" r="3.4"/>
		<circle class="st1" cx="91.8" cy="28.4" r="3.4"/>
		<circle class="st1" cx="104.4" cy="28.4" r="3.4"/>
		<circle class="st1" cx="117" cy="28.4" r="3.4"/>
		<circle class="st1" cx="129.7" cy="28.4" r="3.4"/>
		<circle class="st1" cx="142.3" cy="28.4" r="3.4"/>
		<path class="st1" d="M151.5,28.4c0,1.9,1.5,3.4,3.4,3.4c0.6,0,1.1-0.1,1.5-0.4c0-2.1-0.1-4.2-0.2-6.3c-0.4-0.1-0.8-0.2-1.3-0.2
			C153,25,151.5,26.5,151.5,28.4z"/>
		<path class="st1" d="M19.5,40.4c0-1.9-1.5-3.4-3.4-3.4c-0.6,0-1.1,0.1-1.5,0.4c0,2,0.1,4.2,0.1,6.2c0.5,0.2,0.8,0.2,1.4,0.2
			C17.9,43.9,19.5,42.3,19.5,40.4z"/>
		<circle class="st1" cx="28.6" cy="40.4" r="3.4"/>
		<circle class="st1" cx="41.2" cy="40.4" r="3.4"/>
		<circle class="st1" cx="53.9" cy="40.4" r="3.4"/>
		<circle class="st1" cx="66.5" cy="40.4" r="3.4"/>
		<circle class="st1" cx="79.1" cy="40.4" r="3.4"/>
		<circle class="st1" cx="91.8" cy="40.4" r="3.4"/>
		<circle class="st1" cx="104.4" cy="40.4" r="3.4"/>
		<circle class="st1" cx="117" cy="40.4" r="3.4"/>
		<circle class="st1" cx="129.7" cy="40.4" r="3.4"/>
		<circle class="st1" cx="142.3" cy="40.4" r="3.4"/>
		<path class="st1" d="M151.5,40.4c0,1.9,1.5,3.4,3.4,3.4c0.5,0,1-0.1,1.4-0.2c0.1-2,0.1-4.2,0.1-6.2c-0.5-0.2-1-0.4-1.5-0.4
			C153,37,151.5,38.5,151.5,40.4z"/>
		<path class="st1" d="M19.5,52.4c0-1.9-1.5-3.4-3.4-3.4c-0.4,0-0.7,0.1-1.1,0.2c0.1,0.8,0.1,1.8,0.2,2.6l0.2,2.4
			c0,0.6,0.1,1.1,0.2,1.5c0.1,0,0.2,0,0.4,0C17.9,55.8,19.5,54.3,19.5,52.4z"/>
		<circle class="st1" cx="28.6" cy="52.4" r="3.4"/>
		<circle class="st1" cx="41.2" cy="52.4" r="3.4"/>
		<circle class="st1" cx="53.9" cy="52.4" r="3.4"/>
		<path class="st1" d="M66.5,49c-1.9,0-3.4,1.5-3.4,3.4c0,1.5,1.1,2.9,2.5,3.3c1.4-0.6,2.7-1.2,4-1.8c0.2-0.5,0.4-1,0.4-1.5
			C70,50.5,68.4,49,66.5,49z"/>
		<path class="st1" d="M75.9,51.2c1.7-0.7,3.1-1.4,4.4-2c-0.4-0.1-0.7-0.2-1.2-0.2C77.7,49,76.5,49.9,75.9,51.2z"/>
		<path class="st1" d="M91.8,49c-0.4,0-0.8,0.1-1.2,0.2c1.3,0.6,2.7,1.2,4.4,2C94.4,49.9,93.2,49,91.8,49z"/>
		<path class="st1" d="M107.9,52.4c0-1.9-1.5-3.4-3.4-3.4c-1.9,0-3.4,1.5-3.4,3.4c0,0.6,0.1,1.1,0.4,1.5c1.3,0.6,2.6,1.2,4,1.8
			C106.8,55.4,107.9,54.1,107.9,52.4z"/>
		<circle class="st1" cx="117" cy="52.4" r="3.4"/>
		<circle class="st1" cx="129.7" cy="52.4" r="3.4"/>
		<circle class="st1" cx="142.3" cy="52.4" r="3.4"/>
		<path class="st1" d="M151.5,52.4c0,1.9,1.5,3.4,3.4,3.4c0.1,0,0.2,0,0.4,0c0.1-0.5,0.2-1.1,0.2-1.5l0.2-2.4
			c0.1-0.8,0.1-1.8,0.2-2.6c-0.4-0.1-0.7-0.2-1.1-0.2C153,49,151.5,50.5,151.5,52.4z"/>
		<path class="st1" d="M18.2,61.8c0.2,0.4,0.6,0.7,0.8,1.1C18.9,62.5,18.5,62.1,18.2,61.8z"/>
		<circle class="st1" cx="28.6" cy="64.4" r="3.4"/>
		<path class="st1" d="M41.2,61c-1.9,0-3.4,1.5-3.4,3.4c0,0.7,0.2,1.4,0.6,2c1.9-0.6,4-1.3,6.3-2.1C44.5,62.4,43.1,61,41.2,61z"/>
		<path class="st1" d="M129.7,61c-1.9,0-3.3,1.4-3.4,3.2c2.3,0.8,4.4,1.5,6.3,2.1c0.4-0.6,0.6-1.2,0.6-2
			C133.2,62.5,131.6,61,129.7,61z"/>
		<circle class="st1" cx="142.3" cy="64.4" r="3.4"/>
		<path class="st1" d="M151.8,62.9c0.4-0.4,0.6-0.7,0.8-1.1C152.4,62.1,152.1,62.5,151.8,62.9z"/>
	</g>
	<path class="st11" d="M86.1,28.1h-1.3v-5.2c0,0-7.1-3.3-16.3-7.4c-0.5,1.1-0.8,2.3-0.8,3.4v32c0,1.3,0.2,2.5,0.8,3.4
		c9.1-4,16.3-7.4,16.3-7.4v-7.6h1.3v7.6c0,0,7.1,3.3,16.3,7.4c0.5-1.1,0.8-2.3,0.8-3.4V19c0-1.3-0.2-2.5-0.8-3.4
		c-9.1,4-16.3,7.4-16.3,7.4V28.1z"/>
	<g>
		<polygon class="st11" points="69.4,38.3 45.7,34 69.4,30.5 		"/>
		<polygon class="st11" points="101.6,38.3 125.2,34 101.6,30.5 		"/>
	</g>
	<path class="st12" d="M93.4,15H77.6c-3.7,0-6.8,3.2-6.8,7.1v28c0,3.9,3,7.1,6.8,7.1h15.9c3.7,0,6.8-3.2,6.8-7.1v-28
		C100.1,18.2,97.2,15,93.4,15z"/>
</g>
</svg>
